<svg width="1254" height="1254" viewBox="0 0 1254 1254" fill="none" xmlns="http://www.w3.org/2000/svg">
<path d="M561.546 260.5C587.034 259.696 629.101 256.741 648.651 274.771C660.61 285.795 663.059 302.97 663.763 318.427C739.469 348.465 775.931 436.796 772.484 513.671C769.912 570.957 747.324 623.656 705.002 662.611C708.388 668.851 712.129 675.249 715.638 681.446C728.22 679.97 730.223 685.205 735.972 695.057C748.047 691.402 762.203 689.865 774.701 691.843C828.008 700.286 875.755 763.782 898.717 808.934C903.382 818.039 907.736 827.303 911.777 836.708C918.77 853.381 919.933 858.163 930.722 872.632C940.384 863.802 945.791 862.584 955.869 872.142C959.819 875.889 978.433 897.302 975.316 902.42C962.623 923.263 936.839 943.604 917.331 957.399C927.538 957.92 960.278 961.122 964.619 970.264C965.268 979.461 949.948 982.204 942.986 983.3C890.738 991.529 836.635 991.284 784.222 984.598C774.119 983.312 760.967 981.206 752.106 976.099C751.023 975.364 749.474 973.613 749.51 972.248C749.767 962.5 771.106 960.142 777.358 959.175C794.337 956.56 811.224 955.881 828.13 955.415C824.101 949.672 820.085 943.782 815.792 938.246C792.482 934.162 775.221 926.545 759.852 907.668C752.033 909.486 745.53 910.576 737.491 909.652C714.15 906.951 692.382 891.013 695.083 865.419C675.281 853.344 663.433 838.239 671.197 814.108C648.511 794.385 641.494 767.364 665.3 743.705C668.441 740.588 671.797 738.635 675.593 736.351C669.862 726.683 664.051 720.009 672.078 709.587C668.453 703.936 664.89 697.592 661.473 691.775C636.167 702.601 613.597 708.81 585.669 708.981C553.082 709.299 521.122 700.011 493.779 682.278C488.756 678.99 471.179 669.218 479.367 662.323C485.092 660.358 493.629 668.6 498.535 671.833C509.632 679.248 521.677 685.144 534.346 689.351C576.19 702.803 621.643 699.264 660.898 679.486C760.391 628.928 786.463 496.818 737.111 402.48C696.601 325.042 611.254 296.56 533.309 336.819C508.779 350.381 487.681 367.338 471.708 390.304C468.863 394.396 464.614 402.106 458.969 401.245C450.322 396.821 461.736 384.344 465.103 380.098C511.771 321.251 577.875 294.407 651.695 314.081C647.323 276.881 630.625 274.019 596.233 272.433C577.381 271.426 558.098 273.354 539.342 273.149C494.485 272.658 450.72 275.564 405.959 278.494C367.896 280.825 329.89 284.022 291.972 288.082C273.922 290.119 255.712 291.936 238.244 296.771C219.764 301.888 211.554 316.799 209.185 334.74C206.744 353.221 206.667 372.442 206.424 391.081C206.003 419.208 205.977 447.34 206.345 475.468C206.45 522.531 207.365 569.589 209.09 616.621C209.898 645.271 210.4 673.92 212.381 702.515C213.063 712.361 213.296 725.587 218.425 734.208C234.092 760.525 291.798 742.615 302.034 752.271C303.516 753.667 303.996 755.406 304.225 757.378C304.912 763.274 304.013 769.814 303.701 775.735C303.099 787.148 302.35 798.531 302.404 809.962C320.331 797.735 337.186 783.982 353.91 770.181C360.31 764.903 370.988 752.932 377.726 749.797C384.415 746.687 461.016 745.964 475.159 745.462C498.939 744.409 522.713 743.197 546.476 741.819C563.12 740.919 579.933 740.19 596.443 738.01C603.648 737.061 607.332 735.304 613.113 731.116C616.72 728.514 619.083 727.05 623.406 729.438C623.853 730.173 624.478 730.81 624.367 731.624C623.002 741.911 611.253 747.073 602.726 748.616C580.694 752.589 558.086 753.294 535.832 754.549C484.952 757.292 434.027 759.117 383.082 760.017C370.957 770.861 312.614 823.127 299.723 822.809C297.35 822.747 294.97 821.872 293.318 820.133C291.568 818.29 290.995 815.859 290.688 813.41C289.197 801.482 292.021 775.024 292.667 761.67C269.865 761.719 232.241 764.695 214.961 749.056C202.414 737.704 201.274 718.692 200.393 702.87C196.213 618.176 194.256 533.384 194.522 448.586C194.284 428.524 194.163 408.461 194.159 388.399C194.148 370.497 194.375 353.664 196.547 336.329C200.623 303.785 216.568 286.372 249.12 281.774C255.59 280.861 263.014 279.531 269.685 278.617C290.931 275.79 312.255 273.588 333.63 272.012C383.453 267.988 433.557 263.622 483.508 261.656C509.484 260.634 535.509 261.613 561.546 260.5Z" fill="black"/>
<path d="M752.718 701.303C812.191 695.346 864.457 765.081 888.809 812.192C893.928 822.135 898.698 832.257 903.1 842.537C905.794 848.844 908.954 857.337 912.058 863.221C914.587 868.003 920.202 875.688 923.429 880.341C897.057 906.358 871.364 933.391 837.706 950.511C832.991 944.572 827.431 935.736 822.398 930.617C820.035 928.217 810.232 927.427 806.368 926.344C790.956 922.015 780.1 914.508 768.993 903.474C773.077 900.486 774.853 898.49 777.743 894.522C788.764 894.7 793.191 893.843 802.437 887.573L804.446 885.858C804.819 885.803 805.192 885.742 805.56 885.687C811.775 890.199 818.32 895.594 825.784 897.878C828.001 898.551 829.085 898.214 830.897 897.192C832.379 895.367 832.305 895.526 832.722 893.212C832.403 892.275 831.993 890.726 830.971 890.285C805.076 879.153 790.62 852.543 784.521 826.097C779.91 806.081 783.162 804.195 762.245 795.764C745.144 788.753 711.498 776.243 712.949 752.945C714.351 730.375 741.85 735.127 755.902 739.009C776.12 744.593 792.732 750.906 811.12 760.917C816.906 764.064 827.774 773.384 833.34 773.843C835.734 772.882 834.718 773.598 836.42 771.498C836.64 770.169 836.94 768.185 835.936 767.151C818.002 748.592 778.263 734.16 755.216 728.667C750.979 720.566 745.401 711.351 740.803 703.318C744.923 702.369 748.536 701.891 752.718 701.303Z" fill="#E1E1E1"/>
<path d="M680.044 744.531C683.093 748.444 688.732 758.278 691.543 762.919C690.765 764.382 690.318 765.417 689.669 766.929C689.951 768.485 690.043 769.397 691.506 770.45C704.083 779.586 726.046 787.172 726.903 805.59C727.442 817.102 719.078 819.82 709.128 819.808C708.461 819.728 707.806 819.643 707.144 819.551C669.512 814.267 639.179 772.403 680.044 744.531Z" fill="#E1E1E1"/>
<path d="M679.603 820.004C695.658 828.092 710.935 834.724 727.975 825.233C741.219 830.493 760.207 840.302 748.959 857.563C727.155 874.879 672.782 855.616 679.603 820.004Z" fill="#E1E1E1"/>
<path d="M754.696 865.713C760.47 866.968 768.142 871.138 770.573 876.747C772.03 880.169 772.042 884.033 770.61 887.462C763.819 903.682 736.994 901.08 723.725 895.587C711.632 889.299 706.115 883.323 704.205 869.503C721.919 874.708 738.868 877.31 754.696 865.713Z" fill="#E1E1E1"/>
<path d="M697.005 669.715C699.331 671.699 706.465 685.096 708.357 688.494C701.591 697.091 691.818 702.822 681.703 706.625C679.48 703.869 672.194 691.084 670.069 687.472C680.185 682.145 688.145 676.744 697.005 669.715Z" fill="#E1E1E1"/>
<path d="M915.634 390.285C936.611 386.713 977.134 395.322 996.029 403.64C1065.28 434.132 1091.08 494.432 1060.22 564.494C1090.69 590.096 1057.71 654.229 1014 640.164C999.905 668.912 985.486 684.526 955.96 697.029C951.307 698.713 946.561 700.115 941.743 701.242C911.348 708.467 874.867 703.96 848.409 687.336C782.617 645.994 803.239 557.896 828.031 498.513C832.667 487.408 837.608 476.407 843.878 466.252C817.898 443.33 839.267 415.951 862.896 403.661C879.869 394.833 896.885 392.073 915.634 390.285Z" fill="black"/>
<path d="M973.026 454.316L974 454.675C973.859 459.729 973.253 464.094 973.443 469.295C974.496 498.1 986.307 527.238 1012.47 541.394C1011.52 547.602 1008.96 570.025 1014.2 574.695C1019.67 579.569 1033.01 568.564 1040.36 569.054C1044.94 568.626 1051.68 570.275 1055.14 573.791C1074.77 593.714 1047.46 638.604 1020.69 630.931C1018.62 630.338 1011.72 628.378 1010.28 629.254C1006.33 631.66 1002.44 641.145 1000.18 645.241C996.673 651.48 992.54 657.352 987.85 662.759C968.262 685.157 944.689 691.801 916.198 693.576C898.031 694.176 876.888 690.147 860.723 681.753C781.748 640.734 821.413 527.687 853.878 468.2C886.667 474.916 941.664 466.25 973.026 454.316Z" fill="#E1E1E1"/>
<path d="M892.11 514.111C894.271 514.285 894.192 514.159 895.98 515.318C902.048 524.015 869.222 572.458 869.277 585.195C872.669 591.977 898.245 586.648 896.243 596.398C894.418 598.633 894.29 598.672 891.706 600.066C887.395 600.195 883.776 600.016 879.754 599.52C851.214 595.981 856.896 583.834 866.491 563.624C873.686 548.477 881.248 532.531 889.006 517.578C889.63 516.375 891.093 515.024 892.11 514.111Z" fill="black"/>
<path d="M918.083 619.004C939.728 620.608 896.114 664.578 866.233 634.489C863.594 631.152 860.888 626.535 863.398 622.439C870.985 618.961 876.036 636.693 890.168 634.887C904.759 633.013 908.666 628.746 918.083 619.004Z" fill="black"/>
<path d="M939.942 535.551C953.474 536.208 944.376 559.754 938.761 564.756C924.451 564.794 933.972 540.278 939.942 535.551Z" fill="black"/>
<path d="M857.435 514.899C871.346 513.859 862.125 538.514 856.528 543.178C842.672 543.529 851.765 519.668 857.435 514.899Z" fill="black"/>
<path d="M622.475 464.471C633.857 463.94 649.245 462.65 658.178 470.624C663.499 475.373 666.879 482.616 667.277 489.715C667.663 496.855 665.128 503.846 660.266 509.085C654.964 514.83 649.747 516.874 642.307 517.875C629.326 519.62 615.372 520.044 602.226 520.8L532.209 524.763L325.286 535.651C307.105 536.733 282.578 537.677 280.499 512.729C279.856 504.998 282.428 497.344 287.608 491.568C296.99 481.04 312.099 482.3 324.994 481.179C331.897 480.578 339.066 480.301 345.999 479.898C373.613 478.27 401.237 476.825 428.869 475.565C493.487 472.337 558.059 467.333 622.475 464.471Z" fill="#E1E1E1"/>
<path d="M437.486 481.424C448.951 480.567 452.505 488.631 448.527 497.873C447.644 499.924 450.894 503.348 452.167 505.194C457.233 512.539 451.276 518.409 444.843 521.834C441.08 522.976 429.623 525.365 428.412 519.87C426.968 513.315 425.102 491.122 427.513 485.297C430.607 482.188 433.175 482.176 437.486 481.424Z" fill="black"/>
<path d="M436.441 506.502C439.928 506.215 443.654 505.689 445.078 509.641C444.716 511.892 444.11 512.212 442.503 513.827C440.541 514.416 439.227 515.088 437.32 514.507C434.678 512.223 434.07 509.34 436.441 506.502Z" fill="#E1E1E1"/>
<path d="M435.374 489.38C438.529 489.262 440.027 488.709 441.744 491.587C441.559 493.796 440.981 494.208 439.605 495.939C437.977 496.967 438.052 496.994 436.205 497.445C433.541 495.688 434.129 491.897 435.374 489.38Z" fill="#E1E1E1"/>
<path d="M535.442 477.623C548.243 480.015 547.136 491.371 549.178 502.161C549.942 506.201 552.31 514.678 546.556 514.998C545.149 514.155 544.882 513.978 543.758 512.854L542.879 511.967C541.379 513.189 539.894 514.431 538.427 515.693C516.481 524.726 515.538 485.497 535.442 477.623Z" fill="black"/>
<path d="M534.976 486.348C540.006 487.533 539.37 498.103 539.534 502.173C537.697 505.394 537.224 506.396 534.495 509.087C524.954 506.957 531.031 491.308 534.976 486.348Z" fill="#E1E1E1"/>
<path d="M382.046 485.197C383.596 485.771 384.107 486.152 385.51 487.002C388.051 490.601 392.115 540.545 375.154 518.166C372.451 514.6 369.762 509.974 367.4 506.128C367.146 513.467 370.635 524.163 362.132 526.531C361.561 525.995 359.679 524.167 359.621 523.455C359.066 516.753 355.824 489.734 363.881 488.322C369.623 490.173 375.517 502.328 378.765 507.854C378.549 500.806 376.833 490.273 382.046 485.197Z" fill="black"/>
<path d="M637.906 471.16C646.833 472.622 643.19 483.203 643.704 490.519C644.078 495.821 645.327 508.142 638.977 509.553C633.044 507.988 627.962 497.948 624.618 492.59C624.459 497.796 625.825 505.619 623.669 509.943C622.873 511.542 620.938 511.788 619.328 512.253C616.224 509.019 616.107 507.01 616.371 502.565C616.805 495.349 614.173 479.865 619.193 474.596C625.586 472.611 632.45 488.343 635.285 493.132C634.985 486.007 633.423 476.313 637.906 471.16Z" fill="black"/>
<path d="M595.384 473.765C605.673 473.467 607.424 491.082 610.227 498.599C611.503 502.021 612.115 507.587 610.754 511.053C609.315 512.524 609.271 512.333 607.185 512.686C602.114 510.766 604.554 506.753 601.535 503.484L599.817 503.58L591.468 504.534C590.667 508.684 590.73 512.496 586.463 513.998C584.017 513.603 585.007 514.132 583.312 512.509C580.508 505.269 588.017 478.374 595.384 473.765Z" fill="black"/>
<path d="M596.529 485.314C598.527 487.169 600.732 493.652 597.941 496.092C595.121 495.512 595.47 496.069 594.218 494.322C593.821 491.473 595.467 488.177 596.529 485.314Z" fill="#E1E1E1"/>
<path d="M406.053 483.549C407.755 483.71 409.449 483.841 410.821 485.077C416.35 490.055 424.944 516.114 420.435 521.789C418.485 522.597 418.636 522.603 416.562 522.258C414.599 520.713 413.985 517.166 412.285 514.132C410.314 512.957 410.553 513.43 407.639 513.8L402.303 514.527C401.543 518.185 399.815 524.705 395.006 524.3C391.794 520.444 393.695 511.444 395.031 506.927C397.549 498.408 397.881 488.559 406.053 483.549Z" fill="black"/>
<path d="M406.966 495.246C408.778 497.325 410.15 501.906 409.89 504.701L408.461 505.462L405.234 505.454L404.448 504.448C404.05 501.598 405.85 498.117 406.966 495.246Z" fill="#E1E1E1"/>
<path d="M309.74 488.422C316.52 491.057 314.826 497.279 314.714 503.657C317.654 500.481 331.05 482.405 333.962 492.892C333.028 497.952 326.283 503.954 322.564 507.888C327.379 512.421 332.421 516.475 336.655 521.521C336.681 523.702 335.992 525.303 334.357 526.734C327.275 528.062 321.84 516.824 316.471 515.576C314.034 518.317 318.289 528.913 311.536 530.015C307.347 528.626 306.357 524.256 306.6 520.268C307.101 512.048 303.286 494.076 309.74 488.422Z" fill="black"/>
<path d="M493.581 479.281C500.144 482.08 498.636 486.603 498.501 492.96C500.888 490.546 509.829 480.773 511.702 480.833C524.456 481.244 506.961 496.807 505.464 498.329C510.15 502.546 515.871 507.323 519.379 512.457C514.745 523.558 504.513 509.243 499.312 504.476C499.241 508.598 500.045 513.207 498.554 517.144C497.337 520.357 492.264 519.236 491.759 517.285C489.229 507.516 490.317 495.816 490.354 485.704C490.366 482.329 491.171 481.303 493.581 479.281Z" fill="black"/>
<path d="M477.711 481.697C480.368 481.952 482.449 482.171 483.406 486.323C486.194 498.43 482.443 528.789 463.686 517.897C458.813 515.067 457.517 505.177 457.169 498.945C457.176 494.079 455.817 484.033 461.953 483.23C470.681 486.242 460.026 510.59 471.225 511.408C477.307 508.331 474.42 490.092 475.608 484.31C476.452 483.26 477.154 482.389 477.711 481.697Z" fill="black"/>
<path d="M565.97 475.266C570.381 475.525 576.566 477.564 575.68 483.099C571.275 485.784 566.454 481.943 563.23 487.081C563.262 487.673 563.295 488.265 563.327 488.857C568.919 492.771 575.777 495.843 578.103 502.804C580.702 510.584 571.503 514.355 565.504 515.724C562.317 515.522 559.351 515 556.747 513.092C554.008 511.086 553.537 507.908 556.394 505.815C560.818 505.004 565.103 508.162 568.37 505.81C569.802 498.679 555.907 498.118 554.535 491.857C552.71 483.53 558.926 477.398 565.97 475.266Z" fill="black"/>
<path d="M344.917 488.402C349.974 489.619 351.007 493.857 350.78 498.594C350.421 506.076 353.77 521.111 348.722 526.748C342.13 526.099 341.599 520.978 341.861 514.835C342.189 507.132 339.507 494.149 344.917 488.402Z" fill="black"/>
<path d="M546.769 532.984C563.403 533.081 578.785 537.667 580.323 557.271C580.856 564.965 578.297 572.554 573.214 578.354C563.013 589.806 542.949 588.276 528.668 589.113C509.807 590.229 490.938 591.208 472.063 592.05L314.571 600.321C297.792 600.276 282.942 596.561 281.251 575.788C280.13 562.008 291.154 548.91 304.793 546.873C315.867 545.218 327.282 544.632 338.719 543.911C359.236 542.582 379.766 541.448 400.304 540.508L483.107 536.306C504.793 535.094 524.944 533.569 546.769 532.984Z" fill="#E1E1E1"/>
<path d="M328.732 551.953C331.246 552.169 334.564 552.774 334.492 556.041C334.334 563.204 339.511 589.551 329.646 590.912C323.421 588.702 318.136 577.999 314.551 572.118C314.332 577.989 315.464 583.942 314.385 589.562C313.911 592.028 312.328 592.562 310.482 593.606C303.177 589.868 306.56 580.064 306.029 572.608C305.663 567.452 304.618 555.399 311.33 554.9C317.298 557.253 323.095 569.52 326.505 575.431C326.526 568.113 324.807 557.704 328.732 551.953Z" fill="black"/>
<path d="M440.262 545.432C449.069 546.185 450.64 557.525 453.15 564.589C454.696 568.945 460.502 586.586 450.705 584.493C448.747 582.665 448.098 579.207 446.85 576.278C445.249 575.173 446.186 575.495 443.779 575.871L436.176 576.611C434.861 581.517 434.682 583.763 430.094 586.716L428.264 586.053C424.838 578.807 431.792 559.178 434.635 551.478C435.744 548.475 437.592 547.022 440.262 545.432Z" fill="black"/>
<path d="M441.045 557.592C443.008 559.33 444.032 563.995 444.245 566.609L443.142 567.856L439.803 567.613L438.886 566.541C438.444 563.787 440.055 560.399 441.045 557.592Z" fill="#E1E1E1"/>
<path d="M507.175 542.447C518.049 541.56 519.336 559.015 522.305 566.368C526.899 577.737 519.198 589.833 514.158 572.493C513.934 571.723 511.875 571.935 511.146 571.907C508.781 572.265 506.142 572.461 503.739 572.696C502.742 577.373 502.101 580.8 497.201 582.946L495.586 582.093C492.386 576.178 499.142 555.454 501.638 549.005C502.879 545.798 504.448 544.409 507.175 542.447Z" fill="black"/>
<path d="M508.508 553.881C510.746 556.007 511.744 559.82 511.613 562.866L510.035 564.11L506.935 563.845L506.27 562.909C505.898 560.101 507.502 556.714 508.508 553.881Z" fill="#E1E1E1"/>
<path d="M355.486 549.938C358.085 550.097 361.323 550.85 363.177 552.814C364.532 554.229 365.245 556.14 365.15 558.096C365.086 559.301 365.052 558.937 364 559.894C361.616 560.301 359.876 559.839 357.722 559.099C348.17 555.816 345.083 582.596 354.808 581.906C357.909 581.686 359.633 578.877 359.266 575.976C356.265 575.038 353.003 575.246 352.474 571.978C354.909 565.594 362.082 566.568 367.974 567.079L368.794 567.157C370.156 568.942 370.716 569.502 370.655 571.654C366.753 576.737 366.606 589.175 358.765 590.468C335.725 594.265 333.372 556.232 355.486 549.938Z" fill="black"/>
<path d="M482.409 543.982C484.625 544.481 484.623 544.376 486.522 545.816C488.56 549.409 489.54 573.039 488.527 578.442C488.154 580.427 487.314 581.769 485.54 582.851C483.416 582.913 484.4 583.135 482.491 582.098C479.663 578.248 480.229 573.739 480.052 568.759L470.244 570.274C470.313 576.401 472.478 580.088 467.305 584.625C466.446 584.423 464.093 583.82 463.67 582.796C460.073 572.828 461.558 559.528 461.856 548.96C461.93 546.32 465.208 545.056 467.838 546.442C470.333 550.204 469.806 556.604 469.857 561.333L479.517 560.098C479.345 553.662 478.19 548.558 482.409 543.982Z" fill="black"/>
<path d="M537.9 540.971C543.346 540.412 548.511 538.99 552.714 543.234C554.298 548.912 545.904 549.166 542.18 549.516C542.483 557.884 543.606 567.447 542.806 575.713C542.565 578.209 541.186 579.182 539.236 580.472L536.397 579.084C532.73 574.631 533.825 557.1 533.859 550.434L533.185 550.47C529.198 550.659 525.638 550.713 522.561 547.914C521.961 541.906 534.029 541.32 537.9 540.971Z" fill="black"/>
<path d="M400.531 548.416C408.58 548.263 406.839 557.859 406.756 563.615C406.684 568.599 406.553 573.448 406.579 578.444C411.086 577.887 421.295 575.54 422.955 580.991C422.325 583.576 422.348 583.435 420.587 585.471C415.434 586.796 405.294 588.696 400.5 586.123C396.366 581.035 397.027 553.603 400.531 548.416Z" fill="black"/>
<path d="M556.677 569.885C559.251 569.705 561.528 571.541 561.897 574.095C562.265 576.649 560.6 579.054 558.08 579.608C556.277 580.004 554.404 579.359 553.228 577.938C552.052 576.515 551.769 574.555 552.496 572.859C553.222 571.163 554.836 570.014 556.677 569.885Z" fill="black"/>
<path d="M538.453 462.477L537.949 460.153L537.369 459.817C528.591 462.64 509.617 462.855 499.652 463.303L454.641 465.347L320.568 472.436C309.062 472.968 296.318 473.877 287.22 465.315C276.793 455.503 276.818 436.409 287.297 426.624C291.596 422.673 296.93 420.024 302.675 418.986C308.921 417.829 319.623 417.493 326.168 417.121L369.657 414.731C421.307 411.695 474.251 409.621 526.039 408.022C535.686 407.724 545.252 410.409 551.905 417.798C560.908 427.798 561.629 443.895 550.838 453.025C548.619 458.22 545.695 466.595 538.453 462.477Z" fill="#E1E1E1"/>
<path d="M538.453 462.477C538.647 459.87 540.046 457.341 540.514 454.662C541.239 450.517 541.27 446.259 545.769 444.678C550.711 445.468 550.599 449.001 550.838 453.025C548.619 458.22 545.695 466.595 538.453 462.477Z" fill="black"/>
<path d="M315.381 423.882C322.986 423.811 331.188 426.344 329.313 435.362C328.992 436.906 327.473 442.229 327.789 442.755C330.153 446.694 334.553 450.469 333.253 455.79C332.288 459.625 327.717 463.194 324.275 465.099C306.163 471.187 304.996 463.802 305.165 448.068C305.31 434.499 299.893 426.955 315.381 423.882Z" fill="black"/>
<path d="M315.321 449.709C318.798 449.284 323.437 448.725 324.408 452.98C323.875 455.141 323.15 455.554 321.55 457.098C319.868 457.779 318.748 458.011 317.01 458.429C314.658 457.737 315.689 458.341 313.962 456.315C313.327 453.903 313.306 451.321 315.321 449.709Z" fill="#E1E1E1"/>
<path d="M314.167 431.763C317.322 431.534 319.595 431.236 321.15 434.352C320.976 436.515 320.137 437.209 318.794 438.933C317.117 439.863 316.447 440.454 314.535 440.374C312.082 438.094 312.463 434.375 314.167 431.763Z" fill="#E1E1E1"/>
<path d="M497.234 416.822C505.912 417.769 505.362 429.716 506.792 436.727C507.785 441.593 509.619 452.421 504.914 455.376C498.105 454.784 498.202 439.069 497.347 433.251C495.461 437.796 493.084 445.335 487.914 446.88C484.273 445.569 482.859 440.807 480.979 436.962L480.132 436.582C479.475 440.844 480.21 461.674 472.202 456.011C469.315 450.893 471.03 441.674 471.733 435.853C472.409 430.263 472.795 419.594 479.78 418.982C484.412 420.893 486.503 428.084 488.605 432.908C490.849 427.399 492.913 420.675 497.234 416.822Z" fill="black"/>
<path d="M346.587 425.546C348.071 425.518 349.674 425.486 351.125 425.804C354.94 426.642 358.274 428.943 360.408 432.214C366.948 442.273 363.273 456.551 352.881 462.707C333.499 467.46 330.305 435.654 346.587 425.546Z" fill="black"/>
<path d="M348.5 433.721C357.755 436.397 355.502 448.27 350.918 454.417C340.813 455.456 344.905 438.735 348.5 433.721Z" fill="#E1E1E1"/>
<path d="M521.977 417.045C539.856 414.755 545.035 444.096 527.301 453.959C508.877 458.456 505.669 426.307 521.977 417.045Z" fill="black"/>
<path d="M523.814 425.146C532.666 428.538 530.478 439.773 525.624 445.91C515.881 445.632 519.909 430.354 523.814 425.146Z" fill="#E1E1E1"/>
<path d="M410.691 420.896C413.947 420.498 416.924 420.388 419.131 423.246C419.764 429.669 408.767 429.802 404.501 430.21C404.329 432.406 404.278 432.983 404.445 435.148C407.42 438.76 408.381 435.634 413.989 436.283C416.508 437.562 417.631 439.821 416.459 442.462C412.525 445.383 401.34 443.416 404.454 451.947C406.426 452.711 412.452 451.467 415.042 451.08C417.124 451.208 418.753 452.082 419.865 453.847C419.26 461.259 403.518 462.988 399.368 460.051C394.574 455.419 395.328 445.071 395.526 439.323C396.076 423.414 395.176 422.616 410.691 420.896Z" fill="black"/>
<path d="M433.854 419.506C438.675 418.95 445.56 420.015 445.716 426.149C442.588 429.506 436.909 425.917 433.435 430.724C433.442 431.376 433.45 432.028 433.457 432.681C439.175 436.923 446.553 440.437 448.304 448.008C449.981 455.256 440.404 458.88 434.883 459.825C430.394 459.093 420.548 455.363 425.493 449.388C430.56 447.746 434.635 452.759 438.533 449.132C437.813 444.099 428.582 441.684 425.841 436.394C421.711 428.422 426.968 423.214 433.854 419.506Z" fill="black"/>
<path d="M376.723 422.593C381.582 421.756 388.433 422.693 388.151 428.984C385.134 433.959 380.958 429.202 376.92 431.868C373.891 439.702 390.714 440.864 391.458 449.431C392.178 457.734 384.389 461.491 378.092 462.662C375.328 462.304 372.448 461.8 370.198 460.085C367.981 458.395 366.318 454.368 368.788 452.248C371.614 451.679 375.838 453.126 379.027 453.783C381.365 453.061 380.497 453.718 381.903 452.017C381.277 447.194 371.054 444.288 368.199 438.571C364.456 431.08 369.818 425.746 376.723 422.593Z" fill="black"/>
<path d="M598.55 334.575C605.393 334.224 612.254 334.484 619.052 335.352C711.13 346.542 754.622 448.606 743.521 531.489C737.46 576.754 714.394 620.846 677.846 648.755C645.993 673.369 605.616 684.207 565.723 678.843C558.858 677.882 527.403 673.29 529.169 662.936C532.205 658.405 539.59 661.117 543.679 662.648C553.288 666.254 562.367 667.779 572.667 668.691C590.462 670.357 608.411 668.526 625.506 663.303C670.014 651.161 699.484 598.483 710.157 555.799C729.108 479.997 701.052 371.766 615.654 351.413C580.355 343 545.049 355.94 518.103 378.82C512.411 383.651 506.435 391.014 500.296 395.514C492.941 398.823 491.47 390.949 496.831 384.784C522.792 355.292 559.35 337.246 598.55 334.575Z" fill="black"/>
<path d="M699.656 403.969C706.202 409.754 710.194 424.468 717.976 430.863C722.942 434.945 728.33 455.623 729.922 462.833C739.983 508.337 734.643 555.817 709.349 595.603C707.206 599.287 706.606 600.281 703.759 603.554C707.537 595.658 710.91 587.577 713.874 579.341C730.235 533.824 729.965 478.942 713.537 433.438C709.306 421.71 704.781 414.818 699.656 403.969Z" fill="#E1E1E1"/>
<path d="M424.641 328.46C429.79 328.325 453.141 325.083 447.944 336.014C446.352 337.307 445.016 338.193 442.904 338.344C429.152 339.322 415.282 339.475 401.502 340.17L319.188 344.854C313.095 345.338 295.608 348.719 294.443 341.418C295.231 338.91 296.176 336.789 299.135 336.406C312.587 334.663 326.472 333.976 340.007 333.108C368.203 331.278 396.415 329.728 424.641 328.46Z" fill="black"/>
<path d="M386.304 697.147C392.248 696.816 404.777 694.661 407.793 700.392C407.969 703.821 405.069 706.943 401.769 707.145C389.746 707.862 377.672 708.333 365.633 708.872L278.139 712.644C272.255 712.754 259.099 715.54 256.473 709.142C256.989 705.67 258.923 703.251 262.573 703.019C276.489 702.131 290.468 701.524 304.396 700.882L386.304 697.147Z" fill="black"/>
<path d="M419.771 370.094C424.077 369.864 436.106 369.584 433.534 377.296C431.893 378.895 429.971 379.856 427.654 380.014C388.608 382.684 348.974 383.893 309.975 386.802C304.683 387.221 298.682 388.497 295.628 383C295.508 379.297 298.498 377.476 301.912 377.109C313.535 375.861 325.353 375.274 337.034 374.554C364.597 372.783 392.177 371.296 419.771 370.094Z" fill="black"/>
<path d="M300.575 620.424C315.454 620.614 314.733 627.178 311.983 637.648C310.855 641.946 328.001 649.931 308.358 661.577C288.461 668.22 290.272 656.648 289.7 641.512C289.205 628.402 287.022 623.338 300.575 620.424Z" fill="black"/>
<path d="M298.812 646.257C302.485 645.822 307.156 644.953 308.632 649.239C308.119 651.468 307.65 651.7 306.039 653.286C303.852 654.094 301.217 654.841 298.959 655.539C298.7 652.411 298.223 649.306 298.812 646.257Z" fill="#E1E1E1"/>
<path d="M299.51 628.176C302.721 628.292 304.496 628.255 305.306 631.476C304.645 633.876 303.871 634.299 302.015 636.13C299.441 637.226 300.587 637.293 298.443 636.711C296.644 633.889 297.097 630.386 299.51 628.176Z" fill="#E1E1E1"/>
<path d="M379.027 617.668C388.123 618.256 387.029 633.98 388.785 640.782C389.815 644.769 390.675 653.806 386.648 656.335C379.447 656.151 379.872 640.519 378.652 634.206C373.405 646.673 370.131 654.174 362.301 637.978L361.484 637.825C361.078 643.011 360.519 650.445 359.298 655.717C358.937 657.278 357.766 657.529 356.589 657.976C354.516 657.658 354.379 657.805 352.82 656.341C350.959 652.484 352.596 641.223 352.994 636.429C353.431 631.169 353.667 624.128 357.741 620.478C364.493 618.874 367.58 628.965 369.792 634.01C372.244 628.077 374.099 621.562 379.027 617.668Z" fill="black"/>
<path d="M404.936 617.748C424.483 620.497 424.884 647.996 408.225 655.197C388.095 655.362 388.791 625.347 404.936 617.748Z" fill="black"/>
<path d="M405.535 626.621C414.241 627.803 412.206 641.084 407.288 646.692C398.072 647.041 401.82 631.556 405.535 626.621Z" fill="#E1E1E1"/>
<path d="M456.199 615.422C475.686 613.193 478.744 641.788 463.122 651.248C443.154 655.375 441.427 625.568 456.199 615.422Z" fill="black"/>
<path d="M458.695 623.645C466.983 624.63 465.955 637.764 460.386 643.183C451.124 643.753 455.119 628.5 458.695 623.645Z" fill="#E1E1E1"/>
<path d="M588.697 606.793C607.179 606.485 609.919 635.56 593.522 643.483C591.538 643.771 590.175 644.016 588.173 643.557C584.981 642.847 582.228 640.838 580.575 638.015C574.78 628.292 578.602 612.666 588.697 606.793Z" fill="black"/>
<path d="M590.472 614.975C598.559 619.187 596.81 629.094 591.892 635.199C582.669 634.568 586.25 620.081 590.472 614.975Z" fill="#E1E1E1"/>
<path d="M532.86 608.636C543.596 607.464 544.877 622.236 547.548 629.927C548.971 634.023 550.192 640.875 548.783 644.916C548.243 646.465 546.732 646.465 545.403 646.747C540.424 644.922 542.908 641.334 539.672 637.678L537.487 637.807L529.986 638.67C529.105 643.183 528.412 646.698 523.942 649.049L522.218 648.381C517.915 641.946 526.935 613.964 532.86 608.636Z" fill="black"/>
<path d="M534.865 620.088C536.75 621.98 537.818 626.444 537.773 629.113L536.367 630.038C533.665 629.946 533.955 630.424 532.609 629.003C532.197 626.223 533.835 622.898 534.865 620.088Z" fill="#E1E1E1"/>
<path d="M791.441 288.981C795.286 288.556 800.65 290.503 799.137 295.041C796.265 303.65 785.746 311.156 779.439 317.687C775.129 322.154 768.277 329.026 763.575 332.25C760.642 332.836 757.996 331.914 756.264 329.536C754.819 321.311 784.699 293.535 791.441 288.981Z" fill="black"/>
<path d="M741.041 246.123C752.412 246.125 748.579 256.612 745.597 263.263C742.033 271.195 735.304 296.246 729.426 300.895C718.141 302.205 722.587 288.866 725.079 283.117C728.893 274.32 734.355 251.607 741.041 246.123Z" fill="black"/>
<path d="M341.011 621.232C344.081 622.114 346.074 623.339 346.311 626.878C346.93 636.118 347.857 646.661 342.109 654.579C338.263 659.881 331.185 661.712 326.158 656.893C320.801 651.682 320.474 643.686 320.287 636.656C320.435 631.17 319.078 624 325.48 622.935C332.71 626.198 325.45 643.545 331.636 650.145C333.999 650.984 332.885 651.027 335.092 650.225C341.854 641.843 334.335 627.411 341.011 621.232Z" fill="black"/>
<path d="M572.522 605.242C574.8 605.646 575.706 606.218 576.969 608.108C577.926 611.648 567.861 638.456 566.304 643.704C565.872 645.155 564.093 645.883 562.714 646.343C560.01 645.993 561.084 646.557 559.253 644.842C557.832 640.391 560.096 635.437 561.524 630.808C561.128 625.561 547.155 617.246 550.269 609.654C551.906 608.298 551.753 608.308 553.847 608.052C557.66 609.094 562.166 616.456 564.822 619.971C566.842 614.441 568.084 609.093 572.522 605.242Z" fill="black"/>
<path d="M813.869 354.647C824.174 353.762 824.933 363.451 818.265 366.329C810.122 369.841 796.963 371.646 788.201 373.328C783.939 373.868 781.221 372.836 779.812 368.482C780.186 360.073 806.307 356.407 813.869 354.647Z" fill="black"/>
<path d="M510.396 610.104C514.431 609.468 519.774 608.819 521.544 613.266C520.544 618.55 514.843 618.63 510.575 619.205C510.58 626.045 511.68 632.884 511.816 639.687C511.924 645.069 511.932 649.655 505.508 649.331C500.917 644.438 502.421 626.951 502.495 619.683C500.565 619.891 496.091 620.509 494.107 619.744C490.158 618.213 490.658 613.566 495.024 612.127C499.467 610.665 505.53 610.492 510.396 610.104Z" fill="black"/>
<path d="M432.761 615C438.125 614.51 442.199 613.297 446.44 617.283C448.36 622.8 440.851 623.284 437.184 623.67C437.134 631.495 438.231 638.665 438.234 646.374C438.236 650.697 437.639 651.462 434.695 654.138C430.727 653.066 429.501 651.279 429.238 647.139C428.766 639.7 428.998 632.12 428.617 624.649C424.465 624.625 421.271 624.858 418.286 621.502C418.154 615.881 428.947 615.342 432.761 615Z" fill="black"/>
<path d="M1099.44 383.14C1102.14 383.111 1102.03 383.035 1104.46 384.135C1106.02 386.134 1105.56 385.024 1105.79 387.622C1103.23 394.668 1084.89 406.665 1077.91 411.518C1075.5 411.814 1074.17 411.776 1072.28 410.261C1069.78 404.036 1079.87 397.99 1084.15 394.475C1088.89 390.58 1094.34 386.557 1099.44 383.14Z" fill="black"/>
<path d="M1064.38 353.228C1066.65 353.104 1066.78 352.942 1068.91 353.892C1070.06 355.287 1070.66 355.701 1070.6 357.801C1070.44 363.481 1057.19 388.083 1054 391.092C1051.69 391.219 1051.45 391.454 1049.51 390.202C1048.59 388.691 1047.98 387.925 1048.33 385.891C1049.45 379.434 1060.33 356.858 1064.38 353.228Z" fill="black"/>
<path d="M1105.35 427.572C1107.95 427.122 1109.72 426.911 1112.15 427.721C1113.98 429.249 1114.13 429.182 1115.11 431.447C1114.33 437.751 1099.92 438.455 1094.56 439.244C1090.55 439.979 1083.57 440.384 1084.63 434.141C1088.02 429.599 1099.53 428.574 1105.35 427.572Z" fill="black"/>
<path d="M614.692 597.898C618.066 599.07 619.732 599.83 619.842 603.974C620.013 610.448 620.552 624.588 615.972 629.144C607.533 628.721 610.918 613.622 610.872 607.933C610.84 604.1 611.672 600.444 614.692 597.898Z" fill="black"/>
<path d="M258.831 637.372C262.783 636.411 266.766 638.836 267.726 642.791C268.685 646.741 266.257 650.721 262.303 651.682C258.354 652.637 254.378 650.206 253.419 646.263C252.461 642.314 254.883 638.334 258.831 637.372Z" fill="black"/>
<path d="M256.619 568.663C260.537 567.594 264.579 569.907 265.645 573.826C266.709 577.745 264.393 581.785 260.473 582.846C256.558 583.906 252.525 581.594 251.461 577.68C250.398 573.766 252.706 569.73 256.619 568.663Z" fill="black"/>
<path d="M266.213 379.258C270.583 378.81 276.011 378.034 276.899 383.864C275.591 388.833 271.962 388.741 267.658 389.049C263.332 389.672 258.523 390.22 257.555 384.588C258.675 379.737 262.002 379.577 266.213 379.258Z" fill="black"/>
<path d="M254.49 503.08C256.986 502.225 259.749 502.782 261.72 504.536C263.69 506.29 264.563 508.97 264.004 511.548C263.444 514.127 261.54 516.204 259.019 516.984C255.202 518.165 251.143 516.063 249.905 512.264C248.666 508.464 250.709 504.374 254.49 503.08Z" fill="black"/>
<path d="M253.205 436.967C257.041 435.765 261.126 437.888 262.346 441.718C263.566 445.548 261.462 449.643 257.638 450.882C253.789 452.129 249.659 450.007 248.431 446.152C247.202 442.296 249.343 438.177 253.205 436.967Z" fill="black"/>
<path d="M263.313 338.146C268.34 337.926 273.222 337.056 276.363 342.022C276.805 345.845 274.075 346.924 270.726 347.701C265.72 348.317 259.445 349.511 256.466 344.17C256.5 340.292 259.949 338.949 263.313 338.146Z" fill="black"/>
<path d="M612.335 635.322C613.897 634.575 615.734 634.734 617.148 635.732C618.556 636.73 619.316 638.414 619.132 640.135C618.948 641.855 617.846 643.337 616.254 644.017C613.872 645.033 611.109 643.949 610.042 641.586C608.976 639.222 609.993 636.443 612.335 635.322Z" fill="black"/>
</svg>
