<svg width="938" height="1132" viewBox="0 0 938 1132" fill="none" xmlns="http://www.w3.org/2000/svg">
<path d="M156.732 479.934C155.401 483.193 154.069 486.452 152.738 489.711C168.812 497.458 184.651 506.6 199.377 516.676C230.105 537.108 265.288 572.63 246.039 596.898C220.891 630.342 179.108 657.834 144.509 693.268C135.69 702.34 126.959 711.933 119.213 724.132C112.119 735.891 102.573 753.57 109.647 776.397C117.773 798.762 135.023 807.643 147.88 813.942C161.681 820.175 173.719 823.48 187.035 826.515C368.763 873.784 544.581 965.83 692.947 1077.53C706.704 1088.2 720.253 1099.26 733.161 1110.49C755.917 1081.61 778.674 1052.72 801.43 1023.84C785.714 1012.52 769.59 1001.63 753.454 991.324C580.218 884.639 395.567 808.46 196.366 775.052C185.247 773.561 175.529 771.69 166.814 768.672C158.111 765.837 153.06 761.413 152.783 760.892C152.361 760.512 151.794 759.321 152.219 756.396C152.634 753.506 154.012 749.594 156.121 745.418C160.293 737.119 166.755 728.221 173.782 719.601C202.15 684.075 240.353 655.616 268.792 610.377C283.057 587.425 272.555 556.76 257.696 541.651C242.981 525.071 225.404 513.599 207.575 503.464C191.141 494.302 174.335 486.53 156.732 479.934Z" fill="#34FA4B"/>
<path d="M899.775 328.71C896.447 327.562 893.119 326.414 889.791 325.266C883.019 342.123 875.862 358.952 868.383 375.63C860.176 393.833 851.641 411.923 842.088 428.982C837.31 437.392 832.192 445.904 826.763 451.882C825.608 453.145 824.07 454.382 823.94 454.27C823.962 454.229 824.014 454.137 824.497 453.919C824.952 453.719 825.746 453.466 826.828 453.423C828.006 453.366 829.485 453.651 830.634 454.197C831.766 454.73 832.37 455.247 832.817 455.667C833.031 455.872 833.18 456.04 833.281 456.156C833.36 456.241 833.41 456.295 833.442 456.321C833.505 456.371 833.49 456.299 833.439 456.106C833.32 455.675 833.204 455.16 833.041 454.321C832.696 452.493 832.548 450.933 832.361 448.475C832.011 406.639 848.487 359.413 854.434 310.246C855.925 297.681 857.03 284.756 855.768 270.36C854.256 256.709 851.095 236.864 831.6 223.03C811.551 210.202 792.453 213.633 778.412 216.443C763.663 219.88 752.094 224.57 739.673 230.252C566.632 303.14 371.072 336.878 185.372 338.329C167.955 338.214 150.47 337.666 133.388 336.591C132.865 373.356 132.342 410.122 131.818 446.887C151.19 446.332 170.615 445.178 189.703 443.56C392.107 423.022 585.041 371.322 763.545 276.813C773.281 271.24 782.135 266.821 790.889 263.923C799.523 260.887 806.22 261.332 806.751 261.575C807.315 261.619 808.488 262.218 809.927 264.799C811.352 267.345 812.635 271.288 813.497 275.885C815.226 285.01 815.501 296.002 815.159 307.118C814.216 352.57 801.168 398.384 806.07 451.6C806.609 454.97 807.042 457.163 808.089 460.851C809.226 464.118 809.862 467.671 814.59 472.938C815.956 474.312 817.391 475.488 819.669 476.596C821.98 477.711 824.684 478.263 827.144 478.19C831.655 478.073 835.105 476.167 836.935 474.954C837.968 474.274 838.988 473.47 839.755 472.795C840.459 472.174 841.123 471.532 841.76 470.871C842.388 470.22 843.043 469.492 843.578 468.858C844.071 468.271 844.554 467.669 845.03 467.052C852.431 457.037 856.438 447.975 860.855 438.432C869.296 419.512 876.214 400.495 882.842 381.349C888.867 363.824 894.487 346.361 899.775 328.71Z" fill="#E3FA34"/>
<path d="M162.676 555.424C168.419 550.676 175.617 548.041 183.069 547.959C184.963 547.933 187.518 548.383 189.228 547.829C191.378 547.065 193.22 545.471 195.069 544.136C204.789 537.118 217.927 542.796 224.134 551.829C228.915 558.783 228.651 564.522 227.174 572.488C228.008 574.375 228.946 576.153 229.753 578.101C230.551 579.568 231.461 583.255 232.47 584.458C236.853 589.676 241.047 595.399 239.401 602.666C238.647 605.994 236.792 607.962 233.705 609.772C231.216 616.354 229.427 619.021 223.751 623.194C230.73 623.529 235.477 624.052 242.344 625.862C244.966 626.553 250.346 628.31 252.62 628.629C256.025 623.695 258.298 621.964 263.634 619.399C263.747 616.561 263.794 613.662 263.874 610.819C251.254 607.427 245.275 599.161 242.824 586.514C240.026 572.081 246.848 554.13 262.731 551.388C270.007 550.131 278.821 550.761 284.948 555.294C298.424 565.378 300.796 587.083 291.084 600.523C286.382 607.005 281.005 609.402 273.394 610.635C273.255 612.172 273.354 615.73 273.342 617.433C278.128 618.83 280.422 621.201 279.348 626.363C282.193 628.916 282.877 631.091 281.463 634.647C283.625 637.452 283.993 638.751 282.917 642.194L283.017 642.345L283.18 642.596C287.647 649.38 279.594 653.404 274.875 656.046C273.998 659.082 272.2 666.209 268.965 667.941C268.212 668.345 267.232 667.074 267.26 666.095C267.31 664.31 268.804 663.188 269.384 661.567C270.38 659.159 270.698 656.634 271.686 654.258C273.859 651.87 277.564 651.097 279.677 648.525C280.506 647.517 281.586 645.875 280.141 645.004C278.228 643.851 274.278 647.079 272.119 647.161C271.356 647.191 271.268 647.161 270.713 646.721C270.362 646.028 270.41 646.379 270.538 645.633C271.629 644.043 276.622 642.486 278.565 641.92C279.067 641.233 279.987 639.817 279.798 638.989C278.691 634.111 270.466 641.245 267.911 639.15C267.759 638.518 267.859 638.397 268.093 637.795C269.547 636.549 275.529 634.503 277.454 634.181C277.482 634.135 277.508 634.088 277.535 634.041L277.665 633.806C279.378 630.778 278.066 629.532 275.08 628.9C274.976 628.029 274.933 627.392 274.905 626.513C275.398 625.794 275.895 625.087 275.923 624.184C275.948 623.485 275.677 622.808 275.179 622.317C272.402 619.538 266.181 622.094 263.251 623.522C254.282 627.829 252.065 638.479 250.893 647.431C250.287 652.067 248.869 653.476 246.195 657.09C245.355 658.226 243.567 661.611 241.922 659.388C241.559 657.292 245.05 653.127 246.188 650.963C247.645 648.19 247.467 645.227 248.183 641.98C249.016 638.199 249.395 635.7 250.943 632.001C249.308 631.382 246.337 630.77 244.558 630.282C235.544 627.809 228.766 626.643 219.404 627.142C222.843 630.309 226.162 633.373 229.247 636.904C231.816 639.845 230.999 640.597 228.779 643.418C229.896 643.825 232.147 644.471 232.753 645.497C233.775 647.23 234.025 651.693 232.223 652.945C230.219 652.983 230.275 648.799 230.192 647.385C224.761 644.831 222.014 646.098 227.389 639.672C225.116 636.575 221.815 633.601 219.081 630.892C218.043 629.864 216.643 627.58 215.211 627.777C214.643 628.367 214.206 632.054 214.472 632.753C217.406 640.466 220.317 648.204 222.478 656.185C222.777 657.29 223.192 658.957 222.514 659.973C222.132 660.605 220.64 660.978 220.014 660.574C210.482 654.414 201.055 647.979 191.891 641.273C190.063 639.935 188.382 638.609 186.605 637.316C184.032 640.086 181.9 641.032 178.244 641.578C174.412 645.52 169.896 653.427 167.861 658.42C167.67 658.947 167.484 659.476 167.304 660.007C161.977 675.699 167.455 689.97 174.4 704.091C184.15 723.919 203.806 751.988 229.302 739.042C226.644 730.282 223.896 721.549 221.061 712.845C219.763 708.877 218.443 704.42 216.959 700.557C214.773 703.901 212.937 707.481 211.442 711.179C210.827 712.701 210.674 716.135 208.441 715.737C208.101 715.677 207.619 715.293 207.507 714.932C206.917 711.588 209.485 706.571 210.809 703.806C205.946 698.062 201.377 692.076 197.12 685.871C196.106 684.419 193.473 681.688 194.351 679.946C195.246 679.141 196.219 679.271 196.978 680.178C202.41 686.675 207.218 694.148 212.81 700.481L215.573 696.245C214.927 693.753 213.809 690.63 212.973 688.163C211.134 682.734 212.085 682.272 216.416 679.296C215.226 675.556 216.346 672.349 220.532 671.764C220.868 669.641 221.936 666.499 224.616 666.514C227.101 666.527 228.745 668.23 230.411 669.832C230.889 669.768 231.258 669.432 231.668 669.144L231.706 668.802C230.398 665.881 230.492 663.742 232.534 661.248L232.709 661.038C236.414 659.594 238.022 660.888 240.333 663.778C245.059 661.617 249.691 657.658 254.607 655.704C256.813 654.827 259.071 655.216 260.173 657.504C262.567 662.471 264.356 667.957 266.195 673.174C268.388 673.15 271.154 672.753 273.334 673.652C279.17 676.059 281.791 685.694 283.46 691.15C284.583 694.821 284.712 697.985 283.5 701.455C291.031 696.401 298.668 691.505 306.406 686.773C314.334 681.933 323.604 676.144 332.502 673.38C333.67 673.018 335.481 672.479 336.586 673.219C337.012 673.504 337.196 673.897 337.291 674.387C337.509 675.501 336.747 676.856 336.161 677.74C324.877 694.764 237.38 756.011 216.886 760.143C215.882 760.345 214.402 760.541 213.548 759.821C213.121 759.461 213.015 758.907 213.054 758.378C213.318 754.704 221.542 747.879 224.402 745.228C192.011 753.912 166.342 704.678 161.765 678.683C159.214 664.199 165.951 651.543 174.403 640.516C173.096 639.741 171.298 637.956 170.432 637.685C169.641 637.958 168.706 638.874 168.04 639.415C163.572 643.044 158.523 642.26 155.075 637.757C151.035 632.48 151.185 626.15 153.101 620.065C154.322 616.188 156.3 612.307 155.729 608.135C155.372 605.335 153.864 602.853 152.515 600.435C151.137 597.981 149.95 595.381 149.285 592.628C146.866 582.607 149.184 571.257 155.162 562.886C157.326 559.856 159.804 557.679 162.676 555.424Z" fill="black"/>
<path d="M201.083 558.64C202.744 558.066 207.607 559.698 209.223 560.302C217.959 563.569 222.763 570.551 226.308 578.83C230.427 588.448 233.745 600.208 229.72 610.381C226.277 619.083 218.464 623.565 209.267 623.49C206.915 623.673 204.082 622.39 201.881 623.191C200.996 623.513 201.304 624.827 201.692 625.438C203.878 628.88 207.251 630.613 211.056 631.719C211.028 633.394 210.897 635.854 211.47 637.405C211.793 638.277 212.179 638.345 213.01 638.655L213.25 638.742C214.116 639.933 214.921 642.924 215.396 644.449C214.098 646.177 213.432 646.689 211.583 647.687C210.195 648.235 209.44 648.394 207.985 648.665C203.63 645.685 199.3 642.671 194.993 639.624C193.047 638.228 190.35 636.414 188.646 634.828C191.887 628.123 191.209 621.356 187.653 615.014C185.926 611.837 185.79 610.865 182.036 612.253C174.433 615.063 167.322 604.015 173.138 598.245C175.882 595.521 181.204 598.775 182.665 597.249C190.225 589.352 196.645 579.418 199.63 568.843C200.615 565.365 200.868 562.22 201.083 558.64Z" fill="white"/>
<path d="M214.402 586.324C215.299 585.754 216.299 585.506 217.014 586.62C219.252 590.112 221.398 593.697 223.375 597.345C225.138 600.6 223.829 601.326 221.179 603.046C220.375 603.357 219.338 603.545 218.599 602.991C217.827 601.347 219.924 600.236 221.044 599.621C219.438 595.901 215.94 591.54 214.386 587.668C214.249 587.329 214.342 586.695 214.402 586.324Z" fill="black"/>
<path d="M200.043 580.869C201.288 579.849 202.734 579.058 204.305 579.973C205.37 581.689 202.673 582.759 201.606 583.708L201.453 583.847C200.551 584.865 199.561 586.313 198.01 585.833C196.5 584.137 198.855 581.961 200.043 580.869Z" fill="black"/>
<path d="M215.625 610.256C217.132 609.735 221.086 607.957 221.962 609.714C221.974 610.483 221.916 610.537 221.589 611.26C220.291 612.152 216.19 613.86 215.223 611.885C215.207 611.072 215.268 611.017 215.625 610.256Z" fill="black"/>
<path d="M214.327 573.773C216.31 572.439 221.819 571.525 220.044 575.423C219.311 575.66 217.744 575.732 216.735 575.991C214.741 576.504 213.365 576.144 214.327 573.773Z" fill="black"/>
<path d="M205.615 590.243C208.365 588.38 209.508 592.802 209.178 594.677C206.531 596.816 205.352 591.973 205.615 590.243Z" fill="black"/>
<path d="M220.331 582.952C222.908 580.952 224.154 585.182 223.71 587.052C221.162 589.149 220.012 584.731 220.331 582.952Z" fill="black"/>
<path d="M216.828 683.531C218.562 682.127 222.17 679.965 224.179 678.771C224.849 680.159 225.088 684.047 227.112 683.449C228.808 681.667 227.655 678.906 226.675 677.055C231.019 674.163 235.417 671.355 239.869 668.633C240.414 670.074 240.593 673.079 242.45 673.117C244.444 671.969 242.961 668.577 242.31 667.073C245.079 665.234 252.795 660.201 255.578 659.114C255.884 658.995 256.457 658.778 256.759 658.96C258.512 660.016 264.094 677.362 265.011 680.495C263.599 681.534 262.218 682.595 260.827 683.655C257.078 686.515 255.028 691.133 259.425 694.628L259.328 694.957C258.283 698.592 259.324 701.739 263.193 702.79C263.521 706.958 265.027 709.037 269.463 708.6C271.683 708.109 273.149 707.389 275.239 706.47C276.008 708.856 277.196 711.275 277.704 713.72C277.871 714.525 278.001 715.511 277.493 716.219C276.468 717.643 246.485 739.798 242.935 742.189C242.291 742.623 241.406 743.289 240.604 743.264C239.652 743.235 239.215 741.723 238.909 740.95C238.008 738.67 237.368 736.254 236.644 733.91L233.2 722.831C230.021 712.645 226.692 702.507 223.211 692.42C222.416 690.109 221.484 686.453 220.22 684.358C219.697 683.491 217.943 683.659 216.828 683.531Z" fill="white"/>
<path d="M249.178 682.942C250.395 682.092 251.616 681.214 252.865 680.413C253.969 679.706 254.625 679.323 255.627 680.371C255.976 681.395 255.615 681.941 254.818 682.58C253.332 683.774 251.709 684.823 250.155 685.931L240.876 692.636C239.313 693.765 236.551 696.805 234.829 695.329C233.978 693.244 238.523 690.713 240.059 689.591L249.178 682.942Z" fill="black"/>
<path d="M244.664 700.979C245.655 700.232 250.436 696.452 251.363 696.535C256.234 696.965 247.937 702.291 247.03 702.962C245.335 704.165 240.996 708.325 239.112 707.085C238.235 705.198 240.569 704.121 241.825 703.089C242.707 702.364 243.739 701.665 244.664 700.979Z" fill="black"/>
<path d="M249.216 711.139C250.593 710.097 254.262 706.862 255.931 707.62C257.641 709.789 251.477 713.224 249.819 714.406C248.419 715.487 244.278 719.359 242.762 717.888C242.34 716.636 242.909 715.905 243.876 715.168C245.645 713.819 247.446 712.486 249.216 711.139Z" fill="black"/>
<path d="M261.759 559.244C265.313 556.09 270.588 554.464 275.091 556.172C290.101 561.867 294.225 583.584 286.591 596.513C285.073 599.086 283.764 600.567 281.587 602.546C278.127 605.072 275.463 606.48 271.01 606.221C266.373 605.95 262.269 603.136 259.294 599.728C254.663 594.424 252.311 585.055 252.816 578.138C253.366 570.616 256.016 564.205 261.759 559.244Z" fill="white"/>
<path d="M264.448 573.621C265.189 573 266.166 572.354 266.936 571.786C274.805 565.988 280.485 562.111 285.54 573.74C289.882 583.733 286.4 585.584 278.691 591.093L276.233 592.731C275.521 594.567 273.683 601.054 271.149 600.479C269.949 599.483 269.642 597.14 269.228 595.526C267.629 595.513 265.698 595.308 264.738 593.795C262.426 590.144 259.281 584.436 259.53 580.024C259.681 577.339 262.606 575.094 264.448 573.621Z" fill="black"/>
<path d="M265.796 576.022C268.715 573.84 274.4 569.151 277.824 569.087C281.218 569.024 285.186 578.592 284.562 581.549C283.937 584.516 280.472 586.456 278.226 588.067L274.25 590.765C273.669 591.884 272.501 595.088 271.953 596.457C271.757 595.623 271.278 593.497 270.711 592.981C269.723 592.081 267.962 593.45 266.883 592.083C265.675 590.519 264.744 588.659 263.974 586.841C261.589 581.228 260.943 579.843 265.796 576.022Z" fill="white"/>
<path d="M267.73 582.75C270.183 581.656 271.085 583.495 270.221 585.601C267.831 587.158 266.879 584.826 267.73 582.75Z" fill="black"/>
<path d="M276.937 576.653C278.943 574.853 280.441 576.51 279.903 578.84C277.664 580.573 276.581 578.927 276.937 576.653Z" fill="black"/>
<path d="M272.557 579.434C274.977 578.312 275.651 580.298 275.122 582.282C272.632 583.707 271.641 581.532 272.557 579.434Z" fill="black"/>
<path d="M267.538 676.693C269.021 676.59 271.324 676.46 272.541 677.191C277.08 679.921 282.174 695.112 280.228 699.465C278.687 700.546 266.657 708.984 266.577 703.133C266.54 700.453 277.99 698.223 275.095 694.559C271.909 694.234 263.273 703.295 262.292 696.942C261.829 693.939 272.401 691.158 272.856 687.921C272.705 687.37 272.741 687.392 272.325 687.011C269.634 686.202 263.244 692.82 261.218 691.527C256.65 688.611 268.26 683.095 269.105 681.046C269.569 679.922 267.901 678.25 267.538 676.693Z" fill="white"/>
<path d="M254.125 559.639C255.325 558.51 257.502 557.206 258.947 556.318C253.048 562.27 249.965 568.461 249.196 576.955C248.395 585.809 251.045 595.765 256.885 602.611C257.647 603.426 258.545 604.282 259.347 605.074C243.39 597.301 241.441 571.184 254.125 559.639Z" fill="white"/>
<path d="M224.125 669.95C225.467 669.462 227.502 670 227.569 671.685C227.202 672.411 227.053 672.326 226.253 672.851C225.633 673.276 225.187 673.654 224.46 673.589C222.896 672.787 223.545 671.205 224.125 669.95Z" fill="white"/>
<path d="M233.982 663.906C235.238 663.121 237.077 663.736 237.458 665.209C237.23 665.92 237.206 665.742 236.408 666.274L234.221 667.616C233.67 665.912 233.543 665.713 233.982 663.906Z" fill="white"/>
<path d="M218.755 675.403C219.55 674.88 221.441 674.294 221.596 675.661L221.246 676.019L218.585 677.767C218.576 676.781 218.612 676.381 218.755 675.403Z" fill="white"/>
<path d="M289.733 495.649C293.578 492.798 303.844 484.801 308.625 484.423C310.12 484.305 311.544 486.013 312.477 487.085C317.331 484.662 319.584 481.823 323.51 487.72C327.84 494.222 331.997 500.802 336.155 507.414C343.101 518.56 350.131 529.654 357.246 540.693L380.879 576.799C385.381 583.73 389.94 590.732 394.101 597.873C394.773 599.03 395.633 600.553 395.305 601.912C394.86 603.766 393.153 604.798 391.668 605.758C376.937 615.291 361.855 624.294 346.755 633.216C341.064 636.567 335.343 639.869 329.593 643.12C326.199 645.024 322.797 646.888 319.273 648.545C315.735 650.209 314.749 647.904 313.124 645.27C311.522 646.055 308.636 647.524 307.131 646.29C304.824 644.397 302.561 639.039 301.318 636.532C299.026 631.897 296.763 627.248 294.532 622.584C292.626 618.636 290.1 614.108 288.728 609.942C288.372 608.864 290.505 607.844 291.276 609.099C292.339 610.825 293.226 612.682 294.154 614.496C297.071 620.253 299.944 626.033 302.771 631.834C303.809 633.973 307.303 641.85 308.723 643.068C310.507 643.379 314.501 640.736 316.198 639.774C320.182 637.589 324.4 635.034 328.348 632.736C338.461 626.816 348.535 620.83 358.571 614.776C362.665 612.32 366.744 609.834 370.806 607.321C373.387 605.726 376.493 604.146 378.638 602.001C378.975 601.663 379.443 601.303 379.38 600.782C379.011 597.718 370.007 583.334 367.857 579.775C356.439 560.882 344.22 542.443 332.309 523.858C329.253 519.087 311.291 490.062 308.966 488.474C308.547 488.19 308.022 488.25 307.554 488.364C306.618 488.592 305.738 489.091 304.923 489.589C301.076 491.938 297.413 494.612 293.747 497.229L276.071 510.091C270.252 514.311 264.467 518.579 258.716 522.894C256.457 524.589 249.887 529.14 248.528 531.292C248.351 532.314 248.846 533.371 249.346 534.347C251.489 538.528 254.312 542.62 256.305 546.839C256.735 548.694 254.322 549.381 253.385 547.835C250.665 543.358 247.808 538.677 245.576 533.95C244.159 530.945 245.366 529.016 247.66 527.084C251.915 523.502 256.609 520.087 261.047 516.746C270.532 509.609 280.095 502.576 289.733 495.649Z" fill="black"/>
<path d="M300.32 600.959C303.073 598.716 318.117 588.325 320.889 587.949C321.554 587.86 322.181 588.184 322.688 588.591C323.868 589.536 332.806 606.02 334.009 608.479C334.315 609.104 334.661 609.802 334.715 610.503C334.799 611.586 334.191 612.285 333.519 613.057C330.383 615.254 315.753 624.644 312.923 625.501C312.228 625.711 311.619 625.661 310.984 625.303C310.477 625.016 310.145 624.624 309.826 624.144C307.323 620.369 305.42 615.809 303.409 611.748C302.254 609.417 300.261 606.187 299.662 603.693C299.399 602.602 299.748 601.873 300.32 600.959Z" fill="black"/>
<path d="M302.804 602.597C304.955 601.026 318.961 591.657 320.869 591.282C321.924 592.175 330.721 608.318 331.441 610.236C331.367 610.832 331.371 610.661 330.866 611.2C328.087 612.93 314.254 621.837 312.313 622.238C311.213 621.729 304.499 606.863 303.065 604.71C302.633 604.065 302.516 603.347 302.804 602.597Z" fill="white"/>
<path d="M312.099 601.011C312.625 600.551 314.053 599.426 314.717 599.955C317.015 601.787 323.738 606.91 325.183 609.08C325.285 609.605 325.345 609.946 325.04 610.442C323.892 612.309 321.585 609.576 320.758 608.803C320.054 609.26 319.269 609.699 318.541 610.126L316.064 611.714C316.369 613.241 317.365 615.994 315.304 616.504C314.68 616.419 314.727 616.413 314.251 615.986C313.542 614.399 311.638 602.656 312.099 601.011ZM314.83 603.723C314.997 605.126 315.1 607.03 315.665 608.281L315.987 608.445L316.657 608.073C317.151 607.743 318.071 607.219 318.346 606.747C317.818 606.033 315.596 604.058 314.83 603.723Z" fill="black"/>
<path d="M266.034 532.084C267.708 530.746 273.746 526.171 275.447 526.104C277.951 526.005 283.209 537.47 284.702 539.593C286.554 542.227 283.624 543.749 281.62 545.015C277.563 548.2 278.068 547.379 273.008 546.766C271.663 546.603 270.101 546.631 268.713 546.479C266.481 546.236 265.327 542.176 264.019 540.532C263.124 539.353 262.091 537.073 262.036 535.684C262.524 534.338 264.792 532.986 266.034 532.084Z" fill="black"/>
<path d="M327.44 589.76C332.724 585.465 339.452 581.621 345.031 577.636C347.548 575.912 350.246 574.258 352.258 577.682C355.979 584.018 359.877 590.233 363.325 596.709C364.064 598.096 363.985 599.974 362.729 601.018C360.779 602.638 358.491 604.041 356.363 605.426C352.349 608.054 348.306 610.636 344.232 613.171C341.879 614.611 339.935 615.855 338.243 612.768C337.102 610.692 335.514 609.522 336.331 607.002C339.662 607.335 339.849 612.146 341.082 611.358C345.052 608.821 358.192 601.607 360.48 598.456C360.258 595.808 353.547 586.486 352.227 583.487C351.762 582.431 349.999 579.543 348.872 579.123C347.427 579.306 331.402 590.348 329.781 591.875C329.254 593.177 331.066 594.647 331.185 596.33C330.81 597.364 330.295 597.521 329.255 597.145C328.342 596.332 327.055 593.98 326.807 592.775C326.52 591.389 326.721 590.883 327.44 589.76Z" fill="black"/>
<path d="M180.579 646.909C181.846 646.063 182.587 646.426 183.399 647.589C186.488 652.008 189.033 656.834 192.604 660.906C194.978 659.91 201.116 655.083 203.199 657.031C203.67 658.066 202.851 663.122 202.772 664.831C205.122 665.695 208.015 665.608 210.341 666.568C210.976 666.831 211.148 667.312 211.373 667.91C210.64 670.23 206.951 669.05 205.069 668.821C198.674 668.044 199.055 666.762 199.669 661.233C197.676 662.346 195.155 663.83 193.121 664.741C190.458 664.554 189.561 663.191 188.106 661.022C185.398 656.983 182.476 652.759 180.54 648.301C180.403 647.986 180.52 647.251 180.579 646.909Z" fill="black"/>
<path d="M340.059 588.001C341.767 587.503 342.091 588.551 342.947 589.816C344.229 588.91 347.345 586.286 348.766 587.325C349.355 588.757 348.403 589.325 347.42 590.092C348.111 592.462 348.067 594.353 347.944 596.787C350.36 597.202 351.515 596.542 353.707 596.875C354.12 596.94 354.252 597.41 354.373 597.748C354.099 600.474 349.607 599.791 347.55 599.736C346.798 599.895 344.533 608.172 342.277 604.77C342.156 603.613 344.022 600.735 344.717 599.064C342.502 598.271 340.734 597.872 339.564 595.712C338.828 595.493 337.974 596.761 336.619 596.202C335.383 594.281 339.429 592.238 340.756 591.329C339.916 590.037 339.372 589.515 340.059 588.001ZM341.565 594.129C341.81 595.435 343.875 596.174 345.049 596.21C345.405 595.886 345.261 596.079 345.374 595.539C345.429 594.068 345.435 593.115 345.133 591.652C344.168 592.281 343.125 592.935 342.182 593.583L341.565 594.129Z" fill="black"/>
<path d="M301.954 562.035C307.343 558.241 312.802 554.548 318.328 550.958C320.028 549.843 325.738 545.669 327.503 545.877C328.588 546.554 328.554 547.188 328.108 548.31C325.674 550.159 322.248 552.274 319.648 553.986L305.666 563.199C304.601 563.891 303.571 564.719 302.304 564.45C301.288 563.773 301.497 562.961 301.954 562.035Z" fill="black"/>
<path d="M295.655 551.094C301.391 547.017 307.178 543.015 313.017 539.087C314.964 537.786 317.48 535.939 319.568 535.041C320.832 534.497 322.294 535.792 320.903 537.616C318.846 539.204 298.19 553.283 296.764 553.699C296.411 553.802 295.819 553.705 295.518 553.467C295.272 553.271 295.129 553.103 295.074 552.794C294.941 552.059 295.238 551.643 295.655 551.094Z" fill="black"/>
<path d="M307.11 573.381C313.653 568.609 320.787 564.329 327.564 559.881C328.562 559.226 329.594 558.614 330.808 558.768C331.863 559.436 331.781 560.082 331.331 561.12C331.134 561.28 330.936 561.436 330.734 561.591C329.885 562.239 328.822 562.9 327.905 563.477C321.558 567.474 315.391 571.806 308.939 575.627C308.495 575.89 308.038 575.837 307.556 575.771C306.535 575.041 306.645 574.45 307.11 573.381Z" fill="black"/>
<path d="M295.042 519.325C296.464 518.187 306.44 510.99 307.364 511.092C313.43 511.763 301.373 518.629 300.157 519.461C296.888 521.93 293.508 524.35 290.105 526.642C289.145 527.289 288.193 527.997 287.029 527.441C285.236 525.099 293.157 520.659 295.042 519.325Z" fill="black"/>
<path d="M292.545 533.679C298.416 529.539 304.271 525.094 310.454 521.465C311.773 520.691 313.511 521.849 312.078 523.968C311.344 524.533 310.431 525.09 309.643 525.607C304.42 529.031 299.419 532.882 294.049 536.062C293.532 536.368 292.957 536.318 292.418 536.111C291.524 535.106 291.782 534.647 292.545 533.679Z" fill="black"/>
<path d="M232.975 509.036C233.286 508.837 234.089 508.356 234.438 508.539C237.138 509.952 240.981 513.502 243.085 515.785C243.382 516.107 243.125 517.042 243.052 517.389C241.187 518.776 239.967 517.111 238.481 515.856C236.627 514.291 234.688 512.66 233.046 510.89C232.609 510.418 232.848 509.59 232.975 509.036Z" fill="black"/>
<path d="M223.102 526.096C224.93 524.478 232.951 526.56 235.11 527.635C235.623 527.889 235.504 529.024 235.444 529.515C234.948 529.888 234.362 530.264 233.446 530.078C230.85 529.553 225.269 529.225 223.296 527.659C222.967 527.398 223.065 526.51 223.102 526.096Z" fill="black"/>
<path d="M248.894 498.41C250.406 497.698 251.423 498.546 251.872 499.954C252.584 502.178 254.727 506.446 253.927 508.604C252.158 509.696 251.08 507.916 250.684 506.442C250.105 504.294 247.982 500.454 248.894 498.41Z" fill="black"/>
<path d="M264.611 629.628C265.629 629.114 268.707 627.626 269.73 627.854L269.811 628.304C269.417 629.046 269.394 629.169 269.358 630.01L269.429 630.308C267.89 631.325 263.038 633.829 264.611 629.628Z" fill="black"/>
<path d="M523.134 347.82C530.921 349.465 543.893 351.685 548.484 358.6C551.293 362.828 550.763 368.216 549.832 372.954C570.558 387.67 575.068 417.15 568.328 440.201C563.304 457.377 552.552 471.681 536.835 480.355C537.399 482.497 538.059 484.714 538.664 486.853C542.588 487.338 542.807 489.073 543.82 492.486C547.752 492.272 552.158 492.855 555.8 494.381C571.335 500.89 581.107 523.677 584.723 539.066C585.463 542.172 586.096 545.303 586.625 548.454C587.509 554.027 587.508 555.563 589.707 560.749C593.29 558.788 595.019 558.819 597.367 562.463C598.286 563.892 602.343 571.762 601.019 573.083C595.627 578.462 586.303 582.718 579.367 585.455C582.423 586.369 592.111 589.766 592.75 592.859C592.266 595.695 587.418 595.392 585.226 595.208C568.776 593.832 552.392 589.75 536.998 583.84C534.03 582.701 530.199 581.088 527.891 578.884C527.617 578.581 527.277 577.935 527.389 577.524C528.189 574.588 534.833 575.454 536.8 575.624C542.141 576.089 547.311 577.134 552.471 578.245C551.675 576.206 550.894 574.122 550.003 572.126C543.238 569.161 538.57 565.573 535.309 558.712C532.804 558.684 530.752 558.532 528.383 557.656C521.507 555.109 516.088 548.664 518.803 541.105C513.694 535.977 511.221 530.52 515.363 523.779C509.946 516.119 509.821 507.408 518.791 501.999C519.974 501.286 521.136 500.943 522.456 500.532C521.435 497.176 520.168 494.722 523.373 492.157C522.693 490.175 522.083 487.988 521.478 485.972C513.004 487.379 505.702 487.589 497.222 485.572C487.319 483.254 478.318 478.071 471.342 470.669C470.063 469.3 465.458 465.035 468.451 463.552C470.333 463.38 472.31 466.511 473.558 467.855C476.373 470.925 479.588 473.605 483.117 475.818C494.806 482.997 508.848 485.291 522.214 482.203C556.123 474.247 573.814 436.127 565.841 403.871C559.297 377.393 535.533 362.435 508.92 368.866C500.478 371.16 492.826 374.738 486.282 380.517C485.116 381.547 483.257 383.569 481.609 382.89C479.315 380.908 483.7 377.971 485.035 376.934C503.543 362.551 525.573 359.31 546.495 370.743C547.925 359.141 543.075 357.036 532.766 354.008C527.125 352.306 521.136 351.462 515.466 350.01C501.903 346.538 488.419 344.177 474.632 341.749C462.92 339.636 451.161 337.789 439.365 336.211C433.742 335.491 428.086 334.693 422.433 334.865C416.451 335.047 412.857 338.959 410.81 344.223C408.701 349.645 407.253 355.466 405.799 361.099C403.587 369.595 401.495 378.122 399.523 386.676C396.068 400.952 392.859 415.286 389.898 429.673C388.021 438.418 386.05 447.141 384.533 455.957C384.01 458.992 383.101 463.019 384.017 466.013C386.817 475.152 405.638 473.997 408.026 477.683C408.372 478.216 408.389 478.779 408.312 479.394C408.083 481.232 407.327 483.148 406.793 484.92C405.765 488.336 404.695 491.731 403.864 495.201C410.205 492.822 416.334 489.901 422.426 486.956C424.758 485.83 428.882 482.992 431.157 482.541C433.415 482.093 456.691 487.549 461.016 488.445C468.304 489.887 475.601 491.281 482.907 492.624C488.02 493.584 493.171 494.609 498.338 495.171C500.592 495.417 501.839 495.157 503.902 494.316C505.188 493.794 506.013 493.525 507.147 494.57C507.228 494.826 507.37 495.065 507.277 495.304C506.101 498.321 502.156 499.015 499.457 498.852C492.483 498.424 485.577 496.963 478.737 495.695C463.109 492.757 447.535 489.537 432.023 486.036C427.544 488.425 405.984 499.948 402.1 498.897C401.385 498.702 400.728 498.26 400.356 497.611C399.962 496.922 399.968 496.143 400.057 495.378C400.489 491.651 403.305 483.839 404.49 479.839C397.574 478.164 385.947 476.279 381.867 470.258C378.904 465.887 379.967 460.038 380.872 455.176C385.879 429.19 391.567 403.339 397.93 377.651C399.345 371.551 400.794 365.46 402.279 359.377C403.602 353.949 404.918 348.863 406.861 343.768C410.507 334.204 416.631 330.106 426.841 331.124C428.87 331.326 431.219 331.473 433.309 331.69C439.96 332.407 446.588 333.319 453.185 334.425C468.587 336.896 484.101 339.285 499.39 342.389C507.341 344.004 515.158 346.229 523.134 347.82Z" fill="black"/>
<path d="M548.435 495.619C566.906 498.219 577.585 523.232 581.478 539.319C582.293 542.712 582.989 546.134 583.562 549.577C583.912 551.689 584.24 554.498 584.746 556.511C585.158 558.149 586.291 560.894 586.924 562.544C577.002 568.478 567.21 574.77 555.738 577.467C554.748 575.317 553.717 572.226 552.571 570.301C552.032 569.399 549.119 568.433 548.028 567.818C543.676 565.364 540.941 562.284 538.391 558.116C539.85 557.513 540.537 557.039 541.707 556.05C545.035 556.921 546.441 556.989 549.708 555.773L550.444 555.402C550.561 555.413 550.679 555.422 550.795 555.432C552.344 557.261 553.929 559.381 556.023 560.627C556.645 560.995 556.998 560.973 557.624 560.797C558.208 560.354 558.174 560.397 558.472 559.726C558.445 559.418 558.435 558.918 558.158 558.709C551.132 553.416 548.721 544.277 548.831 535.808C548.916 529.398 550.041 529.067 544.325 524.962C539.66 521.569 530.386 515.284 532.552 508.329C534.649 501.59 542.634 505.068 546.606 507.286C552.322 510.477 556.891 513.621 561.724 518.018C563.245 519.401 565.849 523.032 567.502 523.583C568.3 523.469 567.938 523.611 568.61 523.1C568.775 522.714 569.013 522.135 568.785 521.747C564.723 514.791 553.745 507.472 547.165 504.1C546.48 501.33 545.472 498.123 544.673 495.347C545.993 495.364 547.123 495.487 548.435 495.619Z" fill="#E1E1E1"/>
<path d="M523.2 503.341C523.834 504.753 524.815 508.152 525.324 509.768C524.979 510.154 524.767 510.434 524.458 510.845C524.429 511.337 524.389 511.621 524.754 512.048C527.891 515.75 533.987 519.677 532.882 525.324C532.193 528.854 529.456 529.058 526.44 528.317C526.244 528.244 526.052 528.169 525.858 528.093C514.841 523.703 508.746 508.764 523.2 503.341Z" fill="#E1E1E1"/>
<path d="M517.475 526.188C521.743 529.83 525.883 532.972 531.752 531.357C535.378 533.933 540.408 538.313 535.719 542.713C527.826 546.347 512.769 536.479 517.475 526.188Z" fill="#E1E1E1"/>
<path d="M536.854 545.61C538.511 546.418 540.529 548.251 540.85 550.131C541.038 551.277 540.756 552.449 540.067 553.382C536.807 557.797 528.867 555.02 525.252 552.372C522.051 549.57 520.821 547.349 521.266 543.018C526.251 545.908 531.196 547.953 536.854 545.61Z" fill="#E1E1E1"/>
<path d="M533.885 481.915C534.443 482.689 535.613 487.279 535.935 488.45C533.247 490.555 529.86 491.568 526.511 491.972C526.042 490.972 524.78 486.556 524.403 485.303C527.865 484.438 530.678 483.39 533.885 481.915Z" fill="#E1E1E1"/>
<path d="M620.868 413.398C627.493 413.869 639.14 419.481 644.252 423.403C662.988 437.777 666.341 457.969 651.795 476.924C659.137 486.943 644.388 503.943 632.178 496.441C625.775 504.112 620.246 507.777 610.369 509.38C608.833 509.546 607.291 509.619 605.746 509.604C595.996 509.543 585.27 505.474 578.481 498.474C561.598 481.066 574.377 455.885 586.292 439.719C588.52 436.696 590.833 433.727 593.486 431.112C587.308 422.239 595.815 415.521 603.889 413.546C609.689 412.127 615.052 412.551 620.868 413.398Z" fill="black"/>
<path d="M633.522 437.063L633.791 437.244C633.374 438.766 632.867 440.044 632.539 441.635C630.724 450.446 632.146 460.155 639.03 466.385C638.28 468.196 635.845 474.805 637.088 476.609C638.384 478.491 643.243 476.143 645.436 476.837C646.854 477.045 648.776 478.045 649.566 479.367C654.04 486.861 642.435 498.447 634.889 494.139C634.304 493.805 632.357 492.7 631.856 492.858C630.48 493.295 628.599 495.883 627.611 496.957C626.085 498.589 624.397 500.063 622.574 501.354C614.976 506.694 607.338 506.961 598.569 505.389C593.016 504.225 586.905 501.437 582.626 497.695C561.723 479.408 582.123 448.075 596.372 432.445C605.815 436.91 623.13 438.358 633.522 437.063Z" fill="#E1E1E1"/>
<path d="M604.562 449.196C605.204 449.408 605.189 449.364 605.645 449.848C606.841 452.934 593.3 465.189 592.373 469.054C592.899 471.362 601.048 471.641 599.718 474.449C599 474.991 598.958 474.993 598.071 475.224C596.755 474.944 595.671 474.622 594.488 474.173C586.098 470.986 588.721 467.724 593.127 462.308C596.43 458.249 599.904 453.975 603.364 450.016C603.642 449.698 604.186 449.397 604.562 449.196Z" fill="black"/>
<path d="M604.664 482.92C611.108 485.01 594.628 495.109 587.798 483.773C587.245 482.566 586.767 480.966 587.831 479.91C590.389 479.418 590.607 485.168 595.025 485.667C599.587 486.18 601.088 485.176 604.664 482.92Z" fill="black"/>
<path d="M617.476 459.238C621.529 460.44 617.027 466.904 614.954 468.005C610.613 466.956 615.316 460.229 617.476 459.238Z" fill="black"/>
<path d="M593.993 446.866C598.287 447.581 593.665 454.373 591.623 455.372C587.396 454.452 591.921 447.892 593.993 446.866Z" fill="black"/>
<path d="M526.495 414.171C529.985 414.853 534.745 415.602 536.863 418.681C538.124 420.516 538.612 422.962 538.207 425.143C537.795 427.336 536.509 429.268 534.647 430.496C532.613 431.845 530.88 432.078 528.551 431.831C524.486 431.398 520.224 430.493 516.183 429.748L494.662 425.762L431.124 413.733C425.532 412.715 418.026 411.184 419.244 403.466C419.622 401.075 420.968 398.945 422.967 397.578C426.591 395.081 431.078 396.582 435.071 397.198C437.208 397.527 439.402 397.974 441.533 398.365C450.026 399.917 458.507 401.526 466.978 403.191C486.807 407 506.754 410.267 526.495 414.171Z" fill="#E1E1E1"/>
<path d="M469.156 405.606C472.695 406.195 473.175 408.903 471.285 411.41C470.865 411.967 471.597 413.246 471.846 413.9C472.837 416.502 470.597 417.84 468.393 418.401C467.167 418.469 463.517 418.344 463.557 416.589C463.605 414.495 464.683 407.628 465.846 406.041C467.014 405.327 467.794 405.514 469.156 405.606Z" fill="black"/>
<path d="M466.981 413.13C468.06 413.301 469.228 413.418 469.367 414.721C469.091 415.377 468.883 415.429 468.277 415.8C467.638 415.833 467.19 415.939 466.655 415.622C466.023 414.734 466.052 413.815 466.981 413.13Z" fill="#E1E1E1"/>
<path d="M467.927 407.86C468.892 408.058 469.388 408.002 469.695 409.001C469.475 409.657 469.269 409.739 468.724 410.162C468.154 410.353 468.175 410.367 467.581 410.367C466.904 409.637 467.363 408.531 467.927 407.86Z" fill="#E1E1E1"/>
<path d="M499.136 411.709C502.84 413.382 501.663 416.743 501.483 420.166C501.415 421.447 501.505 424.193 499.737 423.863C499.373 423.503 499.305 423.43 499.047 423.006L498.847 422.672C498.301 422.931 497.759 423.198 497.221 423.472C489.898 424.584 492.519 412.621 499.136 411.709Z" fill="black"/>
<path d="M498.347 414.319C499.784 415.051 498.808 418.208 498.556 419.454C497.761 420.295 497.543 420.563 496.516 421.177C493.782 419.824 496.784 415.531 498.347 414.319Z" fill="#E1E1E1"/>
<path d="M452.069 402.642C452.496 402.931 452.623 403.084 452.985 403.446C453.489 404.725 451.021 420.168 447.537 412.126C446.982 410.845 446.509 409.244 446.078 407.902C445.458 410.109 445.723 413.61 442.97 413.698C442.836 413.493 442.401 412.799 442.436 412.579C442.765 410.506 443.783 402.075 446.33 402.244C447.934 403.23 448.82 407.352 449.396 409.268C449.853 407.115 450.113 403.795 452.069 402.642Z" fill="black"/>
<path d="M530.677 417.341C533.275 418.445 531.387 421.383 531.001 423.639C530.721 425.275 530.187 429.102 528.158 429.06C526.475 428.146 525.678 424.725 525.061 422.853C524.627 424.42 524.462 426.893 523.488 428.044C523.128 428.47 522.523 428.401 522.001 428.423C521.299 427.212 521.413 426.595 521.822 425.267C522.488 423.111 522.837 418.222 524.75 416.996C526.835 416.868 527.75 422.146 528.255 423.808C528.692 421.626 528.936 418.571 530.677 417.341Z" fill="black"/>
<path d="M517.594 414.981C520.735 415.653 519.961 421.123 520.254 423.609C520.387 424.741 520.161 426.474 519.491 427.424C518.946 427.763 518.946 427.702 518.288 427.655C516.893 426.697 517.93 425.661 517.257 424.446L516.729 424.348L514.127 424.019C513.577 425.218 513.313 426.378 511.909 426.517C511.196 426.216 511.457 426.45 511.064 425.832C510.75 423.43 515.019 415.832 517.594 414.981Z" fill="black"/>
<path d="M517.086 418.566C517.555 419.277 517.743 421.405 516.716 421.938C515.904 421.553 515.968 421.748 515.718 421.126C515.809 420.233 516.552 419.355 517.086 418.566Z" fill="#E1E1E1"/>
<path d="M459.47 403.922C459.974 404.097 460.478 404.262 460.802 404.738C462.109 406.657 462.784 415.194 460.997 416.58C460.346 416.681 460.391 416.694 459.788 416.435C459.307 415.822 459.384 414.701 459.093 413.655C458.583 413.153 458.62 413.314 457.709 413.21L456.038 413.035C455.536 414.088 454.529 415.937 453.102 415.458C452.413 414.051 453.657 411.463 454.396 410.193C455.791 407.797 456.621 404.835 459.47 403.922Z" fill="black"/>
<path d="M458.88 407.535C459.275 408.299 459.352 409.789 459.066 410.617L458.577 410.742L457.599 410.501L457.435 410.138C457.526 409.244 458.329 408.322 458.88 407.535Z" fill="#E1E1E1"/>
<path d="M429.909 398.263C431.769 399.564 430.795 401.325 430.288 403.25C431.415 402.505 436.815 398.017 436.921 401.412C436.263 402.877 433.773 404.197 432.354 405.114C433.478 406.845 434.707 408.448 435.617 410.291C435.463 410.954 435.135 411.389 434.533 411.701C432.288 411.579 431.473 407.77 429.938 406.994C428.996 407.644 429.501 411.172 427.372 411.005C426.205 410.274 426.228 408.876 426.597 407.685C427.358 405.23 427.533 399.499 429.909 398.263Z" fill="black"/>
<path d="M486.322 409.11C488.104 410.445 487.312 411.704 486.8 413.622C487.703 413.067 491.137 410.766 491.701 410.923C495.537 411.993 489.08 415.415 488.513 415.765C489.622 417.391 491.002 419.263 491.685 421.079C489.458 424.101 487.417 419.004 486.193 417.173C485.866 418.418 485.768 419.874 485.025 420.957C484.418 421.841 482.963 421.126 482.954 420.497C482.911 417.348 484.108 413.881 484.868 410.818C485.122 409.796 485.442 409.545 486.322 409.11Z" fill="black"/>
<path d="M481.331 408.67C482.118 408.944 482.733 409.164 482.715 410.494C482.664 414.371 479.277 423.297 474.398 418.605C473.13 417.386 473.47 414.292 473.826 412.377C474.189 410.902 474.521 407.756 476.441 407.967C478.863 409.527 473.829 416.119 477.164 417.196C479.236 416.714 479.712 410.971 480.5 409.306C480.834 409.05 481.111 408.838 481.331 408.67Z" fill="black"/>
<path d="M508.564 413.256C509.882 413.661 511.607 414.738 510.928 416.35C509.393 416.838 508.216 415.316 506.858 416.635C506.824 416.817 506.79 416.999 506.756 417.18C508.162 418.781 510.013 420.221 510.203 422.503C510.414 425.055 507.346 425.516 505.426 425.487C504.475 425.19 503.614 424.812 502.966 424.04C502.284 423.229 502.377 422.231 503.398 421.808C504.799 421.89 505.865 423.165 507.029 422.694C507.992 420.638 503.821 419.438 503.868 417.439C503.932 414.779 506.271 413.38 508.564 413.256Z" fill="black"/>
<path d="M440.575 400.862C442.018 401.606 442.017 402.967 441.598 404.386C440.934 406.628 440.836 411.434 438.888 412.769C436.937 412.084 437.156 410.492 437.69 408.649C438.36 406.338 438.509 402.203 440.575 400.862Z" fill="black"/>
<path d="M498.467 429.333C503.503 430.594 507.827 433.124 506.84 439.181C506.432 441.554 505.094 443.665 503.123 445.047C499.182 447.763 493.213 445.812 488.821 445.008C483.021 443.949 477.227 442.848 471.443 441.705L423.084 432.545C418 431.288 413.774 429.062 414.8 422.639C415.481 418.378 419.793 415.224 424.079 415.617C427.559 415.935 431.063 416.603 434.584 417.232C440.903 418.349 447.21 419.526 453.507 420.763L478.921 425.623C485.585 426.863 491.807 427.893 498.467 429.333Z" fill="#E1E1E1"/>
<path d="M430.961 418.931C431.708 419.183 432.669 419.612 432.405 420.597C431.826 422.757 431.444 431.128 428.352 430.81C426.629 429.679 425.82 426.042 425.168 423.994C424.667 425.757 424.569 427.646 423.826 429.27C423.499 429.983 422.98 430.027 422.343 430.207C420.405 428.532 422.157 425.811 422.549 423.511C422.82 421.921 423.396 418.189 425.468 418.535C427.103 419.691 427.951 423.839 428.547 425.884C429.096 423.667 429.346 420.384 430.961 418.931Z" fill="black"/>
<path d="M465.257 425.217C467.871 426.098 467.507 429.652 467.744 431.98C467.891 433.415 468.344 439.193 465.529 437.833C465.071 437.134 465.13 436.037 464.969 435.057C464.565 434.603 464.825 434.77 464.068 434.706L461.708 434.367C460.946 435.757 460.725 436.425 459.116 436.98L458.61 436.644C458.108 434.193 461.67 428.757 463.103 426.633C463.662 425.805 464.329 425.502 465.257 425.217Z" fill="black"/>
<path d="M464.594 428.96C465.06 429.633 465.024 431.123 464.896 431.931L464.469 432.228L463.474 431.906L463.276 431.513C463.346 430.646 464.085 429.738 464.594 428.96Z" fill="#E1E1E1"/>
<path d="M485.763 429.269C489.125 429.806 488.222 435.193 488.578 437.642C489.128 441.429 485.897 444.526 485.654 438.895C485.643 438.645 485.003 438.557 484.784 438.494C484.041 438.428 483.226 438.292 482.48 438.185C481.832 439.529 481.383 440.52 479.739 440.808L479.312 440.43C478.78 438.4 482.364 432.617 483.598 430.847C484.212 429.967 484.791 429.662 485.763 429.269Z" fill="black"/>
<path d="M485.32 432.834C485.841 433.644 485.861 434.874 485.596 435.788L485.025 436.048L484.105 435.738L483.973 435.405C484.068 434.526 484.805 433.618 485.32 432.834Z" fill="#E1E1E1"/>
<path d="M439.221 420.302C439.997 420.543 440.923 421.011 441.339 421.744C441.645 422.273 441.72 422.905 441.546 423.491C441.437 423.852 441.454 423.739 441.064 423.951C440.311 423.898 439.818 423.629 439.22 423.245C436.567 421.542 433.647 429.432 436.647 429.943C437.603 430.107 438.334 429.383 438.438 428.476C437.597 427.969 436.593 427.791 436.675 426.761C437.886 425.006 439.988 425.832 441.737 426.424L441.98 426.508C442.26 427.15 442.389 427.362 442.211 428.009C440.651 429.262 439.685 433.021 437.212 432.832C429.946 432.277 432.05 420.572 439.221 420.302Z" fill="black"/>
<path d="M478.142 427.9C478.777 428.215 478.784 428.183 479.253 428.76C479.605 430.001 478.151 437.237 477.444 438.8C477.184 439.374 476.83 439.719 476.212 439.915C475.563 439.777 475.845 439.917 475.343 439.461C474.771 438.084 475.276 436.76 475.592 435.237L472.506 434.969C472.073 436.832 472.456 438.11 470.552 439.102C470.306 438.977 469.638 438.62 469.585 438.278C469.233 434.99 470.669 431.068 471.542 427.886C471.76 427.091 472.848 426.951 473.542 427.566C474.02 428.891 473.386 430.793 473.051 432.23L476.071 432.571C476.496 430.607 476.524 428.974 478.142 427.9Z" fill="black"/>
<path d="M495.186 431.097C496.879 431.331 498.55 431.283 499.51 432.881C499.569 434.719 497.006 434.175 495.851 434.005C495.323 436.564 494.955 439.547 494.1 441.994C493.842 442.732 493.352 442.925 492.665 443.172L491.907 442.54C491.125 440.919 492.756 435.685 493.26 433.667L493.053 433.628C491.831 433.39 490.747 433.142 490.022 432.066C490.285 430.2 493.987 430.916 495.186 431.097Z" fill="black"/>
<path d="M452.99 423.177C455.441 423.727 454.203 426.508 453.751 428.246C453.36 429.752 452.961 431.212 452.599 432.729C454.007 432.894 457.275 432.939 457.375 434.714C456.992 435.451 457.01 435.41 456.325 435.897C454.665 435.917 451.45 435.742 450.187 434.606C449.311 432.758 451.543 424.49 452.99 423.177Z" fill="black"/>
<path d="M498.737 441.255C499.531 441.391 500.085 442.116 500.008 442.918C499.93 443.72 499.247 444.325 498.442 444.307C497.866 444.293 497.346 443.959 497.095 443.441C496.844 442.922 496.903 442.307 497.249 441.847C497.595 441.386 498.169 441.158 498.737 441.255Z" fill="black"/>
<path d="M501.168 407.341L501.188 406.599L501.037 406.454C498.167 406.66 492.398 405.319 489.344 404.717L475.547 402.002L434.375 394.218C430.847 393.527 426.917 392.858 424.793 389.589C422.359 385.841 423.781 380.055 427.682 377.865C429.279 376.985 431.092 376.577 432.911 376.688C434.89 376.8 438.159 377.491 440.171 377.863L453.532 380.361C469.416 383.267 485.62 386.56 501.439 389.912C504.386 390.537 507.087 392.059 508.557 394.792C510.545 398.491 509.571 403.424 505.623 405.393C504.566 406.803 503.059 409.126 501.168 407.341Z" fill="#E1E1E1"/>
<path d="M501.17 407.342C501.421 406.565 502.033 405.903 502.373 405.125C502.9 403.922 503.225 402.633 504.706 402.487C506.146 403.093 505.85 404.156 505.624 405.394C504.567 406.804 503.06 409.126 501.17 407.342Z" fill="black"/>
<path d="M436.401 379.116C438.712 379.657 441.011 381.033 439.774 383.628C439.563 384.072 438.708 385.573 438.764 385.756C439.189 387.126 440.244 388.596 439.455 390.113C438.879 391.204 437.228 391.948 436.044 392.27C430.102 392.774 430.295 390.448 431.512 385.691C432.561 381.588 431.478 378.9 436.401 379.116Z" fill="black"/>
<path d="M434.469 386.941C435.555 387.069 437.003 387.243 436.982 388.605C436.66 389.221 436.41 389.293 435.81 389.642C435.25 389.724 434.893 389.711 434.335 389.709C433.673 389.325 433.941 389.585 433.568 388.843C433.554 388.064 433.739 387.28 434.469 386.941Z" fill="#E1E1E1"/>
<path d="M435.448 381.414C436.422 381.578 437.133 381.656 437.373 382.716C437.16 383.358 436.855 383.507 436.32 383.93C435.742 384.088 435.495 384.217 434.922 384.051C434.347 383.178 434.738 382.079 435.448 381.414Z" fill="#E1E1E1"/>
<path d="M492.056 390.447C494.617 391.377 493.565 394.958 493.479 397.19C493.419 398.738 493.173 402.157 491.528 402.704C489.508 402.02 490.701 397.263 490.873 395.436C489.965 396.674 488.685 398.784 487.004 398.869C485.997 398.202 485.921 396.654 485.636 395.348L485.407 395.17C484.892 396.414 483.572 402.783 481.564 400.473C481.068 398.708 482.271 396.04 482.915 394.327C483.534 392.683 484.441 389.477 486.605 389.809C487.867 390.731 487.968 393.066 488.248 394.684C489.337 393.181 490.461 391.295 492.056 390.447Z" fill="black"/>
<path d="M445.737 381.931C446.189 382.032 446.677 382.141 447.094 382.345C448.188 382.882 449.029 383.826 449.433 384.976C450.671 388.51 448.499 392.567 444.892 393.663C438.664 393.668 440.052 383.789 445.737 381.931Z" fill="black"/>
<path d="M445.714 384.55C448.322 386.047 446.759 389.48 444.914 391.004C441.774 390.57 444.253 385.804 445.714 384.55Z" fill="#E1E1E1"/>
<path d="M499.541 392.346C505.131 392.977 504.528 402.255 498.42 403.932C492.502 403.93 493.911 393.946 499.541 392.346Z" fill="black"/>
<path d="M499.498 394.94C501.93 396.624 500.435 399.868 498.509 401.368C495.576 400.562 497.928 396.229 499.498 394.94Z" fill="#E1E1E1"/>
<path d="M465.518 385.269C466.535 385.39 467.446 385.577 467.903 386.607C467.619 388.601 464.275 387.827 462.952 387.634C462.737 388.287 462.679 388.458 462.569 389.127C463.203 390.442 463.726 389.566 465.378 390.178C466.047 390.753 466.22 391.521 465.669 392.235C464.26 392.829 461.015 391.404 461.327 394.221C461.868 394.598 463.788 394.668 464.601 394.742C465.223 394.935 465.652 395.321 465.858 395.939C465.126 398.141 460.225 397.499 459.185 396.301C458.075 394.541 459.07 391.46 459.556 389.732C460.901 384.95 460.687 384.641 465.518 385.269Z" fill="black"/>
<path d="M472.643 386.564C474.146 386.752 476.154 387.585 475.747 389.456C474.55 390.242 473.094 388.734 471.685 389.933C471.639 390.132 471.593 390.33 471.547 390.528C472.966 392.238 474.942 393.85 474.912 396.275C474.884 398.597 471.712 398.986 469.968 398.863C468.661 398.309 465.953 396.449 467.895 395.003C469.552 394.881 470.416 396.703 471.867 395.892C472.021 394.313 469.402 392.897 468.963 391.09C468.301 388.367 470.281 387.178 472.643 386.564Z" fill="black"/>
<path d="M455.094 383.268C456.629 383.375 458.637 384.166 458.085 386.053C456.802 387.337 455.888 385.586 454.467 386.095C452.968 388.245 457.982 389.844 457.573 392.497C457.176 395.067 454.536 395.629 452.541 395.518C451.729 395.204 450.893 394.838 450.338 394.152C449.792 393.475 449.585 392.131 450.491 391.671C451.39 391.708 452.564 392.46 453.482 392.895C454.244 392.849 453.932 392.984 454.485 392.573C454.652 391.064 451.768 389.426 451.326 387.481C450.746 384.933 452.767 383.713 455.094 383.268Z" fill="black"/>
<path d="M528.866 373.019C530.966 373.42 533.027 374.007 535.024 374.773C562.11 384.987 567.734 419.152 558.228 443.457C553.037 456.731 542.778 468.389 529.63 474.142C518.15 479.245 505.105 479.539 493.409 474.958C491.399 474.158 482.203 470.435 483.505 467.427C484.761 466.278 486.799 467.648 487.925 468.415C490.571 470.22 493.211 471.355 496.266 472.394C501.537 474.218 507.115 474.992 512.684 474.675C527.077 474.292 539.914 460.505 546.312 448.355C557.673 426.779 557.186 391.888 532.804 379.391C522.725 374.225 511.063 375.533 501.199 380.473C499.115 381.516 496.758 383.305 494.564 384.215C492.089 384.673 492.226 382.177 494.308 380.705C504.364 373.687 516.784 370.925 528.866 373.019Z" fill="black"/>
<path d="M554.377 401.545C555.933 403.784 556.053 408.54 557.939 411.056C559.142 412.661 559.243 419.329 559.192 421.633C558.87 436.174 553.734 450.172 543.118 460.36C542.196 461.318 541.94 461.575 540.834 462.357C542.565 460.243 544.186 458.043 545.695 455.765C554.027 443.178 558.011 426.52 556.402 411.507C555.988 407.638 555.127 405.214 554.377 401.545Z" fill="#E1E1E1"/>
<path d="M476.595 358.28C478.166 358.62 485.485 359.367 483.1 362.296C482.521 362.57 482.051 362.74 481.399 362.629C477.158 361.907 472.941 360.926 468.712 360.116L443.411 355.437C441.527 355.133 435.975 354.862 436.163 352.562C436.588 351.86 437.031 351.288 437.957 351.391C442.164 351.859 446.424 352.679 450.592 353.419C459.276 354.953 467.944 356.573 476.595 358.28Z" fill="black"/>
<path d="M437.659 467.212C439.485 467.552 443.443 467.827 443.933 469.788C443.732 470.841 442.622 471.572 441.606 471.389C437.908 470.716 434.213 469.964 430.523 469.236L403.718 463.897C401.926 463.495 397.732 463.365 397.409 461.23C397.823 460.216 398.589 459.626 399.712 459.826C403.997 460.588 408.28 461.44 412.55 462.276L437.659 467.212Z" fill="black"/>
<path d="M472.033 370.541C473.356 370.79 477.023 371.596 475.672 373.744C475.056 374.107 474.402 374.256 473.688 374.132C461.653 372.049 449.548 369.479 437.509 367.472C435.873 367.207 433.96 367.149 433.441 365.256C433.679 364.125 434.72 363.794 435.783 363.936C439.399 364.418 443.025 365.116 446.62 365.763C455.107 367.268 463.579 368.861 472.033 370.541Z" fill="black"/>
<path d="M417.352 437.603C421.848 438.763 421.143 440.7 419.534 443.67C418.874 444.89 423.48 448.581 416.662 450.656C410.138 451.196 411.544 447.822 412.492 443.191C413.313 439.18 413.027 437.483 417.352 437.603Z" fill="black"/>
<path d="M414.903 445.303C416.049 445.444 417.529 445.526 417.659 446.935C417.339 447.573 417.179 447.608 416.573 447.97C415.85 448.053 414.996 448.084 414.26 448.128C414.413 447.161 414.499 446.184 414.903 445.303Z" fill="#E1E1E1"/>
<path d="M416.455 439.873C417.42 440.146 417.961 440.267 417.968 441.303C417.589 441.982 417.324 442.053 416.625 442.47C415.764 442.612 416.106 442.717 415.499 442.382C415.163 441.393 415.56 440.365 416.455 439.873Z" fill="#E1E1E1"/>
<path d="M441.34 442.578C444.054 443.43 442.558 448.116 442.586 450.309C442.603 451.594 442.194 454.397 440.786 454.866C438.617 454.276 439.903 449.569 440.001 447.564C437.487 450.955 435.939 452.987 434.765 447.497L434.529 447.39C434.021 448.932 433.301 451.144 432.54 452.652C432.315 453.098 431.941 453.088 431.552 453.136C430.947 452.886 430.894 452.92 430.53 452.361C430.252 451.054 431.582 447.761 432.058 446.337C432.58 444.775 433.173 442.658 434.679 441.853C436.845 441.867 437.033 445.155 437.33 446.849C438.513 445.232 439.558 443.394 441.34 442.578Z" fill="black"/>
<path d="M449.189 444.522C454.912 446.804 452.996 455.17 447.412 456.119C441.297 454.678 443.732 445.63 449.189 444.522Z" fill="black"/>
<path d="M448.713 447.257C451.265 448.261 449.664 452.136 447.757 453.472C444.937 452.895 447.221 448.478 448.713 447.257Z" fill="#E1E1E1"/>
<path d="M464.904 447.615C470.976 448.383 469.785 457.278 464.348 458.989C457.989 458.761 459.673 449.596 464.904 447.615Z" fill="black"/>
<path d="M465.051 450.293C467.49 451.206 466.206 455.111 464.116 456.342C461.266 455.828 463.607 451.5 465.051 450.293Z" fill="#E1E1E1"/>
<path d="M505.71 454.816C511.336 456.091 510.013 465.109 504.455 466.296C503.832 466.236 503.401 466.21 502.828 465.922C501.912 465.47 501.227 464.658 500.935 463.679C499.898 460.302 502.215 455.848 505.71 454.816Z" fill="black"/>
<path d="M505.643 457.427C507.783 459.303 506.519 462.177 504.575 463.663C501.826 462.789 503.985 458.662 505.643 457.427Z" fill="#E1E1E1"/>
<path d="M488.646 451.237C491.988 451.677 491.282 456.251 491.522 458.78C491.65 460.127 491.512 462.295 490.786 463.416C490.507 463.845 490.049 463.733 489.625 463.72C488.251 462.798 489.27 461.895 488.56 460.547L487.888 460.424L485.55 460.13C484.949 461.433 484.478 462.447 482.949 462.828L482.475 462.498C481.648 460.229 486.455 452.414 488.646 451.237Z" fill="black"/>
<path d="M488.407 454.858C488.838 455.571 488.831 457.003 488.62 457.809L488.125 457.985C487.313 457.757 487.365 457.924 487.062 457.393C487.144 456.52 487.886 455.633 488.407 454.858Z" fill="#E1E1E1"/>
<path d="M590.721 373.485C591.918 373.641 593.4 374.628 592.605 375.892C591.097 378.289 587.351 379.785 584.955 381.298C583.318 382.333 580.731 383.909 579.067 384.538C578.134 384.498 577.401 384.023 577.052 383.173C577.223 380.573 588.339 374.366 590.721 373.485Z" fill="black"/>
<path d="M578.618 356.758C582.065 357.601 580.126 360.496 578.729 362.292C577.061 364.432 573.165 371.528 571.039 372.502C567.52 372.063 569.856 368.349 571.038 366.791C572.846 364.406 576.184 357.925 578.618 356.758Z" fill="black"/>
<path d="M429.551 440.842C430.416 441.337 430.93 441.856 430.739 442.946C430.242 445.793 429.743 449.058 427.413 451.033C425.854 452.355 423.573 452.386 422.406 450.553C421.168 448.576 421.661 446.128 422.125 443.983C422.577 442.33 422.697 440.056 424.716 440.207C426.666 441.733 423.18 446.454 424.567 448.913C425.221 449.342 424.88 449.273 425.609 449.193C428.279 447.153 427.069 442.22 429.551 440.842Z" fill="black"/>
<path d="M500.921 453.147C501.581 453.438 501.814 453.679 502.057 454.345C502.084 455.489 497.047 462.871 496.186 464.346C495.948 464.754 495.354 464.844 494.902 464.881C494.108 464.574 494.392 464.825 493.964 464.169C493.863 462.715 494.917 461.381 495.692 460.083C495.961 458.463 492.341 454.907 493.847 452.836C494.444 452.546 494.397 452.538 495.051 452.615C496.13 453.214 496.95 455.779 497.495 457.042C498.517 455.515 499.29 453.986 500.921 453.147Z" fill="black"/>
<path d="M592.655 395.056C595.844 395.551 595.357 398.545 593.122 398.923C590.393 399.385 586.27 398.957 583.489 398.818C582.157 398.666 581.409 398.152 581.305 396.727C582.041 394.206 590.232 395.029 592.655 395.056Z" fill="black"/>
<path d="M481.728 450.02C482.998 450.126 484.666 450.325 484.873 451.804C484.178 453.332 482.444 452.934 481.108 452.792C480.602 454.866 480.429 457.021 479.966 459.093C479.601 460.733 479.263 462.124 477.34 461.55C476.31 459.726 478.062 454.536 478.623 452.338C478.022 452.258 476.62 452.114 476.075 451.735C474.991 450.979 475.487 449.607 476.917 449.494C478.373 449.38 480.224 449.777 481.728 450.02Z" fill="black"/>
<path d="M457.829 445.751C459.492 446 460.817 445.934 461.807 447.456C461.98 449.271 459.668 448.862 458.528 448.707C457.933 451.075 457.734 453.33 457.164 455.668C456.845 456.978 456.607 457.166 455.516 457.759C454.393 457.141 454.153 456.508 454.38 455.233C454.788 452.943 455.42 450.662 455.858 448.369C454.601 448.054 453.616 447.888 452.959 446.65C453.336 444.936 456.648 445.572 457.829 445.751Z" fill="black"/>
<path d="M677.118 424.848C677.941 425.039 677.911 425.008 678.569 425.522C678.892 426.243 678.835 425.872 678.711 426.677C677.413 428.623 670.967 430.902 668.489 431.856C667.738 431.767 667.338 431.657 666.876 431.058C666.58 428.986 670.085 427.9 671.643 427.151C673.369 426.322 675.319 425.506 677.118 424.848Z" fill="black"/>
<path d="M668.708 413.183C669.406 413.313 669.455 413.273 670.032 413.719C670.276 414.227 670.429 414.398 670.255 415.03C669.784 416.74 663.944 423.216 662.754 423.892C662.047 423.76 661.955 423.813 661.46 423.29C661.293 422.764 661.164 422.486 661.423 421.896C662.239 420.021 667.212 413.983 668.708 413.183Z" fill="black"/>
<path d="M675.621 438.758C676.444 438.814 676.996 438.881 677.673 439.307C678.114 439.906 678.164 439.896 678.293 440.655C677.59 442.509 673.168 441.655 671.486 441.497C670.215 441.423 668.067 441.028 668.853 439.214C670.218 438.088 673.782 438.63 675.621 438.758Z" fill="black"/>
<path d="M514.25 454.045C515.186 454.65 515.635 455.004 515.361 456.268C514.934 458.243 514.05 462.57 512.324 463.612C509.796 462.859 511.941 458.532 512.349 456.804C512.623 455.639 513.146 454.593 514.25 454.045Z" fill="black"/>
<path d="M403.44 439.648C404.71 439.65 405.738 440.68 405.736 441.95C405.734 443.218 404.703 444.245 403.433 444.244C402.165 444.241 401.14 443.209 401.141 441.943C401.143 440.674 402.172 439.647 403.44 439.648Z" fill="black"/>
<path d="M407.861 418.654C409.128 418.62 410.182 419.621 410.215 420.888C410.247 422.155 409.246 423.208 407.979 423.24C406.713 423.271 405.662 422.271 405.629 421.006C405.597 419.74 406.596 418.688 407.861 418.654Z" fill="black"/>
<path d="M424.801 361.943C426.159 362.131 427.863 362.298 427.7 364.131C426.935 365.54 425.842 365.244 424.514 365.018C423.157 364.887 421.658 364.697 421.782 362.917C422.481 361.53 423.501 361.728 424.801 361.943Z" fill="black"/>
<path d="M412.074 398.613C412.894 398.539 413.69 398.912 414.158 399.59C414.625 400.268 414.692 401.145 414.331 401.885C413.97 402.626 413.239 403.114 412.417 403.164C411.172 403.239 410.097 402.301 410.004 401.057C409.91 399.814 410.832 398.725 412.074 398.613Z" fill="black"/>
<path d="M416.582 378.475C417.834 378.395 418.915 379.342 419.002 380.593C419.088 381.844 418.146 382.93 416.895 383.023C415.636 383.115 414.541 382.166 414.454 380.906C414.368 379.646 415.322 378.556 416.582 378.475Z" fill="black"/>
<path d="M426.967 349.265C428.508 349.57 430.052 349.668 430.636 351.407C430.487 352.599 429.58 352.723 428.507 352.711C426.943 352.527 424.953 352.424 424.445 350.584C424.743 349.411 425.888 349.259 426.967 349.265Z" fill="black"/>
<path d="M510.763 465.216C511.292 465.105 511.837 465.289 512.192 465.697C512.545 466.104 512.651 466.67 512.467 467.178C512.284 467.686 511.84 468.054 511.307 468.142C510.51 468.274 509.753 467.74 509.604 466.945C509.456 466.149 509.97 465.382 510.763 465.216Z" fill="black"/>
<path d="M631.994 888.852C644.496 888.968 665.177 890.029 677.444 892.805C677.126 900.305 674.382 915.378 673.274 923.323L668.114 961.174C666.448 972.456 664.947 983.761 663.619 995.087C658.138 995.052 652.459 994.524 646.947 994.498C632.661 994.466 618.387 995.247 604.192 996.841C589.14 998.533 578.312 1000.65 563.727 1003.72C563.762 1000.73 563.948 997.546 564.14 994.553C566.229 961.912 567.893 928.906 570.638 896.337C587.592 891.127 614.389 889.029 631.994 888.852Z" fill="white"/>
<path d="M597.691 934.019C604.999 933.891 649.921 934.22 653.086 937.157C653.82 937.839 653.983 938.774 653.998 939.727C654.03 941.813 654.073 944.861 652.404 946.376C650.254 948.322 642.02 946.691 638.96 946.647C627.856 945.447 614.587 945.665 603.315 945.289C598.562 945.129 587.954 946.026 583.869 945.205C582.939 944.342 582.598 943.733 582.508 942.504C581.823 933.206 584.932 933.981 592.744 933.996C594.259 933.999 596.22 934.01 597.691 934.019Z" fill="#030303"/>
<path d="M586.59 956.402C600.814 956.186 615.039 956.37 629.249 956.95C632.509 957.098 643.007 957.11 645.122 958.791C645.929 960.498 645.125 961.139 643.601 961.853C640.315 961.868 636.204 961.527 632.853 961.375C626.221 961.078 619.587 960.857 612.95 960.714C607.341 960.624 601.729 960.586 596.12 960.603C593.472 960.609 586.473 961.177 584.827 959.592C584.203 957.687 584.914 957.124 586.59 956.402Z" fill="#030303"/>
<path d="M585.991 972.434C596.53 971.887 607.791 972.493 618.373 972.557C620.876 972.574 624.702 972.665 626.8 974.04C627.359 974.934 627.301 974.488 627.184 975.377C626.427 976.379 626.345 976.394 625.226 977.026C612.485 976.93 599.653 976.438 586.891 976.531C585.906 976.537 585.216 976.222 584.45 975.651C583.596 973.912 584.549 973.308 585.991 972.434Z" fill="#030303"/>
<path d="M615.334 907.787C619.611 908.766 617.837 914.934 617.997 918.308C618.096 920.348 617.639 922.495 616.062 923.888C611.893 923.139 613.376 917.329 613.26 914.043C613.175 911.715 613.539 909.384 615.334 907.787Z" fill="#030303"/>
<path d="M634.864 911.891C641.487 912.526 632.166 924.067 630.188 925.474C628.88 925.387 628.915 925.462 628.067 924.734C626.954 922.048 632.828 913.671 634.864 911.891Z" fill="#030303"/>
<path d="M595.223 912.188C595.866 912.269 596.778 912.368 597.335 913.097C599.345 915.731 602.725 920.655 603.046 923.959C603.119 924.734 602.189 925.407 601.691 925.856C601.263 925.719 600.129 925.331 599.768 924.871C597.682 922.222 594.246 917.604 593.938 914.215C593.868 913.435 594.727 912.683 595.223 912.188Z" fill="#030303"/>
<path d="M482.969 876.515C485.462 876.486 490.452 876.981 492.975 877.2C514.692 879.076 546.756 885.952 565.98 896.31C564.407 930.418 560.925 965.399 559.156 999.705C559.147 1000.65 559.188 1000.81 558.938 1001.74C557.393 1002.37 555.73 1000.76 554.185 1000.05C530.82 989.282 504.867 984.239 479.289 982.663C479.155 974.918 479.815 964.942 480.028 957.078C480.35 939.875 480.846 922.673 481.518 905.48C481.71 898.997 481.949 892.514 482.234 886.031C482.33 883.75 482.372 878.385 482.969 876.515Z" fill="white"/>
<path d="M500.525 894.274C500.604 894.265 500.683 894.256 500.762 894.25C506.571 893.93 546.161 901.325 549.401 904.416C550.127 905.107 550.141 906.488 550.165 907.423C550.302 913.055 549.363 918.981 548.973 924.617C548.655 929.232 548.821 934.185 547.912 938.71C547.738 939.572 547.301 940.076 546.694 940.691C546.525 940.729 546.243 940.796 546.094 940.784C542.186 940.476 537.477 939.22 533.543 938.558C524.223 936.997 515.057 935.508 505.704 934.185C504.315 933.92 498.882 933.85 498.081 932.961C496.325 931.012 497.363 921.749 497.475 919.742L498.468 902.741C498.665 899.757 498.397 896.138 500.525 894.274Z" fill="#030303"/>
<path d="M502.839 898.271C515.557 899.524 533.866 903.787 546.289 907.036C545.414 916.587 544.861 926.522 544.124 936.132C543.655 936.321 542.868 936.263 542.364 936.175C528.742 933.83 514.836 931.135 501.092 929.684C501.101 926.473 501.487 922.099 501.675 918.795L502.839 898.271Z" fill="white"/>
<path d="M497.446 944.322C501.843 944.351 543.313 950.49 545.227 952.236C545.664 952.632 545.912 953.119 545.816 953.716C545.67 954.628 545.061 954.998 544.371 955.479C534.932 953.602 525.441 951.991 515.911 950.645C510.687 949.867 503.049 948.929 497.665 947.929C497.089 947.822 496.58 946.86 496.35 946.283C496.504 945.191 496.688 945.103 497.446 944.322Z" fill="#030303"/>
<path d="M496.853 957.439C502.239 957.603 540.356 963.532 543.497 965.009C544.199 965.338 544.534 965.816 544.797 966.536C544.508 967.824 544.61 967.413 543.576 968.503C541.967 968.404 537.698 967.544 535.942 967.238C531.219 966.408 526.49 965.612 521.757 964.846L505.582 962.334C503.083 961.956 499.248 961.562 496.95 960.907C496.21 960.289 496.045 960.277 495.812 959.345C496.081 958.072 495.938 958.512 496.853 957.439Z" fill="#030303"/>
<path d="M496.392 969.408C499.856 969.091 514.061 971.835 518.095 972.319C519.327 972.468 520.078 972.896 520.729 973.948C520.67 975.157 520.712 974.758 519.969 975.894C517.64 976.2 500.193 973.278 496.721 972.677C496.141 972.578 495.76 971.856 495.543 971.288C495.574 970.338 495.816 970.163 496.392 969.408Z" fill="#030303"/>
<path d="M652.975 849.877C653.904 849.869 655.682 849.959 655.804 851.194C656.209 855.314 649.828 858.266 646.506 859.195C641.41 860.617 637.331 859.752 632.859 857.243C631.373 856.171 629.764 854.851 630.557 852.844C634.657 849.714 638.989 862.188 652.975 849.877Z" fill="#030303"/>
<path d="M635.159 829.85C636.286 829.728 638.547 829.938 638.771 831.301C638.142 833.72 633.984 834.731 631.834 837.012C631.592 840.31 636.513 839.559 637.615 842.359C637.443 843.48 637.405 843.434 636.677 844.241C634.756 844.724 633.329 844.465 631.452 843.658C629.8 842.938 628.515 841.575 627.895 839.882C627.297 838.23 627.388 836.406 628.145 834.821C629.62 831.692 632.195 830.829 635.159 829.85Z" fill="#030303"/>
<path d="M620.016 817.606C626.184 817.443 625.327 826.047 621.248 828.996C615.61 829.45 616.103 820.541 620.016 817.606Z" fill="#030303"/>
<path d="M655.86 822.811C661.789 823.199 660.592 831.274 657.054 833.966C650.755 834.278 651.935 825.37 655.86 822.811Z" fill="#030303"/>
<path d="M657.189 801.322C660.831 800.9 664.528 802.268 667.244 804.776C668.986 806.387 668.829 808.02 666.981 809.498C664.921 808.907 663.444 806.996 661.536 806.011C659.82 805.124 655.505 805.739 655.438 803.246C656.017 802.127 656.143 802.096 657.189 801.322Z" fill="#030303"/>
<path d="M622.635 795.533C624.905 795.33 630.968 796.762 629.132 799.606C626.632 800.947 625.863 799.849 623.156 799.855L622.839 799.859C620.689 800.302 618.218 802.244 616.318 800.815C615.601 797.769 620.418 796.077 622.635 795.533Z" fill="#030303"/>
<path d="M664.529 734.908C667.556 734.682 670.135 735.018 673.107 735.691C689.114 739.305 703.004 749.187 711.666 763.125C715.142 757.922 721.84 751.896 726.129 760.965C727.996 764.915 725.815 771.16 724.078 775.052C727.42 775.577 729.673 775.719 732.88 777.397C735.893 778.973 740.642 783.181 738.425 787.127C736.962 789.733 733.813 790.762 731.022 791.484C733.871 796.718 735.78 800.9 736.386 806.893C737.744 820.283 731.385 831.503 719.772 837.84C718.979 844.923 715.92 851.238 709.72 855.462C707.774 856.791 704.364 857.31 702.558 858.901L702.532 859.451C702.99 859.961 706.069 861.409 707.208 862.143C709.268 863.463 711.229 864.932 713.079 866.535C730.68 881.893 733.842 913.2 732.915 935.425C732.423 947.246 729.46 956.908 721.599 965.905C729.312 967.609 743.854 968.434 749.859 973.323C750.765 974.06 751.487 975.034 751.554 976.237C751.606 977.218 751.196 978.101 750.558 978.824C742.452 988.028 683.685 990.016 669.442 990.627C668.958 993.142 668.861 999.524 666.86 1000.07C664.325 1000.75 653.965 999.997 651.138 999.898C646.995 999.714 642.845 999.704 638.7 999.864C617.812 1000.39 596.999 1002.63 576.472 1006.56C574.083 1007.01 562.509 1009.68 561.511 1009.45C556.66 1008.32 546.258 1001.28 540.733 1000.65C531.959 999.656 522.984 998.984 514.185 998.04C488.911 995.543 463.702 992.422 438.581 988.687C429.328 987.233 412.332 985.059 404.532 980.459C403.297 979.73 401.759 978.555 401.554 977.023C401.432 976.105 401.772 975.059 402.367 974.357C409.577 965.864 461.184 962.137 474.336 961.379C474.54 943.478 475.667 924.673 476.285 906.708L476.975 885.735C477.08 882.736 476.881 872.988 478.9 872.126C482.982 870.386 497.653 872.306 502.06 872.854C506.307 873.201 511.865 874.273 516.042 875.037C534.186 878.361 551.823 883.358 568.44 891.449C577.869 888.293 596.448 885.724 606.284 884.73C627.636 882.571 650.381 883.372 671.575 886.478C673.321 886.828 680.438 887.297 681.362 888.64C683.768 892.143 681.35 903.719 680.831 907.553C679.809 915.586 678.727 923.613 677.594 931.628C677.3 933.686 675.825 942.237 676.158 943.924C678.859 957.618 689.004 969.846 703.992 968.119C726.662 965.508 728.819 937.697 727.225 919.985C720.028 921.095 717.569 921.705 709.88 922.043C710.822 925.266 715.951 935.853 711.412 936.821C710.087 936.291 709.356 935.11 708.864 933.802C702.958 918.069 696.827 902.424 690.108 887.014C689.053 884.593 690.522 882.545 692.057 880.68C698.342 873.055 701.2 861.994 693.946 853.976C693.363 853.332 692.978 853.321 692.195 853.312L691.801 853.703C693.328 856.932 695.926 867.23 691.647 868.956C690.916 868.83 690.499 868.541 690.406 867.735C689.805 862.563 690.134 857.106 686.839 852.654C685.828 851.29 683.733 851.089 682.497 852.525C681.842 855.29 684.948 859.012 685.178 861.884C685.332 863.785 684.871 869.447 682.378 869.643C680.085 867.63 681.643 865.159 681.212 862.933C680.635 859.944 679.161 854.878 675.994 853.898C671.708 854.522 673.876 861.762 673.865 864.585C673.983 869.415 669.718 871.045 666.082 872.632C661.584 874.552 659.727 876.639 657.122 880.561C656.186 881.965 645.776 880.581 643.877 880.482C626.157 879.544 608.458 881.187 590.895 883.291C590.1 883.387 589.505 882.719 589.091 882.189C588.748 880.223 590.332 878.539 591.393 877.003C595.691 870.78 600.9 866.663 607.401 862.913C601.11 855.171 598.418 848.25 597.731 838.33C596.411 837.488 595.318 836.786 594.248 835.6C586.836 827.392 588.896 808.182 601.891 807.034C603.225 796.565 603.541 791.468 608.709 782.192C604.77 781.479 601.518 780.98 598.197 778.61C589.435 772.354 597.932 763.303 604.607 759.996C610.279 757.186 615.114 756.062 621.299 755.366C619.114 753.079 616.751 750.252 617.762 746.899C618.298 744.984 620.317 742.748 622.197 742.046C633.735 737.736 648.003 742.289 658.991 746.06C656.82 740.017 657.956 736.583 664.529 734.908ZM629.182 778.289C624.179 780.03 620.484 781.176 615.132 782.003C607.079 796.238 607.766 802.78 605.867 818.557C605.654 820.31 604.313 824.836 603.824 826.844C602.364 833.126 602.486 839.671 604.176 845.891C610.219 868.122 635.219 876.951 656.211 873.405C658.953 870.978 660.931 869.634 664.203 868.133C665.788 867.408 669.412 866.149 669.171 864.182C668.329 857.338 668.038 847.922 678.218 850.043C681.991 846.363 684.727 845.885 689.205 848.997C694.228 847.997 696.592 849.294 699.619 853.324C705.033 852.689 706.72 851.581 710.406 847.613C717.043 840.474 715.667 824.356 703.276 826.195C699.791 826.713 694.839 832.361 692.03 830.606C688.061 828.121 689.791 820.294 690.633 816.444C688.644 816.009 687.708 815.769 686.514 813.954C683.679 809.639 685.681 799.71 686.84 795.021C687.178 793.67 687.528 792.32 687.886 790.974C682.097 793.119 677.394 794.805 671.235 795.739C662.304 797.092 653.694 793.809 659.434 783.458C659.612 783.135 659.798 782.816 659.993 782.502C653.496 785.068 633.506 794.331 628.57 785.201C627.711 783.61 629.812 778.784 629.295 778.307L629.182 778.289ZM600.924 812.048C594.109 815.266 593.855 824.835 596.745 830.818L597.471 831.564L597.791 831.348C598.313 826.437 602.127 815.554 601.162 812.289L600.924 812.048Z" fill="#030303"/>
<path d="M720.645 881.646C722.253 882.532 722.501 883.22 723.52 884.755C721.819 884.114 721.53 883.197 720.645 881.646Z" fill="#030303"/>
<path d="M458.501 782.608C464.958 782.132 464.973 792.259 460.807 795.644C454.598 796.393 453.857 786.104 458.501 782.608Z" fill="#030303"/>
<path d="M388.486 695.04C394.774 694.247 402.398 695.819 407.668 699.66C409.707 700.413 416.722 707.773 413.202 709.342C404.208 713.348 397.591 719.671 392.871 728.357C391.671 730.567 387.584 738.527 390.08 740.863C390.597 740.601 390.91 740.406 391.142 739.827C392.621 736.143 394.224 733.123 396.356 729.746C398.921 725.66 402.028 721.94 405.592 718.687C418.208 707.129 439.37 700.928 456.094 702.054C471.997 703.124 491.32 705.93 502.563 718.403C507.878 724.266 511.496 732.297 511.349 740.296C511.278 744.151 508.087 744.143 505.204 743.587C491.988 741.036 483.429 732.836 476.179 722.003C472.222 737.107 461.741 749.022 449.232 758.017C441.467 763.602 433.285 766.681 424.15 769.162C424.348 774.709 424.324 776.918 423.143 782.316C425.715 782.795 430.326 783.038 433.094 783.254C435.631 767.642 448.076 756.001 464.73 761.238C470.363 763.009 473.995 767.965 476.331 773.201C479.133 771.76 479.938 771.649 482.945 771.284C483.41 759.609 491.915 749.604 503.638 748.049C508.842 747.326 514.12 748.712 518.297 751.899C522.868 755.519 525.811 760.81 526.476 766.603C529.129 787.936 507.872 805.909 489.763 791.274C491.082 796.916 496.4 804.179 492.603 809.278C490.647 811.905 483.616 814.094 480.929 811.774C480.402 810.793 480.453 810.823 480.578 809.771C481.897 807.392 486.085 808.324 488.105 806.837C492.184 803.833 482.832 793.442 484.103 789.036C484.449 787.839 485.276 787.304 486.201 786.637C485.46 785.248 485.023 784.348 484.468 782.864C483.631 780.632 483.813 777.253 481.952 775.86C480.275 775.49 479.173 776.399 477.74 777.311C481.298 815.472 435.471 819.105 433.15 787.721C429.463 787.498 425.765 786.981 422.096 786.523C419.177 790.285 417.622 787.553 413.952 785.945C411.712 784.951 409.161 784.915 406.893 785.846C399.769 788.85 399.135 797.842 402 804.08C404.548 809.628 409.622 813.037 415.852 812.919C417.782 812.881 420.539 811.14 422.146 812.186C424.366 814.57 425.819 818.418 427.637 821.262C433.437 830.269 441.826 836.744 451.746 840.459C477.579 850.132 504.767 836.988 510.718 809.511C511.644 805.939 511.633 802.037 512.805 798.55C513.314 797.035 515.11 797.176 516.236 797.779C517.027 798.832 517.314 799.789 517.26 801.133C516.683 815.276 511.398 826.469 501.674 836.513C503.38 837.979 506.381 839.733 508.356 841.309C516.415 847.708 523.087 855.954 527.669 865.17C528.53 867.27 530.971 870.7 529.129 872.845C528.192 873.934 525.9 873.371 525.223 872.351C523.685 870.035 522.371 867.107 521.014 864.66C518.802 860.735 516.215 857.035 513.29 853.608C507.501 847.263 504.501 844.686 497.116 840.304C487.899 846.446 480.169 848.778 469.206 848.868C468.831 849.707 468.177 851.429 467.648 852.122C460.761 861.142 447.851 860.534 439.416 854.479C434.031 850.593 430.515 844.631 429.718 838.038C429.599 837.044 429.931 832.341 428.868 832.39C425.805 832.536 421.414 834.651 418.562 835.936C395.031 846.388 378.377 869.613 369.904 893.347C363.094 912.426 351.191 949.913 377.502 959.339C396.934 966.302 413.27 952.591 419.63 934.958C405.551 936.129 395.103 928.375 393.495 914.063C388.2 918.99 384.794 923.845 380.888 929.792C380.29 930.7 379.771 930.753 378.767 930.864C377.817 930.503 377.892 930.503 377.29 929.664C376.168 924.087 389.762 907.992 396.098 906.68C397.95 902.733 400.327 899.056 403.162 895.743C412.947 884.121 426.528 877.574 441.628 876.396C448.171 875.878 461.311 876.635 466.299 881.404C474.136 888.898 464.536 897.115 456.068 896.226C454.664 896.081 450.692 896.325 449.19 896.34C453.419 904.017 456.644 912.692 446.112 918.082C444.408 918.956 443.093 918.999 441.232 919.052C438.366 926.056 434.583 928.705 426.976 928.251C424.855 930.657 426.704 931.552 425.874 933.999C421.194 947.67 412.495 960.347 398.479 965.105C382.812 970.422 361.63 962.791 357.154 945.872C351.416 924.177 361.887 894.198 371.731 874.904C383.171 852.487 401.429 835.13 425.561 827.508C423.599 825.014 422.42 823.199 420.932 820.426C387.987 840.114 355.93 800.789 381.308 771.791C386.444 765.922 386.212 763.79 386.957 756.585L386.442 756.674C346.609 763.488 348.002 700.941 388.486 695.04ZM463.607 888.697C466.455 882.034 448.094 881.255 444.196 881.544C429.296 882.663 417.699 887.451 407.557 898.875C403.178 903.807 401.747 907.601 398.716 912.895C399.833 923.256 406.532 930.211 417.288 929.777C419.496 928.472 420.45 927.769 422.29 925.901C421.637 924.34 420.943 922.647 422.58 921.478C425.974 921.257 429.854 925.595 433.946 921.368C435.33 919.938 435.935 917.982 436.396 916.097L436.434 915.739C437.043 909.51 428.732 902.473 431.179 900.422C431.697 899.988 432.287 899.97 432.913 900.107C435.587 900.693 438.86 906.336 439.969 908.705C440.702 910.27 441.296 911.925 441.628 913.621C442.633 913.967 443.389 913.711 444.331 913.219C452.898 908.723 445.295 898.612 440.25 894.687C439.118 893.804 436.928 892.379 436.664 890.94C437.516 887.835 442.129 890.445 443.66 891.52C447.214 891.366 462.143 892.123 463.607 888.697ZM454.755 804.633C480.796 802.164 479.012 762.365 456.223 764.101C430.878 767.457 431.386 804.822 454.755 804.633ZM505.772 792.253C530.11 786.509 526.141 749.339 504.079 752.131C479.308 756.527 482.609 795.004 505.772 792.253Z" fill="#030303"/>
<path d="M499.696 771.85C504.326 771.842 504.724 775.982 504.354 779.86C504.126 782.255 503.402 783.452 501.484 784.873C495.327 784.534 495.577 774.905 499.696 771.85Z" fill="#030303"/>
<path d="M415.076 949.582L415.237 949.769C415.125 950.264 411.624 953.381 410.792 954.241L410.637 954.04C411.492 952.312 413.568 950.803 415.076 949.582Z" fill="#030303"/>
<path d="M586.731 621.361C594.528 620.482 604.076 621.545 611.94 621.744C625.882 622.035 639.806 623.94 650.4 633.728C667.812 649.814 665.735 703.342 650.388 719.271C636.097 734.107 591.401 732.844 570.534 732.572C567.821 738.264 566.291 741.032 562.888 746.345C560.991 749.283 549.579 764.443 543.926 761.263C541.275 759.771 544.439 753.047 545.083 750.184C546.545 743.682 546.942 737.564 546.723 730.758C515.275 727.394 507.752 711.191 506.163 681.303C505.221 663.583 508.051 634.954 527.529 628.08C545.351 621.79 567.777 622.273 586.731 621.361Z" fill="#030303"/>
<path d="M586.794 626.899C601.324 626.275 627.571 626.334 640.19 633.131C647.777 637.218 652.174 644.548 654.601 652.623C658.869 666.838 657.765 696.574 650.731 709.607C648.217 714.27 644.587 717.546 639.878 719.93C625.922 726.997 597.149 727.462 581.337 727.437C578.178 727.432 570.833 726.428 568.237 727.499C565.705 728.545 564.067 733.855 562.788 736.202C559.254 743.284 555.155 748.386 549.557 753.81C551.338 746.112 552.556 738.262 552.177 730.334C552.133 729.413 552.034 727.497 551.294 726.844C548.724 724.571 532.245 725.158 523.216 716.714C514.078 708.17 512.212 693.043 511.651 681.156C511.037 668.155 512.144 648.73 521.348 638.764C523.796 636.114 526.858 634.237 530.2 632.923C544.686 627.228 570.894 627.565 586.794 626.899Z" fill="white"/>
<path d="M585.501 685.474C592.724 685.34 599.944 685.3 607.167 685.356C611.109 685.359 615.328 685.053 619.227 685.529C619.996 685.623 620.794 685.75 621.403 686.277C622.021 686.812 622.271 687.59 622.382 688.369C622.653 690.226 622.918 693.914 621.482 695.318C619.996 696.771 600.623 696.178 597.342 696.217C586.034 696.031 574.686 696.778 563.389 696.661C561.329 696.58 560.123 695.366 560.12 693.308C560.114 691.002 559.453 686.374 562.847 686.05C565.694 685.778 568.797 685.875 571.679 685.843C576.288 685.759 580.895 685.636 585.501 685.474Z" fill="#030303"/>
<path d="M568.535 650.239C572.9 650.059 596.349 649.302 598.645 650.859C599.155 651.204 599.627 651.863 599.636 652.493C599.645 653.192 599.339 653.851 598.782 654.291C596.792 655.865 569.302 655.326 564.273 655.341C559.515 655.417 537.43 656.783 535.074 654.466C534.475 653.877 534.468 653.61 534.367 652.819C534.89 651.218 536.133 650.617 537.719 650.496C541.482 650.209 545.433 650.337 549.206 650.349C555.651 650.371 562.093 650.334 568.535 650.239Z" fill="#030303"/>
<path d="M554.016 669.739C561.933 669.653 570.012 669.364 577.896 669.796C579.528 669.885 580.825 671.224 580.155 672.954C577.684 675.22 564.983 674.542 561.09 674.599C554.471 675.146 543.317 675.004 536.458 674.695C535.536 674.653 534.775 673.617 534.284 672.874C533.844 668.472 550.572 669.807 554.016 669.739Z" fill="#030303"/>
<path d="M580.414 706.185C587.977 705.717 596.762 705.794 604.294 706.318C605.148 706.377 606.188 707.66 605.719 708.878C603.324 710.852 590.174 710.23 586.124 710.343C579.149 710.451 572.054 710.856 565.076 710.72C563.377 710.686 562.678 710.504 561.588 709.307C561.288 708.295 561.268 708.779 561.635 707.803C564.202 705.628 576.183 706.26 580.414 706.185Z" fill="#030303"/>
<path d="M536.835 691.257C540.099 691.189 549.247 690.384 551.321 692.716C551.624 693.767 551.592 693.231 551.286 694.382C550.453 695.332 550.345 695.329 549.136 695.823C545.715 695.93 535.854 697.113 534.213 694.187C534.13 692.249 535.239 691.714 536.835 691.257Z" fill="#030303"/>
<path d="M632.046 663.759C640.548 663.021 628.565 675.995 626.977 677.891C625.919 678.069 625.907 678.141 624.87 677.754C624.433 677.264 624.092 676.975 624.156 676.178C624.383 673.458 630.257 665.365 632.046 663.759Z" fill="#030303"/>
<path d="M641.499 679.256C643.343 679.04 644.608 679.956 644.395 681.876C642.69 684.389 636.109 685.755 633.023 686.653C631.342 686.79 630.267 686.474 630.27 684.583C631.75 682.039 638.585 680.137 641.499 679.256Z" fill="#030303"/>
<path d="M630.729 694.27C633.52 694.71 644.665 698.265 640.009 702.4C637.492 702.191 630.371 698.921 629.561 696.266C629.811 694.99 629.741 695.378 630.729 694.27Z" fill="#030303"/>
<path d="M463.823 816.635C467.079 817.446 469.152 821.037 473.411 822.211C476.759 823.134 484.023 820.121 485.087 822.846C484.773 824.571 483.613 825.561 482.389 826.775C479.954 828.64 477.344 829.648 474.138 829.576C469.127 829.459 462.057 824.807 462.131 819.273C462.148 818 462.909 817.387 463.823 816.635Z" fill="#030303"/>
<path d="M678.358 598.274C679.313 598.936 681.37 600.558 680.801 601.853C677.671 608.96 672.832 616.039 668.528 622.55C667.869 623.549 665.744 623.34 664.76 623.293C660.094 620.11 664.403 615.974 666.521 612.281C669.057 607.856 671.956 603.234 674.949 599.142C675.627 598.215 677.315 598.268 678.358 598.274Z" fill="#EA4A4A"/>
<path d="M712.874 639.365C714.677 640.9 715.943 644.083 713.547 645.349C708.89 647.809 695.809 655.83 691.122 655.305C685.902 650.212 692.892 647.588 697.173 645.608C701.188 643.753 708.948 638.724 712.874 639.365Z" fill="#EA4A4A"/>
<path d="M621.34 589.226C622.786 590.154 623.935 590.824 624.188 592.821C624.98 599.238 626.178 605.783 626.466 612.232C626.584 614.819 623.781 615.367 621.886 615.476C619.226 613.794 618.237 608.538 618.331 605.56C618.523 599.454 613.146 590.403 621.34 589.226Z" fill="#EA4A4A"/>
</svg>
