<svg width="1254" height="1254" viewBox="0 0 1254 1254" fill="none" xmlns="http://www.w3.org/2000/svg">
<path d="M480.439 263.557C505.315 261.44 530.165 267.918 550.842 281.909C556.107 285.455 562.285 291.566 568.051 293.305C575.429 295.302 583.543 294.43 591.181 294.281C631.341 293.5 656.684 334.206 656.544 370.925C656.439 399.197 644.763 414.499 625.494 433.617C624.189 440.405 623.381 447.089 621.887 453.995C621.287 459.556 616.756 471.446 617.24 476.686C619.352 499.418 619.983 523.179 601.584 540.05C593.155 547.777 584.292 549.658 572.339 548.751C552.926 562.127 542.909 566.059 519.314 566.72C537.895 580.958 549.971 591.457 565.428 609.545C571.33 616.449 582.791 631.555 588.446 636.771C607.238 629.681 616.799 629.252 636.386 632.369C642.111 624.77 647.775 616.878 653.421 609.199C625.138 575.779 624.446 541.608 641.83 502.102C661.662 457.018 714.7 420.602 763.672 443.357C786.107 453.781 809.179 472.331 817.402 496.507C835.269 549.988 800.386 614.288 747.997 632.767C722.679 641.645 703.299 637.984 679.989 626.858C676.67 630.826 670.155 640.813 666.873 645.479C677.386 658.459 679.18 669.365 666.371 681.531C669.335 693.991 667.069 701.284 656.39 708.381C656.991 720.229 655.527 724.509 645.994 731.936L645.981 732.542L645.951 733.546C645.308 760.751 615.452 756.465 597.416 754.738C589.207 761.425 570.659 777.62 558.446 776.218C555.599 775.893 555.325 770.523 557.271 767.878C560.816 763.059 567.071 762.821 571.761 759.465C579.098 754.732 584.792 748.389 592.047 743.729C602.588 741.298 614.264 746.239 624.991 743.19C629.198 741.996 635.303 739.535 632.988 734.379C629.921 727.552 612.88 728.905 606.779 725.011C604.623 723.639 604.435 723.388 603.749 721.116C604.102 718.539 603.565 719.598 605.341 717.786C611.381 715.489 628.102 720.731 634.531 722.88C637.225 721.943 642.46 719.8 643.52 717.161C649.778 701.615 613.517 705.564 610.479 694.922C611.265 692.889 611.771 692.748 613.566 691.536C619.946 690.881 640.324 696.661 646.238 699.447C646.404 699.374 646.563 699.294 646.728 699.214L647.537 698.816C658.031 693.746 656.795 687.813 649.778 680.374C651.155 677.778 652.251 675.941 653.849 673.467C656.58 672.426 659.299 671.428 661.099 668.997C662.501 667.117 663.046 664.735 662.611 662.433C660.266 649.483 638.26 644.652 627.465 642.993C594.549 637.739 568.123 662.837 547.814 685.254C537.298 696.863 530.704 698.039 516.443 702.888C511.964 704.413 500.581 710.322 500.293 701.063C503.295 694.598 520.853 689.791 528.118 686.001C537.421 681.145 542.582 672.646 550.751 665.072C560.261 656.249 566.071 650.089 577.393 642.858C574.072 638.033 567.059 630.679 563.091 625.94C542.987 601.931 526.544 585.785 499.812 569.297C503.237 584.58 506.533 599.349 508.29 614.961C509.753 627.96 506.068 628.475 494.572 632.008C496.87 635.259 501.838 641.333 501.548 645.313C501.057 652.036 493.23 664.803 485.878 664.815C480.286 661.092 488.424 649.679 490.894 645.625C480.813 628.23 470.828 626.479 497.894 619.039C497.541 606.171 494.128 591.685 491.766 579.007C490.869 574.194 491.372 565.235 487.053 563.045C484.363 563.586 476.125 572.905 475.524 575.337C468.886 602.177 462.137 629.038 452.859 655.141C451.574 658.753 449.536 664.135 445.729 665.642C443.474 666.652 438.651 664.833 437.7 662.525C423.204 627.373 409.523 591.667 397.083 555.712C394.601 548.539 392.504 541.681 390.076 534.728C377.707 537.448 370.03 535.987 358.918 530.513C340.845 534.056 313.322 547.214 298.19 557.079C296.658 558.166 295.137 559.268 293.628 560.386C249.016 593.435 236.872 643.188 229.051 695.326C218.068 768.533 218.639 883.334 313.552 896.334C322.947 867.139 332.045 837.846 340.843 808.468C344.842 795.065 349.709 780.271 352.995 766.801C340.596 771.84 328.706 778.196 317.534 785.525C312.936 788.544 305.963 797.71 300.572 792.352C299.752 791.538 299.156 789.56 299.537 788.354C304.294 778.018 320.936 769.103 329.859 764.015C327.428 738.916 326.269 713.714 326.385 688.505C326.362 682.572 324.324 670.026 330.064 666.903C334.065 666.395 336.498 668.611 336.856 672.555C339.418 700.812 338.399 730.564 341.713 758.675L357.407 752.283C360.38 744.188 363.262 733.454 365.668 725.066C370.962 706.605 374.462 707.15 392.068 707.217C395.928 694.647 405.132 687.954 417.773 694.328C422.75 689.124 431.687 682.511 439.039 687.666C445.855 692.442 447.135 700.268 448.665 707.86C450.106 708.595 451.762 708.374 453.44 708.362L454.198 707.493C456.17 696.955 460.508 691.242 470.89 688.272L471.775 688.028C484.731 691.12 486.691 697.751 487.539 710.12C504.678 713.187 524.988 711.124 542.254 715.122C550.003 716.916 555.479 722.298 554.15 730.699C551.263 748.946 545.721 767.468 540.832 785.341C546.915 789.462 555.291 793.644 559.578 800.281C571.057 818.044 559.889 849.578 554.074 867.788C550.162 880.04 544.482 888.998 534.522 896.242C564.905 896.695 595.276 897.785 625.616 899.518C656.684 901.318 693.257 903.063 723.034 912.431C726.94 913.662 732.959 915.633 734.588 919.779C735.219 921.377 734.974 922.81 734.3 924.34C732.775 927.824 728.091 930.102 724.791 931.419C661.234 956.768 303.418 958.476 239.096 930.751C235.945 929.392 231.498 927.108 230.519 923.495C230.031 921.689 230.796 919.962 231.911 918.579C239.65 908.965 275.32 905.861 288.254 904.018C182.487 866.129 205.741 681.568 242.739 601.247C263.351 556.497 306.052 534.499 350.369 520.26C348.247 515.631 346.703 507.286 344.834 504.885C342.135 504.127 337.813 504.868 334.946 505.086C315.718 506.553 303.309 494.761 302.408 475.78C301.353 453.541 313.843 436.394 330.728 423.295C341.491 414.946 354.342 408.034 360.731 395.456C365.089 387.065 365.672 377.353 366.573 368.119C367.459 358.733 369.153 349.306 372.576 340.457C385.034 308.245 413.073 281.412 445.508 269.768C457.248 265.553 468.227 264.286 480.439 263.557Z" fill="black"/>
<path d="M580.065 345.703C585.737 347.293 596.014 361.063 599.311 365.811C617.136 391.478 617.044 419.871 611.007 449.434C603.997 483.778 590.695 522.494 560.199 542.83C534.114 560.225 504.048 557.658 478.864 539.901C472.039 535.918 466.686 526.981 459.094 524.985C456.044 524.183 454.384 528.39 454.287 530.812C453.739 544.463 459.721 555.671 468.089 565.979C464.815 570.535 459.761 577.061 458.38 582.426C457.603 585.444 458.537 586.366 460.235 588.807L460.729 589.505C460.842 594.435 457.353 604.208 455.75 609.314C448.879 611.598 446.067 611.737 439.072 610.957C434.203 609.818 431.819 608.814 427.296 606.782C420.99 590.269 414.815 573.706 408.77 557.095C406.074 549.539 402.111 539.397 400.443 531.779C422.162 519.5 433.207 499.569 435.517 475.319C436.823 463.277 438.302 460.34 425.316 456.997C399.017 450.229 400.517 406.237 427.541 401.443C440.297 399.18 448.743 418.296 455.676 416.881C491.566 409.56 528.2 394.452 556.599 371.027C565.946 363.328 572.644 355.152 580.065 345.703Z" fill="white"/>
<path d="M563.917 447.352C567.474 447.492 570.703 448.716 570.546 453.148C570.047 467.038 569.115 481.004 567.598 494.822C566.244 507.149 561.252 506.65 550.674 506.332C547.865 505.652 544.651 504.194 543.675 501.256C544.686 495.257 552.578 496.199 556.838 496.64C559.512 483.332 558.201 464.648 561.308 451.022C561.58 449.826 563.046 448.259 563.917 447.352Z" fill="black"/>
<path d="M534.787 404.928C540.162 404.497 545.654 405.076 548.234 410.595C547.891 417.352 538.422 415.154 533.676 415.73L532.989 415.82C528.559 416.903 523.07 419.002 519.717 414.721C518.795 407.169 529.431 405.67 534.787 404.928Z" fill="black"/>
<path d="M521.621 515.588C526.767 517.03 541.049 519.677 540.106 526.189C538.671 528.328 538.408 528.367 536.129 529.734C530.851 529.713 516.302 526.592 517.406 519.309C518.914 517.038 519.186 517.004 521.621 515.588Z" fill="black"/>
<path d="M587.663 412.639C595.67 412.751 612.586 420.744 600.261 428.093C597.79 427.347 593.337 424.555 590.062 423.344C583.595 420.951 580.49 417.333 587.663 412.639Z" fill="black"/>
<path d="M532.246 441.379C543.374 441.496 538.084 455.852 533.598 460.387C522.226 461.226 528.221 445.642 532.246 441.379Z" fill="black"/>
<path d="M586.679 449.373C597.591 448.785 592.951 462.808 588.159 467.112C577.142 468.026 582.404 453.666 586.679 449.373Z" fill="black"/>
<path d="M385.125 719.666C392.576 719.109 406.638 720.039 414.45 720.584C413.645 725.685 406.885 736.847 413.601 739.064C421.671 737.392 423.764 727.589 424.599 720.621C442.077 720.946 459.548 721.607 477.001 722.605C475.753 727.614 470.511 736.229 475.554 739.878C483.234 740.521 485.623 728.348 486.698 722.966C497.833 723.187 528.687 724.05 538.425 726.364C539.493 726.622 541.486 727.118 541.97 728.195C544.784 734.447 527.057 792.867 523.603 803.245C517.732 803.411 511.906 803.699 506.051 803.962C490.271 804.684 475.814 813.489 481.252 831.503L480.359 832.226C470.546 840.241 467.406 850.895 476.056 861.169C469.006 873.275 469.186 881.871 482.235 889.133C489.286 892.017 494.698 892.832 502.206 894.289C499.769 902.329 498.426 911.256 495.16 918.959C494.084 921.494 492.563 924.457 489.81 925.437C484.271 927.402 359.43 931.205 345.09 931.015C342.489 930.978 338.784 931.125 336.62 929.527C334.056 927.629 335.735 922.633 336.369 919.92C338.239 911.923 341.086 904.049 343.565 896.212L355.218 859.13C365.903 825.013 376.078 790.742 385.74 756.325C387.961 748.444 392.372 736.596 392.887 728.416C393.101 725.03 387.951 722.146 385.125 719.666Z" fill="white"/>
<path d="M475.328 779.763C480.302 779.745 485.339 779.659 490.306 779.837C494.696 779.996 497.235 780.192 497.994 784.992C497.003 788.476 494.965 789.291 491.55 789.53C485.181 789.983 478.709 789.775 472.316 789.86L433.971 790.62C427.51 790.748 414.104 793.846 412.178 786.499C413.815 779.133 431.159 780.835 437.53 780.676L475.328 779.763Z" fill="black"/>
<path d="M428.484 820.831C432.638 820.666 453.016 819.38 455.41 821.376C468.005 831.853 434.991 830.689 431.215 830.806C424.253 830.885 404.365 834.063 401.541 827.052C402.726 820.182 411.211 821.67 416.639 821.223C420.449 820.911 424.627 820.954 428.484 820.831Z" fill="black"/>
<path d="M421.629 857.495C427.408 857.25 443.685 855.346 446.834 860.618C447.406 869.852 423.875 867.549 417.057 867.641C411.138 867.947 392.344 870.709 390.978 863.765C392.203 859.51 395.165 858.585 399.235 858.402C406.681 858.059 414.184 857.826 421.629 857.495Z" fill="black"/>
<path d="M746.002 463.135C761.805 461.233 779.434 466.82 788.575 480.116C819.044 524.438 788.961 592.111 743.271 613.149C734.178 617.338 727.749 618.917 717.977 620.215C703.63 620.571 693.607 619.364 681.838 610.152C669.586 600.56 663.653 584.978 661.963 569.918C659.33 546.474 670.731 516.185 685.322 498.102C701.187 478.438 720.72 465.839 746.002 463.135Z" fill="white"/>
<path d="M725.973 507.858C729.2 507.561 733.125 507.647 736.327 507.554C769.061 506.603 792.102 506.762 783.829 548.432C776.721 584.237 763.599 582.69 731.857 583.15L721.962 582.971C716.5 586.667 699.062 601.025 693.178 594.607C691.776 589.576 695.4 582.537 697.341 577.301C692.963 574.215 688.034 569.964 688.279 563.968C688.879 549.503 691.108 527.781 700.213 516.108C705.754 509.001 718.092 508.4 725.973 507.858Z" fill="black"/>
<path d="M725.103 517.049C737.306 516.61 761.909 514.544 771.461 520.901C780.927 527.203 773.598 561.125 766.238 568.077C758.853 575.054 745.609 573.785 736.351 573.934L720.254 573.779C716.519 575.753 707.187 582.346 703.066 585.072C704.119 582.402 706.856 575.63 706.281 573.129C705.277 568.766 697.813 569.175 697.451 563.353C697.109 556.741 698.094 549.841 699.441 543.366C703.587 523.359 704.45 518.313 725.103 517.049Z" fill="white"/>
<path d="M717.597 539.264C726.439 540.93 725.416 547.715 719.018 551.866C709.466 551.594 711.29 543.356 717.597 539.264Z" fill="black"/>
<path d="M754.586 540.035C763.544 538.906 764.506 546.326 758.578 551.716C749.106 552.215 749.265 545.62 754.586 540.035Z" fill="black"/>
<path d="M737.221 539.342C746.026 540.869 744.091 547.624 738.85 552.079C729.273 551.253 730.694 543.37 737.221 539.342Z" fill="black"/>
<path d="M537.813 797.6C542.093 800.147 548.684 804.182 550.638 808.517C557.928 824.694 542.97 876.25 529.305 884.522C522.999 884.559 473.769 884.841 484.714 868.578C489.727 861.126 525.514 876.832 524.532 861.218C516.376 854.244 475.307 862.718 484.728 843.351C489.183 834.197 523.604 846.713 531.031 838.667C531.667 836.861 531.725 836.989 531.305 835.146C525.439 827.786 495.214 833.817 492.103 826.39C485.088 809.644 527.583 816.606 533.822 812.577C537.243 810.366 535.84 802.578 537.813 797.6Z" fill="white"/>
<path d="M724.228 449.66C729.69 448.84 738.17 449.403 743.846 449.715C716.244 454.85 695.94 466.013 677.613 487.94C658.516 510.794 646.814 543.265 649.833 573.262C650.378 576.962 651.217 581.03 651.915 584.744C622.806 532.889 667.272 457.251 724.228 449.66Z" fill="white"/>
<path d="M431.13 696.191C435.755 697.41 440.335 702.774 437.304 707.544C434.908 708.842 434.66 708.321 431.456 708.242C428.935 708.229 426.989 708.419 425.109 706.852C422.333 701.659 427.139 698.543 431.13 696.191Z" fill="white"/>
<path d="M469.804 698.352C474.761 698.584 478.654 703.789 476.892 708.571C474.906 710.096 475.18 709.557 471.966 709.502L463.382 709.024C465.118 703.281 465.148 702.491 469.804 698.352Z" fill="white"/>
<path d="M405.938 700.967C409.125 701.04 415.453 703.036 413.269 707.096L411.621 707.414L400.957 707.151C402.815 704.42 403.679 703.385 405.938 700.967Z" fill="white"/>
<path d="M944.388 341.385C960.419 340.872 1003.95 338.438 1017.83 346.519C1022.18 349.046 1022.84 356.468 1023.36 361.202C1041.35 363.791 1052.97 360.269 1052.53 384C1052.05 410.169 1050.94 436.22 1049.78 462.363C1047.64 506.311 1045.83 550.275 1044.36 594.251L1040.54 738.775C1039.72 766.451 1038.91 794.434 1036.74 822.036C1036.39 826.506 1035.85 832.342 1032.35 835.458C1027.59 839.714 1020.92 839.297 1015 839.108C956.243 837.252 897.529 833.266 838.925 829.023C816.858 827.394 794.802 825.569 772.766 823.549C759.785 822.318 746.859 820.959 733.994 818.797C721.075 816.63 722.759 808.4 723.31 798.046C717.401 797.152 706.649 795.689 704.861 789.419C702.118 779.806 706.11 760.733 707.469 751.456C710.004 734.318 712.643 717.198 715.399 700.096C717.683 685.591 719.367 668.299 723.536 654.21C724.614 650.561 732.433 651.822 732.164 656.751C731.796 663.529 730.694 670.338 729.788 677.104C726.837 698.522 723.72 719.922 720.438 741.292C719.213 749.16 713.807 777.522 715.393 783.584C719.709 787.845 735.752 788.188 742.261 788.776C757.403 790.362 773.892 791.372 789.151 792.579C828.295 795.573 867.458 798.31 906.646 800.789C922.609 801.837 938.584 802.773 954.565 803.606C964.717 804.139 976.283 805.712 986.282 803.9C987.856 803.612 989.834 803.514 990.654 801.959C995.485 792.817 998.137 736.026 999.006 722.121C1003.61 648.307 1005.15 574.215 1007.81 500.308C1008.5 481.337 1014.42 367.135 1011.04 358.328C1010.43 356.745 1008.87 355.909 1007.36 355.329C1004.35 354.172 1000.98 353.866 997.781 353.682C982.707 352.811 967.515 353.186 952.428 353.397L879.209 355.088C855.133 355.606 831.057 356.32 806.987 357.23C797.533 357.588 770.757 357.583 762.907 360.917C760.47 363.393 759.815 367.247 759.332 370.892C757.256 386.493 757.219 403.148 754.66 418.57C752.302 424.496 744.349 421.786 744.716 415.742C745.769 398.222 746.835 379.88 749.706 362.604C751.537 351.624 758.542 348.615 768.547 347.674C787.1 345.927 806.54 345.48 825.136 344.747C864.875 343.192 904.632 342.071 944.388 341.385Z" fill="black"/>
<path d="M772.6 651.59C784.46 650.666 845.715 650.758 854.067 655.013C856.069 656.036 857.178 658.124 857.796 660.212C859.241 665.067 852.402 727.516 851.024 736.584C850.675 738.887 850.295 741.47 849.107 743.503C847.27 746.644 844.264 747.41 840.939 748.255C828.111 748.322 769.906 746.265 760.476 743.222C758.162 742.475 756.582 741.177 755.517 738.978C754.665 737.221 754.5 735.507 754.537 733.578C754.849 718.405 758.309 702.216 760.519 687.196C761.787 678.575 762.46 665.875 765.571 657.866C766.93 654.358 769.281 653.017 772.6 651.59Z" fill="black"/>
<path d="M776.311 660.842C785.232 660.621 841.681 661.546 847.651 664.154C848.851 668.624 842.275 729.867 840.597 736.523C839.256 738.023 839.593 737.558 837.174 738.078C826.22 737.539 771.131 735.672 765.02 733.075C762.963 729.573 772.839 675.825 772.998 667.161C773.041 664.559 774.088 662.36 776.311 660.842Z" fill="white"/>
<path d="M804.936 674.209C807.262 673.946 813.342 673.572 814.156 676.297C816.991 685.726 825.729 712.661 825.57 721.392C824.848 723.033 824.364 724.087 822.576 724.871C815.853 727.822 814.714 715.895 813.912 712.19C811.102 712.105 808.101 711.817 805.284 711.602L795.433 711.247C793.357 716.035 790.846 725.52 784.196 722.991C782.641 721.564 782.782 721.637 782.286 719.556C783.358 713.835 800.527 677.858 804.936 674.209ZM807.28 686.889C805.064 691.071 801.715 696.508 800.882 701.033L801.457 702.098L804.011 702.355C806.001 702.386 809.534 702.698 811.193 701.927C811.102 698.951 808.75 689.27 807.28 686.889Z" fill="black"/>
<path d="M809.601 396.503C816.765 396.012 842.121 394.934 846.933 397.995C854.018 402.502 846.621 444.105 846.682 452.801C846.756 463.59 835.783 462.19 827.848 461.852C810.599 462.881 813.557 461.584 800.79 450.241C797.398 447.225 793.045 444.323 789.512 441.256C783.829 436.326 788.397 422.943 787.932 415.922C787.717 410.965 789.224 402.718 791.722 398.788C795.635 396.01 804.458 396.616 809.601 396.503Z" fill="black"/>
<path d="M868.652 672.5C891.399 670.755 917.263 673.008 940.23 672.678C950.45 672.733 961.036 673.327 960.044 686.595C958.201 711.143 957.075 735.696 954.215 760.109C953.603 765.338 949.801 770.359 944.351 770.836C935.889 771.577 926.913 771.075 918.408 770.83C902.341 770.408 886.28 769.802 870.225 769.012C860.998 768.485 853.271 768.203 854.501 756.472C855.322 748.579 853.179 742.327 860.239 736.945C868.774 744.219 860.11 757.825 865.009 758.008C880.781 758.596 930.733 763.801 943.047 759.49C947.486 751.775 946.794 713.298 948.882 702.521C949.617 698.725 950.272 687.41 947.97 684.103C943.641 681.85 878.442 681.679 871.064 682.793C867.127 685.371 869.313 692.878 866.429 697.739C863.423 699.87 861.708 699.319 859.559 696.3C858.598 692.32 859.541 683.387 861.157 679.597C863.012 675.231 864.531 674.221 868.652 672.5Z" fill="black"/>
<path d="M355.179 549.65C360.281 549.739 361.628 552.154 361.647 556.906C361.72 574.969 359.523 593.115 361.584 611.142C370.022 612.929 396.138 611.347 398.154 620.687C397.478 624.434 385.574 636.797 382.097 641.352C386.918 648.216 395.052 653.494 399.624 660.579C400.873 662.513 400.43 664.167 399.905 666.242C393.463 671.233 385.554 660.946 380.809 656.721C364.682 642.381 368.177 639.577 380.416 625.524C372.804 624.783 363.031 624.061 355.692 622.689C348.715 617.093 348.845 611.627 348.979 602.879C349.226 586.588 349.238 569.382 352.414 553.411C352.639 552.281 354.364 550.482 355.179 549.65Z" fill="black"/>
<path d="M906.762 691.732C912.413 693.618 911.305 697.121 911.25 702.239C916.51 702.19 930.096 700.911 932.025 706.482C930.917 711.552 927.213 711.295 923.043 711.534C920.422 719.378 916.693 724.503 911.709 730.969C917.569 736.724 922.008 737.111 927.408 742.211C928.425 743.178 927.892 744.721 927.58 745.885C921.622 752.871 910.558 742.419 904.998 738.341C902.621 737.345 880.591 755.816 880.873 742.144C882.747 738.727 893.377 734.361 898.478 731.085C893.891 724.674 889.783 720.205 890.683 712.024C889.072 710.016 884.302 711.877 881.639 707.75C881.902 700.103 896.941 702.197 902.329 702.228C902.482 697.066 901.98 694.592 906.762 691.732ZM899.212 711.479C897.393 715.544 901.673 721.52 904.839 723.859C906.437 723.645 905.672 723.902 907.013 722.629C909.97 718.686 911.806 716.071 913.766 711.467C909.908 711.357 905.788 711.167 901.955 711.154L899.212 711.479Z" fill="black"/>
<path d="M851.367 547.521C873.447 547.355 895.527 547.602 917.594 548.262C924.403 548.434 948.093 547.834 952.557 551.776C954.253 555.71 952.948 557.39 949.581 559.629C939.349 560.077 925.879 559.362 915.451 559.117L859.37 557.809C855.114 557.682 850.7 557.998 847.724 554.838C846.218 551.037 848.342 549.198 851.367 547.521Z" fill="black"/>
<path d="M854.9 505.368C878.474 505.087 902.048 505.108 925.621 505.43C933.465 505.564 943.917 505.279 951.381 506.79C955.9 507.705 957.455 514.058 950.144 516.429C941.449 516.875 857.705 516.234 852.984 514.658C851.814 514.268 850.369 512.872 849.996 511.641C849.689 510.632 849.616 509.896 850.057 508.941C851.092 506.663 852.702 506.083 854.9 505.368Z" fill="black"/>
<path d="M843.921 588.607C871.046 587.95 898.857 589.778 926.007 590.459C930.005 590.559 934.016 590.844 937.065 593.584C938.694 597.437 937.237 599.061 934.016 601.058C933.171 601.123 932.326 601.176 931.475 601.215C927.899 601.382 923.711 601.173 920.086 601.014C894.981 599.907 869.73 600.07 844.674 598.282C842.948 598.159 841.79 597.141 840.59 596.04C839.17 592.082 840.603 590.663 843.921 588.607Z" fill="black"/>
<path d="M913.828 416.716C919.914 416.298 961.116 415.512 963.467 417.557C978.891 430.98 932.589 426.882 927.653 426.851C913.938 427.414 900.014 427.627 886.268 427.446C882.392 427.395 878.418 427.529 876.275 423.777C875.804 413.906 906.088 416.793 913.828 416.716Z" fill="black"/>
<path d="M879.563 451.476C903.633 451.276 928.235 450.208 952.189 452.013C957.295 452.398 959.873 458.902 951.882 462.003C948.784 462.158 945.208 461.952 942.049 461.871C921.132 461.334 900.014 462.395 879.159 460.906C877.151 460.762 875.663 459.527 874.573 457.931C874.028 453.457 875.614 452.685 879.563 451.476Z" fill="black"/>
<path d="M762.546 269.949C763.783 269.993 766.912 270.2 767.524 271.37C772.264 280.414 776.072 297.521 777.511 307.824C777.713 309.278 775.221 311.361 774.358 312.176C766.575 312.438 766.392 305.526 764.696 299.235C762.577 291.387 760.348 283.195 759.203 275.187C758.903 273.055 761.138 271.231 762.546 269.949Z" fill="black"/>
<path d="M702.804 298.093C710.923 297.125 729.041 318.163 732.935 325.243C733.86 326.921 731.368 329.821 730.265 331.056C728.19 331.138 725.857 331.056 723.689 328.796C717.542 322.395 702.798 310.845 700.354 302.768C699.944 301.421 701.91 299.163 702.804 298.093Z" fill="black"/>
<path d="M826.654 271.062C832.177 271.99 833.359 276.263 831.908 280.997C829.624 288.481 827.383 304.322 821.064 308.738C814.108 308.371 814.537 301.412 816.257 296.597C818.762 289.577 820.243 274.952 826.654 271.062Z" fill="black"/>
<path d="M619.554 662.404C623.338 662.931 634.654 664.707 637.035 667.284L636.399 668.68C633.9 669.972 633.6 670.266 631.898 672.513L631.525 673.469C625.346 673.334 607.205 670.97 619.554 662.404Z" fill="black"/>
</svg>
