<svg width="938" height="1132" viewBox="0 0 938 1132" fill="none" xmlns="http://www.w3.org/2000/svg">
<g clip-path="url(#clip0_24_604)">
<path d="M56.772 439.728C55.3386 443.237 53.9053 446.747 52.4719 450.257C69.7808 458.599 86.8368 468.443 102.694 479.294C135.783 501.296 173.669 539.547 152.942 565.68C125.861 601.693 80.8682 631.298 43.6103 669.455C34.1133 679.224 24.7114 689.554 16.371 702.69C8.73178 715.352 -1.54834 734.39 6.06958 758.972C14.8196 783.055 33.3949 792.618 47.2399 799.401C62.1012 806.113 75.0641 809.672 89.4037 812.94C285.096 863.841 474.424 962.959 634.189 1083.24C649.004 1094.73 663.594 1106.64 677.493 1118.73C701.998 1087.63 726.503 1056.53 751.009 1025.43C734.084 1013.23 716.722 1001.52 699.346 990.413C512.799 875.53 313.959 793.498 99.4514 757.523C87.4781 755.917 77.0133 753.903 67.6292 750.653C58.2575 747.6 52.8179 742.836 52.5201 742.275C52.0654 741.865 51.4545 740.583 51.9125 737.433C52.3598 734.321 53.8437 730.109 56.1147 725.612C60.6075 716.675 67.5653 707.093 75.1323 697.811C105.68 659.555 146.818 628.909 177.443 580.195C192.804 555.479 181.495 522.458 165.495 506.188C149.648 488.333 130.721 475.98 111.522 465.066C93.8252 455.2 75.7285 446.831 56.772 439.728Z" fill="#34FA4B"/>
<path d="M911.006 106.699C907.408 105.502 903.811 104.305 900.214 103.108C892.26 124.055 884.117 144.975 875.888 165.807C858.324 210.209 840.355 254.319 821.292 297.79C811.743 319.483 801.884 341.19 791.389 361.914C786.033 372.438 780.71 382.409 774.855 391.553C773.346 393.9 771.84 396.074 770.543 397.742C769.006 399.78 767.654 401.154 767.26 401.339C767.238 401.322 767.322 401.19 767.722 400.877C768.277 400.475 769.4 399.701 771.597 399.086C772.752 398.789 773.835 398.555 775.792 398.559C777.694 398.573 779.847 398.984 781.747 399.768C783.655 400.541 785.263 401.639 786.416 402.681C787.066 403.273 787.3 403.533 787.617 403.879C787.913 404.208 788.167 404.52 788.387 404.81C789.263 405.975 789.608 406.742 789.785 407.099C789.873 407.284 789.907 407.349 789.924 407.354C789.943 407.366 789.952 407.343 789.953 407.287C789.954 407.063 789.859 406.327 789.787 405.203C789.169 362.521 806.514 310.727 812.73 257.372C814.275 243.657 815.424 229.506 813.932 213.475C812.138 198.343 808.604 175.612 785.792 159.526C762.31 144.709 740.723 148.954 725.201 152.102C708.869 156 696.273 161.213 682.769 167.472C500.199 245.715 292.851 283 95.458 286.893C73.9741 287.028 52.6504 286.565 31.6362 285.372C31.0726 324.962 30.509 364.553 29.9454 404.143C53.7719 403.585 77.4098 402.198 100.895 400.176C315.802 378.154 520.961 324.324 711.951 224.39C800.895 151.06 743.009 308.295 750.536 409.868C750.889 412.314 751.344 414.656 752.015 417.04C752.564 418.844 753.753 423.26 756.994 427.637C757.408 428.192 757.86 428.754 758.357 429.315C758.886 429.901 759.276 430.335 760.275 431.252C762.047 432.858 764.307 434.38 766.904 435.44C769.491 436.509 772.367 437.069 775.025 437.099C777.764 437.109 779.378 436.789 781.224 436.321C784.748 435.362 787.286 433.896 789.339 432.47C790.853 431.391 791.91 430.463 792.985 429.446C800.734 421.45 802.887 416.376 806.515 410.073C812.747 398.358 817.374 387.499 822.153 375.988C831.372 353.48 839.581 330.75 847.482 308.068C863.214 262.687 877.661 217.138 891.692 171.335C898.257 149.84 904.712 128.324 911.006 106.699Z" fill="#E3FA34"/>
<path d="M63.1765 521.02C69.3612 515.907 77.1121 513.069 85.1361 512.981C87.1762 512.954 89.927 513.437 91.7686 512.841C94.0836 512.018 96.0677 510.302 98.0583 508.865C108.525 501.307 122.673 507.422 129.357 517.148C134.505 524.637 134.221 530.817 132.63 539.395C133.528 541.427 134.538 543.341 135.408 545.439C136.267 547.018 137.247 550.989 138.334 552.285C143.053 557.904 147.57 564.066 145.797 571.891C144.985 575.476 142.987 577.595 139.663 579.543C136.983 586.631 135.057 589.504 128.944 593.997C136.46 594.358 141.572 594.921 148.967 596.87C151.79 597.614 157.583 599.506 160.032 599.849C163.699 594.536 166.146 592.673 171.892 589.91C172.013 586.855 172.065 583.733 172.151 580.671C158.561 577.019 152.122 568.117 149.483 554.498C146.47 538.957 153.816 519.627 170.919 516.673C178.755 515.32 188.246 515.998 194.844 520.88C209.355 531.738 211.909 555.112 201.451 569.584C196.388 576.565 190.597 579.145 182.402 580.473C182.252 582.128 182.359 585.959 182.346 587.793C187.5 589.298 189.97 591.85 188.813 597.41C191.877 600.159 192.613 602.501 191.091 606.33C193.419 609.351 193.816 610.749 192.656 614.457L192.764 614.619L192.94 614.89C197.75 622.195 189.078 626.528 183.997 629.374C183.052 632.643 181.117 640.317 177.633 642.182C176.822 642.618 175.766 641.249 175.796 640.194C175.851 638.272 177.459 637.064 178.084 635.319C179.156 632.725 179.499 630.007 180.563 627.448C182.903 624.876 186.892 624.044 189.168 621.275C190.061 620.189 191.223 618.421 189.668 617.483C187.608 616.241 183.353 619.718 181.029 619.806C180.208 619.838 180.112 619.806 179.515 619.332C179.137 618.586 179.189 618.964 179.326 618.16C180.501 616.448 185.878 614.772 187.97 614.162C188.511 613.422 189.501 611.897 189.298 611.006C188.106 605.753 179.249 613.435 176.498 611.179C176.333 610.498 176.441 610.368 176.694 609.719C178.259 608.378 184.701 606.175 186.774 605.828C186.804 605.779 186.831 605.729 186.861 605.677L187.001 605.424C188.846 602.164 187.433 600.823 184.217 600.142C184.106 599.203 184.059 598.518 184.029 597.571C184.56 596.797 185.095 596.035 185.126 595.063C185.152 594.31 184.86 593.581 184.324 593.052C181.333 590.06 174.635 592.812 171.479 594.35C161.821 598.988 159.434 610.456 158.172 620.096C157.519 625.088 155.993 626.606 153.112 630.498C152.208 631.721 150.283 635.366 148.512 632.972C148.121 630.715 151.88 626.231 153.105 623.899C154.675 620.913 154.482 617.723 155.254 614.227C156.151 610.155 156.558 607.464 158.226 603.481C156.465 602.814 153.266 602.155 151.35 601.629C141.644 598.967 134.344 597.711 124.264 598.249C127.966 601.659 131.541 604.958 134.863 608.761C137.629 611.927 136.749 612.738 134.359 615.776C135.561 616.214 137.986 616.909 138.638 618.014C139.739 619.88 140.008 624.685 138.068 626.034C135.909 626.075 135.97 621.57 135.88 620.046C130.032 617.296 127.074 618.661 132.862 611.741C130.414 608.406 126.86 605.204 123.915 602.287C122.797 601.179 121.29 598.72 119.748 598.932C119.137 599.568 118.666 603.538 118.952 604.29C122.112 612.597 125.246 620.928 127.573 629.523C127.895 630.713 128.342 632.508 127.612 633.603C127.201 634.282 125.594 634.685 124.92 634.249C114.655 627.616 104.505 620.687 94.6362 613.465C92.6673 612.024 90.8579 610.596 88.9436 609.204C86.1739 612.187 83.8781 613.206 79.9402 613.794C75.8141 618.038 70.9513 626.553 68.7595 631.93C68.5539 632.497 68.3538 633.067 68.1596 633.638C62.4234 650.536 68.3229 665.904 75.8008 681.11C86.3007 702.461 107.467 732.687 134.922 718.746C132.06 709.313 129.101 699.909 126.048 690.537C124.65 686.264 123.228 681.464 121.63 677.304C119.277 680.905 117.299 684.761 115.689 688.742C115.027 690.382 114.863 694.08 112.458 693.651C112.092 693.586 111.573 693.173 111.453 692.784C110.817 689.183 113.582 683.781 115.008 680.803C109.771 674.617 104.851 668.171 100.267 661.49C99.1751 659.927 96.34 656.985 97.2849 655.109C98.2489 654.243 99.2973 654.383 100.114 655.359C105.964 662.356 111.141 670.403 117.162 677.223L120.138 672.661C119.442 669.978 118.239 666.615 117.339 663.958C115.358 658.112 116.382 657.615 121.046 654.41C119.764 650.382 120.971 646.929 125.478 646.299C125.84 644.013 126.99 640.63 129.876 640.646C132.551 640.66 134.322 642.493 136.116 644.219C136.631 644.149 137.028 643.788 137.47 643.477L137.511 643.109C136.103 639.964 136.203 637.661 138.402 634.976L138.591 634.749C142.58 633.194 144.312 634.587 146.8 637.7C151.89 635.373 156.878 631.109 162.171 629.005C164.547 628.061 166.979 628.48 168.165 630.943C170.743 636.292 172.67 642.2 174.65 647.817C177.011 647.792 179.99 647.364 182.337 648.332C188.622 650.924 191.444 661.299 193.241 667.175C194.45 671.128 194.59 674.534 193.284 678.271C201.394 672.829 209.618 667.557 217.95 662.461C226.488 657.249 236.47 651.015 246.052 648.04C247.309 647.65 249.26 647.069 250.449 647.866C250.908 648.172 251.106 648.596 251.208 649.123C251.443 650.323 250.623 651.782 249.992 652.734C237.841 671.066 143.62 737.019 121.552 741.469C120.47 741.687 118.877 741.898 117.957 741.122C117.498 740.735 117.384 740.138 117.425 739.569C117.71 735.612 126.565 728.262 129.645 725.408C94.766 734.759 67.1239 681.742 62.195 653.749C59.4487 638.153 66.703 624.525 75.8046 612.65C74.3968 611.816 72.4611 609.894 71.528 609.601C70.6761 609.895 69.6699 610.882 68.9523 611.465C64.1408 615.372 58.7038 614.528 54.9912 609.679C50.6414 603.996 50.8023 597.18 52.8654 590.628C54.1805 586.452 56.3103 582.273 55.6956 577.781C55.311 574.766 53.6871 572.094 52.2346 569.489C50.7507 566.847 49.4725 564.047 48.7569 561.082C46.1516 550.291 48.6472 538.069 55.0848 529.055C57.4149 525.793 60.0835 523.448 63.1765 521.02Z" fill="black"/>
<path d="M104.531 524.482C106.321 523.863 111.557 525.62 113.297 526.271C122.705 529.789 127.878 537.307 131.695 546.223C136.13 556.579 139.703 569.243 135.369 580.198C131.662 589.569 123.248 594.395 113.344 594.314C110.812 594.511 107.762 593.13 105.391 593.992C104.438 594.338 104.77 595.754 105.187 596.411C107.542 600.118 111.174 601.984 115.271 603.176C115.241 604.979 115.1 607.628 115.717 609.298C116.065 610.238 116.48 610.31 117.375 610.645L117.634 610.738C118.566 612.02 119.433 615.241 119.945 616.883C118.547 618.744 117.83 619.296 115.839 620.37C114.344 620.961 113.531 621.132 111.964 621.423C107.275 618.215 102.611 614.969 97.9735 611.688C95.8781 610.185 92.9742 608.231 91.1392 606.523C94.6293 599.304 93.8989 592.016 90.0701 585.187C88.2105 581.766 88.0637 580.719 84.0209 582.213C75.8338 585.24 68.177 573.342 74.4389 567.129C77.3948 564.196 83.1255 567.7 84.6981 566.057C92.8399 557.553 99.7527 546.855 102.967 535.468C104.027 531.723 104.3 528.337 104.531 524.482Z" fill="white"/>
<path d="M118.873 554.294C119.839 553.68 120.916 553.413 121.686 554.612C124.097 558.373 126.407 562.234 128.536 566.162C130.434 569.667 129.024 570.449 126.171 572.301C125.305 572.635 124.189 572.839 123.393 572.241C122.562 570.471 124.82 569.275 126.026 568.612C124.296 564.607 120.529 559.911 118.856 555.742C118.709 555.376 118.809 554.694 118.873 554.294Z" fill="black"/>
<path d="M103.411 548.419C104.753 547.321 106.31 546.469 108.002 547.455C109.148 549.303 106.244 550.455 105.095 551.477L104.93 551.626C103.958 552.723 102.892 554.283 101.223 553.765C99.5968 551.939 102.132 549.596 103.411 548.419Z" fill="black"/>
<path d="M120.194 580.065C121.817 579.504 126.075 577.589 127.018 579.482C127.03 580.31 126.968 580.368 126.616 581.147C125.218 582.107 120.803 583.946 119.761 581.82C119.744 580.944 119.81 580.885 120.194 580.065Z" fill="black"/>
<path d="M118.795 540.778C120.931 539.341 126.863 538.357 124.952 542.554C124.163 542.81 122.475 542.887 121.388 543.167C119.242 543.718 117.759 543.331 118.795 540.778Z" fill="black"/>
<path d="M109.415 558.515C112.376 556.509 113.607 561.27 113.252 563.289C110.401 565.592 109.132 560.378 109.415 558.515Z" fill="black"/>
<path d="M125.259 550.663C128.034 548.51 129.375 553.064 128.897 555.078C126.154 557.337 124.915 552.58 125.259 550.663Z" fill="black"/>
<path d="M121.488 658.97C123.354 657.459 127.24 655.131 129.403 653.845C130.124 655.34 130.382 659.526 132.562 658.882C134.388 656.963 133.146 653.99 132.091 651.997C136.768 648.883 141.505 645.859 146.299 642.928C146.886 644.48 147.078 647.715 149.079 647.756C151.225 646.52 149.628 642.867 148.927 641.248C151.909 639.268 160.219 633.848 163.215 632.677C163.544 632.549 164.162 632.315 164.487 632.512C166.375 633.648 172.386 652.328 173.373 655.702C171.852 656.82 170.366 657.963 168.867 659.104C164.83 662.184 162.623 667.156 167.357 670.92L167.253 671.274C166.128 675.188 167.249 678.578 171.415 679.709C171.768 684.198 173.389 686.436 178.166 685.966C180.557 685.437 182.136 684.661 184.386 683.672C185.214 686.242 186.494 688.846 187.041 691.479C187.221 692.346 187.361 693.407 186.813 694.17C185.71 695.703 153.424 719.561 149.6 722.136C148.907 722.603 147.954 723.32 147.09 723.294C146.065 723.262 145.594 721.634 145.265 720.802C144.295 718.347 143.606 715.745 142.826 713.221L139.117 701.291C135.694 690.321 132.109 679.404 128.361 668.543C127.505 666.054 126.502 662.117 125.14 659.861C124.577 658.927 122.688 659.108 121.488 658.97Z" fill="white"/>
<path d="M156.324 658.336C157.634 657.421 158.949 656.476 160.294 655.614C161.483 654.852 162.19 654.439 163.269 655.568C163.645 656.67 163.256 657.258 162.397 657.947C160.797 659.232 159.049 660.362 157.376 661.555L147.385 668.775C145.701 669.992 142.727 673.264 140.873 671.676C139.957 669.43 144.85 666.705 146.504 665.497L156.324 658.336Z" fill="black"/>
<path d="M151.465 677.761C152.532 676.957 157.68 672.886 158.678 672.975C163.924 673.438 154.988 679.174 154.012 679.896C152.187 681.191 147.515 685.672 145.485 684.336C144.541 682.304 147.055 681.144 148.407 680.033C149.357 679.253 150.468 678.499 151.465 677.761Z" fill="black"/>
<path d="M156.364 688.7C157.846 687.577 161.797 684.095 163.595 684.911C165.436 687.246 158.798 690.945 157.013 692.218C155.506 693.382 151.046 697.552 149.414 695.968C148.958 694.619 149.572 693.832 150.613 693.039C152.518 691.585 154.457 690.15 156.364 688.7Z" fill="black"/>
<path d="M169.871 525.132C173.698 521.737 179.378 519.986 184.227 521.825C200.39 527.957 204.831 551.343 196.611 565.265C194.976 568.036 193.566 569.63 191.222 571.762C187.497 574.482 184.628 575.998 179.832 575.719C174.84 575.428 170.42 572.397 167.216 568.728C162.229 563.016 159.696 552.927 160.241 545.478C160.833 537.379 163.687 530.475 169.871 525.132Z" fill="white"/>
<path d="M172.765 540.615C173.563 539.946 174.616 539.25 175.445 538.639C183.919 532.396 190.035 528.22 195.478 540.743C200.154 551.504 196.404 553.497 188.102 559.43L185.455 561.194C184.689 563.17 182.71 570.156 179.981 569.537C178.689 568.465 178.358 565.941 177.913 564.203C176.191 564.189 174.111 563.968 173.078 562.339C170.588 558.408 167.201 552.261 167.469 547.51C167.633 544.618 170.782 542.201 172.765 540.615Z" fill="black"/>
<path d="M174.22 543.2C177.363 540.85 183.485 535.801 187.172 535.732C190.827 535.664 195.1 545.967 194.428 549.151C193.755 552.346 190.023 554.436 187.605 556.17L183.324 559.076C182.698 560.281 181.44 563.731 180.85 565.205C180.639 564.307 180.123 562.017 179.513 561.462C178.449 560.493 176.552 561.967 175.391 560.495C174.09 558.811 173.087 556.808 172.258 554.851C169.69 548.806 168.995 547.315 174.22 543.2Z" fill="white"/>
<path d="M176.302 550.444C178.943 549.265 179.915 551.245 178.984 553.513C176.411 555.19 175.385 552.679 176.302 550.444Z" fill="black"/>
<path d="M186.217 543.879C188.377 541.941 189.989 543.725 189.41 546.234C186.999 548.1 185.833 546.328 186.217 543.879Z" fill="black"/>
<path d="M181.499 546.874C184.105 545.665 184.831 547.804 184.261 549.941C181.58 551.475 180.512 549.133 181.499 546.874Z" fill="black"/>
<path d="M176.095 651.606C177.692 651.495 180.172 651.355 181.481 652.142C186.369 655.081 191.855 671.441 189.759 676.127C188.1 677.292 175.145 686.378 175.06 680.078C175.02 677.191 187.35 674.79 184.232 670.844C180.801 670.495 171.501 680.252 170.445 673.41C169.946 670.177 181.331 667.182 181.821 663.697C181.658 663.103 181.697 663.127 181.249 662.716C178.352 661.846 171.47 668.972 169.289 667.579C164.37 664.439 176.871 658.499 177.782 656.293C178.281 655.083 176.485 653.282 176.095 651.606Z" fill="white"/>
<path d="M161.653 525.559C162.946 524.343 165.289 522.939 166.846 521.983C160.494 528.392 157.173 535.058 156.345 544.206C155.483 553.74 158.336 564.461 164.625 571.833C165.446 572.711 166.412 573.632 167.277 574.485C150.094 566.115 147.995 537.991 161.653 525.559Z" fill="white"/>
<path d="M129.345 644.345C130.79 643.82 132.982 644.399 133.055 646.214C132.659 646.995 132.498 646.903 131.638 647.469C130.969 647.927 130.49 648.333 129.706 648.263C128.022 647.4 128.722 645.696 129.345 644.345Z" fill="white"/>
<path d="M139.96 637.836C141.313 636.99 143.294 637.652 143.704 639.238C143.458 640.005 143.432 639.812 142.573 640.386L140.217 641.831C139.625 639.996 139.488 639.782 139.96 637.836Z" fill="white"/>
<path d="M123.564 650.217C124.419 649.653 126.457 649.022 126.623 650.494L126.246 650.88L123.38 652.763C123.371 651.701 123.41 651.27 123.564 650.217Z" fill="white"/>
<path d="M199.996 456.651C204.138 453.581 215.192 444.969 220.34 444.562C221.95 444.435 223.483 446.275 224.489 447.429C229.715 444.82 232.141 441.762 236.369 448.112C241.031 455.114 245.508 462.2 249.986 469.319C257.465 481.323 265.036 493.268 272.698 505.156L298.147 544.036C302.995 551.5 307.904 559.04 312.384 566.73C313.108 567.976 314.034 569.616 313.681 571.079C313.201 573.076 311.364 574.186 309.765 575.22C293.902 585.486 277.66 595.181 261.401 604.788C255.272 608.397 249.111 611.953 242.92 615.453C239.265 617.504 235.601 619.511 231.807 621.295C227.997 623.087 226.935 620.605 225.185 617.769C223.46 618.614 220.352 620.196 218.732 618.866C216.247 616.829 213.81 611.059 212.471 608.359C210.004 603.367 207.567 598.361 205.164 593.339C203.112 589.088 200.392 584.212 198.914 579.726C198.531 578.565 200.828 577.467 201.659 578.818C202.802 580.676 203.758 582.677 204.757 584.63C207.898 590.829 210.992 597.054 214.037 603.3C215.154 605.603 218.917 614.086 220.446 615.397C222.367 615.733 226.668 612.886 228.495 611.85C232.786 609.497 237.327 606.746 241.579 604.271C252.469 597.896 263.317 591.45 274.124 584.932C278.533 582.286 282.925 579.609 287.299 576.904C290.079 575.186 293.423 573.485 295.733 571.175C296.096 570.811 296.6 570.423 296.532 569.862C296.135 566.563 286.439 551.073 284.124 547.24C271.828 526.896 258.671 507.04 245.845 487.027C242.553 481.889 223.212 450.634 220.708 448.925C220.256 448.619 219.691 448.684 219.187 448.806C218.179 449.052 217.232 449.589 216.354 450.125C212.212 452.655 208.267 455.535 204.319 458.352L185.285 472.203C179.019 476.747 172.789 481.343 166.596 485.989C164.164 487.815 157.089 492.715 155.626 495.033C155.435 496.133 155.968 497.271 156.507 498.323C158.814 502.824 161.854 507.231 164.001 511.774C164.463 513.771 161.865 514.511 160.856 512.847C157.927 508.026 154.851 502.985 152.447 497.895C150.92 494.659 152.22 492.582 154.691 490.502C159.273 486.644 164.327 482.967 169.106 479.369C179.32 471.684 189.618 464.11 199.996 456.651Z" fill="black"/>
<path d="M211.395 570.052C214.359 567.636 230.559 556.447 233.545 556.043C234.261 555.946 234.936 556.295 235.482 556.734C236.752 557.752 246.377 575.503 247.673 578.151C248.003 578.823 248.375 579.575 248.434 580.329C248.523 581.495 247.869 582.248 247.145 583.08C243.769 585.446 228.014 595.558 224.966 596.48C224.218 596.706 223.563 596.652 222.879 596.267C222.333 595.958 221.975 595.535 221.632 595.019C218.937 590.953 216.887 586.043 214.721 581.67C213.478 579.16 211.331 575.682 210.687 572.997C210.404 571.821 210.78 571.036 211.395 570.052Z" fill="black"/>
<path d="M214.069 571.818C216.386 570.126 231.468 560.037 233.523 559.633C234.658 560.594 244.132 577.978 244.907 580.044C244.827 580.686 244.831 580.501 244.288 581.081C241.295 582.944 226.399 592.535 224.309 592.968C223.124 592.419 215.895 576.412 214.351 574.093C213.886 573.398 213.76 572.626 214.069 571.818Z" fill="white"/>
<path d="M224.082 570.109C224.648 569.613 226.186 568.402 226.9 568.972C229.375 570.944 236.615 576.461 238.171 578.797C238.281 579.363 238.346 579.73 238.017 580.264C236.781 582.274 234.296 579.332 233.406 578.5C232.648 578.992 231.802 579.465 231.019 579.923L228.351 581.634C228.68 583.279 229.752 586.244 227.533 586.793C226.861 586.701 226.911 586.694 226.399 586.235C225.635 584.528 223.585 571.88 224.082 570.109ZM227.022 573.029C227.202 574.54 227.312 576.59 227.92 577.937L228.267 578.113L228.989 577.714C229.52 577.357 230.511 576.793 230.808 576.286C230.239 575.516 227.846 573.39 227.022 573.029Z" fill="black"/>
<path d="M174.475 495.887C176.278 494.446 182.779 489.52 184.611 489.447C187.308 489.341 192.969 501.687 194.577 503.973C196.572 506.81 193.417 508.449 191.258 509.812C186.89 513.241 187.434 512.357 181.984 511.698C180.536 511.522 178.855 511.552 177.36 511.388C174.956 511.126 173.713 506.754 172.305 504.984C171.341 503.714 170.229 501.26 170.17 499.764C170.695 498.314 173.137 496.859 174.475 495.887Z" fill="black"/>
<path d="M240.598 557.993C246.289 553.368 253.534 549.228 259.542 544.936C262.252 543.08 265.157 541.299 267.324 544.986C271.331 551.809 275.528 558.502 279.241 565.475C280.037 566.969 279.951 568.991 278.599 570.115C276.499 571.86 274.036 573.37 271.744 574.863C267.422 577.692 263.068 580.472 258.682 583.202C256.147 584.752 254.054 586.093 252.232 582.768C251.004 580.532 249.293 579.273 250.173 576.559C253.76 576.918 253.961 582.099 255.289 581.25C259.564 578.518 273.714 570.749 276.178 567.356C275.938 564.505 268.712 554.467 267.29 551.237C266.79 550.1 264.891 546.99 263.678 546.538C262.122 546.735 244.865 558.625 243.12 560.27C242.552 561.672 244.503 563.255 244.631 565.068C244.227 566.181 243.673 566.349 242.553 565.945C241.57 565.07 240.184 562.537 239.917 561.24C239.608 559.746 239.825 559.202 240.598 557.993Z" fill="black"/>
<path d="M82.4543 619.534C83.8185 618.623 84.6165 619.015 85.4914 620.267C88.8171 625.026 91.5585 630.222 95.403 634.607C97.9595 633.535 104.57 628.336 106.812 630.435C107.319 631.548 106.438 636.993 106.353 638.834C108.883 639.764 111.998 639.67 114.503 640.705C115.187 640.987 115.373 641.505 115.614 642.149C114.826 644.647 110.853 643.377 108.826 643.13C101.94 642.293 102.35 640.913 103.011 634.96C100.865 636.157 98.1504 637.755 95.9604 638.737C93.0925 638.535 92.1265 637.067 90.5602 634.732C87.6435 630.383 84.4969 625.835 82.4122 621.034C82.2647 620.694 82.3912 619.903 82.4543 619.534Z" fill="black"/>
<path d="M254.188 556.102C256.026 555.566 256.375 556.694 257.297 558.056C258.678 557.081 262.033 554.255 263.562 555.374C264.198 556.916 263.172 557.526 262.115 558.353C262.858 560.905 262.811 562.942 262.678 565.563C265.279 566.01 266.523 565.3 268.883 565.659C269.329 565.728 269.471 566.233 269.601 566.598C269.306 569.534 264.469 568.798 262.254 568.739C261.443 568.913 259.005 577.822 256.577 574.16C256.446 572.914 258.455 569.814 259.203 568.015C256.818 567.161 254.914 566.732 253.655 564.406C252.861 564.17 251.942 565.535 250.483 564.933C249.152 562.864 253.509 560.664 254.938 559.686C254.034 558.294 253.448 557.733 254.188 556.102ZM255.808 562.701C256.072 564.108 258.297 564.903 259.561 564.942C259.944 564.593 259.789 564.8 259.91 564.219C259.969 562.636 259.976 561.609 259.651 560.034C258.612 560.71 257.488 561.414 256.473 562.113L255.808 562.701Z" fill="black"/>
<path d="M213.156 528.138C218.959 524.052 224.837 520.076 230.788 516.21C232.618 515.01 238.767 510.514 240.668 510.739C241.836 511.467 241.799 512.15 241.32 513.358C238.699 515.35 235.009 517.627 232.209 519.471L217.153 529.391C216.006 530.137 214.897 531.028 213.533 530.738C212.439 530.01 212.663 529.135 213.156 528.138Z" fill="black"/>
<path d="M206.37 516.356C212.547 511.967 218.779 507.657 225.066 503.427C227.162 502.026 229.872 500.037 232.12 499.07C233.482 498.485 235.055 499.878 233.558 501.843C231.343 503.553 209.1 518.714 207.565 519.162C207.184 519.273 206.547 519.168 206.223 518.911C205.957 518.701 205.803 518.52 205.745 518.187C205.601 517.396 205.92 516.948 206.37 516.356Z" fill="black"/>
<path d="M218.706 540.355C225.752 535.216 233.434 530.607 240.732 525.817C241.807 525.112 242.918 524.453 244.225 524.619C245.361 525.338 245.273 526.034 244.788 527.151C244.577 527.323 244.363 527.492 244.146 527.658C243.231 528.357 242.087 529.068 241.1 529.69C234.265 533.993 227.623 538.659 220.676 542.773C220.198 543.057 219.706 542.999 219.187 542.928C218.087 542.143 218.206 541.505 218.706 540.355Z" fill="black"/>
<path d="M205.712 482.146C207.243 480.922 217.985 473.172 218.98 473.281C225.513 474.004 212.53 481.398 211.22 482.293C207.699 484.952 204.06 487.557 200.395 490.026C199.362 490.722 198.337 491.485 197.083 490.886C195.152 488.365 203.681 483.583 205.712 482.146Z" fill="black"/>
<path d="M203.023 497.603C209.345 493.144 215.649 488.358 222.308 484.45C223.728 483.617 225.599 484.863 224.056 487.145C223.266 487.753 222.283 488.353 221.434 488.91C215.81 492.597 210.424 496.744 204.642 500.168C204.085 500.498 203.466 500.444 202.886 500.222C201.923 499.139 202.201 498.645 203.023 497.603Z" fill="black"/>
<path d="M138.875 471.067C139.21 470.852 140.074 470.334 140.45 470.531C143.358 472.052 147.496 475.875 149.762 478.333C150.081 478.681 149.804 479.687 149.725 480.061C147.717 481.554 146.403 479.762 144.804 478.41C142.807 476.725 140.719 474.968 138.951 473.063C138.481 472.554 138.737 471.663 138.875 471.067Z" fill="black"/>
<path d="M128.244 489.439C130.212 487.697 138.85 489.938 141.175 491.096C141.726 491.37 141.598 492.592 141.533 493.12C141 493.522 140.369 493.927 139.382 493.727C136.586 493.161 130.577 492.809 128.453 491.122C128.098 490.841 128.204 489.885 128.244 489.439Z" fill="black"/>
<path d="M156.018 459.623C157.647 458.857 158.742 459.77 159.225 461.286C159.991 463.682 162.299 468.277 161.438 470.6C159.533 471.777 158.373 469.86 157.946 468.273C157.322 465.959 155.036 461.824 156.018 459.623Z" fill="black"/>
<path d="M172.942 600.925C174.039 600.371 177.353 598.769 178.454 599.014L178.542 599.499C178.118 600.298 178.093 600.43 178.054 601.336L178.13 601.656C176.474 602.752 171.248 605.448 172.942 600.925Z" fill="black"/>
<path d="M451.329 297.464C459.714 299.236 473.683 301.627 478.627 309.073C481.652 313.626 481.081 319.428 480.078 324.53C502.397 340.376 507.253 372.122 499.995 396.943C494.586 415.44 483.007 430.842 466.083 440.183C466.69 442.49 467.401 444.877 468.052 447.18C472.278 447.702 472.514 449.571 473.605 453.246C477.839 453.016 482.583 453.644 486.505 455.286C503.234 462.296 513.756 486.834 517.65 503.406C518.447 506.75 519.129 510.122 519.698 513.515C520.651 519.516 520.649 521.17 523.017 526.754C526.876 524.642 528.738 524.676 531.266 528.6C532.256 530.139 536.625 538.614 535.199 540.036C529.392 545.828 519.352 550.412 511.883 553.359C515.173 554.343 525.606 558.001 526.294 561.331C525.772 564.386 520.552 564.059 518.192 563.861C500.479 562.38 482.835 557.984 466.258 551.619C463.062 550.394 458.937 548.657 456.452 546.283C456.156 545.956 455.79 545.261 455.911 544.818C456.773 541.656 463.927 542.589 466.045 542.772C471.797 543.273 477.364 544.398 482.92 545.595C482.063 543.399 481.222 541.155 480.262 539.006C472.978 535.813 467.951 531.949 464.439 524.56C461.742 524.53 459.532 524.367 456.981 523.424C449.576 520.681 443.742 513.741 446.665 505.601C441.164 500.079 438.501 494.202 442.961 486.944C437.128 478.696 436.993 469.314 446.652 463.49C447.926 462.723 449.178 462.353 450.599 461.91C449.499 458.297 448.135 455.654 451.587 452.892C450.854 450.758 450.197 448.403 449.546 446.231C440.42 447.747 432.557 447.973 423.426 445.801C412.762 443.305 403.07 437.723 395.558 429.753C394.18 428.279 389.221 423.686 392.445 422.089C394.47 421.904 396.6 425.275 397.944 426.722C400.975 430.028 404.437 432.914 408.237 435.298C420.824 443.028 435.945 445.499 450.338 442.174C486.852 433.606 505.903 392.557 497.318 357.822C490.271 329.309 464.68 313.202 436.022 320.127C426.932 322.598 418.692 326.45 411.645 332.674C410.39 333.783 408.387 335.961 406.613 335.229C404.143 333.095 408.865 329.932 410.303 328.815C430.233 313.327 453.955 309.837 476.485 322.149C478.025 309.655 472.802 307.389 461.701 304.127C455.627 302.295 449.178 301.386 443.071 299.823C428.466 296.084 413.947 293.541 399.1 290.927C386.488 288.651 373.826 286.663 361.123 284.963C355.068 284.188 348.978 283.329 342.89 283.514C336.449 283.71 332.579 287.923 330.374 293.591C328.103 299.429 326.544 305.698 324.978 311.764C322.597 320.912 320.344 330.094 318.22 339.306C314.5 354.679 311.044 370.115 307.855 385.607C305.834 395.024 303.712 404.417 302.078 413.91C301.515 417.179 300.536 421.515 301.522 424.739C304.537 434.58 324.805 433.337 327.376 437.306C327.749 437.88 327.767 438.486 327.684 439.148C327.438 441.128 326.623 443.191 326.049 445.099C324.942 448.777 323.789 452.433 322.895 456.169C329.723 453.608 336.322 450.463 342.883 447.291C345.393 446.079 349.834 443.023 352.284 442.537C354.716 442.055 379.781 447.93 384.438 448.894C392.286 450.448 400.143 451.949 408.011 453.395C413.517 454.429 419.064 455.532 424.627 456.138C427.055 456.402 428.398 456.123 430.62 455.217C432.005 454.655 432.893 454.366 434.114 455.49C434.201 455.766 434.354 456.023 434.253 456.28C432.987 459.53 428.739 460.277 425.833 460.101C418.323 459.641 410.886 458.067 403.521 456.701C386.692 453.538 369.921 450.071 353.218 446.3C348.394 448.873 325.178 461.282 320.995 460.149C320.225 459.94 319.518 459.464 319.117 458.765C318.693 458.024 318.7 457.184 318.795 456.36C319.26 452.347 322.292 443.935 323.569 439.627C316.121 437.824 303.6 435.794 299.207 429.31C296.016 424.603 297.161 418.305 298.136 413.07C303.528 385.087 309.653 357.25 316.505 329.587C318.028 323.019 319.589 316.46 321.188 309.91C322.613 304.065 324.03 298.587 326.121 293.101C330.048 282.802 336.643 278.389 347.637 279.485C349.822 279.703 352.352 279.862 354.602 280.095C361.764 280.867 368.901 281.85 376.005 283.04C392.591 285.701 409.297 288.273 425.761 291.616C434.322 293.355 442.74 295.751 451.329 297.464Z" fill="black"/>
<path d="M478.575 456.617C498.466 459.417 509.966 486.353 514.157 503.675C515.035 507.33 515.785 511.015 516.402 514.722C516.778 516.996 517.132 520.02 517.676 522.189C518.12 523.952 519.34 526.909 520.022 528.685C509.337 535.075 498.793 541.85 486.439 544.754C485.374 542.439 484.264 539.111 483.029 537.039C482.449 536.066 479.311 535.027 478.137 534.365C473.451 531.722 470.505 528.405 467.759 523.917C469.331 523.267 470.07 522.757 471.33 521.692C474.914 522.63 476.428 522.703 479.946 521.394L480.739 520.994C480.865 521.006 480.992 521.016 481.116 521.027C482.785 522.996 484.492 525.279 486.746 526.62C487.416 527.017 487.797 526.994 488.47 526.804C489.099 526.327 489.063 526.373 489.383 525.651C489.354 525.319 489.344 524.781 489.045 524.555C481.479 518.856 478.883 509.015 479.002 499.895C479.093 492.993 480.305 492.636 474.149 488.215C469.126 484.562 459.14 477.794 461.472 470.304C463.73 463.048 472.328 466.792 476.606 469.181C482.761 472.617 487.681 476.003 492.885 480.738C494.523 482.227 497.328 486.137 499.108 486.731C499.966 486.608 499.577 486.761 500.3 486.211C500.478 485.795 500.735 485.171 500.489 484.753C496.115 477.263 484.293 469.382 477.207 465.75C476.47 462.767 475.385 459.314 474.524 456.324C475.945 456.343 477.163 456.476 478.575 456.617Z" fill="#E1E1E1"/>
<path d="M451.4 464.935C452.083 466.455 453.14 470.116 453.687 471.855C453.317 472.271 453.088 472.573 452.756 473.015C452.723 473.545 452.681 473.85 453.074 474.311C456.451 478.296 463.016 482.525 461.827 488.607C461.084 492.408 458.137 492.628 454.89 491.83C454.678 491.751 454.471 491.671 454.263 491.588C442.399 486.861 435.836 470.774 451.4 464.935Z" fill="#E1E1E1"/>
<path d="M445.235 489.537C449.831 493.459 454.289 496.842 460.609 495.103C464.513 497.877 469.93 502.594 464.88 507.332C456.381 511.245 440.167 500.619 445.235 489.537Z" fill="#E1E1E1"/>
<path d="M466.104 510.452C467.889 511.322 470.061 513.296 470.407 515.321C470.61 516.554 470.306 517.817 469.565 518.822C466.054 523.575 457.504 520.586 453.61 517.734C450.164 514.716 448.84 512.325 449.319 507.661C454.686 510.773 460.012 512.975 466.104 510.452Z" fill="#E1E1E1"/>
<path d="M462.905 441.862C463.506 442.695 464.766 447.638 465.113 448.898C462.218 451.165 458.57 452.256 454.965 452.691C454.459 451.614 453.1 446.859 452.695 445.51C456.422 444.578 459.451 443.45 462.905 441.862Z" fill="#E1E1E1"/>
<path d="M556.573 368.081C563.707 368.588 576.249 374.631 581.754 378.854C601.93 394.333 605.541 416.077 589.877 436.488C597.783 447.277 581.9 465.583 568.752 457.504C561.857 465.765 555.904 469.712 545.267 471.438C543.614 471.616 541.953 471.696 540.29 471.679C529.791 471.613 518.24 467.231 510.929 459.694C492.749 440.948 506.509 413.833 519.34 396.424C521.74 393.169 524.23 389.971 527.087 387.156C520.435 377.601 529.595 370.367 538.289 368.24C544.535 366.712 550.31 367.169 556.573 368.081Z" fill="black"/>
<path d="M570.202 393.563L570.491 393.757C570.042 395.396 569.496 396.773 569.143 398.486C567.189 407.973 568.72 418.428 576.132 425.137C575.325 427.087 572.703 434.204 574.041 436.147C575.438 438.174 580.669 435.645 583.031 436.392C584.558 436.617 586.628 437.693 587.479 439.117C592.296 447.187 579.799 459.663 571.674 455.023C571.044 454.664 568.947 453.474 568.408 453.645C566.926 454.115 564.9 456.902 563.836 458.059C562.193 459.816 560.375 461.403 558.412 462.794C550.231 468.543 542.005 468.831 532.562 467.138C526.584 465.885 520.003 462.883 515.395 458.853C492.885 439.161 514.853 405.42 530.197 388.59C540.366 393.398 559.011 394.956 570.202 393.563Z" fill="#E1E1E1"/>
<path d="M539.014 406.628C539.706 406.857 539.69 406.81 540.181 407.331C541.468 410.654 526.888 423.85 525.889 428.013C526.456 430.497 535.23 430.798 533.799 433.821C533.025 434.405 532.98 434.408 532.025 434.657C530.608 434.355 529.441 434.008 528.167 433.525C519.132 430.093 521.956 426.581 526.701 420.748C530.258 416.377 533.999 411.775 537.724 407.512C538.024 407.169 538.61 406.845 539.014 406.628Z" fill="black"/>
<path d="M539.126 442.944C546.064 445.195 528.318 456.07 520.963 443.863C520.368 442.563 519.853 440.84 520.999 439.703C523.753 439.173 523.988 445.365 528.745 445.902C533.658 446.455 535.274 445.373 539.126 442.944Z" fill="black"/>
<path d="M552.92 417.444C557.285 418.738 552.436 425.699 550.204 426.884C545.53 425.755 550.594 418.511 552.92 417.444Z" fill="black"/>
<path d="M527.633 404.119C532.258 404.889 527.28 412.202 525.081 413.278C520.53 412.287 525.402 405.223 527.633 404.119Z" fill="black"/>
<path d="M454.949 368.913C458.707 369.648 463.834 370.454 466.114 373.77C467.472 375.745 467.998 378.379 467.561 380.729C467.118 383.09 465.732 385.17 463.727 386.493C461.538 387.945 459.672 388.196 457.163 387.93C452.786 387.464 448.197 386.489 443.845 385.687L420.671 381.395L352.25 368.442C346.228 367.345 338.146 365.696 339.457 357.386C339.864 354.811 341.314 352.517 343.466 351.045C347.369 348.356 352.201 349.973 356.5 350.635C358.802 350.99 361.164 351.472 363.46 351.893C372.604 353.564 381.738 355.297 390.859 357.089C412.212 361.191 433.691 364.709 454.949 368.913Z" fill="#E1E1E1"/>
<path d="M393.204 359.688C397.016 360.323 397.532 363.239 395.496 365.939C395.045 366.538 395.832 367.915 396.101 368.619C397.168 371.421 394.755 372.862 392.382 373.467C391.063 373.54 387.132 373.406 387.175 371.515C387.226 369.26 388.388 361.866 389.639 360.157C390.898 359.389 391.737 359.59 393.204 359.688Z" fill="black"/>
<path d="M390.863 367.791C392.024 367.976 393.282 368.101 393.432 369.505C393.134 370.211 392.911 370.267 392.257 370.666C391.57 370.702 391.087 370.817 390.511 370.475C389.831 369.518 389.862 368.529 390.863 367.791Z" fill="#E1E1E1"/>
<path d="M391.882 362.117C392.922 362.33 393.455 362.27 393.786 363.346C393.549 364.052 393.328 364.141 392.741 364.596C392.127 364.802 392.149 364.817 391.51 364.816C390.781 364.03 391.275 362.84 391.882 362.117Z" fill="#E1E1E1"/>
<path d="M425.489 366.261C429.478 368.063 428.21 371.682 428.016 375.367C427.943 376.747 428.04 379.704 426.136 379.349C425.744 378.961 425.671 378.882 425.393 378.426L425.178 378.066C424.59 378.345 424.006 378.632 423.427 378.927C415.542 380.125 418.363 367.243 425.489 366.261Z" fill="black"/>
<path d="M424.637 369.071C426.185 369.86 425.134 373.259 424.863 374.601C424.006 375.506 423.772 375.796 422.666 376.457C419.721 375 422.954 370.376 424.637 369.071Z" fill="#E1E1E1"/>
<path d="M374.803 356.497C375.263 356.808 375.4 356.973 375.79 357.362C376.332 358.74 373.674 375.369 369.923 366.71C369.325 365.33 368.816 363.606 368.352 362.161C367.683 364.537 367.969 368.307 365.004 368.402C364.861 368.181 364.392 367.435 364.43 367.197C364.783 364.965 365.88 355.886 368.623 356.068C370.35 357.13 371.305 361.568 371.924 363.632C372.416 361.314 372.696 357.738 374.803 356.497Z" fill="black"/>
<path d="M459.452 372.325C462.249 373.514 460.216 376.678 459.8 379.107C459.499 380.868 458.924 384.99 456.738 384.944C454.926 383.96 454.068 380.277 453.404 378.261C452.937 379.948 452.759 382.61 451.71 383.85C451.323 384.309 450.671 384.234 450.108 384.258C449.353 382.954 449.475 382.289 449.916 380.859C450.633 378.538 451.009 373.273 453.069 371.954C455.314 371.816 456.3 377.499 456.843 379.289C457.314 376.939 457.577 373.649 459.452 372.325Z" fill="black"/>
<path d="M445.364 369.784C448.746 370.507 447.913 376.397 448.228 379.075C448.372 380.294 448.128 382.16 447.406 383.183C446.819 383.548 446.82 383.482 446.111 383.431C444.609 382.4 445.725 381.284 445.001 379.976L444.432 379.871L441.63 379.516C441.038 380.807 440.754 382.056 439.242 382.206C438.475 381.882 438.756 382.134 438.332 381.469C437.994 378.882 442.591 370.701 445.364 369.784Z" fill="black"/>
<path d="M444.817 373.644C445.322 374.409 445.524 376.701 444.418 377.275C443.544 376.861 443.613 377.071 443.344 376.401C443.442 375.439 444.242 374.494 444.817 373.644Z" fill="#E1E1E1"/>
<path d="M382.774 357.876C383.317 358.064 383.859 358.242 384.209 358.755C385.617 360.821 386.343 370.014 384.419 371.507C383.717 371.615 383.766 371.629 383.117 371.351C382.599 370.69 382.682 369.483 382.369 368.357C381.819 367.816 381.859 367.99 380.878 367.878L379.078 367.689C378.538 368.823 377.454 370.814 375.917 370.298C375.175 368.783 376.514 365.996 377.311 364.628C378.812 362.048 379.707 358.859 382.774 357.876Z" fill="black"/>
<path d="M382.139 361.766C382.565 362.589 382.648 364.194 382.34 365.086L381.812 365.22L380.76 364.96L380.583 364.569C380.681 363.607 381.546 362.614 382.139 361.766Z" fill="#E1E1E1"/>
<path d="M350.941 351.78C352.944 353.182 351.895 355.078 351.349 357.151C352.562 356.349 358.378 351.516 358.492 355.172C357.783 356.75 355.102 358.171 353.574 359.159C354.785 361.022 356.107 362.748 357.087 364.733C356.921 365.447 356.569 365.915 355.921 366.252C353.503 366.12 352.625 362.018 350.972 361.182C349.958 361.883 350.502 365.681 348.209 365.502C346.952 364.715 346.978 363.209 347.375 361.926C348.194 359.283 348.383 353.111 350.941 351.78Z" fill="black"/>
<path d="M411.691 363.464C413.61 364.901 412.757 366.258 412.205 368.322C413.177 367.725 416.876 365.247 417.482 365.416C421.613 366.568 414.66 370.253 414.05 370.63C415.244 372.381 416.73 374.397 417.466 376.353C415.067 379.607 412.869 374.118 411.551 372.146C411.2 373.487 411.094 375.055 410.293 376.222C409.64 377.173 408.073 376.403 408.064 375.725C408.017 372.334 409.306 368.602 410.125 365.303C410.398 364.202 410.742 363.932 411.691 363.464Z" fill="black"/>
<path d="M406.315 362.988C407.162 363.284 407.824 363.521 407.805 364.953C407.749 369.128 404.103 378.74 398.848 373.687C397.483 372.375 397.849 369.043 398.233 366.98C398.623 365.393 398.981 362.004 401.048 362.232C403.657 363.911 398.236 371.01 401.827 372.17C404.058 371.651 404.57 365.466 405.42 363.674C405.779 363.398 406.078 363.17 406.315 362.988Z" fill="black"/>
<path d="M435.641 367.926C437.06 368.363 438.917 369.522 438.186 371.258C436.534 371.783 435.266 370.145 433.804 371.565C433.767 371.761 433.73 371.957 433.694 372.152C435.207 373.876 437.201 375.426 437.405 377.884C437.633 380.632 434.329 381.129 432.261 381.097C431.237 380.777 430.31 380.37 429.612 379.539C428.878 378.666 428.978 377.591 430.078 377.135C431.587 377.224 432.734 378.596 433.988 378.089C435.024 375.875 430.533 374.584 430.584 372.43C430.653 369.566 433.171 368.06 435.641 367.926Z" fill="black"/>
<path d="M362.427 354.583C363.981 355.383 363.98 356.849 363.528 358.378C362.814 360.792 362.707 365.967 360.61 367.405C358.509 366.667 358.745 364.953 359.32 362.968C360.042 360.48 360.202 356.027 362.427 354.583Z" fill="black"/>
<path d="M424.766 385.239C430.188 386.598 434.844 389.322 433.782 395.845C433.342 398.399 431.902 400.672 429.779 402.161C425.535 405.085 419.107 402.985 414.379 402.119C408.132 400.979 401.894 399.793 395.665 398.562L343.59 388.698C338.116 387.345 333.564 384.947 334.67 378.031C335.403 373.443 340.047 370.046 344.662 370.469C348.409 370.812 352.182 371.532 355.974 372.209C362.778 373.412 369.57 374.679 376.35 376.011L403.717 381.245C410.894 382.579 417.594 383.689 424.766 385.239Z" fill="#E1E1E1"/>
<path d="M352.076 374.039C352.88 374.31 353.915 374.772 353.631 375.833C353.007 378.159 352.596 387.173 349.267 386.83C347.411 385.612 346.539 381.696 345.838 379.49C345.298 381.39 345.193 383.423 344.392 385.172C344.041 385.939 343.481 385.987 342.795 386.181C340.709 384.378 342.595 381.447 343.017 378.971C343.309 377.258 343.929 373.24 346.16 373.613C347.921 374.857 348.835 379.324 349.476 381.526C350.067 379.138 350.336 375.603 352.076 374.039Z" fill="black"/>
<path d="M389.005 380.807C391.82 381.755 391.428 385.582 391.684 388.089C391.841 389.634 392.329 395.857 389.298 394.392C388.805 393.639 388.869 392.458 388.695 391.402C388.26 390.914 388.541 391.094 387.725 391.024L385.184 390.66C384.363 392.156 384.125 392.875 382.392 393.473L381.847 393.111C381.307 390.472 385.143 384.618 386.686 382.331C387.287 381.44 388.006 381.113 389.005 380.807Z" fill="black"/>
<path d="M388.292 384.838C388.794 385.562 388.756 387.167 388.617 388.038L388.158 388.357L387.087 388.011L386.873 387.588C386.948 386.653 387.745 385.676 388.292 384.838Z" fill="#E1E1E1"/>
<path d="M411.087 385.17C414.708 385.748 413.736 391.55 414.119 394.187C414.711 398.265 411.232 401.599 410.97 395.537C410.958 395.267 410.27 395.172 410.034 395.105C409.233 395.033 408.356 394.886 407.553 394.772C406.854 396.219 406.371 397.287 404.6 397.596L404.141 397.189C403.569 395.003 407.428 388.776 408.757 386.87C409.418 385.922 410.041 385.594 411.087 385.17Z" fill="black"/>
<path d="M410.61 389.011C411.171 389.884 411.192 391.208 410.907 392.192L410.293 392.472L409.302 392.139L409.159 391.78C409.262 390.833 410.055 389.856 410.61 389.011Z" fill="#E1E1E1"/>
<path d="M360.969 375.514C361.805 375.774 362.802 376.278 363.25 377.067C363.58 377.637 363.66 378.318 363.473 378.949C363.356 379.337 363.374 379.216 362.954 379.444C362.144 379.387 361.612 379.097 360.968 378.684C358.112 376.85 354.968 385.346 358.198 385.897C359.227 386.072 360.014 385.293 360.126 384.317C359.221 383.771 358.14 383.579 358.228 382.469C359.532 380.58 361.796 381.47 363.678 382.107L363.94 382.198C364.242 382.889 364.38 383.117 364.189 383.814C362.51 385.162 361.469 389.211 358.806 389.008C350.982 388.409 353.248 375.805 360.969 375.514Z" fill="black"/>
<path d="M402.882 383.696C403.565 384.035 403.573 384.001 404.078 384.622C404.457 385.958 402.892 393.75 402.13 395.433C401.85 396.052 401.468 396.423 400.803 396.635C400.105 396.485 400.408 396.636 399.868 396.146C399.252 394.663 399.796 393.236 400.136 391.596L396.813 391.308C396.346 393.314 396.759 394.69 394.708 395.759C394.444 395.624 393.724 395.24 393.668 394.872C393.288 391.331 394.834 387.107 395.775 383.681C396.009 382.825 397.181 382.674 397.929 383.336C398.443 384.763 397.76 386.811 397.4 388.359L400.652 388.726C401.109 386.611 401.139 384.853 402.882 383.696Z" fill="black"/>
<path d="M421.234 387.14C423.056 387.392 424.856 387.34 425.889 389.061C425.954 391.041 423.193 390.454 421.949 390.271C421.38 393.027 420.984 396.239 420.064 398.874C419.786 399.669 419.258 399.877 418.518 400.142L417.702 399.462C416.861 397.717 418.616 392.08 419.159 389.907L418.937 389.865C417.62 389.609 416.453 389.342 415.672 388.183C415.955 386.174 419.942 386.945 421.234 387.14Z" fill="black"/>
<path d="M375.796 378.61C378.435 379.202 377.101 382.196 376.615 384.068C376.194 385.69 375.764 387.262 375.374 388.895C376.89 389.073 380.41 389.121 380.517 391.033C380.105 391.827 380.124 391.783 379.387 392.307C377.599 392.328 374.137 392.14 372.777 390.917C371.833 388.926 374.238 380.024 375.796 378.61Z" fill="black"/>
<path d="M425.058 398.078C425.913 398.225 426.51 399.006 426.427 399.869C426.343 400.732 425.608 401.384 424.741 401.364C424.121 401.35 423.561 400.99 423.29 400.432C423.02 399.874 423.084 399.211 423.456 398.715C423.829 398.22 424.447 397.974 425.058 398.078Z" fill="black"/>
<path d="M427.678 361.557L427.699 360.758L427.536 360.602C424.445 360.824 418.234 359.38 414.945 358.731L400.087 355.808L355.752 347.426C351.953 346.682 347.72 345.962 345.433 342.441C342.812 338.406 344.344 332.174 348.545 329.816C350.264 328.869 352.216 328.43 354.175 328.549C356.306 328.67 359.827 329.414 361.993 329.815L376.381 332.504C393.485 335.633 410.935 339.18 427.969 342.789C431.142 343.462 434.051 345.101 435.634 348.044C437.775 352.027 436.726 357.34 432.475 359.459C431.336 360.978 429.714 363.479 427.678 361.557Z" fill="#E1E1E1"/>
<path d="M427.678 361.559C427.949 360.723 428.607 360.009 428.974 359.172C429.541 357.877 429.891 356.489 431.486 356.332C433.036 356.984 432.718 358.128 432.475 359.461C431.336 360.98 429.714 363.481 427.678 361.559Z" fill="black"/>
<path d="M357.933 331.165C360.421 331.748 362.897 333.229 361.565 336.024C361.338 336.502 360.417 338.119 360.478 338.316C360.936 339.79 362.071 341.374 361.222 343.007C360.601 344.182 358.824 344.983 357.548 345.33C351.15 345.872 351.358 343.368 352.668 338.245C353.798 333.827 352.632 330.932 357.933 331.165Z" fill="black"/>
<path d="M355.852 339.59C357.021 339.728 358.58 339.916 358.557 341.383C358.211 342.046 357.941 342.123 357.296 342.499C356.692 342.587 356.308 342.574 355.707 342.571C354.995 342.158 355.283 342.437 354.881 341.638C354.866 340.8 355.065 339.955 355.852 339.59Z" fill="#E1E1E1"/>
<path d="M356.907 333.637C357.956 333.814 358.721 333.898 358.98 335.039C358.751 335.732 358.422 335.891 357.846 336.347C357.224 336.517 356.958 336.656 356.34 336.478C355.721 335.538 356.142 334.354 356.907 333.637Z" fill="#E1E1E1"/>
<path d="M417.862 343.366C420.62 344.368 419.487 348.224 419.395 350.627C419.331 352.295 419.066 355.976 417.294 356.565C415.118 355.829 416.404 350.706 416.589 348.739C415.61 350.072 414.233 352.343 412.422 352.436C411.338 351.717 411.256 350.05 410.949 348.644L410.703 348.453C410.148 349.792 408.726 356.651 406.564 354.163C406.03 352.262 407.325 349.389 408.019 347.545C408.686 345.774 409.663 342.321 411.992 342.679C413.352 343.672 413.461 346.187 413.762 347.929C414.934 346.31 416.144 344.28 417.862 343.366Z" fill="black"/>
<path d="M367.985 334.196C368.472 334.305 368.997 334.422 369.446 334.642C370.624 335.22 371.529 336.237 371.965 337.475C373.297 341.281 370.959 345.649 367.075 346.829C360.368 346.835 361.863 336.197 367.985 334.196Z" fill="black"/>
<path d="M367.963 337.016C370.77 338.628 369.088 342.325 367.101 343.966C363.719 343.499 366.389 338.366 367.963 337.016Z" fill="#E1E1E1"/>
<path d="M425.923 345.411C431.942 346.09 431.293 356.082 424.716 357.887C418.343 357.885 419.86 347.134 425.923 345.411Z" fill="black"/>
<path d="M425.876 348.202C428.496 350.015 426.885 353.509 424.811 355.125C421.652 354.257 424.186 349.591 425.876 348.202Z" fill="#E1E1E1"/>
<path d="M389.286 337.789C390.381 337.919 391.362 338.12 391.854 339.229C391.549 341.377 387.948 340.543 386.523 340.336C386.291 341.039 386.229 341.223 386.11 341.944C386.793 343.36 387.357 342.416 389.135 343.075C389.856 343.694 390.042 344.521 389.449 345.29C387.932 345.929 384.437 344.395 384.773 347.429C385.356 347.835 387.423 347.91 388.299 347.99C388.968 348.198 389.43 348.613 389.653 349.278C388.864 351.65 383.587 350.958 382.466 349.668C381.271 347.774 382.342 344.456 382.866 342.595C384.314 337.445 384.084 337.113 389.286 337.789Z" fill="black"/>
<path d="M396.959 339.185C398.577 339.388 400.74 340.284 400.301 342.299C399.012 343.146 397.445 341.521 395.927 342.813C395.877 343.027 395.828 343.24 395.778 343.454C397.306 345.295 399.435 347.031 399.402 349.642C399.371 352.142 395.956 352.561 394.078 352.429C392.671 351.832 389.754 349.829 391.845 348.273C393.63 348.141 394.561 350.102 396.123 349.23C396.289 347.529 393.468 346.004 392.995 344.059C392.283 341.127 394.415 339.846 396.959 339.185Z" fill="black"/>
<path d="M378.064 335.637C379.717 335.751 381.879 336.604 381.285 338.635C379.903 340.018 378.919 338.132 377.388 338.68C375.774 340.996 381.174 342.718 380.733 345.574C380.306 348.342 377.464 348.947 375.314 348.827C374.441 348.49 373.541 348.095 372.943 347.356C372.354 346.627 372.132 345.18 373.108 344.685C374.076 344.725 375.339 345.534 376.328 346.003C377.149 345.954 376.813 346.099 377.408 345.656C377.588 344.031 374.483 342.267 374.006 340.173C373.382 337.429 375.558 336.115 378.064 335.637Z" fill="black"/>
<path d="M457.501 324.598C459.763 325.03 461.982 325.662 464.132 326.488C493.299 337.486 499.355 374.276 489.119 400.449C483.529 414.742 472.481 427.297 458.323 433.492C445.961 438.987 431.915 439.304 419.319 434.37C417.155 433.508 407.252 429.5 408.655 426.261C410.007 425.024 412.202 426.498 413.415 427.324C416.264 429.268 419.106 430.49 422.396 431.61C428.072 433.573 434.078 434.407 440.076 434.066C455.575 433.653 469.398 418.807 476.287 405.723C488.521 382.489 487.997 344.917 461.741 331.46C450.889 325.897 438.33 327.305 427.708 332.625C425.464 333.748 422.926 335.675 420.563 336.654C417.898 337.148 418.046 334.46 420.288 332.875C431.116 325.318 444.49 322.343 457.501 324.598Z" fill="black"/>
<path d="M484.973 355.316C486.648 357.727 486.777 362.849 488.808 365.558C490.103 367.287 490.213 374.467 490.157 376.948C489.811 392.606 484.281 407.68 472.849 418.651C471.855 419.683 471.58 419.959 470.39 420.801C472.253 418.524 473.999 416.155 475.623 413.703C484.596 400.149 488.886 382.21 487.153 366.044C486.708 361.878 485.78 359.267 484.973 355.316Z" fill="#E1E1E1"/>
<path d="M401.215 308.727C402.906 309.094 410.788 309.898 408.219 313.052C407.596 313.347 407.09 313.53 406.388 313.411C401.821 312.633 397.28 311.577 392.726 310.704L365.48 305.666C363.453 305.338 357.474 305.047 357.676 302.57C358.133 301.815 358.611 301.198 359.608 301.309C364.138 301.813 368.726 302.696 373.214 303.493C382.565 305.145 391.899 306.889 401.215 308.727Z" fill="black"/>
<path d="M359.285 426.027C361.252 426.394 365.514 426.69 366.041 428.801C365.825 429.935 364.629 430.723 363.536 430.525C359.553 429.8 355.574 428.991 351.601 428.206L322.737 422.458C320.807 422.024 316.29 421.884 315.943 419.586C316.388 418.494 317.213 417.858 318.423 418.074C323.037 418.894 327.649 419.811 332.247 420.712L359.285 426.027Z" fill="black"/>
<path d="M396.304 321.931C397.728 322.199 401.677 323.068 400.222 325.38C399.559 325.771 398.855 325.931 398.086 325.798C385.126 323.555 372.09 320.788 359.126 318.626C357.365 318.341 355.305 318.279 354.746 316.24C355.002 315.022 356.124 314.666 357.267 314.819C361.162 315.338 365.066 316.089 368.937 316.786C378.077 318.407 387.199 320.122 396.304 321.931Z" fill="black"/>
<path d="M337.42 394.146C342.262 395.395 341.503 397.48 339.77 400.679C339.059 401.993 344.019 405.967 336.678 408.202C329.652 408.783 331.166 405.15 332.187 400.163C333.071 395.844 332.763 394.016 337.42 394.146Z" fill="black"/>
<path d="M334.782 402.437C336.016 402.588 337.61 402.677 337.751 404.194C337.405 404.88 337.234 404.919 336.581 405.308C335.802 405.398 334.883 405.431 334.09 405.479C334.255 404.437 334.347 403.385 334.782 402.437Z" fill="#E1E1E1"/>
<path d="M336.455 396.589C337.494 396.883 338.076 397.012 338.084 398.129C337.676 398.859 337.39 398.936 336.638 399.385C335.71 399.538 336.079 399.651 335.425 399.29C335.063 398.225 335.491 397.118 336.455 396.589Z" fill="#E1E1E1"/>
<path d="M363.252 399.504C366.175 400.422 364.563 405.468 364.594 407.828C364.612 409.212 364.172 412.231 362.656 412.735C360.319 412.101 361.705 407.031 361.81 404.873C359.103 408.524 357.436 410.712 356.171 404.8L355.917 404.685C355.371 406.346 354.595 408.728 353.776 410.352C353.534 410.832 353.131 410.821 352.711 410.873C352.06 410.604 352.004 410.641 351.612 410.039C351.312 408.631 352.744 405.085 353.257 403.552C353.819 401.87 354.458 399.59 356.079 398.723C358.411 398.738 358.614 402.279 358.934 404.102C360.208 402.361 361.333 400.382 363.252 399.504Z" fill="black"/>
<path d="M371.703 401.596C377.865 404.053 375.802 413.062 369.789 414.084C363.204 412.532 365.826 402.789 371.703 401.596Z" fill="black"/>
<path d="M371.191 404.542C373.939 405.622 372.215 409.796 370.162 411.234C367.125 410.613 369.584 405.857 371.191 404.542Z" fill="#E1E1E1"/>
<path d="M388.625 404.927C395.164 405.754 393.881 415.333 388.026 417.175C381.178 416.929 382.992 407.061 388.625 404.927Z" fill="black"/>
<path d="M388.783 407.81C391.41 408.793 390.026 412.999 387.776 414.323C384.707 413.77 387.228 409.11 388.783 407.81Z" fill="#E1E1E1"/>
<path d="M432.568 412.678C438.626 414.052 437.201 423.762 431.216 425.041C430.546 424.977 430.081 424.948 429.464 424.638C428.479 424.152 427.74 423.276 427.426 422.223C426.31 418.586 428.804 413.79 432.568 412.678Z" fill="black"/>
<path d="M432.495 415.491C434.799 417.511 433.438 420.606 431.345 422.206C428.384 421.265 430.709 416.821 432.495 415.491Z" fill="#E1E1E1"/>
<path d="M414.193 408.827C417.792 409.301 417.032 414.226 417.29 416.95C417.428 418.4 417.28 420.735 416.497 421.942C416.197 422.404 415.704 422.284 415.248 422.27C413.768 421.277 414.865 420.303 414.101 418.852L413.377 418.72L410.859 418.403C410.212 419.806 409.705 420.898 408.058 421.309L407.548 420.954C406.657 418.51 411.834 410.094 414.193 408.827Z" fill="black"/>
<path d="M413.934 412.726C414.398 413.494 414.391 415.037 414.163 415.905L413.63 416.094C412.755 415.849 412.812 416.028 412.486 415.457C412.573 414.516 413.373 413.562 413.934 412.726Z" fill="#E1E1E1"/>
<path d="M524.109 325.098C525.398 325.267 526.994 326.33 526.138 327.691C524.514 330.272 520.481 331.884 517.901 333.513C516.138 334.627 513.353 336.324 511.56 337.001C510.556 336.959 509.766 336.446 509.39 335.532C509.574 332.731 521.545 326.047 524.109 325.098Z" fill="black"/>
<path d="M511.077 307.086C514.789 307.994 512.701 311.112 511.197 313.045C509.401 315.351 505.205 322.992 502.915 324.041C499.127 323.568 501.642 319.568 502.914 317.89C504.862 315.323 508.457 308.343 511.077 307.086Z" fill="black"/>
<path d="M350.558 397.632C351.49 398.165 352.043 398.724 351.838 399.898C351.302 402.964 350.764 406.48 348.256 408.606C346.577 410.03 344.121 410.063 342.864 408.089C341.531 405.96 342.062 403.324 342.561 401.014C343.048 399.235 343.177 396.786 345.351 396.949C347.452 398.591 343.698 403.675 345.19 406.323C345.895 406.785 345.528 406.711 346.312 406.625C349.189 404.428 347.885 399.116 350.558 397.632Z" fill="black"/>
<path d="M427.409 410.884C428.12 411.197 428.37 411.456 428.632 412.174C428.662 413.406 423.237 421.355 422.31 422.944C422.054 423.383 421.415 423.479 420.928 423.519C420.073 423.189 420.379 423.459 419.918 422.753C419.809 421.186 420.943 419.75 421.779 418.353C422.068 416.608 418.17 412.779 419.792 410.549C420.434 410.237 420.384 410.228 421.088 410.311C422.249 410.955 423.133 413.718 423.72 415.078C424.821 413.434 425.653 411.787 427.409 410.884Z" fill="black"/>
<path d="M526.192 348.327C529.626 348.861 529.101 352.084 526.695 352.492C523.756 352.989 519.316 352.528 516.322 352.378C514.888 352.214 514.082 351.661 513.97 350.127C514.763 347.412 523.583 348.299 526.192 348.327Z" fill="black"/>
<path d="M406.741 407.515C408.109 407.629 409.905 407.844 410.128 409.437C409.38 411.082 407.513 410.653 406.074 410.501C405.529 412.734 405.343 415.054 404.845 417.286C404.451 419.052 404.087 420.55 402.016 419.931C400.908 417.968 402.794 412.379 403.398 410.012C402.751 409.926 401.241 409.771 400.654 409.363C399.487 408.548 400.021 407.071 401.561 406.949C403.128 406.826 405.122 407.254 406.741 407.515Z" fill="black"/>
<path d="M381.007 402.918C382.797 403.186 384.224 403.116 385.291 404.755C385.477 406.709 382.987 406.268 381.759 406.102C381.119 408.652 380.905 411.081 380.291 413.598C379.947 415.009 379.691 415.211 378.516 415.85C377.306 415.184 377.049 414.502 377.293 413.13C377.732 410.663 378.413 408.207 378.884 405.738C377.531 405.399 376.47 405.22 375.763 403.887C376.168 402.041 379.735 402.726 381.007 402.918Z" fill="black"/>
<path d="M617.147 380.409C618.032 380.616 618.001 380.581 618.708 381.135C619.057 381.912 618.995 381.513 618.862 382.379C617.464 384.475 610.522 386.929 607.854 387.956C607.045 387.861 606.615 387.742 606.118 387.097C605.799 384.865 609.573 383.696 611.251 382.89C613.109 381.996 615.209 381.118 617.147 380.409Z" fill="black"/>
<path d="M608.089 367.849C608.841 367.989 608.894 367.946 609.516 368.427C609.778 368.974 609.943 369.157 609.755 369.838C609.248 371.679 602.96 378.654 601.678 379.382C600.917 379.239 600.818 379.297 600.284 378.733C600.105 378.166 599.966 377.867 600.244 377.232C601.123 375.213 606.478 368.711 608.089 367.849Z" fill="black"/>
<path d="M615.536 395.388C616.421 395.448 617.016 395.52 617.745 395.979C618.221 396.624 618.274 396.614 618.413 397.431C617.656 399.427 612.895 398.507 611.083 398.337C609.715 398.257 607.402 397.832 608.247 395.879C609.717 394.667 613.555 395.25 615.536 395.388Z" fill="black"/>
<path d="M441.762 411.849C442.77 412.501 443.253 412.882 442.959 414.244C442.498 416.371 441.546 421.03 439.687 422.152C436.966 421.341 439.276 416.681 439.715 414.82C440.01 413.567 440.573 412.439 441.762 411.849Z" fill="black"/>
<path d="M322.441 396.347C323.808 396.349 324.915 397.458 324.913 398.826C324.911 400.192 323.801 401.297 322.433 401.296C321.068 401.292 319.964 400.182 319.965 398.818C319.968 397.452 321.076 396.346 322.441 396.347Z" fill="black"/>
<path d="M327.201 373.742C328.565 373.706 329.7 374.783 329.735 376.147C329.77 377.512 328.692 378.646 327.327 378.68C325.965 378.713 324.833 377.637 324.798 376.274C324.763 374.911 325.838 373.778 327.201 373.742Z" fill="black"/>
<path d="M345.441 312.671C346.903 312.873 348.737 313.053 348.562 315.027C347.739 316.545 346.561 316.226 345.132 315.983C343.67 315.841 342.056 315.636 342.189 313.72C342.942 312.226 344.041 312.439 345.441 312.671Z" fill="black"/>
<path d="M331.738 352.16C332.621 352.08 333.478 352.482 333.982 353.212C334.485 353.942 334.556 354.887 334.168 355.684C333.78 356.481 332.992 357.007 332.107 357.061C330.767 357.142 329.609 356.132 329.508 354.792C329.407 353.453 330.4 352.281 331.738 352.16Z" fill="black"/>
<path d="M336.59 330.473C337.938 330.387 339.103 331.406 339.196 332.754C339.288 334.101 338.275 335.27 336.928 335.37C335.571 335.47 334.393 334.448 334.299 333.091C334.206 331.734 335.233 330.56 336.59 330.473Z" fill="black"/>
<path d="M347.774 299.018C349.433 299.347 351.096 299.452 351.725 301.324C351.564 302.607 350.587 302.742 349.432 302.728C347.748 302.53 345.605 302.419 345.058 300.438C345.379 299.174 346.612 299.011 347.774 299.018Z" fill="black"/>
<path d="M438.01 423.879C438.579 423.759 439.166 423.958 439.548 424.397C439.928 424.835 440.042 425.445 439.845 425.992C439.647 426.539 439.169 426.935 438.595 427.03C437.737 427.172 436.921 426.598 436.761 425.741C436.602 424.884 437.156 424.058 438.01 423.879Z" fill="black"/>
<path d="M568.554 880.066C582.017 880.192 604.287 881.334 617.496 884.324C617.154 892.4 614.199 908.631 613.006 917.187L607.45 957.947C605.655 970.095 604.039 982.269 602.609 994.464C596.707 994.427 590.592 993.859 584.656 993.831C569.272 993.796 553.901 994.637 538.615 996.353C522.407 998.176 510.748 1000.45 495.041 1003.76C495.079 1000.54 495.279 997.113 495.487 993.89C497.736 958.74 499.528 923.198 502.483 888.127C520.741 882.517 549.597 880.258 568.554 880.066Z" fill="white"/>
<path d="M531.615 928.704C539.484 928.566 587.858 928.921 591.266 932.083C592.057 932.818 592.232 933.825 592.248 934.851C592.282 937.097 592.329 940.379 590.532 942.011C588.216 944.107 579.349 942.349 576.055 942.302C564.098 941.01 549.809 941.245 537.67 940.84C532.553 940.668 521.129 941.634 516.73 940.749C515.729 939.821 515.362 939.165 515.265 937.841C514.528 927.829 517.876 928.664 526.287 928.679C527.919 928.682 530.03 928.695 531.615 928.704Z" fill="#030303"/>
<path d="M519.662 952.807C534.98 952.575 550.297 952.772 565.599 953.397C569.11 953.557 580.415 953.569 582.692 955.38C583.562 957.218 582.696 957.909 581.055 958.677C577.515 958.693 573.088 958.326 569.48 958.163C562.339 957.843 555.195 957.604 548.048 957.451C542.008 957.353 535.965 957.313 529.925 957.331C527.073 957.338 519.537 957.949 517.764 956.243C517.093 954.191 517.858 953.585 519.662 952.807Z" fill="#030303"/>
<path d="M519.017 970.071C530.366 969.481 542.492 970.134 553.888 970.203C556.583 970.222 560.702 970.319 562.961 971.8C563.564 972.763 563.501 972.283 563.376 973.24C562.56 974.319 562.472 974.335 561.267 975.016C547.547 974.912 533.729 974.382 519.987 974.482C518.926 974.489 518.182 974.15 517.357 973.535C516.438 971.662 517.464 971.012 519.017 970.071Z" fill="#030303"/>
<path d="M550.615 900.457C555.221 901.511 553.311 908.153 553.483 911.787C553.59 913.983 553.097 916.295 551.4 917.795C546.91 916.989 548.507 910.732 548.381 907.193C548.291 904.686 548.683 902.176 550.615 900.457Z" fill="#030303"/>
<path d="M571.645 904.877C578.777 905.561 568.74 917.989 566.61 919.504C565.201 919.41 565.239 919.492 564.325 918.707C563.127 915.814 569.452 906.794 571.645 904.877Z" fill="#030303"/>
<path d="M528.958 905.197C529.652 905.285 530.634 905.392 531.233 906.176C533.398 909.013 537.037 914.315 537.383 917.873C537.461 918.708 536.46 919.432 535.924 919.915C535.462 919.768 534.242 919.351 533.853 918.855C531.606 916.003 527.907 911.03 527.575 907.381C527.499 906.54 528.425 905.731 528.958 905.197Z" fill="#030303"/>
<path d="M408.079 866.781C410.764 866.749 416.137 867.283 418.854 867.518C442.24 869.539 476.767 876.943 497.469 888.097C495.774 924.825 492.025 962.495 490.12 999.436C490.111 1000.45 490.155 1000.63 489.885 1001.63C488.222 1002.3 486.431 1000.57 484.768 999.806C459.607 988.213 431.66 982.782 404.117 981.084C403.972 972.745 404.683 962.002 404.913 953.534C405.259 935.01 405.794 916.486 406.517 897.971C406.724 890.99 406.981 884.009 407.288 877.028C407.391 874.571 407.436 868.795 408.079 866.781Z" fill="white"/>
<path d="M426.983 885.907C427.068 885.898 427.152 885.888 427.237 885.882C433.492 885.537 476.125 893.5 479.614 896.829C480.395 897.572 480.411 899.06 480.436 900.067C480.583 906.132 479.573 912.513 479.153 918.581C478.811 923.551 478.989 928.885 478.011 933.758C477.822 934.686 477.352 935.229 476.699 935.891C476.517 935.932 476.213 936.004 476.053 935.992C471.844 935.659 466.773 934.307 462.537 933.595C452.5 931.913 442.63 930.31 432.559 928.885C431.063 928.6 425.213 928.524 424.35 927.567C422.459 925.468 423.577 915.494 423.697 913.332L424.766 895.025C424.98 891.812 424.691 887.915 426.983 885.907Z" fill="#030303"/>
<path d="M429.476 890.211C443.17 891.56 462.886 896.15 476.263 899.649C475.322 909.934 474.726 920.633 473.932 930.98C473.427 931.184 472.58 931.121 472.037 931.027C457.368 928.502 442.394 925.599 427.594 924.037C427.604 920.579 428.02 915.87 428.222 912.312L429.476 890.211Z" fill="white"/>
<path d="M423.667 939.799C428.402 939.83 473.058 946.441 475.12 948.32C475.59 948.747 475.857 949.271 475.753 949.914C475.596 950.896 474.941 951.295 474.197 951.812C464.033 949.792 453.813 948.057 443.551 946.607C437.925 945.77 429.701 944.759 423.903 943.683C423.282 943.567 422.735 942.532 422.486 941.91C422.652 940.734 422.851 940.64 423.667 939.799Z" fill="#030303"/>
<path d="M423.028 953.924C428.829 954.1 469.874 960.484 473.257 962.075C474.013 962.43 474.374 962.944 474.656 963.719C474.346 965.106 474.455 964.664 473.342 965.837C471.609 965.73 467.012 964.805 465.121 964.475C460.035 963.581 454.943 962.725 449.846 961.899L432.429 959.195C429.737 958.787 425.607 958.363 423.133 957.658C422.336 956.992 422.158 956.98 421.908 955.976C422.197 954.605 422.044 955.078 423.028 953.924Z" fill="#030303"/>
<path d="M422.531 966.813C426.261 966.471 441.558 969.426 445.902 969.947C447.228 970.107 448.037 970.568 448.739 971.701C448.674 973.003 448.72 972.573 447.92 973.797C445.413 974.126 426.624 970.979 422.885 970.333C422.261 970.226 421.851 969.448 421.617 968.836C421.651 967.814 421.911 967.625 422.531 966.813Z" fill="#030303"/>
<path d="M591.147 838.098C592.148 838.089 594.062 838.186 594.194 839.516C594.63 843.953 587.758 847.131 584.182 848.132C578.694 849.663 574.301 848.731 569.485 846.03C567.885 844.875 566.153 843.454 567.007 841.292C571.421 837.923 576.087 851.354 591.147 838.098Z" fill="#030303"/>
<path d="M571.962 816.532C573.176 816.4 575.61 816.626 575.852 818.095C575.174 820.699 570.697 821.788 568.382 824.244C568.121 827.796 573.42 826.987 574.606 830.002C574.421 831.21 574.381 831.159 573.596 832.029C571.529 832.549 569.991 832.27 567.971 831.401C566.192 830.626 564.808 829.158 564.14 827.335C563.496 825.556 563.594 823.592 564.409 821.885C565.997 818.515 568.771 817.586 571.962 816.532Z" fill="#030303"/>
<path d="M555.654 803.344C562.296 803.169 561.374 812.434 556.981 815.609C550.91 816.099 551.44 806.505 555.654 803.344Z" fill="#030303"/>
<path d="M594.255 808.951C600.64 809.37 599.35 818.064 595.541 820.964C588.758 821.299 590.029 811.707 594.255 808.951Z" fill="#030303"/>
<path d="M595.684 785.81C599.606 785.356 603.588 786.829 606.512 789.529C608.388 791.265 608.219 793.023 606.23 794.615C604.012 793.978 602.421 791.92 600.366 790.859C598.518 789.904 593.871 790.567 593.799 787.882C594.423 786.677 594.558 786.644 595.684 785.81Z" fill="#030303"/>
<path d="M558.477 779.575C560.922 779.356 567.451 780.899 565.474 783.962C562.782 785.406 561.954 784.223 559.039 784.23L558.697 784.234C556.382 784.711 553.721 786.802 551.675 785.264C550.903 781.983 556.09 780.161 558.477 779.575Z" fill="#030303"/>
<path d="M603.587 714.294C606.847 714.051 609.624 714.413 612.824 715.138C630.062 719.03 645.018 729.67 654.346 744.679C658.089 739.076 665.303 732.587 669.921 742.354C671.932 746.607 669.582 753.331 667.712 757.522C671.311 758.088 673.736 758.24 677.191 760.048C680.435 761.744 685.549 766.275 683.161 770.525C681.586 773.331 678.194 774.44 675.189 775.218C678.257 780.854 680.312 785.356 680.965 791.811C682.427 806.229 675.581 818.312 663.075 825.136C662.222 832.763 658.927 839.562 652.25 844.111C650.154 845.542 646.484 846.101 644.538 847.814L644.51 848.407C645.003 848.957 648.32 850.515 649.546 851.306C651.764 852.727 653.876 854.309 655.868 856.034C674.822 872.572 678.226 906.286 677.229 930.219C676.698 942.947 673.507 953.352 665.042 963.04C673.347 964.876 689.006 965.764 695.473 971.028C696.449 971.822 697.227 972.87 697.299 974.166C697.355 975.223 696.914 976.174 696.227 976.952C687.497 986.863 624.214 989.003 608.877 989.662C608.356 992.37 608.252 999.245 606.097 999.828C603.366 1000.57 592.211 999.752 589.167 999.646C584.706 999.448 580.237 999.436 575.773 999.608C553.28 1000.17 530.868 1002.58 508.764 1006.82C506.19 1007.31 493.719 1010.18 492.653 1009.93C487.428 1008.71 476.228 1001.13 470.279 1000.46C460.83 999.386 451.167 998.661 441.691 997.645C414.475 994.956 387.329 991.595 360.279 987.572C350.314 986.007 332.011 983.666 323.612 978.712C322.282 977.928 320.626 976.663 320.405 975.013C320.274 974.025 320.641 972.899 321.28 972.143C329.043 962.997 384.617 958.984 398.78 958.168C399 938.891 400.213 918.641 400.879 899.295L401.621 876.711C401.735 873.483 401.521 862.986 403.695 862.056C408.09 860.183 423.888 862.25 428.634 862.84C433.208 863.213 439.192 864.367 443.691 865.189C463.229 868.769 482.221 874.15 500.114 882.863C510.268 879.465 530.275 876.698 540.867 875.628C563.859 873.303 588.352 874.166 611.174 877.511C613.054 877.887 620.719 878.393 621.713 879.839C624.304 883.611 621.7 896.076 621.142 900.205C620.041 908.855 618.876 917.499 617.655 926.13C617.338 928.346 615.752 937.553 616.11 939.37C619.018 954.116 629.943 967.285 646.082 965.425C670.495 962.614 672.817 932.666 671.101 913.593C663.351 914.788 660.703 915.444 652.423 915.808C653.437 919.278 658.962 930.68 654.073 931.722C652.646 931.151 651.859 929.879 651.328 928.471C644.969 911.528 638.367 894.682 631.132 878.088C629.996 875.481 631.577 873.275 633.231 871.267C639.998 863.056 643.076 851.146 635.264 842.512C634.636 841.818 634.222 841.805 633.378 841.796L632.954 842.217C634.598 845.694 637.397 856.784 632.788 858.642C632.001 858.507 631.552 858.196 631.451 857.327C630.805 851.758 631.16 845.881 627.612 841.087C626.523 839.619 624.267 839.402 622.937 840.949C622.231 843.927 625.574 847.933 625.822 851.026C625.989 853.072 625.493 859.172 622.808 859.382C620.339 857.214 622.017 854.553 621.553 852.156C620.932 848.937 619.344 843.481 615.934 842.427C611.319 843.098 613.652 850.895 613.64 853.936C613.768 859.137 609.175 860.892 605.26 862.602C600.416 864.669 598.416 866.916 595.612 871.139C594.602 872.65 583.39 871.16 581.348 871.054C562.266 870.044 543.208 871.813 524.295 874.078C523.439 874.182 522.798 873.464 522.353 872.893C521.983 870.775 523.689 868.961 524.831 867.308C529.459 860.606 535.07 856.173 542.07 852.135C535.296 843.799 532.396 836.346 531.655 825.663C530.234 824.756 529.058 824 527.906 822.723C519.925 813.884 522.143 793.199 536.136 791.962C537.573 780.689 537.912 775.2 543.478 765.211C539.236 764.444 535.734 763.906 532.157 761.355C522.723 754.618 531.873 744.871 539.061 741.31C545.169 738.284 550.375 737.074 557.035 736.324C554.682 733.861 552.138 730.816 553.227 727.206C553.804 725.144 555.979 722.736 558.002 721.981C570.427 717.338 585.791 722.242 597.622 726.303C595.285 719.795 596.509 716.098 603.587 714.294ZM565.524 761.007C560.137 762.882 556.157 764.116 550.394 765.007C541.722 780.335 542.463 787.381 540.417 804.37C540.188 806.258 538.744 811.13 538.217 813.293C536.645 820.057 536.777 827.104 538.597 833.803C545.104 857.742 572.024 867.249 594.63 863.431C597.582 860.817 599.713 859.371 603.237 857.755C604.943 856.974 608.846 855.618 608.586 853.5C607.679 846.13 607.366 835.99 618.328 838.274C622.391 834.312 625.338 833.797 630.16 837.147C635.569 836.071 638.114 837.468 641.373 841.807C647.203 841.123 649.02 839.93 652.989 835.657C660.136 827.97 658.655 810.613 645.311 812.594C641.558 813.152 636.225 819.235 633.2 817.344C628.927 814.668 630.791 806.24 631.697 802.094C629.555 801.625 628.547 801.367 627.261 799.412C624.208 794.766 626.364 784.073 627.613 779.024C627.976 777.57 628.353 776.117 628.739 774.667C622.504 776.976 617.44 778.793 610.808 779.798C601.191 781.255 591.92 777.719 598.101 766.572C598.292 766.225 598.493 765.882 598.703 765.543C591.706 768.307 570.18 778.283 564.864 768.45C563.939 766.737 566.204 761.538 565.646 761.026L565.524 761.007ZM535.097 797.362C527.758 800.827 527.485 811.131 530.597 817.574L531.378 818.378L531.724 818.146C532.285 812.857 536.392 801.136 535.354 797.62L535.097 797.362Z" fill="#030303"/>
<path d="M664.016 872.307C665.748 873.26 666.014 874.001 667.112 875.654C665.28 874.964 664.969 873.976 664.016 872.307Z" fill="#030303"/>
<path d="M381.731 765.66C388.684 765.147 388.701 776.052 384.214 779.697C377.528 780.504 376.731 769.424 381.731 765.66Z" fill="#030303"/>
<path d="M306.331 671.36C313.103 670.506 321.312 672.199 326.987 676.335C329.182 677.147 336.736 685.072 332.946 686.76C323.26 691.075 316.136 697.883 311.053 707.237C309.761 709.615 305.361 718.189 308.048 720.705C308.605 720.423 308.941 720.212 309.192 719.588C310.784 715.621 312.51 712.369 314.806 708.733C317.568 704.333 320.914 700.326 324.751 696.824C338.337 684.377 361.124 677.7 379.133 678.913C396.258 680.065 417.067 683.087 429.174 696.518C434.898 702.832 438.792 711.48 438.634 720.093C438.558 724.245 435.122 724.236 432.017 723.637C417.786 720.89 408.569 712.06 400.761 700.395C396.5 716.66 385.215 729.49 371.746 739.177C363.384 745.191 354.573 748.505 344.736 751.177C344.949 757.151 344.923 759.529 343.652 765.342C346.421 765.857 351.385 766.12 354.366 766.352C357.098 749.541 370.501 737.006 388.434 742.645C394.499 744.552 398.411 749.889 400.926 755.527C403.943 753.976 404.81 753.856 408.048 753.463C408.549 740.891 417.707 730.116 430.33 728.442C435.934 727.663 441.618 729.157 446.117 732.588C451.039 736.487 454.208 742.184 454.925 748.422C457.781 771.394 434.89 790.748 415.389 774.989C416.81 781.064 422.538 788.886 418.449 794.376C416.342 797.205 408.77 799.563 405.876 797.065C405.31 796.009 405.364 796.04 405.499 794.907C406.92 792.345 411.429 793.349 413.605 791.748C417.998 788.513 407.925 777.322 409.295 772.578C409.668 771.289 410.559 770.714 411.554 769.996C410.756 768.5 410.286 767.53 409.688 765.932C408.788 763.528 408.983 759.891 406.979 758.391C405.173 757.993 403.986 758.971 402.443 759.954C406.273 801.046 356.926 804.958 354.427 771.162C350.456 770.922 346.474 770.366 342.523 769.873C339.38 773.924 337.705 770.98 333.753 769.249C331.341 768.179 328.595 768.14 326.153 769.142C318.481 772.378 317.799 782.061 320.883 788.779C323.627 794.753 329.091 798.425 335.8 798.297C337.878 798.257 340.846 796.382 342.578 797.508C344.968 800.075 346.532 804.219 348.49 807.282C354.736 816.98 363.77 823.952 374.452 827.953C402.27 838.369 431.547 824.216 437.955 794.626C438.952 790.781 438.939 786.58 440.202 782.824C440.75 781.192 442.685 781.344 443.898 781.994C444.75 783.127 445.058 784.158 444.999 785.605C444.378 800.835 438.688 812.888 428.216 823.705C430.053 825.282 433.284 827.171 435.412 828.869C444.089 835.758 451.276 844.638 456.209 854.562C457.137 856.824 459.764 860.517 457.781 862.827C456.772 864 454.304 863.394 453.575 862.296C451.919 859.802 450.503 856.648 449.041 854.013C446.66 849.787 443.875 845.802 440.725 842.113C434.491 835.28 431.261 832.505 423.308 827.787C413.383 834.4 405.059 836.91 393.253 837.007C392.849 837.911 392.146 839.765 391.577 840.512C384.16 850.226 370.258 849.57 361.174 843.05C355.376 838.865 351.591 832.445 350.732 825.345C350.604 824.274 350.961 819.212 349.816 819.265C346.517 819.422 341.79 821.7 338.719 823.083C313.38 834.338 295.446 859.347 286.322 884.906C278.988 905.45 266.171 945.817 294.503 955.967C315.429 963.466 333.019 948.701 339.868 929.712C324.707 930.973 313.456 922.625 311.725 907.213C306.023 912.519 302.356 917.746 298.149 924.15C297.505 925.129 296.946 925.185 295.865 925.304C294.843 924.915 294.923 924.915 294.275 924.011C293.068 918.005 307.705 900.676 314.528 899.263C316.523 895.012 319.082 891.052 322.135 887.485C332.672 874.969 347.296 867.919 363.556 866.651C370.602 866.092 384.751 866.909 390.122 872.044C398.562 880.114 388.225 888.962 379.107 888.005C377.595 887.849 373.317 888.112 371.7 888.127C376.253 896.395 379.726 905.735 368.385 911.54C366.55 912.481 365.134 912.528 363.13 912.584C360.043 920.127 355.97 922.979 347.78 922.49C345.495 925.081 347.486 926.045 346.592 928.68C341.553 943.401 332.185 957.054 317.092 962.177C300.221 967.903 277.413 959.685 272.592 941.466C266.414 918.104 277.687 885.821 288.288 865.044C300.607 840.904 320.269 822.214 346.255 814.006C344.143 811.321 342.873 809.366 341.27 806.379C305.793 827.582 271.273 785.235 298.601 754.008C304.132 747.688 303.883 745.393 304.685 737.633L304.13 737.73C261.236 745.068 262.736 677.715 306.331 671.36ZM387.225 879.898C390.291 872.723 370.519 871.884 366.323 872.195C350.277 873.4 337.791 878.555 326.869 890.857C322.153 896.169 320.613 900.255 317.348 905.956C318.551 917.112 325.765 924.601 337.347 924.134C339.725 922.729 340.752 921.972 342.733 919.961C342.029 918.28 341.283 916.457 343.045 915.199C346.7 914.96 350.878 919.631 355.286 915.079C356.776 913.538 357.426 911.433 357.923 909.403L357.965 909.017C358.62 902.309 349.67 894.732 352.305 892.523C352.863 892.056 353.498 892.037 354.172 892.184C357.052 892.815 360.577 898.891 361.771 901.443C362.56 903.127 363.2 904.911 363.557 906.737C364.64 907.11 365.453 906.833 366.468 906.303C375.693 901.462 367.507 890.574 362.074 886.348C360.855 885.397 358.497 883.863 358.212 882.314C359.13 878.97 364.096 881.78 365.746 882.938C369.573 882.772 385.648 883.587 387.225 879.898ZM377.693 789.375C405.735 786.717 403.813 743.86 379.273 745.73C351.981 749.344 352.528 789.579 377.693 789.375ZM432.633 776.045C458.841 769.86 454.567 729.834 430.81 732.84C404.136 737.574 407.689 779.008 432.633 776.045Z" fill="#030303"/>
<path d="M426.091 754.074C431.077 754.066 431.505 758.524 431.107 762.7C430.862 765.28 430.082 766.568 428.017 768.099C421.386 767.734 421.656 757.364 426.091 754.074Z" fill="#030303"/>
<path d="M334.968 945.463L335.141 945.664C335.02 946.197 331.251 949.554 330.355 950.48L330.188 950.263C331.109 948.403 333.344 946.778 334.968 945.463Z" fill="#030303"/>
<path d="M519.812 592.024C528.208 591.078 538.49 592.222 546.958 592.437C561.972 592.75 576.966 594.801 588.374 605.341C607.124 622.664 604.887 680.304 588.362 697.458C572.972 713.433 524.842 712.074 502.371 711.78C499.45 717.91 497.803 720.891 494.138 726.611C492.095 729.775 479.806 746.1 473.719 742.676C470.864 741.069 474.271 733.829 474.964 730.746C476.539 723.744 476.966 717.156 476.731 709.827C442.866 706.204 434.765 688.757 433.054 656.572C432.039 637.49 435.087 606.662 456.062 599.259C475.253 592.486 499.403 593.006 519.812 592.024Z" fill="#030303"/>
<path d="M519.881 597.986C535.528 597.315 563.791 597.378 577.38 604.697C585.55 609.099 590.285 616.992 592.898 625.687C597.495 640.994 596.306 673.015 588.732 687.049C586.024 692.071 582.115 695.599 577.044 698.166C562.015 705.776 531.032 706.277 514.005 706.249C510.604 706.244 502.694 705.163 499.898 706.317C497.172 707.443 495.409 713.161 494.031 715.688C490.225 723.315 485.811 728.809 479.784 734.65C481.701 726.36 483.012 717.906 482.604 709.369C482.557 708.377 482.45 706.314 481.654 705.611C478.886 703.163 461.141 703.795 451.418 694.703C441.578 685.502 439.568 669.213 438.964 656.412C438.304 642.413 439.496 621.495 449.406 610.763C452.043 607.909 455.34 605.888 458.939 604.473C474.538 598.341 502.76 598.704 519.881 597.986Z" fill="white"/>
<path d="M518.491 661.063C526.269 660.918 534.044 660.875 541.821 660.936C546.067 660.938 550.61 660.609 554.808 661.122C555.636 661.223 556.496 661.36 557.152 661.928C557.817 662.504 558.087 663.341 558.206 664.18C558.498 666.179 558.783 670.152 557.236 671.663C555.636 673.228 534.775 672.589 531.242 672.631C519.065 672.431 506.844 673.235 494.68 673.109C492.462 673.022 491.163 671.715 491.16 669.499C491.153 667.015 490.441 662.032 494.096 661.682C497.162 661.39 500.503 661.494 503.606 661.46C508.57 661.37 513.53 661.237 518.491 661.063Z" fill="#030303"/>
<path d="M500.221 623.121C504.921 622.927 530.172 622.111 532.645 623.788C533.194 624.16 533.702 624.869 533.712 625.548C533.721 626.301 533.391 627.011 532.792 627.484C530.649 629.179 501.047 628.598 495.631 628.615C490.508 628.697 466.726 630.168 464.189 627.673C463.544 627.038 463.536 626.751 463.428 625.899C463.991 624.175 465.329 623.528 467.037 623.398C471.089 623.088 475.344 623.226 479.407 623.239C486.347 623.263 493.284 623.224 500.221 623.121Z" fill="#030303"/>
<path d="M484.584 644.119C493.108 644.027 501.809 643.715 510.299 644.181C512.056 644.277 513.452 645.719 512.731 647.582C510.07 650.022 496.393 649.291 492.202 649.353C485.073 649.942 473.063 649.789 465.676 649.456C464.683 649.411 463.864 648.296 463.335 647.496C462.861 642.755 480.875 644.193 484.584 644.119Z" fill="#030303"/>
<path d="M513.012 683.365C521.157 682.861 530.617 682.944 538.728 683.508C539.647 683.572 540.767 684.953 540.262 686.265C537.683 688.391 523.523 687.721 519.162 687.843C511.651 687.959 504.011 688.395 496.496 688.248C494.667 688.212 493.914 688.016 492.741 686.727C492.417 685.637 492.395 686.159 492.791 685.107C495.555 682.765 508.457 683.446 513.012 683.365Z" fill="#030303"/>
<path d="M466.082 667.291C469.596 667.218 479.447 666.351 481.681 668.862C482.007 669.994 481.973 669.417 481.643 670.656C480.746 671.679 480.63 671.676 479.328 672.208C475.644 672.324 465.026 673.597 463.259 670.447C463.169 668.359 464.363 667.783 466.082 667.291Z" fill="#030303"/>
<path d="M568.61 637.677C577.766 636.882 564.861 650.853 563.151 652.895C562.012 653.087 561.999 653.164 560.883 652.747C560.412 652.22 560.045 651.909 560.114 651.051C560.359 648.121 566.684 639.407 568.61 637.677Z" fill="#030303"/>
<path d="M578.789 654.365C580.775 654.133 582.137 655.12 581.908 657.188C580.073 659.893 572.985 661.364 569.662 662.331C567.852 662.479 566.694 662.138 566.697 660.102C568.291 657.363 575.652 655.314 578.789 654.365Z" fill="#030303"/>
<path d="M567.194 670.533C570.199 671.008 582.201 674.836 577.187 679.289C574.476 679.064 566.808 675.542 565.936 672.683C566.205 671.308 566.13 671.727 567.194 670.533Z" fill="#030303"/>
<path d="M387.463 802.301C390.968 803.174 393.201 807.041 397.787 808.305C401.393 809.299 409.215 806.055 410.361 808.989C410.023 810.847 408.774 811.913 407.456 813.221C404.833 815.229 402.023 816.314 398.571 816.236C393.174 816.11 385.561 811.101 385.641 805.142C385.659 803.771 386.478 803.111 387.463 802.301Z" fill="#030303"/>
<path d="M618.481 567.163C619.509 567.876 621.725 569.622 621.111 571.017C617.741 578.669 612.531 586.293 607.896 593.304C607.186 594.379 604.898 594.155 603.838 594.104C598.813 590.677 603.453 586.223 605.735 582.246C608.465 577.481 611.587 572.504 614.809 568.097C615.54 567.099 617.358 567.156 618.481 567.163Z" fill="#EA4A4A"/>
<path d="M655.65 611.411C657.591 613.063 658.954 616.491 656.374 617.854C651.359 620.503 637.273 629.141 632.226 628.575C626.605 623.091 634.132 620.266 638.742 618.133C643.066 616.135 651.421 610.72 655.65 611.411Z" fill="#EA4A4A"/>
<path d="M557.082 557.419C558.638 558.418 559.875 559.139 560.148 561.29C561.001 568.2 562.291 575.248 562.601 582.192C562.728 584.978 559.71 585.569 557.669 585.686C554.804 583.875 553.74 578.214 553.84 575.008C554.048 568.433 548.257 558.686 557.082 557.419Z" fill="#EA4A4A"/>
</g>
<defs>
<clipPath id="clip0_24_604">
<rect width="937.475" height="1132" fill="white"/>
</clipPath>
</defs>
</svg>
