<svg width="1455" height="1465" viewBox="0 0 1455 1465" fill="none" xmlns="http://www.w3.org/2000/svg">
<g clip-path="url(#clip0_8_1680)">
<path d="M443.206 945.555C432.668 959.666 417.722 975.334 400.105 991.272C364.874 1023.15 319.012 1056.06 276.513 1079.71C255.263 1091.53 234.866 1101.03 217.069 1106.93C199.252 1112.83 184.117 1115.09 173.349 1112.54C167.98 1111.26 163.718 1108.8 160.735 1105C157.75 1101.2 156.009 1096.03 155.77 1089.27C155.292 1075.74 160.849 1055.99 174.282 1028.69C228.126 919.286 211.884 808.064 197.828 740.584C194.309 723.689 190.94 709.594 188.823 698.886C187.766 693.539 187.028 689.07 186.745 685.556C186.459 682.013 186.646 679.543 187.347 678.12C187.686 677.431 188.131 677.017 188.684 676.82C189.251 676.617 190.004 676.616 190.998 676.901C193 677.476 195.776 679.149 199.49 682.088C206.901 687.949 217.836 698.668 233.44 714.981C264.669 747.629 288.445 759.6 307.491 759.806C326.56 760.011 340.714 748.423 352.681 734.438C358.667 727.444 364.132 719.818 369.396 712.735C374.67 705.64 379.74 699.093 384.959 694.201C390.179 689.308 395.497 686.121 401.259 685.656C407.006 685.192 413.308 687.43 420.521 693.63C449.476 718.518 459.324 752.848 461.914 790.792C463.21 809.763 462.689 829.62 461.843 849.63C460.998 869.631 459.827 889.794 459.827 909.341C459.827 918.933 453.762 931.419 443.206 945.555Z" fill="#4AE84A" stroke="#4AE84A"/>
<path d="M558.485 375.602C585.739 373.019 578.958 400.864 571.476 416.455C588.803 412.245 633.024 400.797 632.525 432.195C632.329 444.558 625.044 453.908 616.496 462.181C649.608 485.525 643.837 531.266 633.57 565.15C640.448 587.836 646.032 610.895 650.293 634.215C655.168 662.416 656.047 689.796 646.782 717.306C628.496 771.603 584.894 800.761 530.398 809.872L529.551 820.312C569.892 825.896 607.091 845.165 634.92 874.899C642.368 872.346 649.957 870.919 657.662 869.456C659.404 849.09 660.008 823.955 661.072 803.259L667.652 675.669L670.203 625.907C671.167 608.104 670.259 588.145 681.875 573.605C694.931 557.262 716.815 558.058 735.803 556.433C752.715 555.035 769.608 553.535 786.502 551.935L1005.31 532.09C1003.58 514.086 1005.12 494.241 1005.05 476.065C1005 465.857 1005.19 454.5 1006.49 444.463C1008.22 431.045 1024.65 432.055 1034.57 429.884C1038.48 429.01 1042.24 428.035 1046.05 426.963C1063.63 421.944 1080.38 414.371 1095.77 404.489C1104.19 399.083 1117.24 386.615 1127.63 390.125C1133.91 392.245 1139.84 398.111 1145.39 401.851C1163.11 413.817 1182.26 423.354 1203.03 428.669C1210.25 430.545 1228.66 431.563 1232.31 438.583C1235.89 445.472 1234.67 459.457 1235.32 467.381C1236.22 497.766 1238 529.001 1229.49 558.569C1217.46 603.491 1175.49 645.255 1135.03 667.367C1134.16 747.674 1128.87 831.909 1124.65 912.329C1123.1 941.291 1121.24 970.235 1119.08 999.16C1117.86 1017.14 1116.98 1036.9 1113.89 1054.54C1111.95 1064.54 1107.83 1073.98 1100.58 1081.27C1085.04 1096.89 1057.15 1094.02 1036.36 1094.22L981.502 1095.03L794.541 1097.06L722.908 1096.9C703.197 1096.77 677.164 1099.49 662.406 1084.25C651.73 1073.22 652.505 1059.19 652.7 1045.11C649.871 1048.16 646.821 1050.99 643.81 1053.86C644.927 1072.2 646.439 1093.4 646.596 1111.7C719.546 1112.43 792.502 1112.53 865.458 1112C935.371 1111.27 1006.23 1109.53 1076.09 1113.45C1086.37 1114.02 1129.52 1116.88 1131.84 1127.7C1131.61 1129.12 1131.22 1129.98 1130.21 1131.03C1114.91 1146.82 980.529 1154.05 950.936 1155.12C895.89 1157.56 840.782 1158.57 785.687 1158.13C717.115 1158.29 648.543 1157.47 579.994 1155.67C544.739 1154.81 508.109 1152.96 473.051 1152.49C501.959 1135.68 528.899 1112.12 553.3 1089.25C562.968 1080.2 573.837 1067.34 583.93 1059.06C589.167 1056.65 598.876 1057.58 604.205 1057.16C618.381 1056.06 630.851 1049.19 640.563 1039.04C646.483 1032.85 650.353 1025.51 658.892 1022.31C666.468 1019.47 674.561 1019.21 682.579 1019.26C689.615 1019.38 696.395 1019.06 702.126 1014.63C706.749 1011.06 706.896 1001.79 702.512 998.364C693.695 991.482 677.179 991.825 666.632 993.735C661.537 994.66 657.219 996.337 652.107 996.717C649.01 996.882 646.97 992.97 648.065 990.208C649.154 987.459 651.64 985.793 654.224 984.961C671.789 979.285 690.012 978.844 707.024 986.467C711.139 983.706 715.34 980.944 715.174 975.341C715.04 971.515 713.386 967.896 710.582 965.287C699.714 955.001 673.574 955.582 659.895 958.766C654.614 959.991 643.23 966.273 639.297 961.087C638.383 959.887 638.122 958.313 638.602 956.887C639.313 954.823 641.965 952.839 643.87 952.074C669.662 941.695 687.052 942.363 712.076 950.917C720.005 943.03 719.05 934.501 709.719 928.023C692.899 916.879 670.579 918.152 651.864 922.94C645.327 924.612 632.609 932.517 627.378 927.949C625.247 923.485 627.591 920.344 631.592 918.268C657.152 905.03 678.062 904.731 705.126 911.754C716.999 901.522 709.204 890.421 696.909 885.982C667.514 875.37 632.494 886.294 607.241 902.453C585.957 916.223 569.429 938.775 556.248 960.242C544.407 979.53 533.421 984.03 514.877 995.903C493.854 1009.29 472.709 1022.5 451.444 1035.5L424.345 1052C418.321 1055.65 407.194 1064.16 400.154 1061.24C395.467 1054.45 409.606 1046.74 414.293 1043.84C412.081 1038.86 409.92 1033.85 407.812 1028.82C375.801 1037.81 328.471 1064.49 300.689 1082.3C311.646 1109.79 324.79 1127.85 349.437 1144.04C329.708 1142.13 310.071 1139.37 290.579 1135.77C283.256 1134.35 267.246 1131.38 262.948 1125.01C261.466 1115.11 293.815 1112.55 301.457 1111.88C298.023 1106.17 295.466 1100.51 292.79 1094.46C274.859 1094.02 282.703 1076.71 280.257 1066.62C264.636 1002.42 266.989 929.535 313.035 877.66C337.83 849.727 376.09 829.276 412.448 820.747C413.006 812.303 414.171 802.72 415.003 794.209C399.662 786.182 391.327 778.296 380.274 765.59C366.675 771.995 354.061 773.912 339.133 771.175C321.534 768.131 305.919 758.084 295.845 743.339C285.268 727.641 283.053 710.761 286.655 692.545C283.493 690.716 280.345 688.862 277.21 686.986C254.203 673.129 237.585 655.241 226.837 630.458C208.305 587.729 228.251 527.063 276.934 515.742C270.346 510.768 263.646 507.06 255.286 506.116C248.904 505.396 235.822 506.632 237.343 496.704C237.733 494.162 240.206 491.35 242.608 490.602C252.47 487.532 262.756 490.475 271.902 494.377C269.491 487.103 265.561 473.365 274.423 469.241C281.602 465.9 285.125 473.8 285.548 479.492C286.127 487.284 288.281 494.834 291.515 501.84C294.424 491.41 297.71 482.619 303.286 473.238C313.64 456.181 327.69 441.664 344.4 430.759C396.754 395.971 444.622 403.695 501.376 393.459C511.574 391.582 521.603 388.876 531.361 385.369C540.16 382.113 549.481 377.893 558.485 375.602Z" fill="black"/>
<path d="M998.862 544.859L1006.2 544.259C1009.55 564.137 1014.94 580.827 1026.3 597.883C1032.35 606.939 1039.38 615.297 1047.26 622.806C1061.16 636.082 1105.08 668.71 1122.52 672.192C1122.08 750.503 1116.5 832.337 1112.38 910.786C1110.78 940.611 1108.93 970.424 1106.84 1000.22C1105.65 1017.52 1104.82 1035.59 1101.99 1052.66C1096.15 1087.85 1062.16 1081.94 1035.88 1082.46L961.456 1083.81C874.993 1085.35 788.517 1085.8 702.047 1085.18C690.655 1085.05 680.148 1085.4 671.388 1076.4C661.546 1066.28 664.396 1047.13 664.876 1033.39C676.855 1030.2 687.395 1032.7 698.881 1029.24C714.832 1024.42 721.029 1011.93 715.542 996.122C726.692 988.358 728.358 978.99 725.756 966.383C759.555 966.873 795.515 965.777 829.486 965.366L995.421 963.732C1007.65 963.523 1019.88 963.395 1032.1 963.34C1062.22 963.132 1081.16 963.003 1082.92 925.597C1084.82 879.717 1086.34 833.825 1087.47 787.927C1087.76 774.358 1088.32 760.795 1088.56 747.239C1088.73 737.467 1087.09 729.152 1080.29 721.677C1069.18 709.449 1052.75 712.816 1038.13 713.703L1002.66 715.849L883.932 723.181L777.587 729.948L746.311 731.713C740.965 732.012 734.218 731.944 729.086 732.994C706.541 737.607 704.894 755.34 704.435 773.593C703.596 807.116 701.49 840.254 700.51 873.558C688.998 869.694 681.969 869.137 669.855 868.873L679.427 680.176L681.987 628.658C682.922 609.121 680.267 577.056 705.996 571.65C716.436 569.456 729.025 568.973 739.783 568.023L799.091 562.771L998.862 544.859Z" fill="white"/>
<path d="M749.5 608.728C775.339 605.452 798.944 623.745 802.22 649.585C805.489 675.426 787.2 699.027 761.354 702.299C735.521 705.571 711.923 687.279 708.647 661.441C705.371 635.604 723.661 612.004 749.5 608.728Z" fill="black"/>
<path d="M754.05 617.554C763.626 616.794 773.062 619.756 780.324 626.114C787.647 632.622 792.074 641.771 792.643 651.547C793.347 662.842 789.533 672.782 782.099 681.18C776.356 669.467 769.088 665.776 756.26 665.342C742.428 666.368 734.67 671.186 729.221 684.097C705.947 659.399 720.593 621.983 754.05 617.554Z" fill="white"/>
<path d="M754.723 631.22C762.64 631.043 769.192 637.335 769.333 645.251C769.473 653.167 763.154 659.69 755.237 659.798C747.369 659.906 740.897 653.633 740.756 645.766C740.615 637.899 746.861 631.397 754.723 631.22Z" fill="black"/>
<path d="M845.068 997.109C868.826 995.046 887.177 1010.67 876.302 1034.67C877.625 1038.86 879.994 1043.64 876.529 1047.26C872.193 1049.13 867.987 1047.17 863.278 1045.83L856.831 1047.81C852.141 1048.68 849.152 1048.3 844.554 1047.72C835.614 1052.09 828.181 1055.46 829.706 1041.43C825.762 1037.14 823.332 1034.42 821.825 1028.46C820.282 1022.12 821.384 1015.42 824.868 1009.91C829.681 1002.23 836.649 999.014 845.068 997.109Z" fill="black"/>
<path d="M846.704 1005.67C864.914 1004.29 876.505 1014.96 868.141 1032.88L869.334 1039.19L862.66 1037.02C859.936 1038.04 856.997 1038.89 854.204 1039.74C849.875 1039.91 848.798 1039.87 844.493 1039.16C842.326 1040.17 840.152 1041.07 837.948 1041.99C837.629 1041.39 837.531 1041.38 837.629 1040.74C838.444 1034.19 831.617 1033.68 830.116 1026.71C827.545 1014.72 836.019 1008.11 846.704 1005.67Z" fill="white"/>
<path d="M749.677 999.509C756.866 998.952 758.666 1000.01 764.311 1004C768.383 1000.84 771.781 999.05 777.176 999.283C781.297 999.424 785.173 1001.29 787.861 1004.41C799.439 1017.85 786.74 1031.8 776.57 1040.41C772.798 1043.47 766.705 1049.96 761.287 1047.48C744.105 1039.62 720.385 1010.1 749.677 999.509Z" fill="black"/>
<path d="M751.441 1007.36C759.083 1008.38 757.662 1011.91 762.726 1014.53C767.857 1017.2 772.749 1002.36 780.079 1009.11C787.708 1016.13 781.56 1023.78 775.939 1029.3C771.69 1033.05 768.414 1035.68 763.859 1039.06C754.717 1032.92 733.66 1016.37 751.441 1007.36Z" fill="white"/>
<path d="M918.099 621.392C921.509 621.151 928.765 620.16 931.557 621.382C935.666 623.186 934.417 627.379 932.078 630.099C926.763 632.361 900.158 633.597 892.994 634.11L834.997 638.251C829.21 638.826 823.455 640.81 821.33 634.158C821.575 631.046 823.418 628.784 826.565 628.429C836.344 627.325 846.428 626.738 856.244 626L918.099 621.392Z" fill="black"/>
<path d="M900.966 653.123C903.256 652.934 910.505 652.056 911.846 653.392C917.124 658.654 913.206 662.582 907.542 663.174C899.067 664.061 891.138 664.54 882.89 665.109L836.227 668.324C830.606 668.943 825.787 670.232 821.85 665.224C820.974 661.407 823.068 659.494 826.742 658.885C835.106 657.496 843.862 657.147 852.349 656.532L900.966 653.123Z" fill="black"/>
<path d="M1041.68 659.857C1044.73 658.623 1048.21 660.053 1049.51 663.076C1050.81 666.099 1049.46 669.609 1046.47 670.976C1044.47 671.889 1042.14 671.649 1040.37 670.349C1038.6 669.051 1037.67 666.896 1037.94 664.718C1038.21 662.541 1039.65 660.68 1041.68 659.857Z" fill="black"/>
<path d="M1068.32 658.013C1071.6 657.254 1074.86 659.308 1075.6 662.589C1076.32 665.869 1074.24 669.118 1070.96 669.822C1067.71 670.517 1064.51 668.465 1063.78 665.223C1063.06 661.982 1065.09 658.764 1068.32 658.013Z" fill="black"/>
<path d="M1017.83 661.131C1021.1 660.647 1024.15 662.878 1024.68 666.137C1025.2 669.396 1023.01 672.473 1019.76 673.042C1017.62 673.417 1015.44 672.61 1014.06 670.931C1012.67 669.251 1012.31 666.959 1013.09 664.931C1013.87 662.902 1015.68 661.45 1017.83 661.131Z" fill="black"/>
<path d="M1053.13 722.324C1067.3 720.782 1078.13 727.614 1078.45 742.843C1078.76 757.147 1078.11 771.762 1077.71 786.072L1074.9 871.684L1073.55 911.815C1073.36 917.993 1073.26 930.637 1072.14 936.325C1071.07 942.051 1067.6 947.047 1062.61 950.059C1054.69 954.891 1029.53 953.397 1019.51 953.458L975.337 954.07L844.947 955.448L769.4 956.495C759.726 956.636 735.24 957.719 726.949 955.858L725.676 954.719C727.5 948.645 729.809 947.892 729.233 939.589C728.517 929.198 723.992 924.343 716.779 918.03L717.244 917.454C728.768 902.985 723.141 889.117 709.939 878.64L712.756 802.77C713.197 788.84 713.43 774.242 714.501 760.318C714.771 756.816 716.216 751.305 718.548 748.758C721.518 745.513 725.841 742.335 730.397 741.79C741.412 740.584 752.905 740.229 763.975 739.598L829.069 735.667L1053.13 722.324Z" fill="white"/>
<path d="M1014.33 853.983C1021.16 853.683 1031.23 852.14 1035.83 858.122C1036.6 866.541 1007.89 864.765 1001.68 864.955L948.414 866.535L772.082 871.323C765.977 871.348 757.552 872.486 751.674 870.821C750.425 870.466 749.255 868.249 749.114 866.872C748.71 862.99 752.837 861.881 755.868 861.551C764.875 861.091 773.992 860.987 783.048 860.718L840.042 859.059L1014.33 853.983Z" fill="black"/>
<path d="M1022.86 765.798C1027.36 765.314 1032.51 765.18 1034.74 770.531C1036.45 774.67 1028.74 776.177 1025.86 776.373C1017.16 776.973 1008.32 777.212 999.547 777.646L937.925 780.512L763.356 788.288C758.703 788.662 752.862 788.888 751.178 783.249C752.084 779.44 756.327 778.62 759.811 778.375C770.771 777.603 781.793 777.267 792.778 776.789L848.02 774.168L1022.86 765.798Z" fill="black"/>
<path d="M934.208 812.346C938.892 812.095 955.602 809.652 956.41 816.314C957.384 824.39 938.421 822.645 932.702 822.866L893.87 824.384L773.766 828.799C766.725 829.252 754.644 831.34 749.96 825.235C748.809 817.257 771.28 818.641 777.109 818.408L814.846 816.932L934.208 812.346Z" fill="black"/>
<path d="M889.712 900.518C895.67 900.23 908.565 898.295 910.451 904.994C908.706 912.758 896.974 911 890.704 911.104L864.963 911.625L770.705 913.388C764.325 913.676 750.676 916.131 747.786 909.549C748.766 901.228 761.251 903.273 767.557 903.163L794.536 902.581L889.712 900.518Z" fill="black"/>
<path d="M547.244 480.542C552.449 481.778 561.583 486.424 566.107 489.374C609.202 517.471 622.813 570.73 633.533 617.672C643.492 658.59 645.119 703.783 621.21 740.057C596.98 776.814 559.645 794.191 517.203 797.724C515.357 797.877 511.164 799.989 510.557 802.053C508.97 807.459 513.118 809.229 517.257 810.588C516.477 817.33 515.812 824.077 515.263 830.837C513.893 832.386 512.427 833.838 510.873 835.197C486.866 856.554 445.084 849.133 424.807 825.584C426.394 817.011 429.199 797.528 428.694 788.607C428.513 785.398 423.205 783.041 420.282 781.467C411.328 776.599 403.149 769.962 395.856 762.798C392.202 758.898 390.323 752.383 386.103 749.144C383.926 747.527 379.513 749.909 377.341 751.109C347.87 767.513 310.53 752.052 301.649 719.223C290.455 677.844 330.654 649.22 364.767 675.624C367.829 677.759 372.235 683.97 375.346 685.374C387.567 690.892 388.514 677.89 387.624 669.513C387.254 666.025 387.101 661.667 386.983 658.726C385.588 624.153 381.489 589.83 366.167 558.38C374.878 558.746 383.604 558.475 392.275 557.569C446.211 551.884 512.788 523.231 547.244 480.542Z" fill="white"/>
<path d="M478.996 630.959C487.376 631.781 491.836 637.066 494.772 644.644C499.124 655.882 500.289 669.944 486.757 674.654C476.94 674.362 471.685 667.675 468.985 658.789C465.576 647.576 465.73 634.51 478.996 630.959Z" fill="black"/>
<path d="M539.981 633.8C548.304 633.852 547.346 638.115 550.91 644.468C553.741 649.513 558.05 650.331 563.018 652.416C572.947 656.584 578.24 668.032 575.421 678.369C573.024 687.193 567.56 692.36 560.037 696.837C556.839 697.399 555.304 697.343 552.396 695.849C547.17 688.373 564.028 681.708 563.849 673.451C563.537 662.364 548.707 662.456 543.349 655.052C538.733 648.672 532.264 640.159 539.981 633.8Z" fill="black"/>
<path d="M580.391 598.398C593.137 597.386 597.572 608.731 599.518 619.349C601.197 628.507 599.852 636.267 591.098 640.679C584.687 641.538 579.435 638.306 576.536 632.685C571.056 622.06 568.033 605.166 580.391 598.398Z" fill="black"/>
<path d="M500.434 722.032C506.083 721.817 508.886 726.007 513.286 729.457C520.204 734.877 530.429 736.831 538.844 734.192C542.763 732.879 547.869 728.984 552.083 729.02C560.34 729.09 558.165 736.524 554.018 740.645C528.143 759.645 484.183 735.686 500.434 722.032Z" fill="black"/>
<path d="M460.397 575.936C465.282 575.818 470.176 576.908 472.307 581.831C472.689 590.689 460.424 587.714 454.739 589.872C442.209 594.629 438.069 602.639 432.499 613.769C412.389 625.034 422.721 580.078 460.397 575.936Z" fill="black"/>
<path d="M332.492 697.087C359.552 694.342 383.412 722.669 362.282 723.468C357.151 720.864 353.696 714.223 347.434 711.496C340.641 708.538 327.852 712.665 324.385 705.666C324.706 700.209 328.049 698.909 332.492 697.087Z" fill="black"/>
<path d="M566.396 546.441C575.807 545.855 592.057 547.194 595.059 559.033C595.449 560.569 594.453 561.739 593.619 562.84C587.442 565.823 584.21 561.565 577.464 559.445L576.739 559.224C569.045 558.283 565.567 559.759 558.542 562.685C555.398 563.995 548.975 565.176 548.356 560.179C547.288 551.561 559.849 547.814 566.396 546.441Z" fill="black"/>
<path d="M1120.94 401.819C1122.08 401.716 1124.24 401.622 1125.22 402.264C1131.98 406.664 1138.34 411.655 1145.13 416.05C1157.86 424.447 1171.6 431.205 1186.02 436.163C1191.67 438.062 1197.39 439.732 1203.17 441.171C1206.58 442.019 1219 443.637 1220.6 445.065C1224.58 448.64 1223.38 475.599 1223.63 480.814C1225.62 523.354 1221.66 564.028 1194.16 598.73C1177.94 619.213 1159.04 635.563 1137.06 649.811C1133.34 652.288 1126.44 656.985 1122.14 657.546C1117.84 655.627 1109.28 650.36 1105.15 647.698C1082.35 633.025 1057.86 616.291 1041.37 594.616C1015.39 560.479 1017.05 525.828 1017.52 485.666C1017.66 474.106 1017.24 461.674 1018.19 450.109C1018.71 443.651 1027.06 443.384 1033.33 442.274C1068.09 436.116 1092.83 421.874 1120.94 401.819Z" fill="white"/>
<path d="M1122.6 406.011C1122.76 406.02 1122.89 406.036 1122.98 406.049C1126.18 408.142 1129.31 410.377 1132.52 412.669C1135.78 415.002 1139.13 417.394 1142.6 419.644V419.645C1155.62 428.226 1169.66 435.134 1184.4 440.201L1184.43 440.209C1190.17 442.142 1196 443.843 1201.88 445.308H1201.88C1203.74 445.769 1208.04 446.447 1211.52 447.089C1213.36 447.43 1215.07 447.773 1216.37 448.105C1216.87 448.231 1217.27 448.345 1217.57 448.442C1217.61 448.556 1217.67 448.702 1217.73 448.888C1217.98 449.682 1218.22 450.807 1218.43 452.255C1218.85 455.138 1219.08 458.825 1219.19 462.696C1219.3 466.544 1219.3 470.457 1219.29 473.767C1219.27 476.981 1219.24 479.816 1219.31 481.256C1221.29 523.503 1217.29 562.955 1190.71 596.501H1190.7C1174.79 616.593 1156.23 632.662 1134.57 646.71L1134.55 646.722L1134.53 646.734C1132.62 647.999 1130.1 649.706 1127.51 651.177C1125.4 652.381 1123.61 653.212 1122.3 653.604C1118.63 651.784 1112.73 648.221 1108.73 645.7L1106.99 644.589C1084.16 629.894 1060.24 613.494 1044.23 592.448C1020.78 561.637 1020.64 530.543 1021.11 493.465L1021.2 485.968C1021.34 474.149 1020.92 462.072 1021.85 450.689V450.686C1021.9 450.018 1022.11 449.682 1022.39 449.405C1022.75 449.043 1023.42 448.624 1024.58 448.223C1026.81 447.455 1029.34 447.179 1032.37 446.691L1033.7 446.468C1068.91 440.23 1094.05 425.856 1121.99 406.003C1122.19 406 1122.4 406 1122.6 406.011Z" stroke="#4AE84A" stroke-width="8"/>
<path d="M1174.02 477.217C1184.43 477.185 1192.28 488.331 1186.61 495.931C1177.98 507.498 1166.42 519.944 1157 530.861L1132.07 559.743C1119.23 574.605 1111.12 590.241 1093.95 569.552C1089.57 564.276 1083.65 558.295 1078.88 553.186C1072.39 545.816 1058.51 535.806 1067.86 525.477C1070.53 521.884 1078.55 519.905 1082.38 522.866C1091.1 529.605 1100.63 540.203 1108.36 548.088C1119.91 533.914 1132.98 519.853 1144.85 505.767C1151.74 497.586 1159.63 488.451 1167.11 480.771C1169.14 478.694 1171.27 477.977 1174.02 477.217Z" fill="black"/>
<path d="M955.186 354.04L955.743 354.2C960.317 355.474 967.72 363.018 971.357 366.45C976.414 371.226 992.598 383.03 979.017 387.888C974.369 386.791 967.414 379.863 963.868 376.441C958.67 371.417 941.354 359.554 955.186 354.04Z" fill="black"/>
<path d="M231.977 396.568L232.346 396.73C235.379 398.03 239.746 403.599 241.919 406.162C244.939 409.729 254.95 418.941 245.087 420.541C241.985 419.344 237.866 414.212 235.755 411.666C232.662 407.927 221.875 398.555 231.977 396.568Z" fill="#60FF60"/>
<path d="M919.066 419.023C926.702 418.562 943.852 425.125 951.531 427.968C957.152 430.05 957.317 434.674 953.037 438.872C948.298 439.612 939.419 436.498 934.551 434.963C927.51 432.744 908.694 429.588 919.066 419.023Z" fill="black"/>
<path d="M205.595 443.261C209.621 443.681 218.132 448.02 221.949 449.921C224.743 451.312 224.505 453.393 221.973 454.919C219.442 454.861 215.016 452.741 212.578 451.655C209.05 450.086 199.429 447.133 205.595 443.261Z" fill="#60FF60"/>
<path d="M1039.03 308C1045.99 308.716 1045.97 311.333 1047.36 317.708C1049.14 325.874 1051.4 334.411 1052.4 342.705C1052.68 345.025 1049.33 347.15 1048.1 348.046C1046.24 347.982 1042.37 347.473 1041.81 345.542C1039.77 338.48 1033.9 318.442 1034.84 311.972C1036.08 309.667 1036.73 309.493 1039.03 308Z" fill="black"/>
<path d="M286.439 369.664C293.206 371.45 292.777 374.032 293.169 380.546C293.665 388.889 294.569 397.672 294.276 406.022C294.195 408.357 290.557 409.938 289.203 410.632C287.374 410.281 283.623 409.178 283.372 407.184C282.451 399.891 279.753 379.186 281.687 372.94C283.271 370.855 283.94 370.784 286.439 369.664Z" fill="#60FF60"/>
<path d="M445.5 366.5C477.769 379.884 562 349.5 582 354C602 358.5 590 391.5 590 391.5C590 391.5 640.5 376 650.5 401.5C660.5 427 639.5 461 639.5 461C662.064 496.351 665.344 517.453 661 556.5C661 556.5 675 543 737 529.5C799 516 968 503 968 503" stroke="#4AE84A" stroke-width="14" stroke-linecap="round"/>
<path d="M1162 683C1163.06 833.835 1158.05 919.413 1140.5 1075" stroke="#60FF60" stroke-width="14" stroke-linecap="round"/>
</g>
<defs>
<clipPath id="clip0_8_1680">
<rect width="1455" height="1465" fill="white"/>
</clipPath>
</defs>
</svg>
