<svg width="1254" height="1254" viewBox="0 0 1254 1254" fill="none" xmlns="http://www.w3.org/2000/svg">
<path d="M742.805 244.664C773.402 241.673 787.448 247.392 794.073 278.77C796.534 290.432 799.541 302.802 801.941 314.648C809.148 349.488 815.987 384.403 822.459 419.387C824.033 427.726 825.484 436.088 826.825 444.469C827.774 450.669 828.399 457.692 830.095 463.68C842.016 456.546 853.393 448.193 866.876 445.328C875.344 448.085 878.773 450.723 879.232 460.676C879.691 470.799 878.363 481.566 877.297 491.665C875.528 507.301 873.868 522.949 872.313 538.608C886.133 539.458 922.467 541.028 933.703 548.656C936.415 550.499 938.491 553.133 939.073 556.42C941.173 568.409 914.042 595.285 906.67 606.561L906.192 607.304C919.883 611.383 933.446 615.874 946.861 620.772C959.652 625.444 975.572 630.061 981.487 642.754C981.052 646.073 980.63 648.792 978.462 651.48C973.068 658.172 963.694 664.54 956.64 669.524C948.441 675.366 940.206 681.146 931.921 686.871C924.739 691.763 914.599 698.339 908.176 703.96C918.383 720.003 939.82 741.219 944.92 759.894C946.035 763.972 944.394 767.23 942.153 770.567C932.674 776.12 916.871 775.814 905.917 776.194L867.201 777.443C866.098 799.247 870.874 843.027 864.941 862.265C863.967 865.419 862.449 867.537 860.33 870.042C858.775 870.666 857.214 871.26 855.561 871.573C842.555 874.003 809.313 846.652 797.655 839.047C792.658 847.833 787.252 856.987 782.715 865.97C789.873 877.12 796.853 883.874 793.124 897.779C779.592 912.854 734.949 916.834 715.429 919.51L647.316 928.694L550.1 941.228C512.925 945.961 473.324 950.854 435.75 948.747C425.786 947.951 413.905 945.882 405.477 940.089C390.745 929.968 388.656 908.715 385.821 892.605C383.9 881.694 382.217 870.942 380.475 860.141C375.643 830.444 370.586 800.784 365.306 771.167L307.236 460.518C296.964 404.96 301.145 399.974 357.377 390.639C354.724 369.015 346.434 346.603 344.691 324.779C342.187 293.405 363.333 290.234 387.025 285.703C403.623 282.603 420.273 279.782 436.966 277.241C498.026 268.138 559.356 260.958 620.87 255.711C661.791 251.854 701.725 247.783 742.805 244.664Z" fill="black"/>
<path d="M746.24 262.937C750.14 262.365 755.62 262.424 759.637 262.415C770.107 262.392 773.787 266.386 776.353 275.615C781.484 294.049 784.717 312.673 788.599 331.293C798.071 378.548 806.974 425.915 815.302 473.385C800.361 484.043 785.715 495.104 771.375 506.558C762.105 494.424 740.796 465.299 726.793 461.556C724.907 462.007 722.991 462.459 721.288 463.426C707.499 471.249 692.865 524.293 687.771 540.866C663.56 530.619 617.619 500.697 628.567 552.34C622.432 552.61 618.966 553.244 613.088 554.76C610.935 553.905 608.676 553.317 606.342 553.469C594.505 554.238 582.513 556.08 570.758 557.722C538.231 562.267 505.711 566.235 473.435 572.412C459.87 575.007 455.091 582.429 456.161 596.158C457.615 612.642 460.633 629.162 463.323 645.492C467.498 671.827 471.868 698.126 476.432 724.4C479.014 739.493 481.434 754.617 483.691 769.765C486.082 785.14 486.142 812.4 507.948 810.122C535.276 807.269 563.992 803.289 591.114 798.635C600.942 796.952 604.868 784.491 590.55 782.324C576.961 780.266 513.821 795.831 504.874 792.421C502.779 788.055 497.115 749.516 495.758 741.514C488.301 697.562 480.825 653.421 474.08 609.353C473.342 604.529 471.987 596.023 472.644 591.38C475.71 586.899 498.43 585.051 504.471 584.198L575.573 574.651C586.786 573.198 598.982 572.005 610.078 569.929C611.918 569.585 614.025 568.061 615.525 566.936C619.891 567.082 629.816 565.852 632.112 566.729L633.043 569.125C637.139 584.333 641.315 599.519 645.583 614.681C628.383 623.229 585.226 642.253 573.643 653.672C571.61 655.675 570.685 658.203 569.638 660.793C569.736 661.485 569.841 662.183 569.955 662.875C570.67 667.29 572.738 671.141 576.047 674.111C590.55 687.129 608.524 698.94 624.299 710.213C615.292 721.093 588.452 747.845 586.994 760.734C586.674 763.557 587.529 766.122 589.397 768.253C597.771 777.817 633.361 778.442 646.489 779.642C643.617 799.499 636.9 832.557 636.147 851.318C620.57 852.867 604.773 855.629 589.313 858.115C564.521 862.236 539.684 866.081 514.807 869.657C458.745 877.304 457.623 876.086 450.364 819.962C448.828 808.475 447.175 797.007 445.405 785.55C431.773 689.063 416.183 592.857 398.644 496.999C391.698 459.015 384.482 421.082 376.994 383.201L368.702 341.7C364.397 319.132 359.149 307.038 387.009 304.221C392.682 303.648 401.561 301.621 407.472 300.597C481.521 288.409 556.03 279.209 630.82 273.018C669.763 269.438 707.015 265.582 746.24 262.937Z" fill="#FEFEFE"/>
<path d="M471.793 338.649C497.686 336.754 520.245 356.134 522.273 382.017C524.301 407.9 505.035 430.558 479.163 432.718C453.104 434.893 430.246 415.458 428.203 389.388C426.161 363.317 445.713 340.559 471.793 338.649Z" fill="black"/>
<path d="M474.299 354.684C491.049 354.315 505.003 367.44 505.658 384.181C506.314 400.922 493.429 415.098 476.701 416.039C465.624 416.662 455.072 411.261 449.1 401.911C443.127 392.561 442.664 380.716 447.887 370.928C453.11 361.139 463.207 354.929 474.299 354.684Z" fill="#FEFEFE"/>
<path d="M700.948 300.628C707.537 301.071 714.413 306.595 719.195 310.923C739.603 329.388 761.064 347.735 779.048 368.578C781.093 370.947 781.858 374.897 782.526 377.908C779.311 389.934 774.419 390.067 763.195 392.919C750.104 396.304 713.935 405.718 702.908 401.498C698.762 399.914 695.211 396.105 693.625 391.978C690.049 382.652 688.445 315.213 692.241 306.866C693.938 303.126 697.336 301.929 700.948 300.628Z" fill="black"/>
<path d="M706.49 322.925C711.149 325.992 722.642 336.906 726.965 340.944C738.856 352.053 751.28 363.599 762.454 375.408L754.225 377.072C740.865 379.543 726.671 383.875 713.152 385.56C711.211 385.801 711.027 385.628 709.949 384.67C707.078 376.2 706.416 333.835 706.49 322.925Z" fill="#FEFEFE"/>
<path d="M633.361 436.196C648.032 434.98 653.886 447.754 640.519 453.185C637.115 454.57 623.607 456.241 619.101 456.967L580.517 463.297L463.241 483.985C457.443 485.153 449.898 486.232 447.633 478.275C446.347 473.756 453.39 469.591 457.151 468.575C472.169 464.518 487.753 462.282 503.006 459.228C529.913 453.876 556.892 448.9 583.938 444.3C599.596 441.575 617.827 438.127 633.361 436.196Z" fill="black"/>
<path d="M595.726 492.519C614.963 489.439 616.757 506.853 603.158 509.552C589.707 512.223 573.415 514.012 559.596 516.097C530.039 520.597 500.509 525.268 471.006 530.107C467.374 530.616 461.435 531.693 458.405 529.603C451.235 524.655 455.764 516.949 462.686 515.146C474.503 512.068 486.228 510.244 498.098 508.099C530.538 502.282 563.087 497.088 595.726 492.519Z" fill="black"/>
<path d="M861.336 465.318C867.385 473.161 845.606 550.203 862.53 553.637C873.435 555.85 906.432 558.702 920.527 561.292C913.871 571.974 904.038 581.752 896.574 591.912C892.263 597.772 883.709 605.738 886.342 613.688C887.138 616.082 888.773 618.103 890.953 619.377C896.562 622.726 907.026 625.359 913.492 627.704C928.052 632.97 947.046 638.499 960.609 645.357C955.135 649.986 947.315 655.031 941.266 659.17C930.508 666.481 919.799 673.86 909.144 681.317C903.383 685.401 890.243 693.466 888.755 700.483C888.314 702.46 888.516 704.524 889.324 706.379C891.688 711.731 901.111 723.315 904.999 728.465C912.31 738.164 919.094 747.134 925.713 757.402C913.345 758.566 862.756 757.764 855.568 763.274C853.388 764.928 851.863 767.303 851.276 769.979C850.59 773.016 850.669 775.974 850.7 779.066C850.896 799.162 851.098 819.3 850.669 839.396C850.584 843.419 850.431 847.515 849.818 851.489L849.677 852.353C836.782 844.515 807.924 822.907 796.523 819.221C792.953 820.011 792.764 819.98 789.592 821.976C782.557 826.403 758.793 877.439 753.882 877.812C746.829 873.416 729.004 842.647 722.747 834.73C718.142 828.901 715.485 823.525 706.986 822.16L706.269 822.056C696.503 824.658 679.989 835.551 670.468 840.21C665.815 842.488 661.89 845.605 656.446 846.542L655.577 845.887C654.518 842.225 655.895 838.251 656.391 834.522C658.871 815.835 661.914 797.196 664.241 778.496C664.731 774.596 664.204 770.818 661.755 767.628C660.243 765.626 658.148 764.138 655.76 763.372C651.382 761.976 641.445 761.278 636.595 760.831C626.737 760.029 616.891 759.08 607.062 757.996C617.724 743.191 631.679 729.959 642.412 715.153C645.211 711.32 644.488 704.211 640.979 701.058C625.617 687.238 606.154 676.897 590.631 663.254C612.148 649.465 638.31 639.968 659.949 626.198C661.969 624.912 663.292 620.797 664.155 618.501C663.42 612.2 660.69 604.987 659.189 598.775C655.007 581.441 646.582 558.504 644.194 541.275C654.187 544.154 686.694 562.007 694.066 560.219C696.969 559.514 699.118 557.44 700.612 554.927C703.888 549.408 705.467 541.839 707.421 535.688C711.878 521.653 720.199 494.162 727.602 482.314L728.104 481.522C739.291 491.95 753.87 516.767 767.249 524.917C769.337 525.629 773.868 525.726 775.644 524.518C804.012 505.185 830.849 481.594 861.336 465.318Z" fill="#FEFEFE"/>
<path d="M765.141 562.249C777.357 561.393 799.241 564.236 802.651 577.425C805.786 589.55 796.295 615.262 792.585 626.92L778.783 669.867C775.024 681.372 768.129 705.222 763.751 715.306C761.639 718.888 758.437 721.484 754.438 722.66C749.668 724.068 745.211 724.154 740.808 721.582C737.275 719.519 734.281 715.808 733.393 711.767C731.158 701.652 739.737 599.473 742.125 585.151C742.89 580.568 743.79 575.608 746.533 571.772C751.175 565.288 757.72 563.544 765.141 562.249Z" fill="black"/>
<path d="M740.589 745.86C753.068 744.672 764.218 753.661 765.7 766.115C767.182 778.57 758.456 789.928 746.045 791.697C737.748 792.885 729.464 789.487 724.394 782.813C719.324 776.145 718.265 767.254 721.632 759.576C724.994 751.904 732.25 746.656 740.589 745.86Z" fill="black"/>
<path d="M991.094 405.973C1000.76 405.702 1004.32 415.314 996.072 421.285C979.191 433.508 961.924 445.206 945.159 457.594C944.461 458.107 942.122 458.906 941.265 459.194C940.285 459.143 939.501 459.065 938.558 458.857C936.036 458.305 934.064 457.135 932.852 454.754C931.811 452.71 931.817 450.463 932.552 448.322C935.466 439.827 981.089 410.958 991.094 405.973Z" fill="black"/>
<path d="M968.513 516.899C979.333 516.358 1023 516.729 1030.55 521.802C1032.38 523.04 1034.26 525.062 1034.54 527.364C1034.92 530.435 1033.58 532.16 1031.97 534.62C1029.79 535.187 1027.36 535.671 1025.14 536.163C1017.45 536.317 968.722 534.034 964.325 531.923C962.231 530.917 960.321 529.142 959.574 526.9C958.98 525.128 959.274 522.99 960.296 521.417C962.225 518.453 965.25 517.679 968.513 516.899Z" fill="black"/>
<path d="M917.153 331.781C924.978 333.9 925.897 339.714 922.658 346.452C914.135 364.188 905.066 381.717 896.433 399.396C895.478 401.342 892.202 402.751 890.359 403.542C878.051 401.276 882.564 390.392 886.207 382.355C890.034 373.922 894.498 365.582 898.839 357.391C902.893 349.747 906.787 341.614 911.991 334.714C913.124 333.228 915.445 332.424 917.153 331.781Z" fill="black"/>
</svg>
