<svg width="1254" height="1254" viewBox="0 0 1254 1254" fill="none" xmlns="http://www.w3.org/2000/svg">
<path d="M759.324 275.212C795.181 273.539 812.724 283.248 838.153 307.972C858.91 328.153 886.917 359.803 890.303 389.193C892.544 408.647 892.427 430.905 892.715 450.423C893.131 474.754 893.346 499.088 893.358 523.423C893.401 530.453 892.531 556.616 894.27 560.988C896.964 567.763 933.893 566.43 942.795 576.898C952.696 588.546 949.531 669.996 947.92 687.373C942.036 751.046 910.631 803.368 862.124 843.903C867.831 846.278 874.174 848.74 878.901 852.818C881.761 855.285 883.916 858.451 884.02 862.327C884.149 866.839 881.687 870.936 878.589 874.028C841.006 911.556 586.338 931.223 530.349 931.033C484.494 931.321 438.574 927.892 393.706 917.869C373.476 913.35 322.446 902.2 334 871.866C339.93 856.302 366.114 845.764 380.432 840.045C378.133 830.438 377.117 814.873 376.171 804.55C374.029 779.451 372.387 754.316 371.246 729.15C369.69 688.279 368.665 647.389 368.172 606.487C367.939 583.579 368.294 560.325 367.886 537.506L366.669 462.867C366.355 443.202 365.636 423.645 367.277 404.122C368.07 394.7 368.634 388.768 373.083 381.418C382.343 366.117 415.884 365.718 426.327 361.6C431.427 347.034 427.682 323.226 440.363 311.671C455.15 298.195 473.6 299.017 492.583 297.266C508.594 295.854 524.594 294.322 540.582 292.67C587.211 287.687 633.912 283.391 680.668 279.783C707.56 277.75 732.303 275.667 759.324 275.212Z" fill="black"/>
<path d="M752.841 291.718C758.199 291.599 763.563 291.548 768.926 291.563C772.392 291.582 779.158 291.32 781.57 294.09C787.553 300.945 782.63 372.804 785.777 388.225C786.291 390.749 787.155 392.828 789.053 394.615C791.508 396.932 794.9 398.053 798.188 398.503C804.764 399.403 811.904 398.252 818.474 397.619C833.812 396.142 850.026 393.364 865.419 393.443C868.444 393.459 870.869 393.776 873.067 395.979C874.188 398.911 874.996 403.995 875.045 407.19C875.48 435.618 876.986 464.852 876.539 493.213C876.214 513.949 877.794 537.304 875.853 557.617C865.083 555.949 849.506 549.172 839.256 545.341C829.955 541.865 806.485 528.052 797.729 529.204C786.628 530.664 765.534 544.244 753.9 549.837C736.505 559.032 719.391 564.532 700.74 570.784C690.227 574.308 662.122 580.297 655.515 588.139C648.7 596.228 650.109 619.095 648.939 630.275C639.791 718.117 652.27 803.013 724.987 861.2C704.212 864.494 683.369 867.292 662.459 869.589C652.509 870.017 632.18 873.164 621.471 874.45C599.72 876.918 577.948 879.177 556.155 881.222C535.599 883.169 479.627 890.021 463.552 877.353C452.95 868.995 451.255 836.071 450.236 822.484C447.436 785.14 446.095 746.84 445.013 709.269C443.981 679.113 443.282 648.945 442.915 618.776C442.818 588.869 443.626 559.202 443.39 529.074C442.894 465.856 440.433 401.948 446.435 338.902C447.449 328.255 452.604 319.134 463.826 316.912C474.091 314.879 485.099 314.209 495.627 313.255L545.419 308.607C615.777 301.764 681.887 294.989 752.841 291.718Z" fill="#FEFEFE"/>
<path d="M663.781 402.537C669.574 402.018 681.061 401.184 682.64 408.822C683.057 410.742 682.598 412.746 681.397 414.298C678.483 418.135 670.609 418.813 666.041 419.31C653.929 420.628 641.763 421.787 629.652 423.088L529.791 433.417C525.623 433.718 516.801 434.618 513.948 432.176C506.5 425.802 512.354 418.805 520.278 417.564C528.056 416.347 534.561 415.533 541.889 414.688C555.116 413.123 568.364 411.741 581.63 410.544L663.781 402.537Z" fill="black"/>
<path d="M662.918 479.697C666.916 479.321 674.215 479.097 677.417 481.647C682.952 486.143 679.131 493.095 673.155 494.298C655.374 497.882 636.803 498.891 618.764 500.597L530.702 509.582C512.161 512.421 505.092 496.811 523.934 493.681C540.503 490.928 558.528 489.464 575.311 487.839C604.493 484.92 633.698 482.206 662.918 479.697Z" fill="black"/>
<path d="M597.562 640.728C599.916 640.624 603.835 641.107 605.914 642.173C613.229 646.104 609.789 653.966 602.989 655.637C599.121 656.684 595.121 657.131 591.131 657.535C570.223 659.666 549.239 662.52 528.268 663.903C525.471 664.02 522.221 664.057 519.751 662.538C518.184 661.577 516.838 659.801 516.591 657.946C516.292 655.692 516.862 653.666 518.337 651.951C524.248 645.087 585.684 641.744 597.562 640.728Z" fill="black"/>
<path d="M595.872 709.318C609.898 707.604 618.464 719.899 602.869 724.197C596.264 726.016 585.415 726.732 578.232 727.546C563.777 729.255 549.303 730.81 534.816 732.212C531.343 732.261 524.333 732.684 521.668 730.718C515.125 725.893 518.99 718.503 525.818 716.905C533.788 715.043 541.261 714.455 549.177 713.586C564.708 711.816 580.278 710.396 595.872 709.318Z" fill="black"/>
<path d="M796.951 546.159C803.723 545.891 825.295 557.608 833.702 561.185C852.359 569.026 871.72 575.058 891.522 579.2C901.447 581.318 919.486 583.542 928.86 587.594C931.193 588.605 932.044 598.557 932.246 601.605C937.273 678.128 933.14 744.238 879.759 804.385C866.068 819.815 822.797 858.108 803.142 859.143C801.482 858.733 798.598 858.004 797.055 857.368C766.765 844.742 737.123 824.671 714.517 801.048C670.027 754.586 664.663 691.384 665.955 630.374C666.598 600.267 661.785 598.396 692.376 590.891C717.345 584.766 744.054 573.738 767.095 562.18C777.131 557.147 786.658 550.556 796.951 546.159Z" fill="#FEFEFE"/>
<path d="M863.661 631.353C873.103 631.2 878.357 640.452 872.099 647.971C867.09 653.99 861.904 659.813 856.742 665.704C847.423 676.131 838.342 686.767 829.513 697.611C820.463 708.743 811.523 719.96 802.7 731.275C793.216 743.344 780.939 766.244 764.278 750.367C753.979 740.552 744.85 729.824 735.683 718.956C732.046 714.719 726.003 708.541 725.593 702.92C725.011 694.053 734.985 689.896 741.604 695.358C746.956 699.779 751.199 705.161 755.828 710.322C762.282 717.541 768.907 724.607 775.698 731.514C781.851 724.681 791.452 711.651 797.538 703.954C810.55 687.379 823.941 671.11 837.706 655.16C843.908 648.014 854.96 633.895 863.661 631.353Z" fill="black"/>
<path d="M801.69 301.14C815.663 306.64 847.797 341.227 856.908 354.872C859.982 359.471 868.456 369.535 867.654 374.906C865.866 376.227 863.38 376.145 861.072 376.347C852.591 377.077 806.656 382.799 802.841 380.005C800.374 372.541 800 309.049 801.69 301.14Z" fill="#FEFEFE"/>
</svg>
