<svg width="1254" height="1254" viewBox="0 0 1254 1254" fill="none" xmlns="http://www.w3.org/2000/svg">
<path d="M785.855 324.163C789.437 323.989 793.026 323.979 796.608 324.133C803.674 324.431 812.044 325.779 816.887 331.439C825.87 341.938 820.653 463.081 820.457 485.747C820.304 498.673 820.298 511.599 820.438 524.525C820.555 533.859 820.965 544.315 820.524 553.53C838.404 533.825 863.257 537.442 873.819 562.407C880.322 577.773 884.455 594.196 889.953 609.977C893.86 621.177 898.183 632.492 901.599 643.851C908.114 671.429 888.704 681.936 864.72 678.691C869.674 693.374 872.509 707.383 872.717 722.991C873.28 754.751 861.23 785.434 839.2 808.322C828.043 819.705 812.993 828.528 799.308 836.874C764.021 858.384 715.147 866.05 675.139 872.975C629.73 880.77 584.028 886.703 538.138 890.769C510.366 893.285 480.234 895.63 452.297 895.839C420.254 896.096 372.738 899.684 342.46 886.538C336.243 883.837 332.997 879.361 331.021 873.091C336.518 846.585 387.961 837.149 411.064 832.312C410.883 825.295 409.932 816.949 409.48 809.767C408.665 794.606 407.7 779.458 406.582 764.315C402.784 714.798 400.34 665.3 398.144 615.666C397.134 592.837 397.69 569.66 396.566 546.874C394.805 511.167 391.321 475.574 391.694 439.773C392 412.699 414.161 411.832 434.949 407.882C435.028 396.39 434.732 381.973 442.526 372.696C447.517 366.756 456.509 364.204 463.894 362.536C489.605 356.726 516.148 353.792 542.292 350.732C581.067 346.198 619.89 342.104 658.759 338.45C701.21 334.26 743.521 327.556 785.855 324.163ZM805.872 572.831C805.547 541.291 805.541 509.75 805.853 478.21C806.013 460.445 810.446 349.952 803.894 341.706C801.763 339.026 791.874 339.604 788.617 339.683C785.2 339.765 781.41 339.646 778.049 340.105C743.76 343.407 709.66 348.516 675.42 352.274C648.411 355.236 463.597 370.013 453.65 383.107C451.467 385.982 450.672 390.516 450.252 394.052C449.267 402.365 449.466 411.047 449.155 419.426C448.005 450.439 448.877 481.51 449.705 512.522C451.617 585.799 454.902 659.036 459.56 732.188C460.462 745.438 461.243 758.694 461.902 771.957C462.868 793.896 463.545 816.367 467.685 837.988C468.469 842.084 469.941 849.334 473.599 851.667C481.875 856.939 520.093 849.138 531.645 847.791C585.757 838.87 639.484 833.659 692.797 825.283C634.831 789.169 619.866 717.37 656.359 660.12C674.294 632.474 702.38 612.997 734.557 605.89C749.809 602.599 767.786 602.352 783.008 606.117C790.485 594.925 798.108 583.828 805.872 572.831ZM762.784 827.469C839.248 820.256 879.128 744.397 847.086 676.162C829.99 672.874 812.968 669.696 795.952 665.967C770.75 660.444 761.449 642.926 773.775 619.885C767.976 619.04 757.371 617.828 751.609 618.703C722.47 621.287 695.565 635.364 676.816 657.817C659.115 678.893 649.097 707.402 651.742 734.974C654.302 762.001 667.564 786.885 688.573 804.085C709.397 821.101 735.965 829.477 762.784 827.469ZM781.955 637.648C783.492 641.934 785.396 647.42 789.946 649.055C801.935 653.36 822.116 657.015 834.705 659.048C845.035 661.35 875.381 667.792 883.451 662.606C886.035 660.916 887.78 658.215 888.27 655.172C888.686 652.711 888.361 650.39 887.767 647.99C885.086 637.207 860.808 567.06 856.607 561.881C853.944 558.592 850.368 556.485 846.119 556.112C844.833 556 843.602 556.009 842.316 556.074C825.514 562.652 795.126 615.397 783.725 632.143C783.314 632.737 782.218 636.656 781.955 637.648Z" fill="black"/>
<path d="M631.023 415.996C642.902 416.103 650.678 417.715 651.431 431.236C653.825 474.385 653.997 518.069 652.435 561.257C651.756 569.891 647.114 573.77 638.94 575.083C609.957 579.743 580.607 582.495 551.42 585.612C541.182 586.705 529.651 587.834 519.465 587.994C507.049 587.658 501.551 585.441 500.698 571.912C498.017 529.375 495.875 486.329 499.4 443.8C499.705 441.66 501.59 435.772 503.363 434.436C513.119 427.08 536.988 425.702 548.274 424.257C575.762 420.613 603.36 417.859 631.023 415.996ZM526.297 573.29C531.425 547.008 544.865 530.41 571.794 524.721C553.133 521.427 544.876 511.338 543.305 492.895C544.785 482.396 547.206 474.678 556.212 467.771C563.347 462.234 572.442 459.871 581.369 461.233C599.162 464.058 609.995 480.536 605.853 498.019C602.29 513.059 594.309 519.122 580.554 524.195C594.435 525.2 606.032 529.301 615.44 540.047C621.073 546.592 624.961 554.456 626.737 562.907C630.656 562.344 635.683 561.768 639.405 560.75C640.238 546.914 639.558 529.767 639.663 515.587C639.883 487.252 639.742 459.276 637.844 430.982C634.219 430.417 631.984 429.966 628.261 430.115C602.845 432.081 577.472 434.605 552.164 437.685C541.814 438.909 521.733 440.961 512.841 444.263C511.559 451.293 511.319 466.825 511.186 474.5C510.902 502.112 511.611 529.727 513.311 557.288C513.583 562.058 513.738 567.475 514.589 572.161C515.031 574.598 524.426 573.381 526.297 573.29ZM574.474 474.198C564.27 474.499 556.268 483.059 556.655 493.26C557.042 503.461 565.669 511.392 575.866 510.919C585.944 510.453 593.76 501.949 593.378 491.868C592.996 481.787 584.558 473.899 574.474 474.198ZM613.18 564.381C609.426 553.623 606.049 547.37 595.134 541.459C590.272 538.826 580.759 537.226 575.231 538.388C555.478 541.533 544.355 553.143 539.81 572.239C551.225 571.52 565.457 570.219 576.872 568.727C587.897 567.472 602.728 565.156 613.18 564.381Z" fill="black"/>
<path d="M633.001 629.688C643.043 630.999 642.1 641.775 634.642 642.865C622.145 644.702 609.387 646.196 596.831 647.721C571.589 650.709 546.378 653.948 521.201 657.438C512.316 657.977 511.14 645.192 519.434 644.127C557.164 639.253 595.142 633.424 633.001 629.688Z" fill="black"/>
<path d="M601.99 692.137C604.245 691.855 607.595 691.335 609.571 692.676C615.329 696.729 615.513 702.95 607.851 704.769C604.135 705.651 600.721 706.128 596.868 706.606C591.048 707.322 585.2 708.075 579.379 708.81L531.403 715.104C517.106 717.939 513.838 705.436 524.721 702.656C530.713 701.126 542.206 699.889 548.828 698.97C566.532 696.558 584.253 694.28 601.99 692.137Z" fill="black"/>
<path d="M760.63 496.187C762.179 495.826 762.895 495.688 764.518 496.117C766.416 496.61 767.983 497.947 768.767 499.744C770.58 503.844 767.953 507.836 763.863 508.667C740.558 513.406 715.846 515.188 692.67 520.174C689.125 520.528 684.992 519.584 683.669 515.717C682.591 512.577 684.857 508.113 688.237 507.337C695.052 505.774 702.112 504.746 709.037 503.614C726.169 500.707 743.375 498.23 760.63 496.187Z" fill="black"/>
<path d="M755.89 441.827C758.425 441.46 763.268 440.832 765.436 442.218C769.851 445.037 769.006 453.103 763.391 454.077C755.486 455.449 747.685 456.429 739.835 457.637L692.663 465.332C690.796 465.657 686.553 466.233 685.279 464.808C675.152 453.455 693.41 451.55 698.315 450.791C717.768 447.782 736.639 444.188 755.89 441.827Z" fill="black"/>
<path d="M753.141 666.371C768.92 667.179 781.962 672.733 787.234 688.163C795.69 712.906 779.495 723.542 763.452 737.349C759.46 742.162 760.005 764.346 748.684 756.986C738.813 750.569 746.424 734.123 751.972 727.014C760.507 718.441 777.303 710.622 773.28 695.823C771.927 690.649 768.418 686.314 763.636 683.92C758.468 681.305 752.474 680.858 746.969 682.671C738.985 685.346 736.26 690.055 733.309 697.421C731.6 701.695 727.192 704.107 722.857 701.738C720.934 700.709 719.526 698.921 718.975 696.809C717.976 693.086 722.122 684.183 724.516 681.048C732.617 670.431 740.993 668.141 753.141 666.371Z" fill="black"/>
<path d="M749.632 772.434C754.543 770.818 759.827 773.512 761.419 778.429C763.011 783.352 760.292 788.624 755.369 790.191C750.471 791.746 745.236 789.058 743.662 784.166C742.082 779.28 744.746 774.032 749.632 772.434Z" fill="black"/>
<path d="M842.385 579.781C850.014 582.221 849.586 587.913 848.055 594.954C846.322 602.931 847.639 617.362 839.77 621.324C830.041 620.044 832.294 610.627 833.684 603.132C835.399 593.898 833.011 583.398 842.385 579.781Z" fill="black"/>
<path d="M834.676 630.429C838.845 629.652 842.868 632.352 843.719 636.509C844.576 640.661 841.944 644.733 837.804 645.663C835.061 646.276 832.196 645.363 830.316 643.275C828.436 641.181 827.83 638.236 828.736 635.573C829.636 632.915 831.908 630.944 834.676 630.429Z" fill="black"/>
</svg>
