<svg width="1254" height="1254" viewBox="0 0 1254 1254" fill="none" xmlns="http://www.w3.org/2000/svg">
<path d="M685.137 275.231C698.877 274.782 712.679 274.989 726.425 274.98C737.838 274.972 750.96 273.867 762.098 276.288C766.231 277.185 769.556 279.041 773.021 281.382C792.664 294.661 870.5 372.893 877.328 392.838C880.089 400.909 878.981 425.661 879.232 435.383C880.322 477.379 881.65 519.533 881.069 561.542L880.371 597.41C880.114 606.767 878.938 620.724 880.812 629.419C923.244 654.119 945.716 691.47 952.776 739.554C958.476 778.356 951.141 816.214 927.218 847.754C893.627 892.048 842.818 911.905 788.231 905.195C779.469 904.154 767.517 902.745 758.724 903.823C694.806 911.624 631.389 925.168 567.621 933.605C534.616 938.804 453.534 953.395 425.716 943.323C414.629 939.306 408.823 927.023 404.236 916.963C392.619 891.491 384.443 859.272 377.387 832.055C365.323 784.448 354.256 736.596 344.196 688.524C336.451 651.676 298.622 460.357 308.47 436.492C313.589 424.088 334.769 425.4 345.12 420.603C346.626 419.905 347.985 419.069 348.512 417.399C350.361 411.551 345.298 399.529 348.986 390.348C353.701 378.608 382.004 379.374 393.03 374.792C393.275 374.69 393.516 374.582 393.759 374.476C394.367 363.99 393.903 348.365 396.791 338.394C398.287 335.805 401.234 333.765 404.321 332.978C422.63 328.311 452.242 326.492 468.973 322.202C472.932 321.187 470.469 296.953 476.602 292.723C483.139 288.214 486.29 289.444 493.659 287.448C521.051 281.609 549.276 280.484 577.233 278.979C613.179 277.109 649.152 275.859 685.137 275.231ZM649.201 813.159C654.59 813.245 663.125 813.888 667.809 811.843C668.146 811.2 664.693 783.603 664.797 778.594C666.86 680.809 745.511 600.621 846.161 618.256C850.668 619.046 861.53 623.075 864.928 620.161C866.373 609.284 865.884 593.051 865.682 581.61L864.775 527.979C864.445 490.439 866.349 452.704 865.21 415.124C865.008 408.585 865.375 405.816 857.452 406.344C850.931 406.775 844.41 407.478 837.907 408.091L799.479 411.625C792.199 412.262 784.343 413.508 777.044 412.818C773.903 412.52 770.511 411.932 768.08 409.751C765.974 407.859 764.872 404.962 764.339 402.245C760.928 384.718 760.72 296.545 753.428 289.686C749.987 286.45 738.132 287.503 733.516 287.573C725.029 287.699 716.506 287.738 708.031 288.103C680.912 288.558 501.632 289.694 489.845 303.524C487.259 306.559 486.285 313.875 485.822 317.792C484.636 327.811 484.602 338.074 484.093 348.156C482.961 372.256 482.024 396.364 481.282 420.479C477.774 514.146 476.572 607.883 477.679 701.609L478.515 762.693C478.673 771.302 478.724 808.408 484.02 813.159C487.406 814.561 493.042 815.425 496.768 815.431C547.513 815.523 598.466 813.882 649.201 813.159ZM771.772 299.063C771.093 307.127 771.981 315.66 772.819 323.716C775.097 345.51 776.107 367.308 777.301 389.167C777.699 396.463 780.045 397.207 786.902 397.375C808.743 396.427 831.27 392.292 853.093 391.787C855.027 391.647 855.86 391.767 857.483 390.693C858.193 383.975 782.971 306.812 771.772 299.063ZM813.948 890.732C889.267 886.213 945.398 828.387 940.432 751.8C938.031 714.713 922.859 681.673 894.858 656.936C872.227 637.25 842.677 627.392 812.754 629.547C811.621 629.621 810.495 629.706 809.362 629.804C768.901 633.766 740.251 649.349 714.173 680.846C691.107 709.208 680.227 745.555 683.913 781.925C687.121 813.594 702.955 842.642 727.839 862.492C752.209 881.964 782.782 891.993 813.948 890.732ZM391.075 390.905C384.972 391.582 367.688 393.064 364.075 398.688C353.175 415.659 402.9 726.549 408.979 768.026L419.921 843.474C422.092 858.721 423.872 875.088 427.892 889.973C429.575 896.2 434.023 895.422 439.322 895.024C461.851 892.293 484.254 888.313 506.801 885.711L609.852 873.704C623.331 872.13 639.031 870.93 652.146 869.05C666.309 867.691 680.453 866.172 694.579 864.501C691.53 861.17 689.362 857.863 686.791 854.159C660.064 854.404 630.299 855.947 603.425 857.245C573.503 858.47 543.594 859.982 513.702 861.782C500.802 862.554 487.915 863.491 475.041 864.611C470.626 865.009 466.046 865.413 461.642 865.83C450.436 866.901 439.86 868.622 437.482 854.551C435.181 840.933 433.905 827.156 432.394 813.422L424.117 735.825C416.671 663.34 409.849 590.8 403.653 518.203C400.392 477.381 396.895 436.6 394.74 395.707C394.634 393.692 394.545 392.112 393.096 390.783L391.075 390.905ZM459.775 338.233C448.951 339.527 413.04 343.022 411.65 347.924C406.792 365.062 414.011 447.445 415.008 462.638C420.624 541.616 427.217 620.522 434.786 699.338C437.837 732.347 441.139 765.332 444.693 798.292C445.591 806.479 449.085 846.732 453.082 851.079C463.054 853.198 502.406 848.942 515.302 848.275C552.435 846.364 590.669 843.199 627.85 841.913C638.351 841.423 668.881 840.388 678.047 838.753C676.063 834.822 674.606 832.036 673.124 827.885C610.451 827.977 547.526 827.377 484.819 828.516C475.596 828.687 468.934 826.287 467.53 816.312C466.028 807.63 465.67 798.911 465.114 790.155C464.028 771.302 463.26 752.431 462.811 733.553C461.606 688.347 459.94 640.238 461.409 595.093L467.298 399.246C467.742 380.933 468.642 362.21 469.557 343.894C469.657 341.882 469.194 340.696 468.08 339.064C465.512 337.197 462.984 337.897 459.775 338.233Z" fill="black"/>
<path d="M648.333 367C666.347 365.224 687.184 368.985 702.908 378.357C709 381.987 709.521 390.194 701.316 391.045C700.048 391.176 691.035 386.949 689.003 386.061C676.842 380.631 663.476 378.469 650.225 379.791C625.28 382.303 602.335 394.584 586.408 413.952C555.477 451.483 560.106 503.733 597.847 534.563C617.161 550.391 641.978 557.881 666.825 555.379C690.319 552.92 712.399 540.222 727.18 521.927C741.655 503.788 748.267 480.615 745.555 457.57C745.034 449.213 736.493 430.843 745.653 427.264C754.115 428.306 756.019 443.229 757.25 449.969C767.42 505.697 730.603 559.111 673.628 567.579C644.91 572.022 615.612 564.849 592.195 547.646C571.191 531.825 557.37 508.277 553.799 482.225C545.565 421.908 590.025 374.569 648.333 367Z" fill="black"/>
<path d="M730.645 389.436C741.17 389.455 744.654 399.058 739.333 406.744C724.369 428.362 709.043 449.67 694.194 471.38C687.894 480.57 681.661 489.803 675.495 499.079C659.415 523.252 655.895 525.754 632.327 504.323C627.759 500.167 622.879 495.744 618.318 491.513C614.723 488.094 604.656 479.281 604.577 474.733C604.075 445.746 644.408 481.564 651.994 487.216C657.762 480.423 666.971 466.601 672.482 458.954C683.589 443.365 695.15 428.107 707.157 413.202C712.98 405.887 722.226 392.932 730.645 389.436Z" fill="black"/>
<path d="M658.723 620.583C663.866 620.46 670.209 619.787 675.016 621.819C681.231 624.446 680.061 633.637 673.436 634.421C662.372 635.725 650.971 635.211 639.821 635.896C610.633 637.697 580.625 637.225 551.538 639.974C547.512 640.342 539.941 641.866 536.694 639.778C535.109 638.762 534.048 637.103 533.788 635.235C532.707 627.361 543.888 627.551 549.131 627.134C558.33 626.393 567.553 625.72 576.759 625.065C604.048 623.038 631.377 621.544 658.723 620.583Z" fill="black"/>
<path d="M621.09 666.439C625.573 666.262 637.733 665.38 640.709 668.184C646.03 673.217 643.391 679.763 635.406 680.198C626.858 680.663 618.831 680.908 610.558 681.226C592.509 681.863 574.466 682.665 556.432 683.633C550.6 684.073 539.877 686.363 534.912 682.812C530.799 679.867 534.852 673.027 539.727 672.299C547.926 671.068 556.045 670.67 564.28 670.064C583.2 668.594 602.14 667.388 621.09 666.439Z" fill="black"/>
<path d="M590.623 711.756C594.34 711.339 598.566 711.517 602.473 711.297C608.072 710.978 622.035 710.85 619.494 720.016C618.563 723.377 615.587 724.712 612.318 725.104C606.111 725.851 599.678 725.857 593.406 726.059C583.219 726.347 573.037 726.769 562.861 727.327C555.834 727.229 542.471 731.258 536.446 727.712C534.87 726.782 534.12 725.814 533.731 724.02C533.301 722.03 534.088 719.514 535.479 718.056C539.278 714.07 582.615 712.331 590.623 711.756Z" fill="black"/>
<path d="M864.114 685.426C870.813 684.869 882.808 683.455 883.004 693.27C883.714 729.567 885.159 765.895 883.714 802.211C883.487 807.869 884.596 825.693 881.461 829.636C876.189 832.428 863.875 831.975 857.379 832.036C850.937 832.092 842.824 833.408 838.36 828.136C835.74 819.515 834.772 696.46 837.987 690.006C843.289 685.181 856.203 685.953 864.114 685.426ZM849.064 819.49C852.952 819.735 856.025 819.882 859.92 819.852C863.52 819.588 867.745 819.435 871.229 818.707C871.639 804.599 870.5 790.038 870.262 775.87C869.845 751.439 870.194 727.124 870.807 702.705C870.837 700.924 870.764 699.601 869.772 698.144C866.404 696.895 862.896 697.378 859.326 697.776C856.025 698.021 851.176 698.113 848.225 699.215C846.492 708.755 848.451 739.842 848.574 752.284L848.659 795.445C848.666 802.64 848.378 812.498 849.064 819.49Z" fill="black"/>
<path d="M807.777 731.955C812.792 730.988 820.391 731.123 824.077 735.078C826.269 741.25 827.132 821.836 824.775 828.785C820.134 832.93 809.443 832.147 803.007 832.251C796.97 832.281 788.986 833.433 784.773 828.436C781.626 818.958 781.95 744.85 784.987 736.345C789.396 731.753 801.079 732.384 807.777 731.955ZM811.022 820.415C813.741 819.631 813.227 820.225 814.562 818.37C815.296 813.233 813.931 790.185 813.864 783.052C813.735 770.396 814.825 755.664 814.378 743.405C809.026 743.424 803.16 743.314 797.852 743.485C795.109 744.238 795.415 743.712 793.762 745.481C792.225 752.755 793.958 776.2 794.098 785.281C794.251 795.733 793.749 810.422 794.447 820.519C799.885 820.495 805.604 820.562 811.022 820.415Z" fill="black"/>
<path d="M756.471 763.801C763.611 764.009 768.185 764.089 768.87 772.453C769.862 784.478 769.005 797.722 769.293 809.491C769.875 833.273 770.689 832.514 748.083 832.532C742.333 832.465 735.683 832.924 735.096 825.288C733.761 808.37 734.618 791.018 734.471 774.026C734.367 762.209 747.819 764.211 756.471 763.801Z" fill="black"/>
</svg>
