<svg width="1254" height="1254" viewBox="0 0 1254 1254" fill="none" xmlns="http://www.w3.org/2000/svg">
<path d="M500.786 270.119C504.448 269.844 508.359 270.805 512.151 271.217C520.754 272.065 529.342 273.045 537.915 274.157C573.395 278.623 608.338 283.903 643.697 288.667L691.738 294.99C698.664 295.901 706.832 296.744 713.616 298.291C716.451 298.936 718.325 302.767 719.586 305.173C719.133 306.356 717.51 310.79 716.629 311.496C705.203 320.669 693.018 329.412 681.011 337.866C666.138 348.334 651.351 359.997 636.184 369.917C640.758 379.843 646.336 394.33 650.328 404.871C650.604 405.6 649.312 410.907 649.036 412.084C650.359 414.666 654.186 417.286 656.102 419.584C672.745 439.525 680.588 466.556 675.463 492.189C673.075 502.127 670.289 511.012 668.257 521.092C663.793 543.189 675.488 571.745 655.423 587.987C645.209 596.251 632.737 600.564 619.976 599.551C626.142 602.897 632.051 606.699 637.647 610.924C668.226 634.244 693.728 677.742 698.786 715.723L698.976 715.252C710.616 687.196 734.52 659.452 762.956 647.714C743.974 633.252 734.226 613.946 730.705 590.516C729.597 583.141 728.82 567.385 733.363 561.321C740.913 557.297 740.955 574.973 741.77 579.731C743.986 592.606 746.527 601.519 752.161 613.162C777.81 666.175 863.955 659.128 880.408 603.175C880.757 601.985 894.289 599.829 897.65 597.825C912.934 588.72 917.611 558.799 896.787 553.239C887.272 550.857 880.653 560.92 874.266 564.873C862.467 572.175 840.571 546.68 835.159 537.973C835.771 546.69 836.102 549.081 827.223 552.139C809.368 548.666 797.361 540.612 787.031 525.424C778.337 532.46 749.656 553.49 735.904 547.568C734.092 546.788 734.257 543.819 734.049 541.901C728.526 541.487 722.984 550.019 716.188 548.162C710.12 546.502 710.089 538.793 711.393 533.885C715.704 517.7 730.234 502.323 744.176 493.832C740.208 493.634 736.902 492.882 733.014 492.114C731.899 490.363 730.908 488.537 729.891 486.728C730.957 483.26 732.451 480.526 735.273 478.254C757.929 460.001 790.05 454.526 817.726 455.549C815.271 452.08 807.905 444.724 809.154 441.326C813.367 429.852 841.704 434.567 849.554 436.684C866.729 441.167 881.369 452.39 890.162 467.811C899.971 468.569 906.192 470.834 913.534 477.62C929.931 492.778 939.33 545.941 923.508 562.65C923.826 565.111 924.2 567.664 924.359 570.137C925.676 590.395 912.909 612.113 891.154 613.634C888.037 621.894 885.876 625.31 880.751 632.56C905.598 636.252 924.132 644.469 942.153 662.979C969.149 691.617 980.856 733.406 981.12 772.061C981.156 777.456 978.579 800.288 971.929 799.75C966.988 795.929 967.269 774.584 967.043 768.541C966.13 744.697 960.846 722.177 950.964 700.446C936.93 669.568 909.909 649.582 877.089 642.583C870.764 641.236 869.65 643.477 870.066 649.227C870.329 659.661 865.388 669.665 858.114 677.019C848.164 687.257 834.509 693.049 820.237 693.098C799.241 693.013 782.776 681.648 783.272 658.932C780.155 657.622 776.745 655.956 773.646 654.523C726.027 677.007 705.723 721.087 697.09 770.481C696.563 771.18 696.018 771.859 695.455 772.527C693.924 774.315 693.085 774.89 690.753 775.086C682.591 770.72 688.867 746.81 690.636 738.789C688.236 733.137 685.272 714.743 682.725 706.422C671.3 669.084 652.563 636.013 619.358 613.817C610.334 607.782 600.385 603.987 590.919 598.886C586.603 600.667 581.874 602.029 577.394 603.418C578.572 624.147 560.123 676.915 546.408 691.77C543.777 694.158 541.19 696.613 538.273 698.634C522.441 709.588 506.107 696.778 497.646 683.234C486.348 665.141 478.484 644.426 473.25 623.761C472.034 618.961 469.415 609.386 475.087 606.609C479.937 607.222 482.971 615.703 484.962 619.665C499.303 648.21 538.222 657.303 557.372 628.341C561.814 621.618 562.742 613.468 565.452 605.98C533.729 608.061 504.203 602.947 481.089 579.156C480.254 580.733 477.355 586.225 475.981 586.917C464.894 592.684 452.687 593.84 441.234 599.437C380.554 629.094 313.874 693.803 313.133 764.995C312.836 793.565 335.793 821.352 365.382 818.59C385.1 816.747 407.602 805.291 420.889 790.406C418.785 774.651 432.331 787.381 438.433 790.118C442.679 792.022 445.338 790.657 449.236 792.077C453.181 793.523 452.666 797.123 451.259 799.933C451.723 803.075 457.831 806.014 460.982 805.965C466.453 805.873 468.256 804.446 472.019 800.803C472.14 798.378 472.238 796.155 472.028 793.725C471.778 790.816 469.579 787.859 470.268 785.079C470.636 783.56 471.691 782.299 473.122 781.674C479.55 778.821 478.565 793.173 484.879 795.959C488.37 795.506 490.302 792.965 492.574 790.351C492.545 779.942 490.408 779.611 489.331 771.235C490.105 769.226 490.125 769.373 491.747 767.904C498.219 766.691 501.792 779.752 503.019 784.662L503.212 785.452C507.497 787.24 512.197 780.517 513.874 777.186C513.131 770.377 508.212 758.444 509.057 755.07C510.783 753.092 509.757 753.772 512.252 752.963C516.77 753.41 516.928 757.005 519.737 759.527C529.389 768.565 539.192 777.076 549.731 784.993C557.496 790.835 569.428 788.061 564.649 779.88C552.958 759.883 530.119 735.647 508.59 727.155C463.934 709.551 410.781 725.557 368.479 743.252C361.173 747.832 351.557 739.052 359.39 734.166C388.761 715.852 428.472 707.157 462.866 705.442C468.669 705.155 472.414 705.981 476.834 706.141C515.73 707.592 548.465 732.335 569.032 764.071C575.17 773.506 581.654 785.146 571.594 795.029C556.395 809.442 533.855 789.549 523.565 778.105C521.58 790.975 514.122 796.364 501.369 796.615C494.682 804.617 491.156 806.748 480.834 806.387C466.505 821.878 450.492 818.7 439.727 801.336C436.854 800.803 434.81 800.142 432.039 799.297C429.736 802.07 426.568 804.807 423.897 807.238C401.554 827.548 368.859 841.46 339.032 829.802C323.167 823.476 310.464 811.108 303.714 795.421C271.214 721.032 357.876 621.11 422.61 592.777C402.828 588.59 386.658 575.571 383.072 555.045C376.931 519.887 401.479 490.64 420.171 463.767C419.646 450.393 420.059 436.36 420.528 422.988C398.217 419.551 370.06 414.094 347.95 409.262C347.792 424.122 347.068 436.01 345.829 450.815C360.151 457.282 360.185 473.532 347.062 481.302C352.077 501.316 353.794 517.686 357.764 536.593L354.764 542.907C343.944 545.96 335.324 549.72 323.473 546.35C320.913 545.113 309.777 543.353 308.996 540.656C307.544 535.64 313.839 522.908 315.71 517.855L329.212 480.656C326.371 478.651 324.19 476.229 322.92 472.952C321.199 468.63 321.417 463.776 323.521 459.626C326.059 454.597 330.122 452.002 335.316 450.407C335.702 436.042 336.453 421.688 337.569 407.362C331.216 406.593 330.235 405.031 327.188 399.773L329.487 393.663L455.181 303.434C463.709 297.249 472.179 290.984 480.591 284.641C484.694 281.537 496.937 271.688 500.786 270.119ZM355.08 395.304C375.349 398.717 400.626 402.601 420.452 407.102C421.997 384.49 416.879 384.764 436.918 373.464C458.728 361.166 478.418 353.531 502.273 346.301C513.754 343.438 525.18 340.352 536.825 338.208C550.864 335.625 608.697 327.963 619.578 334.909C625.138 338.457 627.649 349.939 630.692 355.832C646.293 342.918 663.548 331.19 679.578 318.767C682.946 316.156 686.522 313.609 690.091 311.279C642.583 306.154 595.515 298.148 548.211 291.809C537.991 290.44 513.366 286.042 504.495 285.834C456.95 324.116 404.97 359.855 355.08 395.304ZM461.223 496.158C455.468 498.157 450.479 500.365 447.979 506.116C442.429 518.888 445.273 535.407 459.117 541.293C464.789 543.704 469.802 543.023 475.038 545.649C476.859 546.742 478.715 552.78 480.092 555.207C485.552 564.83 495.333 574.82 505.087 579.906C549.633 605.612 606.084 589.681 630.624 544.966C638.309 530.966 642.564 516.194 644.726 500.407C645.822 493.239 644.493 485.351 647.554 479.708C646.918 476.122 635.535 469.086 632.271 466.699C623.173 460.053 613.014 454.227 604.187 447.179C600.238 444.024 596.434 438.481 592.855 435.561C576.215 477.379 523.968 510.398 478.874 504.286C475.275 503.798 470.311 497.34 461.223 496.158ZM339.524 473.127C343.077 472.977 345.925 470.131 346.076 466.578C346.228 463.024 343.634 459.945 340.106 459.493C337.542 459.164 335.01 460.308 333.562 462.449C332.114 464.591 331.995 467.366 333.256 469.623C334.516 471.881 336.94 473.236 339.524 473.127ZM801.341 672.684C804.99 675.654 807.415 677.521 812.228 678.409C831.926 682.04 847.79 672.231 855.842 654.805L855.475 654.137C837.694 663.414 814.916 666.126 795.328 662.104C796.89 667.204 797.477 668.765 801.341 672.684ZM586.751 348.665C531.26 352.299 484.589 364.35 434.579 389.532C435.321 410.807 434.855 428.133 434.693 449.363C446.068 444.051 456.372 440.259 468.212 436.014C514.942 418.813 583.241 402.849 632.614 402.123C624.74 385.413 618.109 365.573 610.996 348.303C606.281 348.286 590.851 347.992 586.751 348.665Z" fill="black"/>
<path d="M847.123 747.9C854.832 747.453 893.297 748.536 896.873 751.806C903.541 757.892 921.904 809.926 924.959 819.343L924.187 821.413C921.169 829.404 918.046 843.566 916.172 852.2L916.674 852.353C930.304 856.437 942.557 863.362 936.893 879.515C935.436 880.733 932.374 883.366 930.709 883.795C916.57 887.438 900.24 889.832 885.906 892.11C848.647 898.025 811.279 903.241 773.824 907.748C755.063 910.075 736.253 912.083 717.522 914.52C715.949 914.728 707.872 919.841 703.299 920.98C683.797 925.848 647.23 930.673 629.497 921.219C575.098 924.635 436.694 944.756 393.023 920.539C386.932 917.165 384.811 913.791 382.92 907.338C383.417 905.188 384.137 902.121 385.154 900.217C392.871 885.791 419.82 877.329 434.748 872.914C433.424 865.407 431.65 858.139 430.019 850.773C429.266 845.887 425.863 838.037 430.911 834.51C434.055 832.312 436.486 832.214 439.816 831.302C505.867 813.214 583.894 809.791 643.28 849.016C646.862 851.379 665.146 864.378 655.367 868.75C650.714 868.573 642.876 862.609 638.241 859.841C589.403 830.696 531.678 826.342 476.472 834.682C462.599 836.776 451.834 838.417 438.141 842.084C442.389 852.053 448.698 869.595 447.506 880.268C450.632 879.729 453.767 879.245 456.91 878.829C508.762 872.038 563.067 872.21 613.774 886.06C622.407 888.417 637.984 893.377 644.989 898.772C646.238 898.6 649.55 891.252 652.545 889.275C667.46 879.41 688.83 879.178 699.943 894.853C703.641 893.536 707.915 890.542 711.644 888.742C718.508 885.429 726.297 881.841 733.467 879.398C783.1 862.499 851.158 854.079 903.045 861.047C902.567 848.905 906.743 837.015 910.741 825.65C895.764 824.175 883.837 821.964 868.002 821.064C823.053 818.884 778.165 826.403 736.381 843.113C725.789 847.46 715.434 852.371 705.368 857.839C700.862 860.245 694.432 865.15 690.269 866.258C687.795 865.781 688.775 866.344 687.091 864.801C686.087 860.19 694.377 854.269 697.788 851.881C741.029 821.572 796.057 808.922 848.262 807.899C869.178 807.489 889.286 810.251 909.823 813.306C906.051 804.636 891.754 769.734 890.382 761.891C824.094 754.47 760.096 767.561 703.366 802.297C698.339 806.007 692.479 805.671 690.661 812.21C688.217 821.003 677.116 862.817 671.287 865.481C661.276 861.678 678.047 818.437 681.115 810.71C655.833 792.714 628.879 786.059 599.143 781.619C597.591 781.393 596.135 779.715 595.463 778.343C595.685 775.104 598.115 773.212 601.252 773.292C632.639 774.1 664.889 782.385 689.087 803.179C689.761 802.346 690.459 801.525 691.181 800.729C697.224 794.086 707.97 787.473 715.851 782.96C755.969 760.017 801.218 749.596 847.123 747.9Z" fill="black"/>
</svg>
