<svg width="1254" height="1254" viewBox="0 0 1254 1254" fill="none" xmlns="http://www.w3.org/2000/svg">
<path d="M493.661 244.561C503.971 243.632 520.815 245.266 530.854 247.18C557.538 252.269 582.651 263.907 598.3 286.847C603.634 288.072 607.129 288.985 612.2 291.07C634.011 299.899 651.302 317.196 660.132 339.007C668.006 358.491 668.955 380.088 662.826 400.189C658.08 416.118 653.696 423.559 654.37 441.443C654.976 457.338 659.648 470.569 665.312 485.219C677.643 517.126 682.94 548.886 669.096 581.299C661.999 597.916 652.074 613.426 634.586 620.583C638.499 623.718 642.338 626.939 646.085 630.264C649.031 625.757 651.118 622.733 655.754 619.573C659.054 617.295 662.85 615.832 666.83 615.318C680.785 613.548 709.477 616.285 724.583 616.622C739.652 617.681 755.155 617.424 770.065 619.885C781.894 621.839 791.061 633.35 789.34 645.174C785.783 669.66 777.008 693.638 771.044 717.658C806.338 741.244 798.525 774.027 790.699 810.159C814.616 855.611 811.604 916.229 777.939 956.09C794.006 958.557 816.508 962.164 829.097 972.891C831.84 975.23 833.634 977.857 833.855 981.543C834.081 985.37 832.269 988.811 829.709 991.548C806.711 1016.16 694.157 1020.09 661.136 1020.88C647.518 1021.81 629.382 1021.6 615.611 1021.6C580.907 1021.56 546.21 1020.56 511.561 1018.59C469.363 1016.44 427.219 1013.34 385.162 1009.27C367.184 1007.56 346.628 1005.74 328.771 1003.35C304.757 999.894 283.079 987.103 268.453 967.748C239.682 929.681 238.616 871.677 239.958 826.042C240.582 801.207 242.531 776.421 245.796 751.794C251.407 710.617 260.859 666.17 289.529 634.293C295.725 627.398 301.486 622.892 308.735 617.375C303.41 615.097 296.893 611.864 292.707 607.968C257.746 575.426 264.554 521.444 293.653 487.44C304.919 474.275 315.558 462.555 321.887 446.416C327.711 431.588 330.652 414.749 332.94 399.058C342.353 334.497 378.099 278.669 441.243 255.595C459.212 249.03 474.544 245.97 493.661 244.561ZM418.348 782.293L417.513 782.697C393.429 794.619 365.034 826.906 344.692 844.797C338.105 851.196 332.018 858.231 325.335 864.501C322.672 866.999 317.046 866.65 315.558 862.775C313.298 856.884 318.954 851.655 322.547 847.693C334.907 834.057 348.25 821.407 361.693 808.861C360.768 786.328 360.436 762.804 360.703 740.209C360.753 735.948 362.379 731.992 367.108 731.478C369.178 732.115 370.305 733.015 371.352 734.882C375.683 742.591 375.685 785.471 375.706 796.988C382.393 790.951 389.392 785.238 396.629 779.875C405.833 773.054 412.567 767.922 424.441 768.498L425.498 768.547C450.513 732.292 481.941 695.052 523.965 678.967C545.928 671.276 585.636 662.661 607.109 670.921C626.302 678.312 615.948 704.861 595.781 708.07C584.689 709.839 567.808 714.468 557.217 717.713C575.117 733.499 585.119 757.972 562.767 775.68C561.71 784.522 559.199 791.894 551.816 797.638C550.758 798.452 549.684 799.248 548.594 800.019C546.735 808.23 544.466 813.962 536.859 818.915C531.319 822.509 524.56 823.716 518.118 822.258C515.366 821.664 513.641 820.991 511.098 819.864C504.99 829.9 500.075 834.97 490.151 841.356C501.206 857.405 489.921 872.192 480.531 886.091C459.766 916.829 435.187 950.328 406.937 974.667C475.873 976.094 558.495 969.401 626.173 955.355C624.606 920.447 627.196 883.623 627.092 848.777C609.738 846.904 591.582 844.118 595.049 820.574C597.351 804.936 602.444 788.594 606.44 773.207C613.645 745.622 620.993 718.081 628.475 690.576C632.217 676.793 637.207 660.261 640.372 646.551C615.341 621.067 591.951 615.654 557.641 610.195C551.623 627.178 538.271 640.343 521.986 647.837C472.812 670.462 409.102 648.964 374.623 609.486C374.188 608.988 371.983 609.31 371.372 609.414C321.128 617.522 286.791 650.17 273.008 698.64C255.033 761.854 249.395 835.227 258.016 900.327C264.414 948.638 297.012 995.841 350.911 986.184C400.769 976.394 437.472 919.694 465.812 881.48C469.691 876.172 479.736 861.599 480.579 856.027C479.712 853.614 477.739 852.757 475.177 851.729C450.806 841.926 430.734 820.434 421.798 795.268C420.307 791.037 419.153 786.702 418.348 782.293ZM396.924 610.645C420.352 631.893 451.372 642.498 482.802 642.369C495.684 641.941 507.487 639.436 519.032 633.595C521.906 632.138 525.745 630.895 527.253 627.907L526.983 627.117C524.54 626.817 522.732 626.547 521.351 624.38C517.062 617.638 518.038 602.915 519.058 595.396C492.238 594.61 469.514 582.25 451.377 562.953C448.754 560.162 445.773 557.035 446.055 552.896C446.154 551.437 446.746 550.178 447.827 549.184C448.957 548.145 450.311 547.735 451.824 547.914C456.058 548.415 466.681 558.291 471.037 561.167C501.174 581.065 539.504 584.688 570.272 564.024C598.394 545.138 611.151 515.818 617.356 483.506C621.777 460.458 630.239 396.545 617.662 377.95C609.944 366.544 597.814 360.333 587.877 351.31C585.397 349.059 583.303 346.223 581.205 343.611C579.524 341.52 577.443 337.874 575.402 336.33C546.242 372.025 503.991 399.089 460.883 414.716C451.741 417.546 423.536 428.305 415.802 421.318C409.15 415.308 404.953 404.913 392.462 406.633C352.868 412.084 363.756 474.811 398.087 480.183C403.047 480.959 412.548 477.563 416.096 482.343C420.771 493.914 424.295 515.023 425.689 527.095C428.356 548.376 426.888 569.972 421.365 590.696C418.125 602.64 416.403 609.158 402.941 610.234C400.937 610.39 398.931 610.527 396.924 610.645ZM432.654 782.018C439.131 803.393 452.212 823.25 472.31 833.972C473.177 834.437 474.053 834.884 474.938 835.319C488.351 827.359 500.137 818.811 504.73 803.105C505.885 799.162 506.762 790.712 513.246 792.188C517.428 796.15 516.45 803.289 516.075 808.518C532.799 816.999 545.061 798.874 528.988 782.636C521.404 775.956 510.52 772.38 508.783 765.112C510.192 759.626 518.372 761.769 522.056 763.587C532.708 768.847 540.09 775.386 545.932 785.728C558.949 770.476 542.978 757.06 530.659 748.292C526.459 745.304 514.69 740.822 518.435 734.478C530.681 726.457 554.384 751.911 559.693 762.454C571.264 746.59 556.929 732.152 544.372 723.034C540.024 719.881 530.227 716.213 528.49 711.462C528.534 701.646 540.943 707.616 545.453 709.711C551.857 706.606 556.988 704.855 565.382 702.13C577.887 698.071 597.803 699.601 605.805 687.87C606.539 686.798 605.207 683.988 604.314 683.032C599.79 678.201 582.399 679.138 576.552 679.916C523.179 684.484 494.948 703.018 461.488 742.708C451.02 755.162 441.388 768.296 432.654 782.018ZM703.532 715.27C700.464 715.828 695.786 717.371 694.023 720.175C693.22 721.448 693.178 722.759 693.606 724.161C694.806 728.08 699.344 730.872 702.828 732.482C713.31 737.319 754.341 746.786 757.396 757.47C757.843 759.038 757.39 760.477 756.521 761.799C755.645 763.146 754.439 763.746 752.865 763.826C746.718 764.126 735.543 760.03 729.059 758.677C716.782 756.111 676.811 750.704 667.743 760.036C666.304 761.518 665.655 763.446 665.722 765.492C665.795 767.475 666.242 769.092 667.804 770.421C677.062 778.319 736.951 778.27 739.664 791.588C740.001 793.241 739.443 794.141 738.574 795.458C736.314 796.774 735.084 796.982 732.194 796.903C724.203 796.67 647.261 773.298 660.26 799.015C664.185 806.773 709.636 811.745 720.162 821.223C720.689 823.269 721.074 824.052 720.425 826.171C718.992 827.787 718.105 828.498 715.9 828.681C704.922 829.612 667.712 812.198 660.983 819.558C659.636 821.034 659.213 823.287 659.593 825.197C660.566 830.016 667.945 833.757 671.949 835.864C678.017 839.066 700.825 847.418 702.485 852.898C702.877 854.214 702.485 855.531 701.64 856.578C700.574 857.888 697.776 858.488 697.635 860.295C697.384 863.497 700.574 866.865 702.662 869.008C708.987 875.498 716.023 879.399 725.305 879.454C734.882 879.515 743.105 875.186 749.7 868.512C767.897 850.081 784.84 791.098 784.54 765.228C784.417 754.329 781.35 743.351 773.371 735.538C758.645 721.136 726.836 714.731 706.961 715.16C705.816 715.185 704.671 715.221 703.532 715.27ZM640.428 933.624C658.576 954.602 677.356 967.338 705.375 969.738C774.755 975.671 803.393 898.251 788.452 841.209C787.607 837.982 786.199 832.814 784.417 830.065C776.212 852.476 766.685 879.803 743.319 890.622C732.898 895.374 721.001 895.729 710.316 891.596C696.282 886.214 685.481 873.331 681.813 858.85C678.237 866.84 675.568 875.204 673.841 883.789C673.021 888.02 672.121 900.75 667.675 902.091C658.289 904.907 658.993 892.992 659.623 887.279C660.75 874.169 664.418 861.195 670.596 849.837C660.774 849.61 650.953 849.304 641.138 848.912L640.96 878.915C640.587 897.149 640.415 915.384 640.428 933.624ZM537.372 618.851C539.517 615.973 541.538 613.273 543.529 610.28C540.005 609.939 535.427 609.611 532.034 609.056C532.112 611.709 531.852 620.786 532.673 622.451L533.457 622.757C535.353 621.447 535.918 620.59 537.372 618.851ZM670.431 628.972C666.114 630.405 660.946 632.879 659.066 637.25C655.974 644.469 653.702 653.917 651.627 661.541L637.758 714.572L618.715 786.089C615.586 797.846 612.184 809.608 609.489 821.426C608.627 825.203 609.657 831.382 613.707 832.484C624.93 835.545 640.25 834.755 651.816 835.111C645.173 825.412 645.828 818.921 653.151 809.718C642.803 798.189 643.679 785.698 657.59 777.572C654.56 773.17 653.941 771.755 653.035 766.49C655.815 744.183 676.903 741.361 695.664 742.432C690.294 739.23 682.915 734.533 682.04 728.018C676.719 688.5 741.139 705.994 757.598 711.982C762.025 697.483 766.201 682.904 770.126 668.258C772.294 660.236 781.95 634.452 767.726 633.595C736.541 631.715 701.523 628.372 670.431 628.972Z" fill="black"/>
<path d="M502.48 500.342C510.272 501.71 511.293 509.691 521.383 514.257C533.019 519.523 543.367 513.174 550.014 518.055C552.674 522.769 549.15 526.319 545.329 528.738C538.437 531.13 531.001 531.477 523.917 529.737C515.702 527.717 495.046 516.883 497.57 504.513C497.981 502.5 500.592 501.103 502.48 500.342Z" fill="black"/>
<path d="M509.048 422.487C521.637 421.735 519.641 436.444 518.455 444.84C517.408 452.251 516.402 459.93 510.131 464.624C494.373 465.663 500.125 445.622 501.336 436.171C502.084 430.335 504.123 425.764 509.048 422.487Z" fill="black"/>
<path d="M581.667 431.014C591.992 430.664 592.333 440.389 591.343 448.285C590.283 456.747 589.312 467.081 582.352 472.694C567.589 473.239 572.958 454.139 574.139 445.047C574.86 439.498 576.886 434.18 581.667 431.014Z" fill="black"/>
<path d="M679.921 643.011C682.107 642.993 683.601 642.975 685.677 643.771C688.285 644.769 690.318 646.863 691.243 649.496C694.604 658.797 688.567 669.855 679.376 673.504C666.12 673.033 665.807 663.034 670.094 652.459C672.2 647.248 674.674 644.903 679.921 643.011Z" fill="black"/>
<path d="M883.244 236.633C886.207 236.551 889.177 236.494 892.14 236.463C918.721 236.256 945.901 236.159 972.456 237.293C988.946 237.997 1011.2 238.781 1023.61 251.135C1028.09 255.503 1031.48 260.864 1033.49 266.783C1039.2 283.362 1039.61 330.185 1039.7 349.101C1039.91 389.914 1039.18 430.727 1037.51 471.506C1036.53 492.551 1035.74 513.874 1031.2 534.601C1027.66 550.766 1015.07 564.854 998.712 568.762C985.468 571.924 968.85 572.029 955.036 572.506C915.977 573.857 876.772 573.567 837.682 573.637L832.802 577.408C821.836 585.409 791.367 610.785 779.77 611.69C776.598 611.938 773.157 611.316 770.769 609.07C764.487 603.157 766.74 580.255 766.753 571.424C751.372 570.069 736.897 569.544 724.51 558.911C708.21 544.911 709.943 518.96 708.835 498.95C707.763 479.614 708.608 457.912 708.927 438.41L709.71 374.054C710.292 343.408 709.98 309.473 714.186 279.193C720.358 234.746 766.257 238.882 800.589 238.255C828.142 237.935 855.696 237.394 883.244 236.633ZM780.266 597.63C798.213 588.276 814.757 570.543 832.471 560.459C833.69 559.766 837.204 559.23 838.705 559.057L920.931 557.989C935.241 557.978 949.55 557.708 963.847 557.182C985.333 556.454 1011.22 557.785 1017.21 531.3C1020.65 516.081 1021.89 499.292 1022.62 483.696C1025.6 420.162 1027.36 356.092 1023.58 292.566C1022.38 272.322 1016.81 256.259 994.022 253.851C977.496 251.98 961.012 251.759 944.272 251.651C919.927 251.539 895.575 251.636 871.23 251.942C835.778 253.412 800.16 252.574 764.603 254.521C745.548 255.564 731.821 261.31 728.086 282.305C725.649 297.351 725.171 312.798 724.712 328.024C724.087 347.466 723.671 366.914 723.463 386.365C722.918 429.906 721.932 473.355 723.873 516.951C724.522 538.693 730.235 552.826 753.955 555.715C760.14 556.468 773.935 556.65 777.505 560.652C782.25 565.975 779.923 590.46 780.266 597.63Z" fill="black"/>
<path d="M952.892 274.587C955.048 274.509 957.209 274.499 959.364 274.556C986.851 275.144 985.161 286.223 985.945 309.381C986.251 318.463 986.202 327.676 986.171 336.771C986.11 360.705 985.816 384.636 985.289 408.564C984.989 421.47 984.922 436.087 982.969 448.859C981.848 456.212 974.678 459.234 967.814 459.943C952.066 461.566 935.919 461.574 920.024 461.984C879.606 463.122 839.163 463.027 798.751 461.702C790.632 461.426 774.969 462.081 768.576 457.454C765.282 455.07 764.707 451.88 764.388 447.965C762.851 429.37 763.745 410.071 763.953 391.473C764.107 373.399 764.517 355.328 765.184 337.267C765.576 325.173 765.864 312.925 767.621 300.946C768.374 294.731 773.836 288.361 780.247 287.393C836.689 278.871 896.132 277.723 952.892 274.587ZM776.506 404.47C790.723 389.664 806.698 369.045 829.476 375.082C845.482 381.988 856.718 393.999 869.496 405.667C897.779 377.129 934.456 311.454 971.157 369.646C971.317 357.681 973.276 298.019 970.325 290.629C965.567 286.958 947.963 288.267 941.559 288.743C906.308 290.073 871.076 291.876 835.875 294.151C820.402 295.173 804.004 295.329 788.727 297.896C785.99 298.356 782.292 298.983 780.253 300.993C775.74 305.428 776.812 393.077 776.506 404.47ZM817.775 385.853C801.524 391.333 788.201 409.723 776.61 422.02C776.647 430.387 776.677 438.513 777.045 446.874C785.403 448.376 798.432 448.158 807.256 448.204C821.92 448.265 836.591 448.248 851.256 448.15C861.408 448.116 882.477 447.347 891.392 448.027C880.322 435.93 837.387 386.593 821.706 385.754C820.402 385.684 819.079 385.773 817.775 385.853ZM912.18 447.531C921.518 447.349 961.183 447.118 967.937 444.79C971.182 441.146 970.392 403.546 970.594 396.903C970.821 389.483 955.642 368.216 949.561 363.134C945.367 359.626 942.636 357.799 936.832 358.242C921.744 362.272 888.692 401.308 877.983 414.74C887.014 424.444 899.456 437.146 907.147 447.522L912.18 447.531Z" fill="black"/>
<path d="M864.28 312.419C878.425 311.351 890.744 321.977 891.767 336.125C892.789 350.273 882.123 362.558 867.973 363.533C853.883 364.503 841.668 353.897 840.652 339.814C839.635 325.732 850.203 313.481 864.28 312.419ZM868.615 351.891C876.282 350.546 881.486 343.334 880.347 335.63C879.202 327.926 872.13 322.533 864.403 323.47C859.21 324.099 854.777 327.494 852.812 332.336C850.846 337.178 851.667 342.704 854.949 346.768C858.237 350.833 863.466 352.795 868.615 351.891Z" fill="black"/>
<path d="M868.304 483.237C881.769 482.58 894.388 485.32 899.917 499.635C902.691 506.805 900.971 513.656 897.78 520.355C899.256 524.449 902.795 531.055 899.244 534.511C893.813 535.916 888.596 532.413 883.624 532.175C882.277 532.724 880.899 533.198 879.503 533.593C872.137 535.665 863.51 534.817 856.885 530.9C851.282 527.58 847.284 522.106 845.833 515.757C844.155 508.784 845.416 501.428 849.329 495.416C853.872 488.447 860.448 485.02 868.304 483.237ZM875.486 524.35C879.252 522.921 882.142 521.491 886.061 522.687C886.061 522.687 887.555 522.948 887.549 522.948C888.651 520.81 887.09 519.077 889.637 514.309C895.735 502.887 883.336 492.017 871.641 493.053C861.942 495.019 853.15 501.7 855.421 512.678C856.272 516.709 858.807 520.182 862.389 522.215C866.596 524.647 870.741 524.883 875.486 524.35Z" fill="black"/>
<path d="M790.572 492.253C794.356 487.757 797.785 484.742 803.798 483.992C812.37 482.922 818.554 489.469 818.713 497.72C818.909 508.047 811.941 514.749 805.402 521.575C793.738 532.863 792.678 539.05 778.871 525.685C768.027 515.189 751.109 495.316 772.062 484.495C781.651 483.558 784.204 485.265 790.572 492.253Z" fill="black"/>
<path d="M972.48 481.364C982.645 480.195 975.891 494.697 973.754 499.392C969.792 508.097 964.925 528.27 959.053 534.848C951.693 536.892 949.39 525.703 947.431 520.295C946.28 517.556 944.792 514.628 943.494 511.928C939.042 509.688 928.003 504.645 925.088 501.32C924.653 499.77 924.549 498.707 925.278 497.202C927.243 493.166 966.168 483.149 972.48 481.364ZM938.191 499.934C942.233 501.76 949.99 504.504 952.176 508.001C953.695 511.93 955.256 516.248 956.867 520.102C958.697 514.897 965.586 496.644 966.37 492.595L965.482 492.391C956.818 494.896 946.886 497.999 938.191 499.934Z" fill="black"/>
</svg>
