<svg width="1254" height="1254" viewBox="0 0 1254 1254" fill="none" xmlns="http://www.w3.org/2000/svg">
<path d="M694.292 294.78C705.749 293.201 737.135 294.254 745.897 301.803C750.924 306.138 754.108 311.827 756 318.086C763.691 343.533 768.198 371.345 773.194 397.453C781.368 438.399 789.236 479.404 796.804 520.466C825.638 524.229 848.599 530.887 872.363 548.821C902.188 571.283 921.819 604.715 926.907 641.707C932.387 683.264 918.965 717.664 894.038 749.938C898.796 754.604 902.837 758.627 907.295 763.605C909.266 763.605 911.293 763.556 913.253 763.733C928.952 765.154 981.837 819.208 993.158 832.054C1001.4 841.398 1014.48 856.712 1013.36 870.176C1012.53 880.09 1005.48 887.425 998.32 893.573C990.844 899.989 983.208 903.486 973.963 906.566C969.462 908.06 964.943 909.946 960.278 910.833C941.082 914.495 918.212 910.319 898.643 908.66C884.535 907.472 870.367 907.202 856.241 906.143C836.329 904.649 777.749 900.118 765.13 884.443C763.532 882.459 762.638 880.065 762.993 877.506C763.63 872.834 767.561 869.068 771.216 866.49C799.505 846.523 867.164 848.384 900.749 853.944C891.265 843.915 881.572 834.387 871.983 824.498C866.24 818.571 863.944 815.436 864.182 807.483C858.702 802.7 853.663 797.594 848.501 792.481C847.46 795.347 845.617 799.553 844.025 802.149C831.185 823.053 793.443 833.426 770.965 838.943C758.597 842.237 744.03 845.035 731.398 847.411C671.478 858.261 611.455 868.566 551.344 878.332C533.919 881.143 516.478 883.861 499.022 886.482C474.471 890.125 425.481 898.563 409.989 868.309C404.525 857.636 401.128 833.395 398.72 820.653C394.302 797.514 390.1 774.338 386.115 751.126C382.771 750.869 379.445 750.41 376.157 749.754C359.16 746.197 346.473 733.283 350.941 714.963C354.115 701.94 363.947 693.312 374.948 686.62C373.707 679.107 372.322 672.488 371.367 664.846C363.846 664.356 358.177 663.903 351.215 660.64C331.905 651.602 329.674 631.237 342.016 615.323C347.351 608.446 352.298 605.119 359.71 600.68C358.054 592.138 356.465 583.583 354.943 575.016C349.105 574.933 343.3 574.132 337.659 572.629C328.215 570.028 318.544 564.927 313.732 556.01C310.263 549.619 309.531 542.097 311.7 535.158C316.391 519.658 328.958 511.881 342.182 504.811C340.408 496.879 338.297 483.845 337.16 475.863C310.894 473.911 281.785 457.39 300.464 425.951C308.973 411.629 327.95 404.488 343.771 401.248C341.896 390.422 334.719 360.466 341.67 353.637C355.908 339.649 400.324 335.065 418.839 332.085C447.998 327.288 477.216 322.844 506.483 318.753C567.353 310.006 633.209 298.507 694.292 294.78ZM356.111 399.933C369.96 399.967 386.732 401.305 397.099 411.52C402.246 416.291 408.69 428.748 396.731 429.447C395.351 429.528 390.608 424.149 389.594 423.038C381.28 413.926 370.187 412.953 358.662 413.138C362.771 440.882 369.746 470.282 373.393 497.114C388.147 495.887 416.73 498.719 421.318 518.702C422.16 522.369 418.115 524.6 414.743 524.917C411.345 523.458 408.659 520.162 405.782 517.635C397.586 510.438 386.707 509.134 376.296 510.011C377.324 520.518 380.445 534.483 382.465 545.054L390.855 590.438C404.658 588.509 418.276 589.44 430.055 597.697C436.115 601.944 443.621 613.529 431.332 615.158C428.476 614.049 425.01 610.941 422.444 608.919C413.765 602.084 403.825 602.381 393.382 603.134C397.649 626.632 402.121 651.535 406.817 674.9C421.335 673.59 434.634 672.469 447.166 681.433C457.562 688.873 452.103 703.764 442.206 695.516C438.445 692.381 439.704 691.8 434.144 689.112C425.755 686.528 418.055 686.191 409.349 687.746C416.588 732.879 426.424 779.641 435.256 824.56C447.495 814.04 461.514 813.759 476.783 810.654C495.05 806.95 513.615 804.354 531.989 801.249C563.851 795.61 595.769 790.295 627.735 785.299C636.252 783.964 645.4 782.139 653.837 781.025C629.29 755.455 615.856 726.824 616.579 690.949C616.824 682.346 617.785 673.902 619.732 665.52C620.877 660.566 623.234 654.798 624.153 650.004C639.185 571.158 705.681 522.191 783.517 520.176L761.934 408.456C756.747 381.501 751.573 353.131 744.152 326.727C743.013 322.677 740.038 314.602 736.799 312.38C730.02 307.73 702.889 307.376 694.721 308.247C677.215 309.354 659.74 310.946 642.314 313.02C589.796 319.707 537.367 327.086 485.04 335.157C463.204 338.305 441.392 341.625 419.607 345.117C403.244 347.705 386.783 350.332 370.601 354.045C366.07 355.085 357.146 357.546 353.542 360.662C351.283 362.614 351.182 368.382 351.535 371.326C352.667 380.768 354.521 390.499 356.111 399.933ZM331.984 418.155C314.966 425.695 294.419 444.436 318.904 458.39C324.746 461.088 327.954 461.561 334.349 462.503C332.684 452.848 330.326 441.63 330.323 431.836C330.322 429.297 332.1 421.678 332.74 418.736C332.488 418.542 332.236 418.348 331.984 418.155ZM473.244 846.125C527.942 838.318 583.708 828.466 638.371 819.802C651.615 817.726 664.853 815.577 678.079 813.354C684.465 812.289 695.376 810.14 701.548 809.662C691.788 806.037 683.069 802.321 674.258 796.62C672.935 795.769 668.245 792.377 667.278 791.918L517.621 816.679C497.47 820.176 476.595 823.286 456.645 827.682C449.563 829.244 439.679 834.565 441.343 842.812C443.314 852.579 467.323 847.086 473.244 846.125ZM860.129 779.084C864.562 783.474 869.797 788.415 873.998 792.94C876.502 792.389 894.155 774.828 897.345 771.742C893.598 768.191 888.301 763.47 884.872 759.796C875.926 767.499 870.116 772.685 860.129 779.084ZM357.528 649.269C361.647 650.873 364.324 651.467 368.819 651.798C368.113 647.469 363.235 616.352 361.789 614.729C349.501 624.575 338.983 639.013 357.528 649.269ZM374.042 735.726C378.062 736.847 379.508 737.251 383.705 737.686C382.183 726.793 379.886 712.202 377.537 701.462L376.731 700.935C364.811 710.971 354.103 726.768 374.042 735.726ZM779.072 794.336C896.279 786.456 966.192 649.312 871.101 564.537C844.895 541.175 805.903 530.407 771.069 533.535C770.604 533.574 770.139 533.624 769.673 533.686C730.112 537.185 693.496 556.057 667.694 586.25C613.468 650.757 627.227 745.064 705.767 781.809C726.414 791.465 755.645 796.859 778.399 794.416L779.072 794.336ZM352.357 561.837C351.099 552.589 349.312 543.076 347.736 533.859C347.116 530.239 345.93 522.084 344.865 518.855L344.05 518.504C332.952 525.006 325.035 530.548 323.184 544.327C326.084 552.367 328.363 554.595 336.288 558.641C342.258 560.819 346.013 561.275 352.357 561.837ZM911.52 776.733C906.572 780.376 884.835 800.729 880.457 805.517C886.893 815.467 959.99 888.154 970.301 892.764C980.153 892.336 989.05 884.437 995.405 877.463C998.216 874.377 1000.26 870.954 1000.1 866.662C999.575 852.364 952.465 809.24 941.265 799.247C935.198 793.84 919.106 778.006 911.52 776.733Z" fill="black"/>
<path d="M655.037 376.818C660.743 376.178 666.475 377.451 668.207 383.798C671.398 397.327 674.514 412.644 676.743 426.276C678.61 437.708 688.113 469.92 683.956 478.85C679.364 483.057 663.487 484.808 656.629 485.934L624.838 491.206C596.529 495.933 568.18 500.399 539.791 504.604C519.891 507.535 499.364 510.19 479.58 513.504C474.208 514.94 471.259 512.272 467.846 508.601C460.498 480.091 455.965 448.88 450.017 419.983C449.308 416.541 448.861 410.597 451.164 407.719C452.519 406.05 454.304 404.781 456.325 404.049C461.603 402.193 493.416 397.624 500.98 396.453C552.144 388.516 603.514 381.969 655.037 376.818ZM462.174 415.698C466.168 443.38 473.71 473.082 478.931 500.722L484.026 499.888C525.935 493.737 567.789 487.217 609.584 480.329C628.591 477.3 654.424 474.062 672.494 470.095L656.61 389.923C655.08 389.994 651.687 390.057 650.291 390.289C617.288 393.705 584.334 397.656 551.454 402.139C523.173 405.831 490.04 410.219 462.174 415.698Z" fill="black"/>
<path d="M618.336 550.09C633.398 548.641 630.074 561.424 623.859 562.418C610.516 564.554 596.935 566.655 583.588 568.994C553.473 574.218 523.489 580.17 493.661 586.844C482.835 589.772 478.578 577.75 491.118 574.244C499.344 571.945 507.591 570.635 515.882 568.775C549.791 561.284 583.965 555.052 618.336 550.09Z" fill="black"/>
<path d="M585.165 608.828C597.346 607.579 597.419 619.101 589.426 620.962C579.272 623.326 567.787 625.089 557.432 626.975C539.618 630.337 521.827 633.827 504.063 637.44C491.881 639.583 491.383 628.09 499.145 625.549C505.727 623.393 515.737 621.734 522.778 620.283C543.455 615.85 564.261 612.028 585.165 608.828Z" fill="black"/>
<path d="M564.491 663.941C576.827 661.908 580 671.57 571.08 675.697C568.542 676.873 555.207 678.697 551.316 679.389C539.097 681.649 526.89 683.963 514.695 686.345C512.23 686.927 509.729 687.453 507.371 686.229C505.623 685.322 504.044 683.669 503.569 681.716C503.203 680.216 503.559 678.826 504.518 677.632C508.84 672.256 555.032 665.551 564.491 663.941Z" fill="black"/>
<path d="M775.435 559.909C800.282 557.608 829.856 567.023 849.627 582.481C893.683 616.915 900.063 678.311 864.586 721.595C840.939 750.44 812.32 763.121 775.551 767.132C663.524 770.646 622.083 649.147 709.924 582.592C728.826 568.269 751.989 561.566 775.435 559.909ZM776.377 753.992C805.695 752.1 833.046 738.604 852.383 716.494C878.271 686.62 882.802 645.375 860.226 612.123C842.77 586.417 806.552 569.242 775.557 572.759C744.697 575.129 718.711 586.422 698.419 610.057C667.571 645.993 665.838 699.888 703.789 731.398C722.605 747.017 751.206 756.171 775.496 754.071L776.377 753.992Z" fill="black"/>
<path d="M782.091 604.188C787.437 604.512 791.221 608.738 789.322 611.415C780.652 623.65 760.262 646.575 750.882 656.543C742.628 665.311 726.384 686.362 719.55 690.691C716.973 690.545 714.303 690.361 712.631 688.071C711.707 686.791 711.786 684.997 712.135 683.534C713.323 678.556 775.925 607.963 782.091 604.188Z" fill="black"/>
<path d="M805.253 623.277C809.527 623.155 813.666 624.471 813.066 629.945C812.889 631.568 810.256 634.739 809.086 636.08C799.02 647.677 788.537 658.956 778.404 670.492C772.581 676.848 759.092 693.38 753.128 698.156C749.521 698.382 747.874 698.333 745.529 695.456C744.5 692.394 745.131 690.159 747.17 687.685C763.041 668.453 780.29 650.292 796.84 631.635C799.485 628.653 802.112 625.732 805.253 623.277Z" fill="black"/>
</svg>
