<svg width="1455" height="1465" viewBox="0 0 1455 1465" fill="none" xmlns="http://www.w3.org/2000/svg">
<path d="M467.358 915.092C467.358 991.841 294.902 1194.41 312.5 1014.7C330.097 835.001 174.359 963.545 174.359 886.795C174.359 810.045 259.267 837.376 312.5 715.999C365.732 594.623 467.358 838.342 467.358 915.092Z" fill="#F6E26C"/>
<path d="M573.998 817.396C573.998 894.146 401.543 1096.71 419.14 917.009C436.738 737.305 281 865.849 281 789.1C281 712.35 365.908 739.681 419.14 618.304C472.373 496.927 573.998 740.647 573.998 817.396Z" fill="#F6E26C"/>
<path d="M605.696 318.145C633.396 315.608 623.329 347.083 615.7 361.196C634.101 356.962 675.261 348.293 675.223 378.512C675.208 391.07 665.571 401.528 656.883 409.316C692.147 435.372 684.73 485.539 668.77 520.459C686.569 595.786 699.138 680.111 628.382 733.985C627.416 753.052 613.53 754.308 599.02 759.518C605.222 760.945 612.001 761.845 618.433 763.272C645.109 769.187 664.845 778.139 687.181 793.801L697.776 619.489L700.564 569.981C701.69 549.905 700.273 532.668 715.479 517.488C730.799 502.203 751.795 505.302 771.475 505.552C788.001 505.754 804.521 505.869 821.047 505.899L1023.96 507.439C1036.75 491.055 1055.17 479.998 1075.64 476.41C1097.64 472.651 1120.24 477.839 1138.4 490.821C1156.6 503.952 1168.74 523.853 1172.11 546.04C1175.97 570.877 1169.85 591.791 1155.32 611.865C1153 669.859 1147.35 729.118 1144.76 787.452C1159.93 790.109 1174.48 794.352 1179.38 811.607C1182.25 821.698 1179.04 830.515 1173.9 839.161C1181.29 853.709 1178.57 864.988 1168.98 877.448C1178.05 903.361 1159.31 920.322 1136.41 926.482C1136.23 936.774 1135.18 948.769 1134.51 959.154C1133.35 976.635 1132.31 994.123 1131.39 1011.62L1128.86 1056.74C1127.84 1074.42 1128.94 1085.82 1119.83 1101.45C1133.49 1102.75 1147.12 1104.39 1160.7 1106.4C1168.88 1107.66 1190.64 1110.71 1195.17 1116.88C1195.33 1118.48 1195.34 1118.86 1194.29 1120.22C1185.18 1132.05 1090.17 1137.89 1069.37 1139.28C1063.15 1140.07 1053.05 1140.41 1046.55 1140.83C1028.33 1141.96 1010.1 1142.86 991.849 1143.53C895.24 1147.49 798.545 1148.93 701.858 1147.84C608.583 1147.81 515.335 1144.76 422.258 1138.69C399.369 1137.13 376.534 1134.85 353.787 1131.85C345.108 1130.72 310.684 1126.83 307.284 1119.25C307.391 1117.63 307.546 1116.83 308.708 1115.63C317.409 1106.66 376.177 1101.85 390.943 1100.82C359.844 1085.92 344.63 1057.71 332.099 1026.83C330.126 1021.97 327.682 1014.29 325.425 1009.25C325.467 1009.34 322.169 1007.5 321.824 1007.32C318.332 1005.48 318.053 1002.46 317.201 998.721C304.779 944.147 303.068 877.13 333.69 828.17C359.829 786.386 400.344 769.07 445.969 758.465L446.134 740.917C425.987 729.375 420.02 723.46 405.794 705.91C391.259 711.599 377.528 712.334 362.467 707.804C345.744 702.746 331.755 691.178 323.646 675.703C315.378 660.021 313.822 641.657 319.333 624.807C292.241 606.233 270.498 583.911 262.549 550.928C256.869 527.565 260.769 502.901 273.378 482.43C284.935 463.566 302.648 451.159 324.089 446.121C317.456 440.578 310.099 435.854 301.205 435.198C296.326 434.838 287.179 435.198 284.887 430.01C284.12 428.273 284.065 426.303 284.734 424.525C289.227 412.803 313.274 421.598 320.776 424.907C319.005 418.261 314.879 403.162 323.159 399.321C326.159 397.735 332.64 399.613 333.021 403.245C334.198 414.447 335.104 422.75 339.231 433.408C360.654 368.108 420.91 339.832 486.004 336.777C505.817 335.847 524.76 337.594 544.624 335.066C555.242 333.722 565.699 331.318 575.837 327.889C586.261 324.265 594.807 320.233 605.696 318.145Z" fill="black"/>
<path d="M745.752 517.306L1016.17 519.443C1011.3 528.298 1008.04 537.953 1006.57 547.952C1003.33 570.086 1009.05 592.598 1022.46 610.5C1052.11 649.638 1104.06 654.583 1142.4 624.894C1139.38 678.931 1135.01 733.563 1132.42 787.526C1122.53 787.777 1113.7 790.477 1104.89 794.806C1105.11 779.48 1107.11 762.678 1107.68 747.291C1107.98 739.172 1109.5 728.469 1107.94 720.588C1106.86 715.047 1104.31 709.906 1100.56 705.692C1095.32 699.802 1087.01 696.029 1079.23 695.849C1055.09 695.289 1030.77 694.955 1006.65 694.661L882.559 692.713L803.076 691.544C789.973 691.32 774.604 690.156 762.119 691.177C744.393 692.627 732.465 709.868 732.814 726.797C732.924 732.032 731.791 739.962 731.363 745.264L726.63 803.935L718.645 901.604C717.402 917.254 715.859 933.077 714.985 948.733C714.482 957.74 717.421 965.933 723.734 972.533C727.738 976.74 732.851 979.728 738.484 981.142C745.311 982.796 767.96 982.728 776.49 982.9L842.808 984.528L997.93 988.172L1041.01 989.317C1047.45 989.488 1060.4 990.156 1066.44 989.323C1072.81 988.441 1078.77 985.667 1083.54 981.357C1096.08 969.986 1094.99 952.395 1095.9 936.842L1097.96 902.32C1106.58 906.441 1115.81 908.235 1125.25 909.105C1123.69 946.651 1120.72 986.029 1118.42 1023.63L1116.15 1060.71C1115.71 1067.97 1115.49 1075.98 1114.19 1083.18C1111.98 1095.45 1100.07 1107.57 1087.72 1109.59C1080.11 1110.82 1071.18 1110.18 1063.39 1109.98L1030.3 1109.12L919.389 1106.33L774.212 1102.86L731.896 1101.83C717.47 1101.55 700.388 1103.67 688.887 1093.62C675.38 1081.82 679.247 1064.43 680.322 1048.45C681.391 1032.39 682.559 1016.35 683.827 1000.31L695.571 847.666L708.854 635.804L712.373 575.598C712.913 566.077 713.022 556.064 714.068 546.649C716.006 529.156 728.656 518.223 745.752 517.306Z" fill="#FCFCFC"/>
<path d="M780.873 561.284C808.237 558.442 832.686 578.405 835.38 605.785C838.068 633.165 817.972 657.508 790.578 660.047C763.398 662.567 739.285 642.659 736.615 615.492C733.946 588.325 753.717 564.104 780.873 561.284Z" fill="black"/>
<path d="M784.626 570.5C794.993 570.151 804.747 573.578 812.37 580.675C820.128 588.012 824.683 598.111 825.045 608.783C825.479 621.17 821.108 630.288 812.805 639.097C807.802 627.368 800.565 623.119 788.392 621.197C773.366 620.759 764.69 625.742 758.261 639.382C752.003 632.911 748.256 625.652 747.153 616.661C745.843 605.599 749.021 594.474 755.977 585.774C763.41 576.377 772.882 571.849 784.626 570.5Z" fill="#FCFCFC"/>
<path d="M782.821 585.435C788.142 584.206 793.714 585.929 797.412 589.947C801.11 593.966 802.366 599.66 800.7 604.861C799.035 610.062 794.699 613.968 789.354 615.089C781.21 616.799 773.201 611.629 771.407 603.497C769.62 595.366 774.708 587.308 782.821 585.435Z" fill="black"/>
<path d="M844.559 1012.58C851.111 1012.24 856.897 1013.22 862.714 1016.43C869.615 1020.16 874.691 1026.54 876.791 1034.1C879.332 1043.16 877.471 1049.11 873.252 1056.85C875.793 1072.33 872.799 1073.34 858.783 1068.08C855.691 1069.04 853.058 1069.6 849.917 1070.27C845.398 1070.19 842.508 1069.95 838.136 1068.95C827.733 1072.8 820.165 1075.15 823.245 1060.46C806.425 1040.27 819.785 1015.52 844.559 1012.58Z" fill="black"/>
<path d="M844.234 1022.28C849.145 1022 853.535 1022.6 857.919 1024.94C862.64 1027.41 866.142 1031.72 867.594 1036.84C869.529 1043.68 867.52 1048.24 864.299 1053.9C864.495 1055.86 864.955 1058.23 864.318 1059.99C862.358 1060.3 860.626 1059.19 858.525 1058.34L849.733 1060.77C844.914 1060.87 842.599 1060.49 837.787 1059.76C835.386 1060.9 834.474 1061.35 831.951 1062.06L831.878 1061.35C830.953 1052.97 827.984 1053.34 826.196 1046.08C823.024 1033.24 832.049 1024.71 844.234 1022.28Z" fill="#FCFCFC"/>
<path d="M733.009 1013.06C740.932 1012.12 743.963 1013.71 749.915 1018.45C754.023 1015.06 757.409 1013.23 762.963 1013.39C767.751 1013.52 772.276 1015.61 775.479 1019.17C788.827 1034.08 774.138 1049.39 762.951 1058.86C745.243 1072.73 745.451 1069.65 729.164 1054.48C715.32 1041.58 711.589 1020.27 733.009 1013.06Z" fill="black"/>
<path d="M734.681 1022.14C742.047 1021.97 741.587 1025.14 746.094 1029.36C751.329 1034.97 758.107 1020.78 762.571 1022.58C778.846 1029.19 767.396 1041.54 761.524 1047.19C757.697 1050.66 752.162 1054.67 747.98 1057.89C738.63 1050.63 715.503 1032.08 734.681 1022.14Z" fill="#FCFCFC"/>
<path d="M858.722 589.413C865.776 588.893 874.336 589.275 881.481 589.367C906.99 589.696 932.529 589.757 958.032 590.364C965.091 590.533 965.281 596.288 960.566 600.739C953.856 601.067 946.422 600.765 939.656 600.699C913.48 600.441 887.274 600.265 861.098 599.684C854.852 599.545 854.338 593.623 858.722 589.413Z" fill="black"/>
<path d="M858.685 618.158C882.149 617.78 906.041 619.067 929.547 618.765C932.566 618.726 935.915 619.115 938.046 621.396C939.565 625.222 937.905 627.573 934.654 629.562C910.064 630.008 884.457 628.749 859.818 628.452C858.085 628.431 856.708 627.538 855.465 626.411C853.615 622.594 855.758 620.201 858.685 618.158Z" fill="black"/>
<path d="M961.424 1040.84C964.02 1039.96 966.843 1041.28 967.841 1043.84C968.833 1046.39 967.645 1049.27 965.14 1050.39C963.414 1051.15 961.405 1050.91 959.911 1049.75C958.417 1048.59 957.683 1046.71 958.001 1044.84C958.313 1042.98 959.63 1041.44 961.424 1040.84Z" fill="black"/>
<path d="M940.519 1040.24C943.207 1039.49 945.999 1041.05 946.777 1043.73C947.554 1046.41 946.03 1049.22 943.354 1050.03C941.597 1050.57 939.686 1050.11 938.358 1048.84C937.029 1047.58 936.484 1045.7 936.931 1043.92C937.378 1042.13 938.743 1040.73 940.519 1040.24Z" fill="black"/>
<path d="M918.286 1040.26C919.903 1039.4 921.862 1039.47 923.405 1040.46C924.948 1041.44 925.842 1043.19 925.732 1045.02C925.622 1046.84 924.532 1048.47 922.885 1049.27C920.411 1050.47 917.429 1049.46 916.18 1047.01C914.931 1044.56 915.868 1041.56 918.286 1040.26Z" fill="black"/>
<path d="M763.141 701.467C778.847 701.061 798.893 701.955 814.777 702.283L897.113 703.588L1010.45 705.405C1033.09 705.73 1055.96 705.378 1078.56 706.522C1081.36 706.664 1084.06 707.234 1086.61 708.416C1091.56 710.712 1095.25 715.151 1097.09 720.246C1099.72 727.575 1094.67 788.971 1093.5 800.807C1092.96 806.201 1091.62 811.528 1091.15 816.916C1090.64 822.678 1092.11 828.434 1091.42 834.275C1090.79 839.541 1087.12 843.974 1086.74 849.295C1086.34 855.032 1089.83 860.066 1089.81 865.723C1089.79 871.154 1086.62 876.059 1086.36 881.472C1086.16 885.544 1087.69 889.652 1087.73 893.736C1087.82 904.629 1086.28 915.981 1085.59 926.88C1084.91 937.589 1085.12 948.88 1083.55 959.479C1083.15 962.216 1082.41 964.837 1081.18 967.323C1077.99 973.746 1072.82 976.759 1066.26 978.859C1058.01 979.692 1034.13 978.467 1024.96 978.246L937.231 976.097L803.222 972.84C783.408 972.301 763.563 972.325 743.78 971.327C735.924 970.929 726.55 963.025 725.95 955.107C725.209 945.415 726.801 933.897 727.572 924.07L731.981 867.787L739.941 769.61C741.245 753.574 742.347 737.519 743.878 721.507C744.968 710.019 752.175 703.755 763.141 701.467Z" fill="#FCFCFC"/>
<path d="M773.715 820.21C786.996 819.543 802.91 820.492 816.454 820.749L892.049 822.151L970.271 823.608C981.458 823.731 1048.22 823.866 1051.97 826.707C1056.17 833.852 1053.37 851.291 1052.61 859.875C1052.46 861.596 1049.44 863.194 1047.85 863.99C1032.67 864.755 1005.23 863.488 989.479 863.2L881.224 861.075L811.776 859.728C799.218 859.538 786.684 859.514 774.113 858.822C769.184 859.514 766.355 852.625 766.925 848.584C768.205 839.62 765.382 825.702 773.715 820.21Z" fill="#FCFCFC"/>
<path d="M780.377 834.764C789.85 834.195 806.633 834.942 816.271 835.156L870.68 836.21L935.18 837.501C941.94 837.624 970.467 837.25 974.043 839.651C976.529 843.275 975.421 845.259 972.672 848.131C968.11 848.682 954.688 848.18 949.624 848.088L906.335 847.243C866.247 846.374 826.086 845.608 785.998 844.837C784.137 844.635 780.604 844.904 779.275 843.404C776.575 840.367 778.112 837.361 780.377 834.764Z" fill="black"/>
<path d="M779.685 750.31C787.725 749.673 802.72 750.371 811.341 750.518L872.559 751.687L961.368 753.34C977.27 753.579 993.281 753.873 1009.19 754.002C1011.06 754.014 1013.83 754.779 1015.2 756.139C1016.31 757.241 1016.59 758.508 1016.43 760.057C1016.22 761.925 1014.79 763.15 1013.48 764.362C1003.97 765.078 985.97 764.319 976.125 764.093L920.907 763.107L834.854 761.515C818.205 761.258 801.471 760.774 784.81 760.688C782.942 760.602 779.673 760.051 778.283 758.637C775.429 755.741 777.738 752.606 779.685 750.31Z" fill="black"/>
<path d="M770.666 883.829C778.289 883.216 792.213 884 800.149 884.178L856.707 885.421C881.585 885.788 906.457 886.296 931.329 886.927C943.036 887.16 954.811 887.215 966.518 887.521C973.376 887.698 981.14 890.944 973.284 897.93C968.808 898.53 954.235 897.948 949.147 897.857L895.619 896.675L816.632 894.887C803.278 894.636 789.88 894.758 776.538 894.281C773.893 894.189 769.852 893.338 768.309 891.146C766.331 888.335 768.952 885.555 770.666 883.829Z" fill="black"/>
<path d="M777.297 786.497C786.788 785.915 801.434 786.595 811.323 786.785L867.49 787.82L926.503 789.032C936.006 789.228 945.516 789.381 955.012 789.663C962.562 789.883 963.211 795.284 958.086 799.778C949.667 800.231 936.943 799.637 928.151 799.49L869.302 798.345L811.329 797.274C801.189 797.096 790.829 796.864 780.683 796.557C779.061 796.392 776.801 796.367 775.699 794.984C773.164 791.806 774.774 789.093 777.297 786.497Z" fill="black"/>
<path d="M768.547 919.955C778.589 919.753 790.253 920.316 800.399 920.525L856.615 921.639L894.18 922.49C901.528 922.619 908.881 922.68 916.235 923.035C919.327 923.188 922.407 925.276 921.881 928.778C921.495 931.307 920.295 932.171 918.341 933.512C869.155 933.769 818.609 930.793 769.362 930.034C767.782 930.009 766.631 929.115 765.516 928.111C763.949 924.235 765.253 922.092 768.547 919.955Z" fill="black"/>
<path d="M585.647 425.091C599.704 430.996 612.176 440.127 622.054 451.742C655.925 491.051 670.529 575.534 669.564 627.017C668.884 663.351 650.266 698.297 622.812 721.96C595.54 697.141 545.766 728.83 526.456 750.989C507.581 727.716 485.129 745.381 486.282 770.161C486.526 775.39 484.588 787.483 483.859 793.269C471.919 788.487 463.988 782.682 457.535 771.502C458.826 763.701 459.082 742.968 458.103 734.402C457.828 731.996 453.947 730.091 451.733 728.842C439.272 721.672 427.318 711.643 418.448 700.301C414.193 694.858 417.463 684.225 403.146 691.423C359.458 713.388 312.85 663.154 335.518 620.613C347.913 597.349 377.849 596.385 395.807 613.694C400.863 618.571 408.729 632.999 416.13 622.041C418.091 616.66 417.355 608.66 417.748 603.065C420.402 565.28 416.213 529.639 404.401 494.434C462.228 502.942 547.439 468.512 585.647 425.091Z" fill="#FCFCFC"/>
<path d="M509.591 575.83C516.603 575.926 521.531 580.226 524.131 586.499C529.026 598.305 530.961 614.223 517.054 620.193C508.049 620.142 502.902 614.643 500.192 606.415C496.398 594.893 496.116 580.372 509.591 575.83Z" fill="black"/>
<path d="M570.01 581.904C578.342 580.631 577.959 586.944 580.589 592.745C584.255 601.617 598.567 602.312 602.143 611.54C608.534 628.032 600.418 640.045 585.804 646.605C583.059 647.079 581.849 646.712 579.515 645.571C573.061 636.53 593.962 632.097 592.444 622.031C590.972 612.268 581.164 611.299 574.961 606.298C570.99 603.097 567.121 592.719 566.47 587.596C566.215 585.414 568.527 583.234 570.01 581.904Z" fill="black"/>
<path d="M612.826 547.733C619.538 547.32 624.385 550.115 627.318 556.177C632.824 567.558 634.965 584.435 621.903 591.109C615.178 591.398 610.254 588.45 607.4 582.315C602.114 570.958 600.109 554.553 612.826 547.733Z" fill="black"/>
<path d="M497.234 525.141C501.898 524.731 506.67 525.316 508.497 530.417C508.342 538.076 497.031 537.723 491.93 539.275C480.934 542.619 474.978 550.584 469.713 560.019C466.924 561.447 465.289 562.058 462.249 560.851C457.871 556.641 461.684 549.56 464.485 545.449C472.504 533.682 483.406 527.711 497.234 525.141Z" fill="black"/>
<path d="M363.864 633.527C386.513 632.584 412.472 660.761 391.032 662.128C385.649 658.731 380.955 649.924 374.153 647.895C369.23 646.427 363.451 646.87 358.557 645.502C356.6 644.955 355.464 644.017 354.558 642.223C353.907 636.517 359.397 634.442 363.864 633.527Z" fill="black"/>
<path d="M599 488.413C608.243 487.9 630.021 490.823 627.662 503.995C623.451 509.767 616.86 503.982 611.735 501.928L611.023 501.648C602.13 499.653 598.317 500.847 590.007 503.641C586.137 504.942 581.045 505.18 580.418 499.835C579.458 491.651 593.056 489.368 599 488.413Z" fill="black"/>
<path d="M569.12 679.498C574.392 679.221 583.917 678.294 583.362 686.396C581.588 689.481 578.35 690.372 574.988 690.603C566.718 691.171 561.367 692.004 553.986 695.918C550.546 698.412 547.707 700.559 543.549 698.128C541.613 695.678 542.002 692.674 543.909 690.379C549.666 683.451 560.595 680.701 569.12 679.498Z" fill="black"/>
<path d="M596.597 724.838C603.447 723.907 620.483 727.495 615.806 738.486C613.684 743.477 606.786 744.836 601.891 746.171C586.463 750.371 574.438 758.521 562.977 769.475C559.332 772.947 551.59 774.092 553.675 781.054C557.596 784.06 568.274 777.778 573.095 775.61C583.867 770.767 601.915 773.994 600.727 789.448C600.128 790.495 599.335 792.112 597.871 791.983C589.896 791.285 571.799 794.439 569.48 803.893C569.786 804.897 569.715 805.503 570.509 805.858C577.164 808.252 583.37 802.337 590.516 801.743C598.442 801.088 605.992 802.766 608.048 811.595C608.646 814.161 608.783 819.402 606.992 821.582C600.719 820.266 583.461 821.466 581.152 828.422C581.903 838.647 594.864 828.63 602.218 831.024C612.382 834.343 613.518 841.066 610.286 851.083C607.758 858.914 601.861 864.07 594.276 867.658C595.621 864.321 598.735 856.122 594.237 854.034C587.212 855.865 585.121 867.285 581.668 874.216C579.393 878.863 576.503 883.186 573.077 887.062C565.951 895.004 562.204 895.083 553.868 900.441L553.298 900.808C547.444 912.46 543.564 927.468 538.095 939.469C515.573 988.888 480.719 1108.96 406.877 1092.58C401.518 1091.19 396.344 1089.15 391.469 1086.53C361.473 1070.18 343.776 1026.96 334.673 995.324C353.671 973.195 380.302 959.204 408.617 953.271C405.084 959.21 372.308 1003.62 395.582 996.573C397.139 996.101 411.98 970.274 415.11 965.413C431.419 940.449 447.935 915.62 464.654 890.932C470.773 881.753 482.11 865.466 486.683 855.945C489.416 846.54 488.688 833.694 490.331 824.362C493.989 803.586 496.942 783.619 499.012 762.678C500.531 747.303 513.041 749 519.174 762.054C516.426 766.322 510.252 774.177 513.438 778.904C520.82 782.407 523.224 772.886 527.228 767.865C545.176 745.344 567.24 727.673 596.597 724.838Z" fill="#FCFCFC"/>
<path d="M1082.48 487.568C1122.29 483.715 1157.7 512.818 1161.63 552.619C1165.56 592.419 1136.52 627.888 1096.73 631.896C1056.83 635.915 1021.25 606.783 1017.3 566.873C1013.36 526.963 1042.56 491.432 1082.48 487.568Z" fill="#FCFCFC"/>
<path d="M1085.44 511.049C1095.84 510.01 1106.34 512.695 1113.14 521.143C1117.85 527.033 1119.9 534.612 1118.8 542.071C1116.51 557.286 1107.05 559.186 1098.6 569.192C1096.51 572.87 1095.7 580.597 1091.75 582.76C1088.5 584.542 1081.85 581.718 1081.22 577.9C1080.4 572.892 1082.25 566.997 1084.85 562.421L1085.27 561.682C1092.32 553.126 1108.6 546.22 1102.24 532.838C1097.23 522.304 1082.34 522.606 1077.08 532.82C1075.71 534.742 1072.31 541.337 1069.9 541.62C1056.4 543.21 1060.76 528.887 1064.82 523.39C1071.27 514.682 1076.44 512.798 1085.44 511.049Z" fill="black"/>
<path d="M1085.69 592.119C1090.53 590.656 1095.63 593.349 1097.16 598.162C1098.68 602.975 1096.06 608.119 1091.26 609.703C1088.11 610.746 1084.64 610.011 1082.18 607.779C1079.71 605.548 1078.64 602.165 1079.37 598.924C1080.1 595.681 1082.51 593.082 1085.69 592.119Z" fill="black"/>
<path d="M1232.91 943.261C1246.5 948.719 1257.79 958.86 1260.75 973.76C1262.78 984.126 1260.41 994.865 1254.21 1003.42C1241.49 1020.81 1228.53 1017.04 1211.55 1023.98C1206.56 1027.19 1200.54 1036.26 1194.24 1036.39C1189.05 1036.49 1182.61 1028.67 1184.32 1023.52C1186.55 1016.77 1192.66 1010.65 1198.86 1006.65L1199.86 1006.01C1214.16 999.96 1238.86 1001.95 1239.63 981.206C1240.25 964.879 1221.57 955.599 1208.41 964.865C1205.47 966.366 1196.96 972.346 1193.79 971.136C1176.01 964.357 1190.7 949.399 1199.31 945.211C1212.96 938.579 1220.6 939.595 1232.91 943.261Z" fill="#F6E26C"/>
<path d="M1180.64 1044.07C1187.6 1045.39 1192.19 1052.05 1190.96 1059.01C1189.73 1065.98 1183.13 1070.66 1176.15 1069.52C1171.56 1068.77 1167.73 1065.6 1166.12 1061.24C1164.51 1056.87 1165.38 1051.97 1168.38 1048.42C1171.39 1044.87 1176.07 1043.21 1180.64 1044.07Z" fill="#F6E26C"/>
<path d="M882.175 377.972C872.967 381.67 865.318 388.541 863.308 398.638C861.935 405.662 863.54 412.939 867.741 418.732C876.359 430.522 885.147 427.966 896.653 432.67C900.031 434.844 904.112 440.986 908.38 441.073C911.898 441.143 916.256 435.842 915.104 432.356C913.593 427.782 909.446 423.636 905.251 420.927L904.571 420.492C894.882 416.391 878.145 417.739 877.622 403.683C877.205 392.62 889.86 386.332 898.779 392.611C900.772 393.628 906.535 397.68 908.683 396.86C920.735 392.266 910.778 382.131 904.942 379.293C895.696 374.799 890.515 375.488 882.175 377.972Z" fill="#F6E26C"/>
<path d="M917.592 446.283C912.88 447.177 909.768 451.687 910.6 456.406C911.433 461.125 915.904 464.298 920.633 463.524C923.744 463.015 926.342 460.871 927.432 457.912C928.527 454.951 927.936 451.636 925.899 449.23C923.861 446.822 920.689 445.696 917.592 446.283Z" fill="#F6E26C"/>
<path d="M342.91 517.461C337.026 519.824 332.138 524.215 330.854 530.666C329.977 535.154 331.002 539.804 333.686 543.506C339.193 551.04 344.809 549.406 352.161 552.412C354.319 553.801 356.927 557.726 359.654 557.782C361.902 557.826 364.687 554.439 363.951 552.212C362.985 549.289 360.336 546.64 357.655 544.909L357.221 544.63C351.03 542.01 340.335 542.872 340 533.89C339.734 526.821 347.82 522.803 353.519 526.815C354.793 527.465 358.475 530.054 359.848 529.53C367.549 526.595 361.187 520.118 357.457 518.305C351.55 515.433 348.239 515.873 342.91 517.461Z" fill="#F6E26C"/>
<path d="M365.541 561.111C362.53 561.682 360.541 564.564 361.073 567.579C361.606 570.595 364.462 572.622 367.484 572.128C369.472 571.803 371.132 570.433 371.828 568.542C372.528 566.649 372.151 564.532 370.849 562.994C369.547 561.456 367.52 560.736 365.541 561.111Z" fill="#F6E26C"/>
<path d="M1116 869.948C1124.36 869.587 1135.77 870.934 1143.59 873.744C1170.21 883.327 1159.8 904.562 1139.54 913.214C1138.29 913.404 1138.91 913.489 1137.68 912.828C1136.95 909.228 1139.26 904.697 1138.47 903.343C1131.04 894.177 1111.76 899.039 1102.22 891.018C1097.64 887.172 1095.81 880.517 1100.18 875.943C1105.09 870.805 1109.38 870.493 1116 869.948Z" fill="#FCFCFC"/>
<path d="M1118.94 835.647C1119.39 835.598 1119.83 835.549 1120.27 835.512C1132.84 834.447 1164.71 836.051 1166.01 853.998C1166.42 859.674 1162.88 865.766 1159.23 869.942C1156.04 868.05 1153.47 866.899 1150.11 865.356C1134.75 859.98 1122.17 859.184 1106.17 860.69C1103.36 858.914 1100.03 856.514 1099.22 853.171C1096.11 840.337 1110.25 836.669 1118.94 835.647Z" fill="#FCFCFC"/>
<path d="M1128.66 799.496C1138.82 798.511 1151.33 799.172 1160.09 804.94C1171.27 812.306 1169.94 823.242 1162.87 832.898C1158.43 830.449 1152.59 828.685 1147.77 827.222C1139.08 825.544 1130.82 824.589 1121.94 825.158C1118.68 824.821 1111.6 826.652 1108.76 826.083C1100.78 824.485 1101.54 813.696 1105.43 809.287C1111.72 802.172 1120.26 800.568 1128.66 799.496Z" fill="#FCFCFC"/>
<path d="M1079.21 396.976C1080.77 396.981 1084.69 397.401 1085.19 398.819C1088.26 407.426 1086.88 425.12 1087.06 434.683C1087.13 438.291 1085.15 439.804 1083.56 441.069C1082.08 441.107 1077.37 440.73 1077.08 438.948C1075.29 427.691 1075.69 415.309 1075.74 403.863C1075.75 400.349 1076.65 399.133 1079.21 396.976Z" fill="black"/>
<path d="M1143.2 419.038C1146.02 418.736 1146.76 418.567 1149.1 419.949C1149.83 420.849 1150.35 421.403 1150.52 422.632C1151.36 428.454 1136.32 452.093 1133.02 455.734C1129.65 456.202 1128.93 456.444 1126.31 454.172C1125.78 452.97 1125.63 452.653 1125.65 451.253C1125.74 445.915 1140.24 421.967 1143.2 419.038Z" fill="black"/>
<path d="M1015.59 421.493C1016.76 421.488 1020.05 421.303 1020.91 422.616C1026.19 430.721 1036.7 444.267 1039.13 453.137C1039.64 454.998 1036.68 457.112 1035.26 458.173C1034.56 458.085 1031.65 457.732 1030.99 456.892C1024.88 449.1 1015.55 436.054 1012.16 427C1011.51 425.265 1014.36 422.625 1015.59 421.493Z" fill="black"/>
<path d="M1116.06 399.939C1117.56 400.361 1121.22 401.811 1121.32 403.312C1121.98 412.426 1115.92 429.108 1113.55 438.372C1112.65 441.868 1110.33 442.796 1108.47 443.591C1107.03 443.233 1102.59 441.61 1102.79 439.816C1104.07 428.491 1107.77 416.666 1110.87 405.649C1111.82 402.266 1113.01 401.334 1116.06 399.939Z" fill="#F6E26C"/>
<path d="M1171.82 438.292C1174.62 438.755 1175.38 438.789 1177.26 440.745C1177.73 441.809 1178.08 442.482 1177.92 443.712C1177.17 449.547 1156.37 468.309 1152.21 470.934C1148.84 470.486 1148.08 470.528 1146.16 467.638C1145.97 466.337 1145.91 465.991 1146.31 464.648C1147.82 459.529 1168.19 440.325 1171.82 438.292Z" fill="#F6E26C"/>
<path d="M1048.19 406.568C1049.33 406.877 1052.55 407.577 1053.02 409.072C1055.94 418.292 1062.46 434.154 1062.42 443.349C1062.42 445.28 1059 446.526 1057.35 447.169C1056.7 446.899 1053.99 445.78 1053.58 444.794C1049.78 435.655 1044.27 420.59 1043.42 410.959C1043.26 409.113 1046.71 407.331 1048.19 406.568Z" fill="#F6E26C"/>
</svg>
