<svg width="1455" height="1465" viewBox="0 0 1455 1465" fill="none" xmlns="http://www.w3.org/2000/svg">
<path d="M501 915.091C501 991.841 420 858.696 306 1043C192 1227.3 149 991.841 149 915.091C149 838.342 264.5 897.5 325 776.124C385.5 654.747 501 838.342 501 915.091Z" fill="#EA4A4A"/>
<path d="M566.129 337.815C593.521 335.425 585.735 365.044 579.229 380.448C596.707 376.362 638.695 364.049 639.767 395.732C640.174 407.756 632.094 419.175 623.937 427.485C657.55 452.031 651.983 499.163 641.095 533.945C643.063 540.948 645.654 548.099 647.615 555.152C653.357 575.651 658.18 595.915 661.401 616.967C674.363 701.675 624.354 774.247 538.199 786.273C537.73 789.254 537.532 792.334 537.278 795.341C580.365 803.595 613.621 819.521 643.47 852.542C651.688 850.007 657.686 848.795 666.142 847.515C667.812 826.232 668.653 803.16 669.883 781.68L677.363 653.176L680.362 602.135C681.44 584.116 680.057 567.003 692.828 552.461C707.243 536.051 728.379 538.206 748.916 536.773L808.891 532.416L1014.26 517.947C1026.26 496.284 1039.77 474.718 1052.23 453.223C1058.47 442.469 1066.11 428.974 1073.35 418.971C1077.94 412.618 1088.98 407.901 1097.1 407.58C1106.91 407.166 1116.45 410.828 1123.46 417.698C1127.7 421.853 1142.08 448 1145.69 454.307L1182.02 517.881L1213.83 573.496C1221.1 586.19 1233.9 604.185 1233.97 618.548C1234.04 628.066 1230.27 637.211 1223.52 643.923C1211.74 655.448 1197.51 654.236 1182.35 654.23L1155.4 654.191C1154.8 684.387 1152.12 718.643 1150.53 749.148C1147.4 810.085 1143.88 871.003 1139.97 931.891C1146.24 936.055 1150.12 939.153 1155.27 944.804C1169.56 960.688 1176.89 981.641 1175.59 1002.97C1174.34 1024.12 1164.77 1043.91 1148.96 1058.01C1137.22 1068.47 1126.52 1072.02 1112.15 1076.76C1107.14 1078.42 1102.61 1083.82 1096.15 1084.61C1079.51 1086.63 1062.43 1085.92 1045.66 1085.89L959.328 1085.63L775.288 1084.37C749.492 1084.01 723.475 1083.92 697.686 1083.14C687.439 1082.83 675.587 1077.76 668.838 1069.88C657.427 1056.56 658.693 1041.73 659.723 1025.35C657.213 1028.11 653.433 1031.46 650.639 1034.09C651.841 1052.91 653.408 1076.62 653.249 1095.24L800.821 1095.09C851.893 1095.11 1105.03 1092.61 1135.51 1109.19C1137.36 1110.19 1138.4 1111.2 1139.02 1113.27C1138.83 1114.76 1138.57 1115.7 1137.54 1116.83C1121.98 1133.83 969.333 1139.5 936.649 1140.91C785.379 1144.69 634.017 1142.83 482.885 1135.34C503.888 1120.88 523.705 1105.99 542.14 1088.29C555.729 1075.15 570.159 1061.08 582.274 1046.67C593.959 1032.76 597.143 1037.25 613.442 1036.03C625.589 1035.13 638.968 1027.93 647.431 1019.36C653.877 1012.84 658.047 1004.11 667.606 1001.26C674.663 999.048 681.645 998.859 689.022 999.079C697.962 999.44 711.541 998.559 712.637 987.029C713.017 984.61 711.688 979.516 709.796 978.089C695.04 966.97 674.801 973.013 658.687 975.83C655.842 976.326 650.726 967.723 661.278 963.792C678.446 957.565 697.37 958.324 713.984 965.904C721.35 960.785 725.759 952.623 718.331 945.662C705.92 934.046 683.865 933.63 668.206 937.451C664.402 938.375 653.166 942.441 650.167 941.982C648.614 941.743 647.234 940.867 646.362 939.563C643.355 935.02 648.756 931.34 652.396 929.889C675.94 920.477 695.402 920.961 718.674 929.882C726.726 923.251 725.575 913.779 717.646 907.619C701.138 894.81 676.306 896.395 657.302 901.686C653.581 902.353 642.162 908.923 638.99 908.176C629.775 905.617 633.25 898.9 639.751 895.808C665.489 883.549 685.708 882.527 712.674 890.45C716.697 886.017 716.96 885.178 718.337 879.594C716.764 873.618 713.764 869.681 708.412 866.454C696.03 858.996 678.266 858.922 664.424 860.955C621.927 867.201 595.975 891.552 573.868 926.331C567.365 936.563 560.889 948.956 552.157 957.442C549.854 959.677 547.113 961.483 544.415 963.21C533.197 970.399 416.766 1040.6 413.71 1041.03C411.553 1041.33 409.98 1040.75 408.414 1039.25C407.347 1038.24 406.797 1036.8 406.92 1035.34C407.338 1030.53 418.658 1024.48 422.709 1021.97C419.829 1016.15 417.888 1011.82 415.41 1005.8C381.583 1015.67 336.583 1041.47 308.567 1062.32C320.292 1091.79 336.307 1111.82 363.812 1127.26C347.309 1125.64 277.213 1119.93 269.211 1107.7C269.049 1106.35 268.728 1105.15 269.908 1104.01C276.723 1097.41 300.967 1095.06 309.819 1094.14C305.565 1086.98 302.862 1081.24 299.618 1073.73L298.623 1073.63C291.116 1072.99 289.383 1070.71 287.123 1063.47C251.439 949.103 285.383 823.176 417.945 795.273C419.106 787.007 420.116 778.723 420.975 770.42C405.937 762.319 396.66 753.967 385.887 741.182C336.033 766.354 279.647 725.636 290.298 669.162C289.062 668.574 287.836 667.967 286.62 667.338C231.867 639.067 202.585 579.238 236.455 523.006C247.011 505.48 261.114 495.509 280.365 489.597C270.04 483.123 262.73 479.683 250.175 479.881C238.431 480.066 236.843 469.247 246.976 464.936C255.128 461.467 267.3 465.37 275.248 468.492C272.929 461.661 268.198 446.329 276.737 443.002C288.256 438.513 288.022 450.981 289.022 457.935C289.939 464.306 292.05 470.25 294.43 475.691C297.432 464.194 302.114 453.203 308.323 443.072C319.921 424.633 335.535 409.051 353.998 397.49C405.629 364.75 445.597 370.377 502.332 359.36C512.296 357.425 526.348 353.142 535.805 349.516C546.358 345.468 554.694 340.494 566.129 337.815Z" fill="black"/>
<path d="M995.178 530.823C998.001 530.482 1003.48 530.493 1006.51 530.411C997.193 548.247 985.639 565.374 975.866 583.005C969.223 594.994 960.675 604.987 960.589 619.328C960.534 628.599 964.196 637.505 970.76 644.052C982.296 655.646 994.976 654.24 1010.06 654.249C1020.11 654.254 1030.21 654.219 1040.26 654.201L1143.93 654.228C1139.47 744.967 1134.55 835.686 1129.18 926.375C1110.81 918.843 1090.29 918.47 1071.66 925.334C1051.06 932.865 1034.68 948.962 1025.71 968.862C1017.23 987.611 1016.58 1008.97 1023.9 1028.2C1033.31 1052.5 1048.32 1064.17 1071.15 1074.34C1032.63 1073.27 991.468 1073.77 952.758 1073.72C869.35 1073.72 785.948 1073.08 702.552 1071.8C663.535 1070.85 670.948 1040.13 671.608 1013.44C683.984 1009.91 694.447 1013.11 706.109 1009.3C722.629 1003.9 727.583 991.273 722.574 975.439C732.677 967.154 733.7 962.396 733.424 949.801C745.719 951.124 769.293 950.53 782.427 950.554L871.236 950.848L969.786 951.283C981.261 951.295 994.505 951.424 1006.16 951.154C1007.71 951.118 1008.7 949.887 1009.63 948.742C1011.12 943.776 1008.31 942.086 1003.84 941.909C996.605 941.627 989.349 941.798 982.112 941.774L938.436 941.547L802.247 941.327L761.811 941.296C754.371 941.284 746.375 941.474 738.978 940.782C735.494 940.457 732.763 938.504 729.818 936.643C740.478 921.39 737.374 908.25 723.744 896.684C729.573 889.459 730.742 885.197 730.142 876.178C727.491 866.289 724.289 862.817 716.457 856.847C718.282 829.006 719.078 800.76 720.792 772.894C721.656 762.24 721.086 751.31 722.268 740.693C724.76 718.185 745.089 720.518 760.99 719.679L805.78 717.223C869.27 713.746 932.791 710.898 996.336 708.692L1048.34 707.027C1059.88 706.665 1080.61 704.257 1090.67 709.417C1103.62 716.06 1101.52 731.907 1101.03 744.036C1100.58 755.229 1100.1 766.826 1099.6 778.209L1094.75 878.964C1094.57 882.699 1094.24 886.697 1094.19 890.42C1094.14 894.326 1091.84 903.027 1097.2 904.001C1102.28 904.919 1103.13 901.613 1103.4 897.529C1104.09 886.544 1104.49 875.541 1104.96 864.55L1107.68 805.879L1109.97 754.305C1110.3 746.161 1111.29 731.845 1110.43 724.32C1109.78 718.252 1107.29 712.527 1103.27 707.925C1091.03 693.702 1071.49 697.052 1054.54 697.491L1009.65 698.873C960.589 700.505 911.544 702.578 862.517 705.093L779.788 709.429C771.699 709.864 763.599 710.231 755.522 710.745C743.668 711.498 732.91 710.531 723.395 719.22C719.011 723.267 715.857 728.472 714.302 734.233C712.722 740.246 711.81 766.104 711.43 774.303C710.236 800.13 708.577 826.312 707.603 852.114C698.492 847.932 687.602 847.308 677.76 847.014C679.927 825.938 680.856 795.605 682.018 774.205C684.166 731.858 686.548 689.517 689.163 647.193L691.64 602.668C692.705 583.72 691.128 556.963 716.059 551.153C723.823 549.343 734.698 549.269 742.835 548.714L790.987 545.361L995.178 530.823Z" fill="#F2F2F2"/>
<path d="M761.511 587.599C787.479 586.705 809.264 607.004 810.207 632.97C811.15 658.935 790.895 680.763 764.933 681.758C738.898 682.757 716.996 662.432 716.047 636.394C715.104 610.356 735.469 588.495 761.511 587.599Z" fill="black"/>
<path d="M759.594 596.879C769.955 595.897 778.502 597.638 786.811 604.519C794.453 610.895 799.247 620.053 800.123 629.968C801.207 641.886 797.269 651.762 789.744 660.771C784.478 649.099 777.076 645.341 764.836 643.977C750.771 643.807 742.187 650.281 737.013 662.931C731.422 657.563 727.957 651.22 726.53 643.61C724.577 633.01 726.977 622.072 733.173 613.256C739.658 603.93 748.506 598.796 759.594 596.879Z" fill="#F2F2F2"/>
<path d="M759.172 610.539C764.175 609.229 769.502 610.711 773.108 614.419C776.721 618.126 778.062 623.489 776.617 628.458C775.172 633.429 771.173 637.239 766.134 638.437C758.474 640.259 750.765 635.575 748.861 627.932C746.951 620.288 751.549 612.532 759.172 610.539Z" fill="black"/>
<path d="M1012.59 793.572C1024.65 793.327 1045.83 792.335 1057.13 793.358C1063.9 797.405 1067.21 804.838 1061.47 811.892C1059.89 813.503 1057.24 815.26 1054.97 815.419C1045.74 816.074 1036.2 816.08 1026.95 816.24L972.248 817.182L805.959 820.752C797.57 820.887 765.136 823.514 760.17 819.552C757.733 817.636 756.252 814.758 756.099 811.666C755.676 804.459 760.36 800.571 767.218 800.179C777.529 799.579 787.865 799.45 798.201 799.175L853.529 797.534C906.542 795.874 959.561 794.552 1012.59 793.572Z" fill="#F2F2F2"/>
<path d="M1008.12 888.454C1019.13 888.203 1030.15 888.442 1041.16 888.368C1045.34 888.344 1049.81 888.564 1053.16 891.381C1055.22 893.101 1056.43 895.636 1056.47 898.318C1056.51 901.563 1055.19 904.674 1052.82 906.884C1046.66 912.72 1030.86 910.522 1022.27 910.534L968.403 910.571L806.21 910.528C797.062 910.497 787.914 910.515 778.766 910.595C773.947 910.607 768.761 910.858 764.004 910.289C758.781 909.67 755.456 905.152 755.621 900.027C755.872 892.434 760.679 889.985 767.635 889.703C775.607 889.379 783.518 889.483 791.478 889.471C805.922 889.495 820.366 889.44 834.81 889.305C892.575 888.711 950.346 888.423 1008.12 888.454Z" fill="#F2F2F2"/>
<path d="M995.785 748.212C1000.41 748.047 1006.07 748.292 1006.88 754.378C1007.16 756.448 1006.13 758.628 1004.71 760.134C1002.94 762.02 1000.2 762.363 997.738 762.577C989.368 762.932 980.894 763.085 972.512 763.33L921.825 764.867L769.159 770.941C760.746 771.768 753.539 766.747 760.587 758.781C767.322 755.988 817.219 754.966 828.026 754.507C883.929 752.033 939.851 749.933 995.785 748.212Z" fill="black"/>
<path d="M923.184 849.248C929.209 849.052 948.441 847.307 952.372 850.963C953.768 852.261 954.497 854.122 954.356 856.026C953.995 861.433 949.654 862.498 945.061 862.633C928.352 863.135 911.623 863.276 894.907 863.625L787.748 865.56C780.18 865.658 759.68 868.897 756.612 860.613C757.947 849.916 772.244 852.5 780.504 852.322L811.707 851.575L923.184 849.248Z" fill="black"/>
<path d="M850.895 982.565C874.328 980.44 893.769 996.33 882.661 1020.13L883.806 1024.28C887.652 1037.75 877.567 1034.55 869.711 1031.48C867.543 1032.47 865.217 1033.09 862.933 1033.78C858.181 1034.67 855.646 1034.19 850.993 1033.51C841.998 1038.09 833.579 1041.62 836.347 1026.94C819.802 1010.1 828.821 987.108 850.895 982.565Z" fill="black"/>
<path d="M851.912 991.175C869.571 989.307 883.501 1000.43 874.579 1018.25L875.853 1025.19C873.612 1024.23 871.328 1023.59 869.001 1022.87L861.268 1025.59C857.19 1026.08 855.304 1025.62 851.244 1025.01C848.795 1025.94 846.174 1027.28 843.786 1028.43C844.368 1023.04 843.878 1023.5 840.872 1019.18C831.363 1005.52 837.216 995.938 851.912 991.175Z" fill="#F2F2F2"/>
<path d="M757.127 983.808C763.262 983.631 765.791 985.382 770.34 988.884C783.945 979.363 798.886 985.216 798.426 1003.18C798.188 1012.56 789.328 1020.09 782.556 1025.82C778.545 1029.13 771.914 1036.01 766.231 1032.41C753.667 1024.45 734.71 1008.07 744.635 991.456C747.232 987.115 752.363 985.027 757.127 983.808Z" fill="black"/>
<path d="M756.741 992.173C763.844 992.559 762.925 995.026 768.044 999.251C770.855 1001.58 777.315 993.557 782.158 993.14C789.193 992.534 789.61 995.73 789.683 1001.67C789.757 1007.82 784.999 1011.69 780.958 1015.5C777.756 1018.54 773.39 1021.76 769.832 1024.52C761.229 1017.41 739.211 1002.25 756.741 992.173Z" fill="#F2F2F2"/>
<path d="M917.661 602.514C922.67 602.12 931.15 600.693 932.852 607.269C931.965 610.626 929.754 611.882 926.307 612.245C917.116 613.214 907.785 613.613 898.551 614.193C880.28 615.327 862.021 616.596 843.774 617.998C841.454 618.15 832.973 618.972 831.338 618.282C826.054 616.057 827.622 608.729 834.082 608.13C843.383 607.265 852.543 606.739 861.795 606.116L917.661 602.514Z" fill="black"/>
<path d="M903.572 633.792C905.219 633.635 911.838 633.032 912.622 633.868C922.474 644.415 904.662 644.242 900.841 644.49C880.696 645.799 860.711 646.956 840.713 648.606C838.502 648.754 833.12 649.309 831.314 648.492C825.828 646.027 828.467 639.254 833.751 638.561C841.417 637.556 849.218 637.261 856.939 636.767L903.572 633.792Z" fill="black"/>
<path d="M1068.48 667.314C1071.18 666.487 1074.06 667.891 1075.07 670.527C1076.08 673.162 1074.88 676.132 1072.32 677.324C1070.5 678.172 1068.36 677.934 1066.77 676.706C1065.18 675.478 1064.41 673.466 1064.77 671.489C1065.13 669.513 1066.56 667.902 1068.48 667.314Z" fill="black"/>
<path d="M1090.91 666.786C1093.77 666.439 1096.37 668.451 1096.75 671.3C1097.13 674.15 1095.16 676.777 1092.31 677.198C1090.44 677.474 1088.57 676.722 1087.4 675.229C1086.24 673.736 1085.97 671.731 1086.69 669.984C1087.42 668.236 1089.03 667.014 1090.91 666.786Z" fill="black"/>
<path d="M1111.13 666.789C1112.89 665.882 1115 666.037 1116.61 667.19C1118.2 668.341 1119.02 670.296 1118.72 672.247C1118.42 674.197 1117.05 675.815 1115.18 676.431C1112.58 677.286 1109.77 676.001 1108.71 673.479C1107.65 670.957 1108.7 668.044 1111.13 666.789Z" fill="black"/>
<path d="M553.429 447.029C569.622 452.994 582.393 462.007 593.886 474.796C602.53 484.531 609.816 495.39 615.546 507.08C632.689 541.554 651.731 611.691 649.745 650.884C647.5 707.99 609.261 755.235 553.982 769.545C548.058 771.082 542.372 771.614 536.444 772.704C529.487 773.99 516.5 772.398 517.517 782.348C518.669 784.559 521.168 785.44 523.539 786.953C525.08 790.033 522.61 802.444 522.004 806.583C498.83 832.625 451.745 827.481 430.762 800.803C432.014 792.659 433.11 784.271 434.228 776.133C435.986 763.348 436.869 763.079 425.422 757.06C416.066 751.5 406.197 743.748 399.154 735.899C393.227 729.292 395.231 718.944 382.211 726.935C364.535 737.785 342.241 736.364 324.786 724.443C303.614 709.986 295.909 677.592 310.889 655.632C316.45 647.449 325.08 641.857 334.82 640.123C347.085 637.816 359.956 641.496 369.343 649.727C373.649 653.134 381.088 662.537 387.266 660.373C395.242 657.58 392.728 638.834 392.521 632.335C391.419 597.742 386.418 564.314 372.628 532.411C381.283 532.581 389.94 532.214 398.55 531.312C456.314 525.184 516.809 492.376 553.429 447.029Z" fill="#F2F2F2"/>
<path d="M482.683 599.239C491.336 599.824 496.297 606.397 498.989 614.055C503.085 625.707 503.94 638.983 490.16 643.52C471.088 642.691 461.276 603.93 482.683 599.239Z" fill="black"/>
<path d="M544.784 600.913C553.819 601.451 551.631 607.167 555.907 613.178C558.768 618.206 566.184 618.164 570.015 620.782C589.643 634.199 582.452 656.247 564.427 665.714C561.725 666.111 559.918 665.659 557.523 664.51C552.048 656.746 570.891 650.166 569.672 640.912C568.24 630.043 556.52 629.8 549.642 624.271C545.807 621.188 540.643 611.26 540.554 606.08C540.655 603.741 542.992 602.168 544.784 600.913Z" fill="black"/>
<path d="M587.403 563.708C605.167 566.071 614.294 601.918 594.972 607.81C576.589 606.373 567.803 568.842 587.403 563.708Z" fill="black"/>
<path d="M548.892 697.364C553.341 697.124 576.304 697.571 568.779 709.321C566.628 712.68 556.623 709.778 552.535 709.454C542.215 708.634 534.42 712.221 526.575 718.73C523.043 722.373 519.37 729.531 513.246 727.596C508.875 723.843 511.825 717.365 514.89 713.795C523.725 703.517 535.717 698.505 548.892 697.364Z" fill="black"/>
<path d="M470.029 550.683C479.256 549.897 479.768 556.497 476.58 563.243C469.427 578.371 457.547 586.347 442.35 592.151C440.494 592.228 438.661 592.062 437.289 590.728C430.575 584.199 442.521 579.249 446.96 576.79C451.738 574.144 455.639 571.654 459.459 567.926C464.153 563.345 465.714 554.737 470.029 550.683Z" fill="black"/>
<path d="M339.05 671.485C367.476 669.34 387.687 702.296 366.014 698.16C358.541 690.98 351.359 682.534 339.711 685.24C335.547 686.207 329.722 685.103 327.933 680.706C328.224 674.92 334.215 672.535 339.05 671.485Z" fill="black"/>
<path d="M552.215 521.252C555.736 521.657 563.452 526.197 567.451 528.124C575.265 531.892 596.852 520.752 598.918 530.844C597.76 534.854 597.377 535.405 593.758 537.504C579.156 542.41 561.22 543.219 548.781 531.427C544.737 527.593 548.613 523.508 552.215 521.252Z" fill="black"/>
<path d="M1096.7 419.238C1109.83 418.611 1115.56 425.042 1121.49 435.632C1126.11 443.881 1130.94 452.226 1135.65 460.431L1169.4 519.347L1202.69 577.653C1208.28 587.442 1213.95 596.916 1219.42 606.953C1227.6 619.498 1219.14 639.854 1204.21 641.981C1194.09 643.425 1179.26 642.693 1168.73 642.683L1098.19 642.696L1028.62 642.754C1016.59 642.759 1004.25 643.059 992.319 642.398C982.357 641.427 974.886 634.002 972.725 624.583C969.706 611.456 979.271 599.952 985.786 588.977L1011.86 544.864L1060.08 462.88C1066.76 451.626 1073.29 440.28 1080.03 429.073C1083.78 422.845 1090.03 420.6 1096.7 419.238Z" fill="#F2F2F2"/>
<path d="M1097.05 423.024C1102.69 422.807 1106.36 424.073 1109.25 426.235C1112.36 428.559 1114.94 432.185 1117.85 437.39C1122.48 445.662 1127.34 454.042 1132.03 462.224V462.223L1165.77 521.134V521.135L1199.07 579.44C1204.71 589.333 1210.31 598.672 1215.75 608.669L1215.83 608.809L1215.92 608.941C1219.11 613.837 1219.22 620.598 1216.65 626.605C1214.17 632.42 1209.53 636.732 1204.03 637.738L1203.5 637.825C1193.75 639.215 1179.48 638.496 1168.58 638.486H1168.58L1098.03 638.5H1098.03L1028.46 638.558C1016.34 638.563 1004.24 638.858 992.479 638.212C984.454 637.395 978.287 631.401 976.473 623.492L976.472 623.49C975.248 618.168 976.504 612.986 979.135 607.508C981.875 601.803 985.558 596.745 989.074 590.822L989.077 590.815L1015.16 546.703L1015.16 546.695L1063.37 464.711L1063.37 464.71C1070.1 453.379 1076.56 442.148 1083.31 430.938L1083.31 430.938C1086.11 426.293 1090.78 424.335 1097.05 423.024Z" fill="#F2F2F2" stroke="#EA4A4A" stroke-width="8"/>
<path d="M1094.29 477.417C1104.82 476.503 1114.56 480.527 1115.45 492.054C1115.89 497.842 1115.24 503.832 1114.63 509.588C1112.62 528.457 1111.54 547.55 1108.82 566.314C1108.34 569.615 1104.8 571.768 1102.23 573.35C1089.78 576.299 1085.96 569.766 1085.28 558.591C1084.01 537.77 1081.46 516.971 1080.69 496.116C1080.31 485.968 1084.87 480.628 1094.29 477.417Z" fill="black"/>
<path d="M1093.72 587.766C1102.73 585.756 1111.67 591.409 1113.71 600.409C1115.75 609.409 1110.13 618.367 1101.14 620.444C1092.1 622.53 1083.09 616.875 1081.04 607.828C1078.98 598.781 1084.67 589.787 1093.72 587.766Z" fill="black"/>
<path d="M1091.23 932.479C1127.95 929.081 1160.49 956.047 1163.97 992.761C1167.45 1029.47 1140.56 1062.08 1103.86 1065.64C1067.03 1069.23 1034.3 1042.22 1030.81 1005.39C1027.31 968.556 1054.39 935.884 1091.23 932.479Z" fill="#F2F2F2"/>
<path d="M1091.15 935.772C1125.77 932.592 1156.43 957.605 1160.13 991.746L1160.21 992.555C1163.51 1027.1 1138.02 1057.84 1103.14 1061.2H1103.14C1068.15 1064.58 1037.1 1039.11 1033.79 1004.45H1033.79C1030.5 970.054 1055.74 939.466 1090.33 935.854L1091.15 935.772Z" stroke="#EA4A4A" stroke-width="9"/>
<path d="M1096.2 954.896C1097.22 954.896 1098.25 954.902 1099.26 955.018C1102.44 955.379 1105.42 956.714 1107.24 959.439C1110.5 964.307 1106.43 998.963 1105 1006.18C1104.37 1009.37 1102.5 1010.53 1099.92 1012.19C1090.09 1013.44 1089.01 1007.09 1088.88 998.724C1088.68 986.319 1085.82 972.536 1088.24 960.455C1088.78 957.737 1093.98 955.643 1096.2 954.896Z" fill="black"/>
<path d="M1095.16 1021.86C1100.83 1020.99 1106.14 1024.83 1107.1 1030.48C1108.06 1036.14 1104.3 1041.51 1098.66 1042.56C1094.94 1043.25 1091.13 1041.88 1088.69 1038.98C1086.26 1036.07 1085.58 1032.07 1086.92 1028.53C1088.26 1024.98 1091.41 1022.43 1095.16 1021.86Z" fill="black"/>
<path d="M1190.11 888.801C1190.59 888.931 1191.08 889.065 1191.54 889.273C1192.98 889.923 1194.14 891.211 1194.51 893.301C1195.16 897.036 1186.9 920.165 1184.91 924.905C1184.03 927.002 1182.93 927.558 1181.41 928.364C1176.52 927.969 1177.17 923.505 1178.64 917.777C1180.81 909.288 1181.98 899.522 1185.33 891.586C1186.08 889.799 1188.92 889.03 1190.11 888.801Z" fill="#EA4A4A"/>
<path d="M1177.9 932.642C1180.72 932.952 1182.77 935.467 1182.5 938.294C1182.24 941.119 1179.75 943.208 1176.92 942.987C1175.05 942.84 1173.41 941.697 1172.62 939.998C1171.83 938.297 1172.01 936.298 1173.11 934.775C1174.2 933.252 1176.03 932.434 1177.9 932.642Z" fill="#EA4A4A"/>
<path d="M1029.86 808.918C1030.77 808.758 1031.69 808.605 1032.62 808.597C1035.54 808.564 1038.49 809.815 1040.73 813.032C1044.73 818.779 1048.9 863.951 1049.25 873.443C1049.4 877.641 1047.99 879.428 1046.07 881.963C1037.58 885.104 1035.19 877.119 1033.19 866.384C1030.22 850.473 1024.57 833.207 1024.01 817.304C1023.88 813.726 1028.05 810.224 1029.86 808.918Z" fill="#EA4A4A"/>
<path d="M1043.52 891.86C1048.49 890.184 1053.88 892.802 1055.63 897.746C1057.38 902.683 1054.85 908.115 1049.94 909.946C1046.69 911.157 1043.05 910.522 1040.39 908.293C1037.75 906.058 1036.51 902.565 1037.15 899.162C1037.8 895.758 1040.23 892.963 1043.52 891.86Z" fill="#EA4A4A"/>
<path d="M1238.1 958.947C1239.17 959.402 1240.24 959.869 1241.23 960.494C1244.33 962.457 1246.6 965.797 1246.76 970.724C1247.06 979.527 1220.57 1030.06 1214.45 1040.32C1211.74 1044.86 1209.03 1045.78 1205.27 1047.14C1194.16 1044.65 1197.1 1034.6 1202.33 1021.89C1210.07 1003.07 1215.91 980.977 1226.19 963.806C1228.5 959.939 1235.29 959.089 1238.1 958.947Z" fill="#EA4A4A"/>
<path d="M1195.81 1055.85C1202.2 1057.48 1206.1 1063.93 1204.57 1070.34C1203.05 1076.76 1196.66 1080.76 1190.23 1079.33C1185.97 1078.39 1182.55 1075.23 1181.28 1071.06C1180.01 1066.89 1181.09 1062.36 1184.1 1059.21C1187.11 1056.06 1191.59 1054.77 1195.81 1055.85Z" fill="#EA4A4A"/>
<path d="M1098.89 323C1100.86 323.092 1105.3 323.573 1105.65 325.959C1107.56 339.054 1106.98 353.657 1106.66 366.956C1106.61 368.994 1103.35 370.616 1101.89 371.439C1092.27 371.064 1094.75 361.191 1094.46 353.94C1094.12 345.255 1094.13 335.956 1094.75 327.339C1094.89 325.386 1097.37 323.935 1098.89 323Z" fill="#EA4A4A"/>
<path d="M254.825 761.612C256.504 760.563 260.43 758.436 262.073 760.201C271.088 769.889 278.91 782.235 286.201 793.362C287.319 795.067 285.561 798.252 284.824 799.761C276.697 804.92 273.126 795.387 268.773 789.581C263.554 782.63 258.274 774.976 253.885 767.534C252.891 765.848 254.112 763.241 254.825 761.612Z" fill="#EA4A4A"/>
<path d="M282.838 722.028C284.924 721.65 289.69 721.15 290.78 724.088C296.755 740.211 300.597 758.868 304.308 775.807C304.878 778.404 301.982 781.273 300.71 782.682C290.585 784.612 290.159 771.477 287.658 762.355C284.657 751.431 281.832 739.642 279.851 728.563C279.403 726.053 281.549 723.592 282.838 722.028Z" fill="#EA4A4A"/>
<path d="M1185.92 351.113C1189.91 351.698 1194.62 355.15 1192.3 359.147C1187.8 366.914 1176.17 390.336 1168.93 393.818C1156.78 391.186 1164.5 381.072 1168.89 374.338C1173.01 368.025 1179.67 353.741 1185.92 351.113Z" fill="#EA4A4A"/>
<path d="M1008.35 361.53C1011.28 361.562 1013.54 361.49 1015.72 364.145C1022.67 372.696 1030.32 381.065 1036.57 390.118C1039.08 393.748 1035.53 397.076 1032.89 398.948C1027.53 398.926 1021.34 392.229 1018.78 387.844C1013.54 378.851 997.579 370.645 1008.35 361.53Z" fill="#EA4A4A"/>
<path d="M266.793 842.855C268.238 841.877 269.328 841.078 271.185 841.486C277.141 842.815 283.387 843.827 289.149 845.609C291.461 846.323 290.71 848.961 289.972 850.662C287.334 852.47 282.306 851.68 279.745 850.658C274.493 848.562 264.222 850.433 266.793 842.855Z" fill="#EA4A4A"/>
</svg>
